<?xml version="1.0" encoding="UTF-8"?>
<!DOCTYPE svg PUBLIC "-//W3C//DTD SVG 1.1//EN" "http://www.w3.org/Graphics/SVG/1.1/DTD/svg11.dtd">
<svg xmlns="http://www.w3.org/2000/svg" version="1.1" width="320px" height="180px" style="shape-rendering:geometricPrecision; text-rendering:geometricPrecision; image-rendering:optimizeQuality; fill-rule:evenodd; clip-rule:evenodd" xmlns:xlink="http://www.w3.org/1999/xlink">
<g><path style="opacity:1" fill="#d8fbf8" d="M 319.5,73.5 C 319.5,108.833 319.5,144.167 319.5,179.5C 212.833,179.5 106.167,179.5 -0.5,179.5C -0.5,143.833 -0.5,108.167 -0.5,72.5C 1.75666,72.0383 3.75666,71.0383 5.5,69.5C 6.08605,69.7093 6.58605,70.0426 7,70.5C 8.69118,66.7873 11.5245,65.6206 15.5,67C 18.2652,69.9663 17.9318,72.633 14.5,75C 15.1905,76.0674 15.6905,77.2341 16,78.5C 18.0342,75.141 20.3676,74.8076 23,77.5C 25.5402,76.1235 27.5402,76.7902 29,79.5C 29.8498,81.01 30.6831,82.51 31.5,84C 30.9067,85.8817 29.5733,86.8817 27.5,87C 30.92,88.746 34.0867,90.9126 37,93.5C 37.7562,95.8087 37.2562,97.8087 35.5,99.5C 36.9448,101.063 38.6115,102.396 40.5,103.5C 41.6233,99.8527 43.9566,98.0193 47.5,98C 49.827,101.826 53.1603,104.159 57.5,105C 59.3589,106.558 60.8589,108.391 62,110.5C 63.6093,107.438 66.1093,105.438 69.5,104.5C 66.5721,100.698 67.2388,97.5317 71.5,95C 76.0281,92.5901 79.8615,93.4235 83,97.5C 83.3744,99.898 83.3744,102.231 83,104.5C 86.7888,100.782 90.4554,100.782 94,104.5C 94.9201,107.308 94.0867,109.475 91.5,111C 92,111.5 92.5,112 93,112.5C 95,109.833 97,109.833 99,112.5C 101.091,111.5 102.757,112.167 104,114.5C 106.867,112.118 107.034,109.452 104.5,106.5C 105.44,101.384 108.44,99.2174 113.5,100C 120.28,103.446 121.946,108.112 118.5,114C 119,114.5 119.5,115 120,115.5C 122.135,110.675 124.801,110.341 128,114.5C 128.624,116.464 128.124,118.131 126.5,119.5C 128.944,122.054 130.611,125.054 131.5,128.5C 132.167,128.833 132.833,129.167 133.5,129.5C 136.251,126.723 139.084,124.057 142,121.5C 143.333,122.167 144.667,122.833 146,123.5C 149.408,121.894 152.242,122.561 154.5,125.5C 158.308,126.436 161.975,127.77 165.5,129.5C 165.833,129.167 166.167,128.833 166.5,128.5C 163.141,121.394 165.475,117.227 173.5,116C 172.124,113.46 172.79,111.46 175.5,110C 170.094,107.181 170.261,105.014 176,103.5C 177.895,103.615 179.562,104.282 181,105.5C 180.621,107.075 180.788,108.575 181.5,110C 182.996,110.507 184.163,110.007 185,108.5C 185.834,105.828 186.668,103.161 187.5,100.5C 183.278,95.9923 183.611,91.8257 188.5,88C 190.701,87.1751 192.534,87.6751 194,89.5C 195.756,88.5787 195.923,87.412 194.5,86C 195.289,84.3745 196.289,82.8745 197.5,81.5C 196.855,80.354 196.022,79.354 195,78.5C 194.333,77.5 194.333,76.5 195,75.5C 196.833,73 198.667,70.5 200.5,68C 202.279,68.9791 203.945,68.6458 205.5,67C 204.692,66.6924 204.025,66.1924 203.5,65.5C 205.963,58.3406 209.963,57.8406 215.5,64C 215.167,64.3333 214.833,64.6667 214.5,65C 216.049,66.214 217.215,67.714 218,69.5C 219.702,76.2448 218.202,82.0782 213.5,87C 218.959,89.2637 222.292,93.2637 223.5,99C 226.376,99.4379 229.043,100.438 231.5,102C 233.539,104.374 235.872,106.374 238.5,108C 240.167,108.667 241.833,108.667 243.5,108C 248.532,103.12 254.199,101.953 260.5,104.5C 260.833,104.167 261.167,103.833 261.5,103.5C 257.924,95.3216 260.591,90.6549 269.5,89.5C 269.372,87.3453 269.872,85.3453 271,83.5C 275.596,79.2232 280.429,75.3898 285.5,72C 289.182,71.8433 291.182,73.6767 291.5,77.5C 292.5,77.5 293.5,77.5 294.5,77.5C 295.601,71.1925 298.434,70.1925 303,74.5C 304.597,79.9314 308.097,83.5981 313.5,85.5C 316.751,85.1319 317.751,83.6319 316.5,81C 316.759,79.7387 317.426,78.7387 318.5,78C 317.084,76.0849 317.418,74.5849 319.5,73.5 Z"/></g>
</svg>
