<?xml version="1.0" encoding="UTF-8"?>
<!DOCTYPE svg PUBLIC "-//W3C//DTD SVG 1.1//EN" "http://www.w3.org/Graphics/SVG/1.1/DTD/svg11.dtd">
<svg xmlns="http://www.w3.org/2000/svg" version="1.1" width="320px" height="180px" style="shape-rendering:geometricPrecision; text-rendering:geometricPrecision; image-rendering:optimizeQuality; fill-rule:evenodd; clip-rule:evenodd" xmlns:xlink="http://www.w3.org/1999/xlink">
<g><path style="opacity:1" fill="#d59843" d="M 319.5,120.5 C 319.5,126.167 319.5,131.833 319.5,137.5C 313.02,135.636 306.686,133.636 300.5,131.5C 296.775,129.653 292.775,128.319 288.5,127.5C 283.99,127.116 279.657,126.449 275.5,125.5C 279.858,122.313 284.858,120.479 290.5,120C 300.189,119.307 309.856,119.473 319.5,120.5 Z"/></g>
<g><path style="opacity:1" fill="#dc9d42" d="M -0.5,120.5 C 1.85684,120.337 4.19018,120.503 6.5,121C 12.8169,123.325 19.1502,125.158 25.5,126.5C 44.2091,135.022 62.5425,144.355 80.5,154.5C 81.6086,153.41 82.6086,153.41 83.5,154.5C 81.2351,155.647 78.9018,155.814 76.5,155C 70.1267,152.689 63.6267,150.855 57,149.5C 55.6305,151.203 53.9638,152.536 52,153.5C 40.2253,149.495 28.0586,145.661 15.5,142C 11.2165,140.337 6.88315,140.004 2.5,141C 3.30806,140.692 3.97473,140.192 4.5,139.5C 2.8614,138.678 1.19474,138.011 -0.5,137.5C -0.5,131.833 -0.5,126.167 -0.5,120.5 Z"/></g>
<g><path style="opacity:1" fill="#d89b45" d="M 130.5,128.5 C 136.83,128.773 142.83,130.606 148.5,134C 154.833,139 161.167,144 167.5,149C 152.789,144.596 138.122,140.096 123.5,135.5C 120.05,133.792 116.383,132.459 112.5,131.5C 105.187,130.23 97.854,129.063 90.5,128C 89.5842,127.722 88.9175,127.222 88.5,126.5C 92.6244,124.347 97.1244,123.347 102,123.5C 111.66,124.807 121.16,126.474 130.5,128.5 Z"/></g>
<g><path style="opacity:1" fill="#bd762b" d="M 186.5,126.5 C 184.5,126.5 182.5,126.5 180.5,126.5C 176.684,127.401 173.017,128.901 169.5,131C 172.472,130.948 175.305,130.114 178,128.5C 179.138,128.989 180.305,129.322 181.5,129.5C 186.579,133.863 192.579,136.363 199.5,137C 206.492,140.271 213.492,143.438 220.5,146.5C 223.166,144.165 226.166,142.331 229.5,141C 236.139,139.242 242.805,137.575 249.5,136C 249.833,135.667 250.167,135.333 250.5,135C 249.207,134.51 247.873,134.343 246.5,134.5C 256.392,132.538 266.059,129.538 275.5,125.5C 279.657,126.449 283.99,127.116 288.5,127.5C 289.058,128.79 290.058,129.623 291.5,130C 287.056,132.482 282.722,135.149 278.5,138C 277.304,138.654 277.304,139.154 278.5,139.5C 285.001,134.584 292.334,131.918 300.5,131.5C 306.686,133.636 313.02,135.636 319.5,137.5C 319.5,151.5 319.5,165.5 319.5,179.5C 212.833,179.5 106.167,179.5 -0.5,179.5C -0.5,165.5 -0.5,151.5 -0.5,137.5C 1.19474,138.011 2.8614,138.678 4.5,139.5C 3.97473,140.192 3.30806,140.692 2.5,141C 6.88315,140.004 11.2165,140.337 15.5,142C 28.0586,145.661 40.2253,149.495 52,153.5C 53.9638,152.536 55.6305,151.203 57,149.5C 63.6267,150.855 70.1267,152.689 76.5,155C 78.9018,155.814 81.2351,155.647 83.5,154.5C 82.6086,153.41 81.6086,153.41 80.5,154.5C 62.5425,144.355 44.2091,135.022 25.5,126.5C 37.8594,127.086 50.1927,128.086 62.5,129.5C 71.2491,129.049 79.9158,128.049 88.5,126.5C 88.9175,127.222 89.5842,127.722 90.5,128C 97.854,129.063 105.187,130.23 112.5,131.5C 112.047,132.458 111.381,133.292 110.5,134C 114.751,135.195 119.085,135.695 123.5,135.5C 138.122,140.096 152.789,144.596 167.5,149C 161.167,144 154.833,139 148.5,134C 142.83,130.606 136.83,128.773 130.5,128.5C 146.347,127.832 162.181,126.832 178,125.5C 181.021,125.502 183.854,125.836 186.5,126.5 Z"/></g>
<g><path style="opacity:1" fill="#e7c16f" d="M 180.5,126.5 C 180.557,127.609 180.89,128.609 181.5,129.5C 180.305,129.322 179.138,128.989 178,128.5C 175.305,130.114 172.472,130.948 169.5,131C 173.017,128.901 176.684,127.401 180.5,126.5 Z"/></g>
<g><path style="opacity:1" fill="#d49742" d="M 180.5,126.5 C 182.5,126.5 184.5,126.5 186.5,126.5C 200.941,128.288 215.274,130.788 229.5,134C 235.157,134.499 240.824,134.666 246.5,134.5C 247.873,134.343 249.207,134.51 250.5,135C 250.167,135.333 249.833,135.667 249.5,136C 242.805,137.575 236.139,139.242 229.5,141C 226.166,142.331 223.166,144.165 220.5,146.5C 213.492,143.438 206.492,140.271 199.5,137C 192.579,136.363 186.579,133.863 181.5,129.5C 180.89,128.609 180.557,127.609 180.5,126.5 Z"/></g>
<g><path style="opacity:1" fill="#e7c16f" d="M 288.5,127.5 C 292.775,128.319 296.775,129.653 300.5,131.5C 292.334,131.918 285.001,134.584 278.5,139.5C 277.304,139.154 277.304,138.654 278.5,138C 282.722,135.149 287.056,132.482 291.5,130C 290.058,129.623 289.058,128.79 288.5,127.5 Z"/></g>
<g><path style="opacity:1" fill="#e7c16f" d="M 112.5,131.5 C 116.383,132.459 120.05,133.792 123.5,135.5C 119.085,135.695 114.751,135.195 110.5,134C 111.381,133.292 112.047,132.458 112.5,131.5 Z"/></g>
<g><path style="opacity:1" fill="#e3ceac" d="M 175.5,133.5 C 176.043,133.56 176.376,133.893 176.5,134.5C 175.635,135.583 174.635,135.749 173.5,135C 174.416,134.722 175.082,134.222 175.5,133.5 Z"/></g>
<g><path style="opacity:1" fill="#cdb497" d="M 174.5,136.5 C 175.458,136.953 176.292,137.619 177,138.5C 177.556,136.405 178.056,136.238 178.5,138C 176.654,143.671 174.654,144.171 172.5,139.5C 173.193,138.482 173.859,137.482 174.5,136.5 Z"/></g>
<g><path style="opacity:1" fill="#e0a44a" d="M 72.5,142.5 C 72.9169,141.876 73.5836,141.543 74.5,141.5C 81.7007,143.954 89.0341,146.121 96.5,148C 94.3213,149.142 91.9879,149.975 89.5,150.5C 83.6863,148.093 78.0196,145.426 72.5,142.5 Z"/></g>
</svg>
