<?xml version="1.0" encoding="UTF-8"?>
<!DOCTYPE svg PUBLIC "-//W3C//DTD SVG 1.1//EN" "http://www.w3.org/Graphics/SVG/1.1/DTD/svg11.dtd">
<svg xmlns="http://www.w3.org/2000/svg" version="1.1" width="320px" height="180px" style="shape-rendering:geometricPrecision; text-rendering:geometricPrecision; image-rendering:optimizeQuality; fill-rule:evenodd; clip-rule:evenodd" xmlns:xlink="http://www.w3.org/1999/xlink">
<g><path style="opacity:1" fill="#bf9472" d="M 176.5,47.5 C 172.18,48.3228 169.68,50.9895 169,55.5C 168.039,66.4917 167.706,77.4917 168,88.5C 168.333,87.5 168.667,86.5 169,85.5C 169.014,91.6835 170.014,97.6835 172,103.5C 174.916,105.013 177.582,104.68 180,102.5C 180.145,88.3835 181.478,74.3835 184,60.5C 185.955,59.5467 187.622,58.2134 189,56.5C 188.983,58.5676 187.983,60.2343 186,61.5C 185.583,67.0078 185.083,72.5078 184.5,78C 184.629,79.9806 185.296,81.6472 186.5,83C 185.552,83.4828 184.552,83.6495 183.5,83.5C 183.334,90.5079 183.5,97.5079 184,104.5C 184.5,105 185,105.5 185.5,106C 190.826,106.852 196.16,107.186 201.5,107C 202.357,106.311 203.023,105.478 203.5,104.5C 202.503,102.189 202.003,99.8557 202,97.5C 203.796,100.927 205.963,104.094 208.5,107C 211.168,107.567 213.834,108.067 216.5,108.5C 216.351,107.448 216.517,106.448 217,105.5C 217.368,106.91 218.201,107.91 219.5,108.5C 220.167,103.349 220.834,98.3489 221.5,93.5C 221.5,95.1667 221.5,96.8333 221.5,98.5C 221.335,101.518 221.502,104.518 222,107.5C 222.383,108.056 222.883,108.389 223.5,108.5C 223.833,109.167 224.167,109.833 224.5,110.5C 220.471,110.149 216.638,110.815 213,112.5C 211.238,112.056 211.405,111.556 213.5,111C 205.223,109.748 196.89,108.914 188.5,108.5C 185.408,108.507 182.408,109.007 179.5,110C 177.667,110.5 176.5,111.667 176,113.5C 175.333,112.167 174.667,110.833 174,109.5C 172.605,110.43 171.105,110.43 169.5,109.5C 166.226,110.277 164.893,112.11 165.5,115C 174.49,116.598 183.49,116.765 192.5,115.5C 194.187,115.76 195.687,116.427 197,117.5C 199.419,116.544 201.919,116.544 204.5,117.5C 205.994,117.291 207.161,116.624 208,115.5C 209.622,117.547 211.788,118.547 214.5,118.5C 218.671,117.213 222.838,117.213 227,118.5C 228.711,118.561 230.044,117.894 231,116.5C 231.383,117.056 231.883,117.389 232.5,117.5C 235.287,118.477 238.287,118.81 241.5,118.5C 241.167,119.167 240.833,119.833 240.5,120.5C 239.739,121.391 238.739,122.058 237.5,122.5C 232.006,120.781 226.34,119.781 220.5,119.5C 217.678,119.552 215.011,120.219 212.5,121.5C 211.205,120.902 209.872,120.402 208.5,120C 197.3,119.591 186.133,118.757 175,117.5C 170,118.033 165.167,119.199 160.5,121C 161.716,122.74 163.382,123.74 165.5,124C 165.167,124.333 164.833,124.667 164.5,125C 160.232,125.031 156.232,126.031 152.5,128C 161.192,129.444 169.859,130.777 178.5,132C 176.754,132.471 175.087,133.138 173.5,134C 183.928,134.092 194.262,135.092 204.5,137C 187.836,137.857 171.169,138.191 154.5,138C 149.104,137.277 143.771,136.277 138.5,135C 136.548,133.588 135.215,131.755 134.5,129.5C 137.923,127.372 141.423,125.372 145,123.5C 145.333,123.833 145.667,124.167 146,124.5C 146.824,123.192 147.324,121.692 147.5,120C 150.833,119.333 154.167,118.667 157.5,118C 157.577,113.083 160.077,109.583 165,107.5C 163.379,90.3959 163.046,73.0625 164,55.5C 165.589,48.9489 169.756,46.2822 176.5,47.5 Z"/></g>
<g><path style="opacity:1" fill="#d7b594" d="M 176.5,47.5 C 180.833,47.5 185.167,47.5 189.5,47.5C 189.611,48.1174 189.944,48.6174 190.5,49C 194.558,49.3404 198.558,50.0071 202.5,51C 201.833,51.6667 201.167,52.3333 200.5,53C 202.676,53.1629 204.509,53.9963 206,55.5C 207.771,66.3015 209.605,76.9682 211.5,87.5C 211.833,88.1667 212.167,88.8333 212.5,89.5C 214.173,94.0232 215.34,98.6899 216,103.5C 217.986,95.025 219.319,86.3583 220,77.5C 220.717,76.9558 221.217,76.2891 221.5,75.5C 222.117,75.6107 222.617,75.944 223,76.5C 223.667,81.8333 223.667,87.1667 223,92.5C 222.617,93.056 222.117,93.3893 221.5,93.5C 220.834,98.3489 220.167,103.349 219.5,108.5C 218.201,107.91 217.368,106.91 217,105.5C 216.517,106.448 216.351,107.448 216.5,108.5C 213.834,108.067 211.168,107.567 208.5,107C 205.963,104.094 203.796,100.927 202,97.5C 202.003,99.8557 202.503,102.189 203.5,104.5C 203.023,105.478 202.357,106.311 201.5,107C 196.16,107.186 190.826,106.852 185.5,106C 185,105.5 184.5,105 184,104.5C 183.5,97.5079 183.334,90.5079 183.5,83.5C 184.552,83.6495 185.552,83.4828 186.5,83C 185.296,81.6472 184.629,79.9806 184.5,78C 185.083,72.5078 185.583,67.0078 186,61.5C 187.983,60.2343 188.983,58.5676 189,56.5C 187.622,58.2134 185.955,59.5467 184,60.5C 181.478,74.3835 180.145,88.3835 180,102.5C 177.582,104.68 174.916,105.013 172,103.5C 170.014,97.6835 169.014,91.6835 169,85.5C 168.667,86.5 168.333,87.5 168,88.5C 167.706,77.4917 168.039,66.4917 169,55.5C 169.68,50.9895 172.18,48.3228 176.5,47.5 Z"/></g>
<g><path style="opacity:1" fill="#e6d5b2" d="M 189.5,47.5 C 194.178,48.169 198.844,49.0023 203.5,50C 204.931,50.4652 206.097,51.2986 207,52.5C 210.207,63.8836 211.707,75.5502 211.5,87.5C 209.605,76.9682 207.771,66.3015 206,55.5C 204.509,53.9963 202.676,53.1629 200.5,53C 201.167,52.3333 201.833,51.6667 202.5,51C 198.558,50.0071 194.558,49.3404 190.5,49C 189.944,48.6174 189.611,48.1174 189.5,47.5 Z"/></g>
<g><path style="opacity:1" fill="#d6b593" d="M 220.5,73.5 C 220.833,74.1667 221.167,74.8333 221.5,75.5C 220.209,75.7373 219.209,75.404 218.5,74.5C 218.842,73.6618 219.508,73.3284 220.5,73.5 Z"/></g>
<g><path style="opacity:1" fill="#e6d5b2" d="M 220.5,73.5 C 222.017,73.5106 223.184,74.1772 224,75.5C 224.825,86.3414 224.659,97.008 223.5,107.5C 223.666,103.154 223.499,98.8206 223,94.5C 222.79,96.0581 222.29,97.3915 221.5,98.5C 221.5,96.8333 221.5,95.1667 221.5,93.5C 222.117,93.3893 222.617,93.056 223,92.5C 223.667,87.1667 223.667,81.8333 223,76.5C 222.617,75.944 222.117,75.6107 221.5,75.5C 221.167,74.8333 220.833,74.1667 220.5,73.5 Z"/></g>
<g><path style="opacity:1" fill="#bf9472" d="M 218.5,74.5 C 219.209,75.404 220.209,75.7373 221.5,75.5C 221.217,76.2891 220.717,76.9558 220,77.5C 219.319,86.3583 217.986,95.025 216,103.5C 215.34,98.6899 214.173,94.0232 212.5,89.5C 213.794,90.2899 214.961,91.2899 216,92.5C 216.333,86.8333 216.667,81.1667 217,75.5C 217.383,74.944 217.883,74.6107 218.5,74.5 Z"/></g>
<g><path style="opacity:1" fill="#bf9472" d="M 80.5,89.5 C 80.1667,90.1667 79.8333,90.8333 79.5,91.5C 76.5711,96.6108 78.2377,98.9442 84.5,98.5C 84.5,99.1667 84.5,99.8333 84.5,100.5C 79.3719,99.2209 74.3719,99.7209 69.5,102C 67.0426,103.512 67.0426,104.846 69.5,106C 67.0261,106.113 65.0261,107.113 63.5,109C 67.2969,110.797 71.1302,110.631 75,108.5C 76.7659,109.233 78.5992,109.567 80.5,109.5C 82.1667,109.5 83.8333,109.5 85.5,109.5C 85.5,109.833 85.5,110.167 85.5,110.5C 81.4862,110.334 77.4862,110.501 73.5,111C 72.0337,111.635 70.7003,112.469 69.5,113.5C 68.3044,113.154 68.3044,112.654 69.5,112C 68.8333,111.833 68.1667,111.667 67.5,111.5C 64.1135,112.753 60.7802,112.753 57.5,111.5C 57.3893,110.883 57.056,110.383 56.5,110C 58.5767,107.262 61.2433,105.262 64.5,104C 65.7965,99.5144 68.7965,97.181 73.5,97C 75.8102,95.3626 77.3102,93.196 78,90.5C 78.6708,89.7476 79.5041,89.4142 80.5,89.5 Z"/></g>
<g><path style="opacity:1" fill="#e6d5b2" d="M 80.5,89.5 C 82.1703,89.7512 83.6703,90.4178 85,91.5C 85.7958,94.0385 85.6291,96.3718 84.5,98.5C 83.5342,95.5314 81.8675,93.198 79.5,91.5C 79.8333,90.8333 80.1667,90.1667 80.5,89.5 Z"/></g>
<g><path style="opacity:1" fill="#d8b796" d="M 79.5,91.5 C 81.8675,93.198 83.5342,95.5314 84.5,98.5C 78.2377,98.9442 76.5711,96.6108 79.5,91.5 Z"/></g>
<g><path style="opacity:1" fill="#d7b695" d="M 223.5,107.5 C 223.5,107.833 223.5,108.167 223.5,108.5C 222.883,108.389 222.383,108.056 222,107.5C 221.502,104.518 221.335,101.518 221.5,98.5C 222.29,97.3915 222.79,96.0581 223,94.5C 223.499,98.8206 223.666,103.154 223.5,107.5 Z"/></g>
<g><path style="opacity:1" fill="#d6b594" d="M 84.5,100.5 C 85.1667,100.5 85.5,100.833 85.5,101.5C 84.8179,104.881 83.1512,107.548 80.5,109.5C 78.5992,109.567 76.7659,109.233 75,108.5C 71.1302,110.631 67.2969,110.797 63.5,109C 65.0261,107.113 67.0261,106.113 69.5,106C 67.0426,104.846 67.0426,103.512 69.5,102C 74.3719,99.7209 79.3719,99.2209 84.5,100.5 Z"/></g>
<g><path style="opacity:1" fill="#d6b493" d="M 269.5,99.5 C 274.306,100.593 279.306,101.259 284.5,101.5C 288.141,101.652 290.807,103.318 292.5,106.5C 291.07,106.421 289.736,106.754 288.5,107.5C 287.378,106.37 286.044,105.703 284.5,105.5C 279.308,105.091 274.308,105.758 269.5,107.5C 268.167,107.5 266.833,107.5 265.5,107.5C 264.359,105.549 264.359,103.549 265.5,101.5C 266.514,100.326 267.847,99.6596 269.5,99.5 Z"/></g>
<g><path style="opacity:1" fill="#e6d5b2" d="M 269.5,99.5 C 274.179,99.3342 278.845,99.5008 283.5,100C 284.056,100.383 284.389,100.883 284.5,101.5C 279.306,101.259 274.306,100.593 269.5,99.5 Z"/></g>
<g><path style="opacity:1" fill="#e6d5b2" d="M 85.5,101.5 C 86.8333,104.167 86.8333,106.833 85.5,109.5C 83.8333,109.5 82.1667,109.5 80.5,109.5C 83.1512,107.548 84.8179,104.881 85.5,101.5 Z"/></g>
<g><path style="opacity:1" fill="#c09473" d="M 265.5,101.5 C 264.359,103.549 264.359,105.549 265.5,107.5C 262.654,107.03 260.321,107.863 258.5,110C 262.852,110.419 263.185,111.086 259.5,112C 260.219,114.556 261.886,115.723 264.5,115.5C 265.167,115.5 265.5,115.833 265.5,116.5C 261.361,115.903 258.361,117.403 256.5,121C 256.759,122.261 257.426,123.261 258.5,124C 258.167,124.333 257.833,124.667 257.5,125C 259.81,125.497 262.143,125.663 264.5,125.5C 262.031,126.317 259.365,126.817 256.5,127C 256.752,130.355 258.419,132.688 261.5,134C 261.167,134.333 260.833,134.667 260.5,135C 264.672,136.291 267.839,135.124 270,131.5C 270.374,132.416 270.874,133.25 271.5,134C 273.5,134.333 275.5,134.667 277.5,135C 274.5,135.333 271.5,135.667 268.5,136C 270.904,136.508 271.571,137.675 270.5,139.5C 268.335,139.349 266.002,138.683 263.5,137.5C 261.228,138.441 259.228,139.774 257.5,141.5C 255.167,140.167 252.833,138.833 250.5,137.5C 248.999,138.752 247.332,139.752 245.5,140.5C 243.571,139.62 241.737,138.62 240,137.5C 236.211,138.562 232.377,138.729 228.5,138C 227.167,137.333 227.167,136.667 228.5,136C 227.167,135.667 225.833,135.333 224.5,135C 229.167,135 233.833,135 238.5,135C 241.167,134.333 243.833,133.667 246.5,133C 247.056,132.617 247.389,132.117 247.5,131.5C 249.671,129.5 252.004,127.666 254.5,126C 253.427,122.888 253.427,119.721 254.5,116.5C 256.346,116.778 257.68,116.111 258.5,114.5C 255.617,111.014 256.117,108.014 260,105.5C 260.414,105.957 260.914,106.291 261.5,106.5C 262.612,104.581 263.946,102.914 265.5,101.5 Z"/></g>
<g><path style="opacity:1" fill="#bf9472" d="M 284.5,105.5 C 286.044,105.703 287.378,106.37 288.5,107.5C 289.736,106.754 291.07,106.421 292.5,106.5C 292.5,106.833 292.5,107.167 292.5,107.5C 289.683,107.801 289.016,109.134 290.5,111.5C 291.689,112.429 293.022,112.762 294.5,112.5C 294.5,112.833 294.5,113.167 294.5,113.5C 289.69,113.686 289.357,114.686 293.5,116.5C 293.5,116.833 293.5,117.167 293.5,117.5C 290.306,117.176 289.306,118.342 290.5,121C 289.692,121.308 289.025,121.808 288.5,122.5C 290.396,123.466 292.396,123.799 294.5,123.5C 294.5,123.833 294.5,124.167 294.5,124.5C 289.86,123.736 285.86,124.903 282.5,128C 279.5,128.667 276.5,128.667 273.5,128C 275.058,127.79 276.391,127.29 277.5,126.5C 280.237,125.969 282.904,125.136 285.5,124C 285.262,121.438 286.262,119.104 288.5,117C 287.643,116.311 286.977,115.478 286.5,114.5C 286.61,112.902 286.943,111.235 287.5,109.5C 286.476,108.148 285.476,106.815 284.5,105.5 Z"/></g>
<g><path style="opacity:1" fill="#bf9472" d="M 265.5,107.5 C 266.833,107.5 268.167,107.5 269.5,107.5C 268.341,108.74 267.341,110.074 266.5,111.5C 266.567,110.041 266.234,108.708 265.5,107.5 Z"/></g>
<g><path style="opacity:1" fill="#dcbf9d" d="M 292.5,107.5 C 293.479,108.765 294.479,110.099 295.5,111.5C 295.376,112.107 295.043,112.44 294.5,112.5C 293.022,112.762 291.689,112.429 290.5,111.5C 289.016,109.134 289.683,107.801 292.5,107.5 Z"/></g>
<g><path style="opacity:1" fill="#d7b594" d="M 224.5,110.5 C 225.396,109.494 226.062,109.494 226.5,110.5C 228.033,112.245 230.033,113.245 232.5,113.5C 234.153,113.66 235.486,114.326 236.5,115.5C 236.611,116.117 236.944,116.617 237.5,117C 235.866,117.494 234.199,117.66 232.5,117.5C 231.883,117.389 231.383,117.056 231,116.5C 230.044,117.894 228.711,118.561 227,118.5C 222.838,117.213 218.671,117.213 214.5,118.5C 211.788,118.547 209.622,117.547 208,115.5C 207.161,116.624 205.994,117.291 204.5,117.5C 201.919,116.544 199.419,116.544 197,117.5C 195.687,116.427 194.187,115.76 192.5,115.5C 183.49,116.765 174.49,116.598 165.5,115C 164.893,112.11 166.226,110.277 169.5,109.5C 171.105,110.43 172.605,110.43 174,109.5C 174.667,110.833 175.333,112.167 176,113.5C 176.5,111.667 177.667,110.5 179.5,110C 182.408,109.007 185.408,108.507 188.5,108.5C 196.89,108.914 205.223,109.748 213.5,111C 211.405,111.556 211.238,112.056 213,112.5C 216.638,110.815 220.471,110.149 224.5,110.5 Z"/></g>
<g><path style="opacity:1" fill="#e6d5b2" d="M 34.5,111.5 C 41.3459,110.356 48.3459,110.356 55.5,111.5C 48.6719,112.259 41.6719,112.259 34.5,111.5 Z"/></g>
<g><path style="opacity:1" fill="#d7b594" d="M 85.5,110.5 C 85.2041,112.403 84.5375,114.07 83.5,115.5C 81.9826,115.489 80.8159,114.823 80,113.5C 79.6258,114.416 79.1258,115.25 78.5,116C 76.2115,116.822 73.8782,117.489 71.5,118C 73.433,118.251 75.2663,118.751 77,119.5C 79.2276,117.887 81.7276,117.22 84.5,117.5C 84.6107,118.117 84.944,118.617 85.5,119C 82.4985,119.738 79.8318,120.904 77.5,122.5C 64.3985,122.776 51.3985,121.276 38.5,118C 41.8623,116.085 45.529,115.085 49.5,115C 45.7387,114.262 42.0721,114.595 38.5,116C 35.7606,118.181 32.7606,119.681 29.5,120.5C 27.0971,120.448 24.7638,120.781 22.5,121.5C 21.2652,121.279 20.2652,120.612 19.5,119.5C 17.8045,120.174 16.1379,120.841 14.5,121.5C 14.3893,120.883 14.056,120.383 13.5,120C 16.0993,118.205 18.7659,116.705 21.5,115.5C 23.5994,114.388 25.9327,113.721 28.5,113.5C 30.3797,113.771 31.713,113.104 32.5,111.5C 33.1667,111.5 33.8333,111.5 34.5,111.5C 41.6719,112.259 48.6719,112.259 55.5,111.5C 56.1667,111.5 56.8333,111.5 57.5,111.5C 60.7802,112.753 64.1135,112.753 67.5,111.5C 68.1667,111.667 68.8333,111.833 69.5,112C 68.3044,112.654 68.3044,113.154 69.5,113.5C 70.7003,112.469 72.0337,111.635 73.5,111C 77.4862,110.501 81.4862,110.334 85.5,110.5 Z"/></g>
<g><path style="opacity:1" fill="#e6d5b2" d="M 85.5,110.5 C 86.4614,112.265 86.7947,114.265 86.5,116.5C 85.209,116.737 84.209,116.404 83.5,115.5C 84.5375,114.07 85.2041,112.403 85.5,110.5 Z"/></g>
<g><path style="opacity:1" fill="#e6d5b2" d="M 226.5,110.5 C 228.967,110.755 230.967,111.755 232.5,113.5C 230.033,113.245 228.033,112.245 226.5,110.5 Z"/></g>
<g><path style="opacity:1" fill="#bf9472" d="M 32.5,111.5 C 31.713,113.104 30.3797,113.771 28.5,113.5C 29.287,111.896 30.6203,111.229 32.5,111.5 Z"/></g>
<g><path style="opacity:1" fill="#d5b492" d="M 265.5,107.5 C 266.234,108.708 266.567,110.041 266.5,111.5C 265.4,112.605 264.733,113.938 264.5,115.5C 261.886,115.723 260.219,114.556 259.5,112C 263.185,111.086 262.852,110.419 258.5,110C 260.321,107.863 262.654,107.03 265.5,107.5 Z"/></g>
<g><path style="opacity:1" fill="#bf9472" d="M 83.5,115.5 C 84.209,116.404 85.209,116.737 86.5,116.5C 86.1583,117.338 85.4916,117.672 84.5,117.5C 81.7276,117.22 79.2276,117.887 77,119.5C 75.2663,118.751 73.433,118.251 71.5,118C 73.8782,117.489 76.2115,116.822 78.5,116C 79.1258,115.25 79.6258,114.416 80,113.5C 80.8159,114.823 81.9826,115.489 83.5,115.5 Z"/></g>
<g><path style="opacity:1" fill="#d6b593" d="M 294.5,113.5 C 293.89,114.391 293.557,115.391 293.5,116.5C 289.357,114.686 289.69,113.686 294.5,113.5 Z"/></g>
<g><path style="opacity:1" fill="#bf9472" d="M 77.5,122.5 C 81.1402,121.727 84.8068,121.06 88.5,120.5C 89.5,121.167 90.5,121.833 91.5,122.5C 90.5,122.5 89.5,122.5 88.5,122.5C 78.1341,123.28 68.1341,125.447 58.5,129C 61.5,129.5 64.5,130 67.5,130.5C 69.0441,130.21 70.3774,129.544 71.5,128.5C 81.0439,130.397 90.7106,131.397 100.5,131.5C 102.833,130.833 105.167,130.167 107.5,129.5C 115.58,131.354 123.58,133.52 131.5,136C 125.336,136.528 119.169,137.028 113,137.5C 105.303,136.16 97.6364,134.494 90,132.5C 88.2341,133.233 86.4008,133.567 84.5,133.5C 85.8595,131.991 85.3595,131.324 83,131.5C 77.5268,132.063 72.0268,132.23 66.5,132C 68.5,132.333 70.5,132.667 72.5,133C 69.397,134.725 66.0636,135.892 62.5,136.5C 58.9472,134.52 55.2805,133.854 51.5,134.5C 50.4777,134.145 49.811,133.478 49.5,132.5C 52.2925,130.546 54.9592,128.379 57.5,126C 48.4881,122.553 39.1548,120.72 29.5,120.5C 32.7606,119.681 35.7606,118.181 38.5,116C 42.0721,114.595 45.7387,114.262 49.5,115C 45.529,115.085 41.8623,116.085 38.5,118C 51.3985,121.276 64.3985,122.776 77.5,122.5 Z"/></g>
<g><path style="opacity:1" fill="#bf9472" d="M 21.5,115.5 C 18.7659,116.705 16.0993,118.205 13.5,120C 14.056,120.383 14.3893,120.883 14.5,121.5C 10.6727,121.44 10.006,122.607 12.5,125C 15.6883,126.316 19.0217,126.816 22.5,126.5C 23.1667,126.5 23.8333,126.5 24.5,126.5C 24.5,126.833 24.5,127.167 24.5,127.5C 23.8333,127.5 23.5,127.833 23.5,128.5C 21.9317,127.527 20.265,127.36 18.5,128C 20.2464,128.471 21.913,129.138 23.5,130C 20.7724,131.086 18.1057,131.42 15.5,131C 17.8302,133.167 20.4968,134.834 23.5,136C 20.039,136.874 17.039,136.04 14.5,133.5C 10.3421,135.29 6.00881,136.29 1.5,136.5C 1.5,135.5 1.5,134.5 1.5,133.5C 3.65472,133.628 5.65472,133.128 7.5,132C 3.30464,127.076 3.97131,122.743 9.5,119C 13.2281,116.973 17.2281,115.807 21.5,115.5 Z"/></g>
<g><path style="opacity:1" fill="#e6d5b2" d="M 236.5,115.5 C 238.674,115.75 240.341,116.75 241.5,118.5C 238.287,118.81 235.287,118.477 232.5,117.5C 234.199,117.66 235.866,117.494 237.5,117C 236.944,116.617 236.611,116.117 236.5,115.5 Z"/></g>
<g><path style="opacity:1" fill="#e6d5b2" d="M 86.5,116.5 C 87.3636,117.688 88.3636,118.855 89.5,120C 89.2716,120.399 88.9382,120.565 88.5,120.5C 84.8068,121.06 81.1402,121.727 77.5,122.5C 79.8318,120.904 82.4985,119.738 85.5,119C 84.944,118.617 84.6107,118.117 84.5,117.5C 85.4916,117.672 86.1583,117.338 86.5,116.5 Z"/></g>
<g><path style="opacity:1" fill="#d4b190" d="M 265.5,116.5 C 265.833,116.5 266.167,116.5 266.5,116.5C 268.931,118.068 268.931,119.568 266.5,121C 268.811,121.236 270.811,122.069 272.5,123.5C 272.167,124.167 271.833,124.833 271.5,125.5C 269.167,125.5 266.833,125.5 264.5,125.5C 262.143,125.663 259.81,125.497 257.5,125C 257.833,124.667 258.167,124.333 258.5,124C 257.426,123.261 256.759,122.261 256.5,121C 258.361,117.403 261.361,115.903 265.5,116.5 Z"/></g>
<g><path style="opacity:1" fill="#e6d5b2" d="M 266.5,116.5 C 267.496,116.414 268.329,116.748 269,117.5C 270.421,119.405 271.588,121.405 272.5,123.5C 270.811,122.069 268.811,121.236 266.5,121C 268.931,119.568 268.931,118.068 266.5,116.5 Z"/></g>
<g><path style="opacity:1" fill="#d7b594" d="M 240.5,120.5 C 241.72,122.05 241.72,123.716 240.5,125.5C 233.87,124.986 227.203,124.82 220.5,125C 220.07,124.08 219.736,123.247 219.5,122.5C 218.692,122.808 218.025,123.308 217.5,124C 207.733,124.857 198.066,124.19 188.5,122C 185.802,118.547 184.135,118.881 183.5,123C 179.152,123.573 174.819,124.24 170.5,125C 184.827,126.468 199.16,126.801 213.5,126C 215.087,126.862 216.754,127.529 218.5,128C 217.549,128.718 217.383,129.551 218,130.5C 221.455,125.478 226.122,125.145 232,129.5C 232.374,128.584 232.874,127.75 233.5,127C 236.146,126.503 238.813,126.336 241.5,126.5C 242.911,128.914 244.911,130.581 247.5,131.5C 247.389,132.117 247.056,132.617 246.5,133C 243.833,133.667 241.167,134.333 238.5,135C 233.833,135 229.167,135 224.5,135C 225.833,135.333 227.167,135.667 228.5,136C 227.167,136.667 227.167,137.333 228.5,138C 232.377,138.729 236.211,138.562 240,137.5C 241.737,138.62 243.571,139.62 245.5,140.5C 247.332,139.752 248.999,138.752 250.5,137.5C 252.833,138.833 255.167,140.167 257.5,141.5C 259.228,139.774 261.228,138.441 263.5,137.5C 266.002,138.683 268.335,139.349 270.5,139.5C 271.571,137.675 270.904,136.508 268.5,136C 271.5,135.667 274.5,135.333 277.5,135C 275.5,134.667 273.5,134.333 271.5,134C 270.874,133.25 270.374,132.416 270,131.5C 267.839,135.124 264.672,136.291 260.5,135C 260.833,134.667 261.167,134.333 261.5,134C 258.419,132.688 256.752,130.355 256.5,127C 259.365,126.817 262.031,126.317 264.5,125.5C 266.833,125.5 269.167,125.5 271.5,125.5C 273.379,126.341 275.379,126.675 277.5,126.5C 276.391,127.29 275.058,127.79 273.5,128C 276.5,128.667 279.5,128.667 282.5,128C 285.86,124.903 289.86,123.736 294.5,124.5C 294.833,124.5 295.167,124.5 295.5,124.5C 295.611,125.117 295.944,125.617 296.5,126C 295.167,126.333 293.833,126.667 292.5,127C 295.793,127.826 299.126,128.326 302.5,128.5C 302.833,128.5 303.167,128.5 303.5,128.5C 299.541,130.829 295.874,133.663 292.5,137C 296.936,134.619 301.602,132.453 306.5,130.5C 309.187,135.894 313.521,137.894 319.5,136.5C 319.5,150.833 319.5,165.167 319.5,179.5C 212.833,179.5 106.167,179.5 -0.5,179.5C -0.5,165.167 -0.5,150.833 -0.5,136.5C 0.166667,136.5 0.833333,136.5 1.5,136.5C 6.00881,136.29 10.3421,135.29 14.5,133.5C 17.039,136.04 20.039,136.874 23.5,136C 20.4968,134.834 17.8302,133.167 15.5,131C 18.1057,131.42 20.7724,131.086 23.5,130C 21.913,129.138 20.2464,128.471 18.5,128C 20.265,127.36 21.9317,127.527 23.5,128.5C 25.9278,130.043 28.5944,131.043 31.5,131.5C 31.5,132.5 31.5,133.5 31.5,134.5C 29.6968,135.046 28.0302,135.88 26.5,137C 27.263,137.944 28.263,138.444 29.5,138.5C 31.6363,137.985 33.803,137.651 36,137.5C 42.7767,139.069 49.61,140.402 56.5,141.5C 57.737,141.444 58.737,140.944 59.5,140C 55.8211,139.974 52.4878,139.14 49.5,137.5C 48.5,136.833 47.5,136.167 46.5,135.5C 47.9063,135.027 48.573,134.027 48.5,132.5C 48.8333,132.5 49.1667,132.5 49.5,132.5C 49.811,133.478 50.4777,134.145 51.5,134.5C 55.2805,133.854 58.9472,134.52 62.5,136.5C 66.0636,135.892 69.397,134.725 72.5,133C 70.5,132.667 68.5,132.333 66.5,132C 72.0268,132.23 77.5268,132.063 83,131.5C 85.3595,131.324 85.8595,131.991 84.5,133.5C 86.4008,133.567 88.2341,133.233 90,132.5C 97.6364,134.494 105.303,136.16 113,137.5C 119.169,137.028 125.336,136.528 131.5,136C 123.58,133.52 115.58,131.354 107.5,129.5C 116.326,128.856 125.326,128.856 134.5,129.5C 135.215,131.755 136.548,133.588 138.5,135C 143.771,136.277 149.104,137.277 154.5,138C 171.169,138.191 187.836,137.857 204.5,137C 194.262,135.092 183.928,134.092 173.5,134C 175.087,133.138 176.754,132.471 178.5,132C 169.859,130.777 161.192,129.444 152.5,128C 156.232,126.031 160.232,125.031 164.5,125C 164.833,124.667 165.167,124.333 165.5,124C 163.382,123.74 161.716,122.74 160.5,121C 165.167,119.199 170,118.033 175,117.5C 186.133,118.757 197.3,119.591 208.5,120C 209.872,120.402 211.205,120.902 212.5,121.5C 215.011,120.219 217.678,119.552 220.5,119.5C 226.34,119.781 232.006,120.781 237.5,122.5C 238.739,122.058 239.739,121.391 240.5,120.5 Z"/></g>
<g><path style="opacity:1" fill="#d9b998" d="M 293.5,117.5 C 294.947,118.134 295.613,119.301 295.5,121C 295.472,122.07 295.139,122.903 294.5,123.5C 292.396,123.799 290.396,123.466 288.5,122.5C 289.025,121.808 289.692,121.308 290.5,121C 289.306,118.342 290.306,117.176 293.5,117.5 Z"/></g>
<g><path style="opacity:1" fill="#bf9472" d="M 22.5,121.5 C 22.5,121.833 22.5,122.167 22.5,122.5C 21.8333,122.5 21.1667,122.5 20.5,122.5C 19.0695,122.421 17.7362,122.754 16.5,123.5C 15.4777,123.145 14.811,122.478 14.5,121.5C 16.1379,120.841 17.8045,120.174 19.5,119.5C 20.2652,120.612 21.2652,121.279 22.5,121.5 Z"/></g>
<g><path style="opacity:1" fill="#bf9472" d="M 240.5,125.5 C 241.167,125.5 241.5,125.833 241.5,126.5C 238.813,126.336 236.146,126.503 233.5,127C 232.874,127.75 232.374,128.584 232,129.5C 226.122,125.145 221.455,125.478 218,130.5C 217.383,129.551 217.549,128.718 218.5,128C 216.754,127.529 215.087,126.862 213.5,126C 199.16,126.801 184.827,126.468 170.5,125C 174.819,124.24 179.152,123.573 183.5,123C 184.135,118.881 185.802,118.547 188.5,122C 198.066,124.19 207.733,124.857 217.5,124C 218.025,123.308 218.692,122.808 219.5,122.5C 219.736,123.247 220.07,124.08 220.5,125C 227.203,124.82 233.87,124.986 240.5,125.5 Z"/></g>
<g><path style="opacity:1" fill="#d6b493" d="M 14.5,121.5 C 14.811,122.478 15.4777,123.145 16.5,123.5C 17.7362,122.754 19.0695,122.421 20.5,122.5C 21.6005,123.605 22.2671,124.938 22.5,126.5C 19.0217,126.816 15.6883,126.316 12.5,125C 10.006,122.607 10.6727,121.44 14.5,121.5 Z"/></g>
<g><path style="opacity:1" fill="#d6b593" d="M 151.5,122.5 C 153.185,121.156 154.852,121.323 156.5,123C 154.803,123.384 153.137,123.218 151.5,122.5 Z"/></g>
<g><path style="opacity:1" fill="#e6d5b2" d="M 20.5,122.5 C 21.1667,122.5 21.8333,122.5 22.5,122.5C 23.3636,123.688 24.3636,124.855 25.5,126C 25.2716,126.399 24.9382,126.565 24.5,126.5C 23.8333,126.5 23.1667,126.5 22.5,126.5C 22.2671,124.938 21.6005,123.605 20.5,122.5 Z"/></g>
<g><path style="opacity:1" fill="#d7b695" d="M 88.5,122.5 C 90.3819,123.751 92.3819,124.918 94.5,126C 93.5,126.333 92.5,126.667 91.5,127C 94.1677,127.567 96.8344,128.067 99.5,128.5C 100.404,129.209 100.737,130.209 100.5,131.5C 90.7106,131.397 81.0439,130.397 71.5,128.5C 70.3774,129.544 69.0441,130.21 67.5,130.5C 64.5,130 61.5,129.5 58.5,129C 68.1341,125.447 78.1341,123.28 88.5,122.5 Z"/></g>
<g><path style="opacity:1" fill="#e6d5b2" d="M 88.5,122.5 C 89.5,122.5 90.5,122.5 91.5,122.5C 94.4549,124.122 97.1215,126.122 99.5,128.5C 96.8344,128.067 94.1677,127.567 91.5,127C 92.5,126.667 93.5,126.333 94.5,126C 92.3819,124.918 90.3819,123.751 88.5,122.5 Z"/></g>
<g><path style="opacity:1" fill="#e6d5b2" d="M 295.5,124.5 C 298.331,125.079 300.664,126.412 302.5,128.5C 299.126,128.326 295.793,127.826 292.5,127C 293.833,126.667 295.167,126.333 296.5,126C 295.944,125.617 295.611,125.117 295.5,124.5 Z"/></g>
<g><path style="opacity:1" fill="#e6d5b2" d="M 247.5,131.5 C 244.911,130.581 242.911,128.914 241.5,126.5C 242.117,126.389 242.617,126.056 243,125.5C 244.332,127.66 245.832,129.66 247.5,131.5 Z"/></g>
<g><path style="opacity:1" fill="#d6b593" d="M 6.5,128.5 C 8.8473,127.105 11.1806,127.272 13.5,129C 12.9747,129.692 12.3081,130.192 11.5,130.5C 9.92464,129.544 8.25797,128.877 6.5,128.5 Z"/></g>
<g><path style="opacity:1" fill="#e6d5b2" d="M 23.5,128.5 C 23.5,127.833 23.8333,127.5 24.5,127.5C 27.6145,127.555 29.9478,128.888 31.5,131.5C 28.5944,131.043 25.9278,130.043 23.5,128.5 Z"/></g>
<g><path style="opacity:1" fill="#bf9472" d="M 303.5,128.5 C 304.71,128.932 305.71,129.599 306.5,130.5C 301.602,132.453 296.936,134.619 292.5,137C 295.874,133.663 299.541,130.829 303.5,128.5 Z"/></g>
<g><path style="opacity:1" fill="#d9b998" d="M 140.5,130.5 C 145.552,129.005 150.552,129.505 155.5,132C 150.428,132.354 145.428,131.854 140.5,130.5 Z"/></g>
<g><path style="opacity:1" fill="#e6d5b2" d="M 48.5,132.5 C 48.573,134.027 47.9063,135.027 46.5,135.5C 46.427,133.973 47.0937,132.973 48.5,132.5 Z"/></g>
<g><path style="opacity:1" fill="#bf9472" d="M 84.5,133.5 C 83.9976,135.085 82.9976,135.585 81.5,135C 82.2438,133.961 83.2438,133.461 84.5,133.5 Z"/></g>
<g><path style="opacity:1" fill="#bf9472" d="M 31.5,134.5 C 34.8806,134.46 38.2139,134.793 41.5,135.5C 43.9052,136.768 46.5718,137.435 49.5,137.5C 52.4878,139.14 55.8211,139.974 59.5,140C 58.737,140.944 57.737,141.444 56.5,141.5C 49.61,140.402 42.7767,139.069 36,137.5C 33.803,137.651 31.6363,137.985 29.5,138.5C 28.263,138.444 27.263,137.944 26.5,137C 28.0302,135.88 29.6968,135.046 31.5,134.5 Z"/></g>
<g><path style="opacity:1" fill="#e6d5b2" d="M 41.5,135.5 C 43.1667,135.5 44.8333,135.5 46.5,135.5C 47.5,136.167 48.5,136.833 49.5,137.5C 46.5718,137.435 43.9052,136.768 41.5,135.5 Z"/></g>
</svg>
