<?xml version="1.0" encoding="UTF-8"?>
<!DOCTYPE svg PUBLIC "-//W3C//DTD SVG 1.1//EN" "http://www.w3.org/Graphics/SVG/1.1/DTD/svg11.dtd">
<svg xmlns="http://www.w3.org/2000/svg" version="1.1" width="240px" height="240px" style="shape-rendering:geometricPrecision; text-rendering:geometricPrecision; image-rendering:optimizeQuality; fill-rule:evenodd; clip-rule:evenodd" xmlns:xlink="http://www.w3.org/1999/xlink">
<g><path style="opacity:1" fill="#000000" d="M 119.5,-0.5 C 134.5,-0.5 149.5,-0.5 164.5,-0.5C 164.5,2.16667 164.5,4.83333 164.5,7.5C 149.5,7.5 134.5,7.5 119.5,7.5C 119.5,4.83333 119.5,2.16667 119.5,-0.5 Z"/></g>
<g><path style="opacity:1" fill="#010101" d="M 119.5,7.5 C 119.5,9.83333 119.5,12.1667 119.5,14.5C 114.5,14.5 109.5,14.5 104.5,14.5C 104.5,12.1667 104.5,9.83333 104.5,7.5C 109.5,7.5 114.5,7.5 119.5,7.5 Z"/></g>
<g><path style="opacity:1" fill="#010101" d="M 164.5,7.5 C 169.5,7.5 174.5,7.5 179.5,7.5C 179.5,9.83333 179.5,12.1667 179.5,14.5C 174.5,14.5 169.5,14.5 164.5,14.5C 164.5,12.1667 164.5,9.83333 164.5,7.5 Z"/></g>
<g><path style="opacity:1" fill="#010101" d="M 104.5,14.5 C 104.5,17.1667 104.5,19.8333 104.5,22.5C 101.833,22.5 99.1667,22.5 96.5,22.5C 96.5,19.8333 96.5,17.1667 96.5,14.5C 99.1667,14.5 101.833,14.5 104.5,14.5 Z"/></g>
<g><path style="opacity:1" fill="#514a49" d="M 119.5,7.5 C 134.5,7.5 149.5,7.5 164.5,7.5C 164.5,9.83333 164.5,12.1667 164.5,14.5C 169.5,14.5 174.5,14.5 179.5,14.5C 179.5,17.1667 179.5,19.8333 179.5,22.5C 176.833,22.5 174.167,22.5 171.5,22.5C 171.5,24.8333 171.5,27.1667 171.5,29.5C 169.167,29.5 166.833,29.5 164.5,29.5C 164.5,31.8333 164.5,34.1667 164.5,36.5C 161.833,36.5 159.167,36.5 156.5,36.5C 154.167,36.5 151.833,36.5 149.5,36.5C 149.5,34.1667 149.5,31.8333 149.5,29.5C 144.5,29.5 139.5,29.5 134.5,29.5C 134.5,31.8333 134.5,34.1667 134.5,36.5C 134.5,39.1667 134.5,41.8333 134.5,44.5C 132.167,44.5 129.833,44.5 127.5,44.5C 127.5,46.8333 127.5,49.1667 127.5,51.5C 124.833,51.5 122.167,51.5 119.5,51.5C 119.5,46.5 119.5,41.5 119.5,36.5C 119.5,34.1667 119.5,31.8333 119.5,29.5C 116.833,29.5 114.167,29.5 111.5,29.5C 111.5,31.8333 111.5,34.1667 111.5,36.5C 109.167,36.5 106.833,36.5 104.5,36.5C 104.5,41.5 104.5,46.5 104.5,51.5C 101.833,51.5 99.1667,51.5 96.5,51.5C 96.5,54.1667 96.5,56.8333 96.5,59.5C 94.1667,59.5 91.8333,59.5 89.5,59.5C 89.5,54.5 89.5,49.5 89.5,44.5C 87.1667,44.5 84.8333,44.5 82.5,44.5C 82.5,41.8333 82.5,39.1667 82.5,36.5C 84.8333,36.5 87.1667,36.5 89.5,36.5C 89.5,34.1667 89.5,31.8333 89.5,29.5C 91.8333,29.5 94.1667,29.5 96.5,29.5C 96.5,27.1667 96.5,24.8333 96.5,22.5C 99.1667,22.5 101.833,22.5 104.5,22.5C 104.5,19.8333 104.5,17.1667 104.5,14.5C 109.5,14.5 114.5,14.5 119.5,14.5C 119.5,12.1667 119.5,9.83333 119.5,7.5 Z"/></g>
<g><path style="opacity:1" fill="#010101" d="M 179.5,14.5 C 182.167,14.5 184.833,14.5 187.5,14.5C 187.5,17.1667 187.5,19.8333 187.5,22.5C 184.833,22.5 182.167,22.5 179.5,22.5C 179.5,19.8333 179.5,17.1667 179.5,14.5 Z"/></g>
<g><path style="opacity:1" fill="#010000" d="M 96.5,22.5 C 96.5,24.8333 96.5,27.1667 96.5,29.5C 94.1667,29.5 91.8333,29.5 89.5,29.5C 89.5,27.1667 89.5,24.8333 89.5,22.5C 91.8333,22.5 94.1667,22.5 96.5,22.5 Z"/></g>
<g><path style="opacity:1" fill="#000000" d="M 187.5,22.5 C 189.833,22.5 192.167,22.5 194.5,22.5C 194.5,24.8333 194.5,27.1667 194.5,29.5C 194.5,27.1667 194.5,24.8333 194.5,22.5C 192.167,22.5 189.833,22.5 187.5,22.5 Z"/></g>
<g><path style="opacity:1" fill="#000100" d="M 89.5,29.5 C 89.5,31.8333 89.5,34.1667 89.5,36.5C 87.1667,36.5 84.8333,36.5 82.5,36.5C 82.5,34.1667 82.5,31.8333 82.5,29.5C 84.8333,29.5 87.1667,29.5 89.5,29.5 Z"/></g>
<g><path style="opacity:1" fill="#d58a23" d="M 149.5,36.5 C 144.5,36.5 139.5,36.5 134.5,36.5C 134.5,34.1667 134.5,31.8333 134.5,29.5C 139.5,29.5 144.5,29.5 149.5,29.5C 149.5,31.8333 149.5,34.1667 149.5,36.5 Z"/></g>
<g><path style="opacity:1" fill="#433c3a" d="M 179.5,22.5 C 182.167,22.5 184.833,22.5 187.5,22.5C 187.5,24.8333 187.5,27.1667 187.5,29.5C 189.833,29.5 192.167,29.5 194.5,29.5C 194.5,31.8333 194.5,34.1667 194.5,36.5C 197.167,36.5 199.833,36.5 202.5,36.5C 202.5,46.8333 202.5,57.1667 202.5,67.5C 199.833,67.5 197.167,67.5 194.5,67.5C 194.5,62.1667 194.5,56.8333 194.5,51.5C 192.167,51.5 189.833,51.5 187.5,51.5C 187.5,49.1667 187.5,46.8333 187.5,44.5C 182.167,44.5 176.833,44.5 171.5,44.5C 171.5,46.8333 171.5,49.1667 171.5,51.5C 171.5,54.1667 171.5,56.8333 171.5,59.5C 171.5,62.1667 171.5,64.8333 171.5,67.5C 171.5,69.8333 171.5,72.1667 171.5,74.5C 169.167,74.5 166.833,74.5 164.5,74.5C 164.5,64.5 164.5,54.5 164.5,44.5C 161.833,44.5 159.167,44.5 156.5,44.5C 156.5,41.8333 156.5,39.1667 156.5,36.5C 159.167,36.5 161.833,36.5 164.5,36.5C 164.5,34.1667 164.5,31.8333 164.5,29.5C 166.833,29.5 169.167,29.5 171.5,29.5C 171.5,27.1667 171.5,24.8333 171.5,22.5C 174.167,22.5 176.833,22.5 179.5,22.5 Z"/></g>
<g><path style="opacity:1" fill="#010101" d="M 194.5,29.5 C 197.167,29.5 199.833,29.5 202.5,29.5C 202.5,31.8333 202.5,34.1667 202.5,36.5C 199.833,36.5 197.167,36.5 194.5,36.5C 194.5,34.1667 194.5,31.8333 194.5,29.5 Z"/></g>
<g><path style="opacity:1" fill="#d38b27" d="M 119.5,36.5 C 116.833,36.5 114.167,36.5 111.5,36.5C 111.5,34.1667 111.5,31.8333 111.5,29.5C 114.167,29.5 116.833,29.5 119.5,29.5C 119.5,31.8333 119.5,34.1667 119.5,36.5 Z"/></g>
<g><path style="opacity:1" fill="#010101" d="M 82.5,36.5 C 82.5,39.1667 82.5,41.8333 82.5,44.5C 79.8333,44.5 77.1667,44.5 74.5,44.5C 74.5,41.8333 74.5,39.1667 74.5,36.5C 77.1667,36.5 79.8333,36.5 82.5,36.5 Z"/></g>
<g><path style="opacity:1" fill="#010101" d="M 202.5,36.5 C 204.833,36.5 207.167,36.5 209.5,36.5C 209.5,51.8333 209.5,67.1667 209.5,82.5C 207.167,82.5 204.833,82.5 202.5,82.5C 202.5,77.5 202.5,72.5 202.5,67.5C 202.5,57.1667 202.5,46.8333 202.5,36.5 Z"/></g>
<g><path style="opacity:1" fill="#f1c59f" d="M 111.5,36.5 C 114.167,36.5 116.833,36.5 119.5,36.5C 119.5,41.5 119.5,46.5 119.5,51.5C 114.5,51.5 109.5,51.5 104.5,51.5C 104.5,46.5 104.5,41.5 104.5,36.5C 106.833,36.5 109.167,36.5 111.5,36.5 Z"/></g>
<g><path style="opacity:1" fill="#f0c5a0" d="M 134.5,36.5 C 139.5,36.5 144.5,36.5 149.5,36.5C 151.833,36.5 154.167,36.5 156.5,36.5C 156.5,39.1667 156.5,41.8333 156.5,44.5C 159.167,44.5 161.833,44.5 164.5,44.5C 164.5,54.5 164.5,64.5 164.5,74.5C 166.833,74.5 169.167,74.5 171.5,74.5C 171.5,72.1667 171.5,69.8333 171.5,67.5C 174.167,67.5 176.833,67.5 179.5,67.5C 179.5,64.8333 179.5,62.1667 179.5,59.5C 176.833,59.5 174.167,59.5 171.5,59.5C 171.5,56.8333 171.5,54.1667 171.5,51.5C 176.833,51.5 182.167,51.5 187.5,51.5C 187.5,59.1667 187.5,66.8333 187.5,74.5C 184.833,74.5 182.167,74.5 179.5,74.5C 179.5,77.1667 179.5,79.8333 179.5,82.5C 174.5,82.5 169.5,82.5 164.5,82.5C 164.5,84.8333 164.5,87.1667 164.5,89.5C 149.5,89.5 134.5,89.5 119.5,89.5C 119.5,87.1667 119.5,84.8333 119.5,82.5C 114.5,82.5 109.5,82.5 104.5,82.5C 104.5,79.8333 104.5,77.1667 104.5,74.5C 106.833,74.5 109.167,74.5 111.5,74.5C 114.167,74.5 116.833,74.5 119.5,74.5C 119.5,69.5 119.5,64.5 119.5,59.5C 119.5,56.8333 119.5,54.1667 119.5,51.5C 122.167,51.5 124.833,51.5 127.5,51.5C 127.5,49.1667 127.5,46.8333 127.5,44.5C 129.833,44.5 132.167,44.5 134.5,44.5C 134.5,41.8333 134.5,39.1667 134.5,36.5 Z"/></g>
<g><path style="opacity:1" fill="#000100" d="M 82.5,44.5 C 84.8333,44.5 87.1667,44.5 89.5,44.5C 89.5,49.5 89.5,54.5 89.5,59.5C 87.1667,59.5 84.8333,59.5 82.5,59.5C 82.5,54.5 82.5,49.5 82.5,44.5 Z"/></g>
<g><path style="opacity:1" fill="#010101" d="M 187.5,51.5 C 182.167,51.5 176.833,51.5 171.5,51.5C 171.5,49.1667 171.5,46.8333 171.5,44.5C 176.833,44.5 182.167,44.5 187.5,44.5C 187.5,46.8333 187.5,49.1667 187.5,51.5 Z"/></g>
<g><path style="opacity:1" fill="#010101" d="M 187.5,51.5 C 189.833,51.5 192.167,51.5 194.5,51.5C 194.5,56.8333 194.5,62.1667 194.5,67.5C 194.5,72.5 194.5,77.5 194.5,82.5C 192.167,82.5 189.833,82.5 187.5,82.5C 187.5,84.8333 187.5,87.1667 187.5,89.5C 189.833,89.5 192.167,89.5 194.5,89.5C 194.5,91.8333 194.5,94.1667 194.5,96.5C 186.833,96.5 179.167,96.5 171.5,96.5C 171.5,99.1667 171.5,101.833 171.5,104.5C 156.833,104.5 142.167,104.5 127.5,104.5C 124.833,104.5 122.167,104.5 119.5,104.5C 119.5,101.833 119.5,99.1667 119.5,96.5C 134.5,96.5 149.5,96.5 164.5,96.5C 164.5,94.1667 164.5,91.8333 164.5,89.5C 169.5,89.5 174.5,89.5 179.5,89.5C 179.5,87.1667 179.5,84.8333 179.5,82.5C 179.5,79.8333 179.5,77.1667 179.5,74.5C 182.167,74.5 184.833,74.5 187.5,74.5C 187.5,66.8333 187.5,59.1667 187.5,51.5 Z"/></g>
<g><path style="opacity:1" fill="#020001" d="M 104.5,51.5 C 109.5,51.5 114.5,51.5 119.5,51.5C 119.5,54.1667 119.5,56.8333 119.5,59.5C 116.833,59.5 114.167,59.5 111.5,59.5C 111.5,64.5 111.5,69.5 111.5,74.5C 109.167,74.5 106.833,74.5 104.5,74.5C 104.5,66.8333 104.5,59.1667 104.5,51.5 Z"/></g>
<g><path style="opacity:1" fill="#020001" d="M 127.5,51.5 C 132.5,51.5 137.5,51.5 142.5,51.5C 142.5,54.1667 142.5,56.8333 142.5,59.5C 139.833,59.5 137.167,59.5 134.5,59.5C 134.5,64.5 134.5,69.5 134.5,74.5C 132.167,74.5 129.833,74.5 127.5,74.5C 127.5,66.8333 127.5,59.1667 127.5,51.5 Z"/></g>
<g><path style="opacity:1" fill="#e9bf9d" d="M 104.5,51.5 C 104.5,59.1667 104.5,66.8333 104.5,74.5C 101.833,74.5 99.1667,74.5 96.5,74.5C 96.5,69.5 96.5,64.5 96.5,59.5C 96.5,56.8333 96.5,54.1667 96.5,51.5C 99.1667,51.5 101.833,51.5 104.5,51.5 Z"/></g>
<g><path style="opacity:1" fill="#010101" d="M 89.5,59.5 C 91.8333,59.5 94.1667,59.5 96.5,59.5C 96.5,64.5 96.5,69.5 96.5,74.5C 99.1667,74.5 101.833,74.5 104.5,74.5C 104.5,77.1667 104.5,79.8333 104.5,82.5C 104.5,84.8333 104.5,87.1667 104.5,89.5C 109.5,89.5 114.5,89.5 119.5,89.5C 119.5,91.8333 119.5,94.1667 119.5,96.5C 114.5,96.5 109.5,96.5 104.5,96.5C 104.5,99.1667 104.5,101.833 104.5,104.5C 101.833,104.5 99.1667,104.5 96.5,104.5C 96.5,97.1667 96.5,89.8333 96.5,82.5C 94.1667,82.5 91.8333,82.5 89.5,82.5C 89.5,74.8333 89.5,67.1667 89.5,59.5 Z"/></g>
<g><path style="opacity:1" fill="#fdfdfd" d="M 119.5,59.5 C 119.5,64.5 119.5,69.5 119.5,74.5C 116.833,74.5 114.167,74.5 111.5,74.5C 111.5,69.5 111.5,64.5 111.5,59.5C 114.167,59.5 116.833,59.5 119.5,59.5 Z"/></g>
<g><path style="opacity:1" fill="#fdfdfc" d="M 142.5,59.5 C 142.5,64.5 142.5,69.5 142.5,74.5C 139.833,74.5 137.167,74.5 134.5,74.5C 134.5,69.5 134.5,64.5 134.5,59.5C 137.167,59.5 139.833,59.5 142.5,59.5 Z"/></g>
<g><path style="opacity:1" fill="#bc9b7e" d="M 171.5,59.5 C 174.167,59.5 176.833,59.5 179.5,59.5C 179.5,62.1667 179.5,64.8333 179.5,67.5C 176.833,67.5 174.167,67.5 171.5,67.5C 171.5,64.8333 171.5,62.1667 171.5,59.5 Z"/></g>
<g><path style="opacity:1" fill="#231f1d" d="M 194.5,67.5 C 197.167,67.5 199.833,67.5 202.5,67.5C 202.5,72.5 202.5,77.5 202.5,82.5C 199.833,82.5 197.167,82.5 194.5,82.5C 194.5,77.5 194.5,72.5 194.5,67.5 Z"/></g>
<g><path style="opacity:1" fill="#d5ad8b" d="M 104.5,82.5 C 109.5,82.5 114.5,82.5 119.5,82.5C 119.5,84.8333 119.5,87.1667 119.5,89.5C 114.5,89.5 109.5,89.5 104.5,89.5C 104.5,87.1667 104.5,84.8333 104.5,82.5 Z"/></g>
<g><path style="opacity:1" fill="#d6ad8c" d="M 179.5,82.5 C 179.5,84.8333 179.5,87.1667 179.5,89.5C 174.5,89.5 169.5,89.5 164.5,89.5C 164.5,87.1667 164.5,84.8333 164.5,82.5C 169.5,82.5 174.5,82.5 179.5,82.5 Z"/></g>
<g><path style="opacity:1" fill="#221e1c" d="M 194.5,82.5 C 194.5,84.8333 194.5,87.1667 194.5,89.5C 192.167,89.5 189.833,89.5 187.5,89.5C 187.5,87.1667 187.5,84.8333 187.5,82.5C 189.833,82.5 192.167,82.5 194.5,82.5 Z"/></g>
<g><path style="opacity:1" fill="#010101" d="M 194.5,82.5 C 197.167,82.5 199.833,82.5 202.5,82.5C 202.5,84.8333 202.5,87.1667 202.5,89.5C 199.833,89.5 197.167,89.5 194.5,89.5C 194.5,87.1667 194.5,84.8333 194.5,82.5 Z"/></g>
<g><path style="opacity:1" fill="#010000" d="M 202.5,89.5 C 204.833,89.5 207.167,89.5 209.5,89.5C 209.5,91.8333 209.5,94.1667 209.5,96.5C 207.167,96.5 204.833,96.5 202.5,96.5C 202.5,94.1667 202.5,91.8333 202.5,89.5 Z"/></g>
<g><path style="opacity:1" fill="#d5ad8c" d="M 119.5,89.5 C 134.5,89.5 149.5,89.5 164.5,89.5C 164.5,91.8333 164.5,94.1667 164.5,96.5C 149.5,96.5 134.5,96.5 119.5,96.5C 119.5,94.1667 119.5,91.8333 119.5,89.5 Z"/></g>
<g><path style="opacity:1" fill="#010001" d="M 209.5,96.5 C 211.833,96.5 214.167,96.5 216.5,96.5C 216.5,101.5 216.5,106.5 216.5,111.5C 214.167,111.5 211.833,111.5 209.5,111.5C 209.5,109.167 209.5,106.833 209.5,104.5C 209.5,101.833 209.5,99.1667 209.5,96.5 Z"/></g>
<g><path style="opacity:1" fill="#4e849e" d="M 194.5,96.5 C 194.5,99.1667 194.5,101.833 194.5,104.5C 186.833,104.5 179.167,104.5 171.5,104.5C 171.5,101.833 171.5,99.1667 171.5,96.5C 179.167,96.5 186.833,96.5 194.5,96.5 Z"/></g>
<g><path style="opacity:1" fill="#39697f" d="M 194.5,89.5 C 197.167,89.5 199.833,89.5 202.5,89.5C 202.5,91.8333 202.5,94.1667 202.5,96.5C 202.5,99.1667 202.5,101.833 202.5,104.5C 199.833,104.5 197.167,104.5 194.5,104.5C 194.5,101.833 194.5,99.1667 194.5,96.5C 194.5,94.1667 194.5,91.8333 194.5,89.5 Z"/></g>
<g><path style="opacity:1" fill="#5991ab" d="M 119.5,96.5 C 119.5,99.1667 119.5,101.833 119.5,104.5C 114.5,104.5 109.5,104.5 104.5,104.5C 104.5,101.833 104.5,99.1667 104.5,96.5C 109.5,96.5 114.5,96.5 119.5,96.5 Z"/></g>
<g><path style="opacity:1" fill="#284b5d" d="M 202.5,96.5 C 204.833,96.5 207.167,96.5 209.5,96.5C 209.5,99.1667 209.5,101.833 209.5,104.5C 207.167,104.5 204.833,104.5 202.5,104.5C 202.5,101.833 202.5,99.1667 202.5,96.5 Z"/></g>
<g><path style="opacity:1" fill="#010000" d="M 96.5,104.5 C 96.5,106.833 96.5,109.167 96.5,111.5C 96.5,114.167 96.5,116.833 96.5,119.5C 94.1667,119.5 91.8333,119.5 89.5,119.5C 89.5,114.5 89.5,109.5 89.5,104.5C 91.8333,104.5 94.1667,104.5 96.5,104.5 Z"/></g>
<g><path style="opacity:1" fill="#2c5468" d="M 96.5,104.5 C 99.1667,104.5 101.833,104.5 104.5,104.5C 109.5,104.5 114.5,104.5 119.5,104.5C 122.167,104.5 124.833,104.5 127.5,104.5C 127.5,106.833 127.5,109.167 127.5,111.5C 129.833,111.5 132.167,111.5 134.5,111.5C 134.5,114.167 134.5,116.833 134.5,119.5C 141.833,119.5 149.167,119.5 156.5,119.5C 156.5,122.167 156.5,124.833 156.5,127.5C 146.833,127.5 137.167,127.5 127.5,127.5C 127.5,124.833 127.5,122.167 127.5,119.5C 124.833,119.5 122.167,119.5 119.5,119.5C 119.5,116.833 119.5,114.167 119.5,111.5C 114.5,111.5 109.5,111.5 104.5,111.5C 101.833,111.5 99.1667,111.5 96.5,111.5C 96.5,109.167 96.5,106.833 96.5,104.5 Z"/></g>
<g><path style="opacity:1" fill="#629cb7" d="M 127.5,104.5 C 142.167,104.5 156.833,104.5 171.5,104.5C 171.5,106.833 171.5,109.167 171.5,111.5C 166.5,111.5 161.5,111.5 156.5,111.5C 149.167,111.5 141.833,111.5 134.5,111.5C 132.167,111.5 129.833,111.5 127.5,111.5C 127.5,109.167 127.5,106.833 127.5,104.5 Z"/></g>
<g><path style="opacity:1" fill="#305a6f" d="M 171.5,104.5 C 179.167,104.5 186.833,104.5 194.5,104.5C 194.5,106.833 194.5,109.167 194.5,111.5C 189.5,111.5 184.5,111.5 179.5,111.5C 179.5,114.167 179.5,116.833 179.5,119.5C 176.833,119.5 174.167,119.5 171.5,119.5C 166.5,119.5 161.5,119.5 156.5,119.5C 156.5,116.833 156.5,114.167 156.5,111.5C 161.5,111.5 166.5,111.5 171.5,111.5C 171.5,109.167 171.5,106.833 171.5,104.5 Z"/></g>
<g><path style="opacity:1" fill="#4f88a3" d="M 194.5,104.5 C 197.167,104.5 199.833,104.5 202.5,104.5C 204.833,104.5 207.167,104.5 209.5,104.5C 209.5,106.833 209.5,109.167 209.5,111.5C 204.5,111.5 199.5,111.5 194.5,111.5C 194.5,109.167 194.5,106.833 194.5,104.5 Z"/></g>
<g><path style="opacity:1" fill="#010102" d="M 216.5,111.5 C 219.167,111.5 221.833,111.5 224.5,111.5C 224.5,114.167 224.5,116.833 224.5,119.5C 224.5,116.833 224.5,114.167 224.5,111.5C 221.833,111.5 219.167,111.5 216.5,111.5 Z"/></g>
<g><path style="opacity:1" fill="#457d98" d="M 96.5,111.5 C 99.1667,111.5 101.833,111.5 104.5,111.5C 104.5,114.167 104.5,116.833 104.5,119.5C 106.833,119.5 109.167,119.5 111.5,119.5C 111.5,122.167 111.5,124.833 111.5,127.5C 106.5,127.5 101.5,127.5 96.5,127.5C 96.5,124.833 96.5,122.167 96.5,119.5C 96.5,116.833 96.5,114.167 96.5,111.5 Z"/></g>
<g><path style="opacity:1" fill="#629ab5" d="M 104.5,111.5 C 109.5,111.5 114.5,111.5 119.5,111.5C 119.5,114.167 119.5,116.833 119.5,119.5C 122.167,119.5 124.833,119.5 127.5,119.5C 127.5,122.167 127.5,124.833 127.5,127.5C 124.833,127.5 122.167,127.5 119.5,127.5C 116.833,127.5 114.167,127.5 111.5,127.5C 111.5,124.833 111.5,122.167 111.5,119.5C 109.167,119.5 106.833,119.5 104.5,119.5C 104.5,116.833 104.5,114.167 104.5,111.5 Z"/></g>
<g><path style="opacity:1" fill="#457e99" d="M 134.5,111.5 C 141.833,111.5 149.167,111.5 156.5,111.5C 156.5,114.167 156.5,116.833 156.5,119.5C 149.167,119.5 141.833,119.5 134.5,119.5C 134.5,116.833 134.5,114.167 134.5,111.5 Z"/></g>
<g><path style="opacity:1" fill="#2b5366" d="M 194.5,111.5 C 199.5,111.5 204.5,111.5 209.5,111.5C 209.5,114.167 209.5,116.833 209.5,119.5C 204.5,119.5 199.5,119.5 194.5,119.5C 194.5,116.833 194.5,114.167 194.5,111.5 Z"/></g>
<g><path style="opacity:1" fill="#231f1d" d="M -0.5,111.5 C 7.16667,111.5 14.8333,111.5 22.5,111.5C 22.5,114.167 22.5,116.833 22.5,119.5C 17.5,119.5 12.5,119.5 7.5,119.5C 7.5,124.5 7.5,129.5 7.5,134.5C 4.83333,134.5 2.16667,134.5 -0.5,134.5C -0.5,126.833 -0.5,119.167 -0.5,111.5 Z"/></g>
<g><path style="opacity:1" fill="#5d95b0" d="M 209.5,111.5 C 211.833,111.5 214.167,111.5 216.5,111.5C 216.5,114.167 216.5,116.833 216.5,119.5C 219.167,119.5 221.833,119.5 224.5,119.5C 224.5,122.167 224.5,124.833 224.5,127.5C 221.833,127.5 219.167,127.5 216.5,127.5C 209.167,127.5 201.833,127.5 194.5,127.5C 194.5,124.833 194.5,122.167 194.5,119.5C 199.5,119.5 204.5,119.5 209.5,119.5C 209.5,116.833 209.5,114.167 209.5,111.5 Z"/></g>
<g><path style="opacity:1" fill="#fefefe" d="M 22.5,119.5 C 22.5,122.167 22.5,124.833 22.5,127.5C 19.8333,127.5 17.1667,127.5 14.5,127.5C 14.5,129.833 14.5,132.167 14.5,134.5C 12.1667,134.5 9.83333,134.5 7.5,134.5C 7.5,129.5 7.5,124.5 7.5,119.5C 12.5,119.5 17.5,119.5 22.5,119.5 Z"/></g>
<g><path style="opacity:1" fill="#231f1d" d="M 22.5,119.5 C 24.8333,119.5 27.1667,119.5 29.5,119.5C 29.5,122.167 29.5,124.833 29.5,127.5C 27.1667,127.5 24.8333,127.5 22.5,127.5C 22.5,124.833 22.5,122.167 22.5,119.5 Z"/></g>
<g><path style="opacity:1" fill="#010202" d="M 89.5,119.5 C 89.5,122.167 89.5,124.833 89.5,127.5C 87.1667,127.5 84.8333,127.5 82.5,127.5C 82.5,124.833 82.5,122.167 82.5,119.5C 84.8333,119.5 87.1667,119.5 89.5,119.5 Z"/></g>
<g><path style="opacity:1" fill="#639bb6" d="M 156.5,119.5 C 161.5,119.5 166.5,119.5 171.5,119.5C 171.5,122.167 171.5,124.833 171.5,127.5C 166.5,127.5 161.5,127.5 156.5,127.5C 156.5,124.833 156.5,122.167 156.5,119.5 Z"/></g>
<g><path style="opacity:1" fill="#4b839e" d="M 194.5,111.5 C 194.5,114.167 194.5,116.833 194.5,119.5C 192.167,119.5 189.833,119.5 187.5,119.5C 187.5,122.167 187.5,124.833 187.5,127.5C 182.167,127.5 176.833,127.5 171.5,127.5C 171.5,124.833 171.5,122.167 171.5,119.5C 174.167,119.5 176.833,119.5 179.5,119.5C 179.5,116.833 179.5,114.167 179.5,111.5C 184.5,111.5 189.5,111.5 194.5,111.5 Z"/></g>
<g><path style="opacity:1" fill="#274b5f" d="M 194.5,119.5 C 194.5,122.167 194.5,124.833 194.5,127.5C 192.167,127.5 189.833,127.5 187.5,127.5C 187.5,124.833 187.5,122.167 187.5,119.5C 189.833,119.5 192.167,119.5 194.5,119.5 Z"/></g>
<g><path style="opacity:1" fill="#010101" d="M 224.5,119.5 C 226.833,119.5 229.167,119.5 231.5,119.5C 231.5,124.5 231.5,129.5 231.5,134.5C 229.167,134.5 226.833,134.5 224.5,134.5C 224.5,132.167 224.5,129.833 224.5,127.5C 224.5,124.833 224.5,122.167 224.5,119.5 Z"/></g>
<g><path style="opacity:1" fill="#c0c0c0" d="M 22.5,127.5 C 22.5,129.833 22.5,132.167 22.5,134.5C 19.8333,134.5 17.1667,134.5 14.5,134.5C 14.5,132.167 14.5,129.833 14.5,127.5C 17.1667,127.5 19.8333,127.5 22.5,127.5 Z"/></g>
<g><path style="opacity:1" fill="#fefefe" d="M 22.5,127.5 C 24.8333,127.5 27.1667,127.5 29.5,127.5C 29.5,129.833 29.5,132.167 29.5,134.5C 27.1667,134.5 24.8333,134.5 22.5,134.5C 22.5,132.167 22.5,129.833 22.5,127.5 Z"/></g>
<g><path style="opacity:1" fill="#221f1d" d="M 29.5,127.5 C 31.8333,127.5 34.1667,127.5 36.5,127.5C 36.5,129.833 36.5,132.167 36.5,134.5C 34.1667,134.5 31.8333,134.5 29.5,134.5C 29.5,132.167 29.5,129.833 29.5,127.5 Z"/></g>
<g><path style="opacity:1" fill="#010001" d="M 82.5,127.5 C 82.5,129.833 82.5,132.167 82.5,134.5C 89.8333,134.5 97.1667,134.5 104.5,134.5C 104.5,137.167 104.5,139.833 104.5,142.5C 104.5,147.167 104.5,151.833 104.5,156.5C 104.5,159.167 104.5,161.833 104.5,164.5C 104.5,166.833 104.5,169.167 104.5,171.5C 104.5,176.833 104.5,182.167 104.5,187.5C 104.5,189.833 104.5,192.167 104.5,194.5C 104.5,197.167 104.5,199.833 104.5,202.5C 104.5,204.833 104.5,207.167 104.5,209.5C 104.5,211.833 104.5,214.167 104.5,216.5C 104.5,219.167 104.5,221.833 104.5,224.5C 101.833,224.5 99.1667,224.5 96.5,224.5C 96.5,219.5 96.5,214.5 96.5,209.5C 91.8333,209.5 87.1667,209.5 82.5,209.5C 82.5,207.167 82.5,204.833 82.5,202.5C 87.1667,202.5 91.8333,202.5 96.5,202.5C 96.5,199.833 96.5,197.167 96.5,194.5C 96.5,189.5 96.5,184.5 96.5,179.5C 91.8333,179.5 87.1667,179.5 82.5,179.5C 82.5,176.833 82.5,174.167 82.5,171.5C 79.8333,171.5 77.1667,171.5 74.5,171.5C 74.5,169.167 74.5,166.833 74.5,164.5C 74.5,159.5 74.5,154.5 74.5,149.5C 74.5,142.167 74.5,134.833 74.5,127.5C 77.1667,127.5 79.8333,127.5 82.5,127.5 Z"/></g>
<g><path style="opacity:1" fill="#447d98" d="M 187.5,127.5 C 189.833,127.5 192.167,127.5 194.5,127.5C 201.833,127.5 209.167,127.5 216.5,127.5C 216.5,129.833 216.5,132.167 216.5,134.5C 206.833,134.5 197.167,134.5 187.5,134.5C 187.5,132.167 187.5,129.833 187.5,127.5 Z"/></g>
<g><path style="opacity:1" fill="#274b5f" d="M 216.5,127.5 C 219.167,127.5 221.833,127.5 224.5,127.5C 224.5,129.833 224.5,132.167 224.5,134.5C 221.833,134.5 219.167,134.5 216.5,134.5C 216.5,132.167 216.5,129.833 216.5,127.5 Z"/></g>
<g><path style="opacity:1" fill="#221e1e" d="M 7.5,134.5 C 9.83333,134.5 12.1667,134.5 14.5,134.5C 14.5,137.167 14.5,139.833 14.5,142.5C 12.1667,142.5 9.83333,142.5 7.5,142.5C 7.5,139.833 7.5,137.167 7.5,134.5 Z"/></g>
<g><path style="opacity:1" fill="#fefefe" d="M 14.5,134.5 C 17.1667,134.5 19.8333,134.5 22.5,134.5C 22.5,137.167 22.5,139.833 22.5,142.5C 19.8333,142.5 17.1667,142.5 14.5,142.5C 14.5,139.833 14.5,137.167 14.5,134.5 Z"/></g>
<g><path style="opacity:1" fill="#c0c0c0" d="M 22.5,134.5 C 24.8333,134.5 27.1667,134.5 29.5,134.5C 29.5,137.167 29.5,139.833 29.5,142.5C 27.1667,142.5 24.8333,142.5 22.5,142.5C 22.5,139.833 22.5,137.167 22.5,134.5 Z"/></g>
<g><path style="opacity:1" fill="#fefdfe" d="M 29.5,134.5 C 31.8333,134.5 34.1667,134.5 36.5,134.5C 36.5,137.167 36.5,139.833 36.5,142.5C 34.1667,142.5 31.8333,142.5 29.5,142.5C 29.5,139.833 29.5,137.167 29.5,134.5 Z"/></g>
<g><path style="opacity:1" fill="#aeaaa8" d="M 104.5,134.5 C 106.833,134.5 109.167,134.5 111.5,134.5C 111.5,137.167 111.5,139.833 111.5,142.5C 109.167,142.5 106.833,142.5 104.5,142.5C 104.5,139.833 104.5,137.167 104.5,134.5 Z"/></g>
<g><path style="opacity:1" fill="#2a4d61" d="M 89.5,119.5 C 91.8333,119.5 94.1667,119.5 96.5,119.5C 96.5,122.167 96.5,124.833 96.5,127.5C 101.5,127.5 106.5,127.5 111.5,127.5C 114.167,127.5 116.833,127.5 119.5,127.5C 119.5,129.833 119.5,132.167 119.5,134.5C 131.833,134.5 144.167,134.5 156.5,134.5C 156.5,132.167 156.5,129.833 156.5,127.5C 161.5,127.5 166.5,127.5 171.5,127.5C 176.833,127.5 182.167,127.5 187.5,127.5C 187.5,129.833 187.5,132.167 187.5,134.5C 182.167,134.5 176.833,134.5 171.5,134.5C 169.167,134.5 166.833,134.5 164.5,134.5C 164.5,137.167 164.5,139.833 164.5,142.5C 146.833,142.5 129.167,142.5 111.5,142.5C 111.5,139.833 111.5,137.167 111.5,134.5C 109.167,134.5 106.833,134.5 104.5,134.5C 97.1667,134.5 89.8333,134.5 82.5,134.5C 82.5,132.167 82.5,129.833 82.5,127.5C 84.8333,127.5 87.1667,127.5 89.5,127.5C 89.5,124.833 89.5,122.167 89.5,119.5 Z"/></g>
<g><path style="opacity:1" fill="#457e98" d="M 119.5,127.5 C 122.167,127.5 124.833,127.5 127.5,127.5C 137.167,127.5 146.833,127.5 156.5,127.5C 156.5,129.833 156.5,132.167 156.5,134.5C 144.167,134.5 131.833,134.5 119.5,134.5C 119.5,132.167 119.5,129.833 119.5,127.5 Z"/></g>
<g><path style="opacity:1" fill="#315b6f" d="M 171.5,134.5 C 176.833,134.5 182.167,134.5 187.5,134.5C 197.167,134.5 206.833,134.5 216.5,134.5C 216.5,137.167 216.5,139.833 216.5,142.5C 206.833,142.5 197.167,142.5 187.5,142.5C 187.5,144.833 187.5,147.167 187.5,149.5C 184.833,149.5 182.167,149.5 179.5,149.5C 179.5,147.167 179.5,144.833 179.5,142.5C 176.833,142.5 174.167,142.5 171.5,142.5C 171.5,139.833 171.5,137.167 171.5,134.5 Z"/></g>
<g><path style="opacity:1" fill="#619ab5" d="M 216.5,134.5 C 219.167,134.5 221.833,134.5 224.5,134.5C 226.833,134.5 229.167,134.5 231.5,134.5C 231.5,161.833 231.5,189.167 231.5,216.5C 229.167,216.5 226.833,216.5 224.5,216.5C 224.5,211.833 224.5,207.167 224.5,202.5C 224.5,194.833 224.5,187.167 224.5,179.5C 224.5,171.833 224.5,164.167 224.5,156.5C 221.833,156.5 219.167,156.5 216.5,156.5C 216.5,154.167 216.5,151.833 216.5,149.5C 206.833,149.5 197.167,149.5 187.5,149.5C 187.5,147.167 187.5,144.833 187.5,142.5C 197.167,142.5 206.833,142.5 216.5,142.5C 216.5,139.833 216.5,137.167 216.5,134.5 Z"/></g>
<g><path style="opacity:1" fill="#000103" d="M 231.5,134.5 C 234.167,134.5 236.833,134.5 239.5,134.5C 239.5,161.833 239.5,189.167 239.5,216.5C 236.833,216.5 234.167,216.5 231.5,216.5C 231.5,189.167 231.5,161.833 231.5,134.5 Z"/></g>
<g><path style="opacity:1" fill="#201d1c" d="M 36.5,134.5 C 39.1667,134.5 41.8333,134.5 44.5,134.5C 44.5,137.167 44.5,139.833 44.5,142.5C 41.8333,142.5 39.1667,142.5 36.5,142.5C 36.5,139.833 36.5,137.167 36.5,134.5 Z"/></g>
<g><path style="opacity:1" fill="#fefdfe" d="M 22.5,142.5 C 24.8333,142.5 27.1667,142.5 29.5,142.5C 29.5,144.833 29.5,147.167 29.5,149.5C 27.1667,149.5 24.8333,149.5 22.5,149.5C 22.5,147.167 22.5,144.833 22.5,142.5 Z"/></g>
<g><path style="opacity:1" fill="#c0c1c0" d="M 29.5,142.5 C 31.8333,142.5 34.1667,142.5 36.5,142.5C 36.5,144.833 36.5,147.167 36.5,149.5C 34.1667,149.5 31.8333,149.5 29.5,149.5C 29.5,147.167 29.5,144.833 29.5,142.5 Z"/></g>
<g><path style="opacity:1" fill="#fefdfe" d="M 36.5,142.5 C 39.1667,142.5 41.8333,142.5 44.5,142.5C 44.5,144.833 44.5,147.167 44.5,149.5C 41.8333,149.5 39.1667,149.5 36.5,149.5C 36.5,147.167 36.5,144.833 36.5,142.5 Z"/></g>
<g><path style="opacity:1" fill="#817e7b" d="M 96.5,156.5 C 91.8333,156.5 87.1667,156.5 82.5,156.5C 82.5,151.833 82.5,147.167 82.5,142.5C 87.1667,142.5 91.8333,142.5 96.5,142.5C 96.5,147.167 96.5,151.833 96.5,156.5 Z"/></g>
<g><path style="opacity:1" fill="#817e7b" d="M 104.5,142.5 C 106.833,142.5 109.167,142.5 111.5,142.5C 111.5,144.833 111.5,147.167 111.5,149.5C 114.167,149.5 116.833,149.5 119.5,149.5C 119.5,151.833 119.5,154.167 119.5,156.5C 134.5,156.5 149.5,156.5 164.5,156.5C 164.5,154.167 164.5,151.833 164.5,149.5C 166.833,149.5 169.167,149.5 171.5,149.5C 171.5,147.167 171.5,144.833 171.5,142.5C 174.167,142.5 176.833,142.5 179.5,142.5C 179.5,144.833 179.5,147.167 179.5,149.5C 179.5,151.833 179.5,154.167 179.5,156.5C 176.833,156.5 174.167,156.5 171.5,156.5C 171.5,159.167 171.5,161.833 171.5,164.5C 164.167,164.5 156.833,164.5 149.5,164.5C 144.5,164.5 139.5,164.5 134.5,164.5C 126.833,164.5 119.167,164.5 111.5,164.5C 111.5,161.833 111.5,159.167 111.5,156.5C 109.167,156.5 106.833,156.5 104.5,156.5C 104.5,151.833 104.5,147.167 104.5,142.5 Z"/></g>
<g><path style="opacity:1" fill="#adaaa8" d="M 171.5,134.5 C 171.5,137.167 171.5,139.833 171.5,142.5C 171.5,144.833 171.5,147.167 171.5,149.5C 169.167,149.5 166.833,149.5 164.5,149.5C 164.5,151.833 164.5,154.167 164.5,156.5C 149.5,156.5 134.5,156.5 119.5,156.5C 119.5,154.167 119.5,151.833 119.5,149.5C 116.833,149.5 114.167,149.5 111.5,149.5C 111.5,147.167 111.5,144.833 111.5,142.5C 129.167,142.5 146.833,142.5 164.5,142.5C 164.5,139.833 164.5,137.167 164.5,134.5C 166.833,134.5 169.167,134.5 171.5,134.5 Z"/></g>
<g><path style="opacity:1" fill="#221e1c" d="M 14.5,142.5 C 17.1667,142.5 19.8333,142.5 22.5,142.5C 22.5,144.833 22.5,147.167 22.5,149.5C 19.8333,149.5 17.1667,149.5 14.5,149.5C 14.5,147.167 14.5,144.833 14.5,142.5 Z"/></g>
<g><path style="opacity:1" fill="#221f1d" d="M 44.5,142.5 C 46.8333,142.5 49.1667,142.5 51.5,142.5C 51.5,144.833 51.5,147.167 51.5,149.5C 49.1667,149.5 46.8333,149.5 44.5,149.5C 44.5,147.167 44.5,144.833 44.5,142.5 Z"/></g>
<g><path style="opacity:1" fill="#fefdfe" d="M 29.5,149.5 C 31.8333,149.5 34.1667,149.5 36.5,149.5C 36.5,151.833 36.5,154.167 36.5,156.5C 34.1667,156.5 31.8333,156.5 29.5,156.5C 29.5,154.167 29.5,151.833 29.5,149.5 Z"/></g>
<g><path style="opacity:1" fill="#c0c1c0" d="M 36.5,149.5 C 39.1667,149.5 41.8333,149.5 44.5,149.5C 44.5,151.833 44.5,154.167 44.5,156.5C 41.8333,156.5 39.1667,156.5 36.5,156.5C 36.5,154.167 36.5,151.833 36.5,149.5 Z"/></g>
<g><path style="opacity:1" fill="#fefefe" d="M 44.5,149.5 C 46.8333,149.5 49.1667,149.5 51.5,149.5C 51.5,151.833 51.5,154.167 51.5,156.5C 49.1667,156.5 46.8333,156.5 44.5,156.5C 44.5,154.167 44.5,151.833 44.5,149.5 Z"/></g>
<g><path style="opacity:1" fill="#2a4f63" d="M 187.5,149.5 C 197.167,149.5 206.833,149.5 216.5,149.5C 216.5,151.833 216.5,154.167 216.5,156.5C 206.833,156.5 197.167,156.5 187.5,156.5C 187.5,154.167 187.5,151.833 187.5,149.5 Z"/></g>
<g><path style="opacity:1" fill="#221f1c" d="M 22.5,149.5 C 24.8333,149.5 27.1667,149.5 29.5,149.5C 29.5,151.833 29.5,154.167 29.5,156.5C 27.1667,156.5 24.8333,156.5 22.5,156.5C 22.5,154.167 22.5,151.833 22.5,149.5 Z"/></g>
<g><path style="opacity:1" fill="#231f1d" d="M 51.5,149.5 C 54.1667,149.5 56.8333,149.5 59.5,149.5C 59.5,151.833 59.5,154.167 59.5,156.5C 56.8333,156.5 54.1667,156.5 51.5,156.5C 51.5,154.167 51.5,151.833 51.5,149.5 Z"/></g>
<g><path style="opacity:1" fill="#221e1c" d="M 74.5,149.5 C 74.5,154.5 74.5,159.5 74.5,164.5C 72.1667,164.5 69.8333,164.5 67.5,164.5C 67.5,166.833 67.5,169.167 67.5,171.5C 64.8333,171.5 62.1667,171.5 59.5,171.5C 59.5,169.167 59.5,166.833 59.5,164.5C 59.5,161.833 59.5,159.167 59.5,156.5C 62.1667,156.5 64.8333,156.5 67.5,156.5C 67.5,154.167 67.5,151.833 67.5,149.5C 69.8333,149.5 72.1667,149.5 74.5,149.5 Z"/></g>
<g><path style="opacity:1" fill="#010101" d="M 179.5,149.5 C 182.167,149.5 184.833,149.5 187.5,149.5C 187.5,151.833 187.5,154.167 187.5,156.5C 187.5,159.167 187.5,161.833 187.5,164.5C 184.833,164.5 182.167,164.5 179.5,164.5C 179.5,161.833 179.5,159.167 179.5,156.5C 179.5,154.167 179.5,151.833 179.5,149.5 Z"/></g>
<g><path style="opacity:1" fill="#fefefe" d="M 36.5,156.5 C 39.1667,156.5 41.8333,156.5 44.5,156.5C 44.5,159.167 44.5,161.833 44.5,164.5C 41.8333,164.5 39.1667,164.5 36.5,164.5C 36.5,161.833 36.5,159.167 36.5,156.5 Z"/></g>
<g><path style="opacity:1" fill="#c0c0c0" d="M 44.5,156.5 C 46.8333,156.5 49.1667,156.5 51.5,156.5C 51.5,159.167 51.5,161.833 51.5,164.5C 49.1667,164.5 46.8333,164.5 44.5,164.5C 44.5,161.833 44.5,159.167 44.5,156.5 Z"/></g>
<g><path style="opacity:1" fill="#fefefe" d="M 51.5,156.5 C 54.1667,156.5 56.8333,156.5 59.5,156.5C 59.5,159.167 59.5,161.833 59.5,164.5C 56.8333,164.5 54.1667,164.5 51.5,164.5C 51.5,161.833 51.5,159.167 51.5,156.5 Z"/></g>
<g><path style="opacity:1" fill="#3b241e" d="M 82.5,156.5 C 87.1667,156.5 91.8333,156.5 96.5,156.5C 96.5,161.5 96.5,166.5 96.5,171.5C 91.8333,171.5 87.1667,171.5 82.5,171.5C 82.5,166.5 82.5,161.5 82.5,156.5 Z"/></g>
<g><path style="opacity:1" fill="#3b241f" d="M 187.5,156.5 C 197.167,156.5 206.833,156.5 216.5,156.5C 216.5,161.5 216.5,166.5 216.5,171.5C 209.167,171.5 201.833,171.5 194.5,171.5C 194.5,169.167 194.5,166.833 194.5,164.5C 192.167,164.5 189.833,164.5 187.5,164.5C 187.5,161.833 187.5,159.167 187.5,156.5 Z"/></g>
<g><path style="opacity:1" fill="#221e1d" d="M 29.5,156.5 C 31.8333,156.5 34.1667,156.5 36.5,156.5C 36.5,159.167 36.5,161.833 36.5,164.5C 34.1667,164.5 31.8333,164.5 29.5,164.5C 29.5,161.833 29.5,159.167 29.5,156.5 Z"/></g>
<g><path style="opacity:1" fill="#4a4443" d="M 104.5,156.5 C 106.833,156.5 109.167,156.5 111.5,156.5C 111.5,159.167 111.5,161.833 111.5,164.5C 109.167,164.5 106.833,164.5 104.5,164.5C 104.5,161.833 104.5,159.167 104.5,156.5 Z"/></g>
<g><path style="opacity:1" fill="#4b4442" d="M 179.5,156.5 C 179.5,159.167 179.5,161.833 179.5,164.5C 176.833,164.5 174.167,164.5 171.5,164.5C 171.5,161.833 171.5,159.167 171.5,156.5C 174.167,156.5 176.833,156.5 179.5,156.5 Z"/></g>
<g><path style="opacity:1" fill="#fefefe" d="M 44.5,164.5 C 46.8333,164.5 49.1667,164.5 51.5,164.5C 51.5,166.833 51.5,169.167 51.5,171.5C 49.1667,171.5 46.8333,171.5 44.5,171.5C 44.5,169.167 44.5,166.833 44.5,164.5 Z"/></g>
<g><path style="opacity:1" fill="#010001" d="M 187.5,164.5 C 189.833,164.5 192.167,164.5 194.5,164.5C 194.5,166.833 194.5,169.167 194.5,171.5C 201.833,171.5 209.167,171.5 216.5,171.5C 216.5,174.167 216.5,176.833 216.5,179.5C 209.167,179.5 201.833,179.5 194.5,179.5C 194.5,182.167 194.5,184.833 194.5,187.5C 192.167,187.5 189.833,187.5 187.5,187.5C 187.5,182.167 187.5,176.833 187.5,171.5C 187.5,169.167 187.5,166.833 187.5,164.5 Z"/></g>
<g><path style="opacity:1" fill="#bfbfbf" d="M 51.5,164.5 C 54.1667,164.5 56.8333,164.5 59.5,164.5C 59.5,166.833 59.5,169.167 59.5,171.5C 56.8333,171.5 54.1667,171.5 51.5,171.5C 51.5,169.167 51.5,166.833 51.5,164.5 Z"/></g>
<g><path style="opacity:1" fill="#d9d5d3" d="M 74.5,164.5 C 74.5,166.833 74.5,169.167 74.5,171.5C 72.1667,171.5 69.8333,171.5 67.5,171.5C 67.5,169.167 67.5,166.833 67.5,164.5C 69.8333,164.5 72.1667,164.5 74.5,164.5 Z"/></g>
<g><path style="opacity:1" fill="#532f27" d="M 134.5,164.5 C 139.5,164.5 144.5,164.5 149.5,164.5C 149.5,166.833 149.5,169.167 149.5,171.5C 144.5,171.5 139.5,171.5 134.5,171.5C 134.5,169.167 134.5,166.833 134.5,164.5 Z"/></g>
<g><path style="opacity:1" fill="#221e1d" d="M 36.5,164.5 C 39.1667,164.5 41.8333,164.5 44.5,164.5C 44.5,166.833 44.5,169.167 44.5,171.5C 41.8333,171.5 39.1667,171.5 36.5,171.5C 36.5,169.167 36.5,166.833 36.5,164.5 Z"/></g>
<g><path style="opacity:1" fill="#96533c" d="M 104.5,164.5 C 106.833,164.5 109.167,164.5 111.5,164.5C 119.167,164.5 126.833,164.5 134.5,164.5C 134.5,166.833 134.5,169.167 134.5,171.5C 132.167,171.5 129.833,171.5 127.5,171.5C 127.5,184.167 127.5,196.833 127.5,209.5C 127.167,209.5 126.833,209.5 126.5,209.5C 126.5,204.5 126.5,199.5 126.5,194.5C 126.5,186.833 126.5,179.167 126.5,171.5C 124.167,171.5 121.833,171.5 119.5,171.5C 114.5,171.5 109.5,171.5 104.5,171.5C 104.5,169.167 104.5,166.833 104.5,164.5 Z"/></g>
<g><path style="opacity:1" fill="#99523d" d="M 149.5,164.5 C 156.833,164.5 164.167,164.5 171.5,164.5C 174.167,164.5 176.833,164.5 179.5,164.5C 182.167,164.5 184.833,164.5 187.5,164.5C 187.5,166.833 187.5,169.167 187.5,171.5C 179.833,171.5 172.167,171.5 164.5,171.5C 161.833,171.5 159.167,171.5 156.5,171.5C 154.167,171.5 151.833,171.5 149.5,171.5C 149.5,169.167 149.5,166.833 149.5,164.5 Z"/></g>
<g><path style="opacity:1" fill="#2c5063" d="M 216.5,156.5 C 219.167,156.5 221.833,156.5 224.5,156.5C 224.5,164.167 224.5,171.833 224.5,179.5C 221.833,179.5 219.167,179.5 216.5,179.5C 216.5,176.833 216.5,174.167 216.5,171.5C 216.5,166.5 216.5,161.5 216.5,156.5 Z"/></g>
<g><path style="opacity:1" fill="#221e1c" d="M 67.5,171.5 C 69.8333,171.5 72.1667,171.5 74.5,171.5C 74.5,174.167 74.5,176.833 74.5,179.5C 72.1667,179.5 69.8333,179.5 67.5,179.5C 67.5,176.833 67.5,174.167 67.5,171.5 Z"/></g>
<g><path style="opacity:1" fill="#fdfdfd" d="M 74.5,171.5 C 77.1667,171.5 79.8333,171.5 82.5,171.5C 82.5,174.167 82.5,176.833 82.5,179.5C 79.8333,179.5 77.1667,179.5 74.5,179.5C 74.5,176.833 74.5,174.167 74.5,171.5 Z"/></g>
<g><path style="opacity:1" fill="#231f1d" d="M 44.5,171.5 C 46.8333,171.5 49.1667,171.5 51.5,171.5C 54.1667,171.5 56.8333,171.5 59.5,171.5C 59.5,174.167 59.5,176.833 59.5,179.5C 56.8333,179.5 54.1667,179.5 51.5,179.5C 51.5,182.167 51.5,184.833 51.5,187.5C 49.1667,187.5 46.8333,187.5 44.5,187.5C 44.5,182.167 44.5,176.833 44.5,171.5 Z"/></g>
<g><path style="opacity:1" fill="#e71114" d="M 59.5,171.5 C 62.1667,171.5 64.8333,171.5 67.5,171.5C 67.5,174.167 67.5,176.833 67.5,179.5C 64.8333,179.5 62.1667,179.5 59.5,179.5C 59.5,176.833 59.5,174.167 59.5,171.5 Z"/></g>
<g><path style="opacity:1" fill="#c1bbb9" d="M 104.5,171.5 C 109.5,171.5 114.5,171.5 119.5,171.5C 119.5,174.167 119.5,176.833 119.5,179.5C 116.833,179.5 114.167,179.5 111.5,179.5C 109.833,186.5 112.5,189.167 119.5,187.5C 119.5,189.833 119.5,192.167 119.5,194.5C 116.833,194.5 114.167,194.5 111.5,194.5C 111.5,192.167 111.5,189.833 111.5,187.5C 109.167,187.5 106.833,187.5 104.5,187.5C 104.5,182.167 104.5,176.833 104.5,171.5 Z"/></g>
<g><path style="opacity:1" fill="#837d7b" d="M 119.5,171.5 C 121.833,171.5 124.167,171.5 126.5,171.5C 126.5,179.167 126.5,186.833 126.5,194.5C 124.167,194.5 121.833,194.5 119.5,194.5C 119.5,192.167 119.5,189.833 119.5,187.5C 112.5,189.167 109.833,186.5 111.5,179.5C 114.167,179.5 116.833,179.5 119.5,179.5C 119.5,176.833 119.5,174.167 119.5,171.5 Z"/></g>
<g><path style="opacity:1" fill="#d58924" d="M 134.5,171.5 C 134.5,186.5 134.5,201.5 134.5,216.5C 132.167,216.5 129.833,216.5 127.5,216.5C 127.5,214.167 127.5,211.833 127.5,209.5C 127.5,196.833 127.5,184.167 127.5,171.5C 129.833,171.5 132.167,171.5 134.5,171.5 Z"/></g>
<g><path style="opacity:1" fill="#639bb5" d="M 134.5,171.5 C 139.5,171.5 144.5,171.5 149.5,171.5C 149.5,186.5 149.5,201.5 149.5,216.5C 144.5,216.5 139.5,216.5 134.5,216.5C 134.5,201.5 134.5,186.5 134.5,171.5 Z"/></g>
<g><path style="opacity:1" fill="#d48a26" d="M 149.5,171.5 C 151.833,171.5 154.167,171.5 156.5,171.5C 156.5,179.167 156.5,186.833 156.5,194.5C 156.5,199.5 156.5,204.5 156.5,209.5C 156.5,211.833 156.5,214.167 156.5,216.5C 154.167,216.5 151.833,216.5 149.5,216.5C 149.5,201.5 149.5,186.5 149.5,171.5 Z"/></g>
<g><path style="opacity:1" fill="#847c7a" d="M 156.5,171.5 C 159.167,171.5 161.833,171.5 164.5,171.5C 164.5,174.167 164.5,176.833 164.5,179.5C 166.833,179.5 169.167,179.5 171.5,179.5C 171.5,182.167 171.5,184.833 171.5,187.5C 169.167,187.5 166.833,187.5 164.5,187.5C 164.5,189.833 164.5,192.167 164.5,194.5C 161.833,194.5 159.167,194.5 156.5,194.5C 156.5,186.833 156.5,179.167 156.5,171.5 Z"/></g>
<g><path style="opacity:1" fill="#b6b1af" d="M 164.5,171.5 C 172.167,171.5 179.833,171.5 187.5,171.5C 187.5,176.833 187.5,182.167 187.5,187.5C 184.833,187.5 182.167,187.5 179.5,187.5C 179.5,184.833 179.5,182.167 179.5,179.5C 176.833,179.5 174.167,179.5 171.5,179.5C 169.167,179.5 166.833,179.5 164.5,179.5C 164.5,176.833 164.5,174.167 164.5,171.5 Z"/></g>
<g><path style="opacity:1" fill="#dad6d3" d="M 59.5,179.5 C 59.5,182.167 59.5,184.833 59.5,187.5C 56.8333,187.5 54.1667,187.5 51.5,187.5C 51.5,184.833 51.5,182.167 51.5,179.5C 54.1667,179.5 56.8333,179.5 59.5,179.5 Z"/></g>
<g><path style="opacity:1" fill="#533128" d="M 67.5,179.5 C 69.8333,179.5 72.1667,179.5 74.5,179.5C 74.5,184.5 74.5,189.5 74.5,194.5C 72.1667,194.5 69.8333,194.5 67.5,194.5C 67.5,192.167 67.5,189.833 67.5,187.5C 67.5,184.833 67.5,182.167 67.5,179.5 Z"/></g>
<g><path style="opacity:1" fill="#000000" d="M 74.5,179.5 C 77.1667,179.5 79.8333,179.5 82.5,179.5C 82.5,184.5 82.5,189.5 82.5,194.5C 82.5,197.167 82.5,199.833 82.5,202.5C 79.8333,202.5 77.1667,202.5 74.5,202.5C 74.5,199.833 74.5,197.167 74.5,194.5C 74.5,189.5 74.5,184.5 74.5,179.5 Z"/></g>
<g><path style="opacity:1" fill="#a0a0a0" d="M 82.5,179.5 C 87.1667,179.5 91.8333,179.5 96.5,179.5C 96.5,184.5 96.5,189.5 96.5,194.5C 91.8333,194.5 87.1667,194.5 82.5,194.5C 82.5,189.5 82.5,184.5 82.5,179.5 Z"/></g>
<g><path style="opacity:1" fill="#000000" d="M 171.5,179.5 C 174.167,179.5 176.833,179.5 179.5,179.5C 179.5,182.167 179.5,184.833 179.5,187.5C 176.833,187.5 174.167,187.5 171.5,187.5C 171.5,184.833 171.5,182.167 171.5,179.5 Z"/></g>
<g><path style="opacity:1" fill="#aca9a7" d="M 216.5,179.5 C 216.5,184.5 216.5,189.5 216.5,194.5C 211.833,194.5 207.167,194.5 202.5,194.5C 202.5,192.167 202.5,189.833 202.5,187.5C 199.833,187.5 197.167,187.5 194.5,187.5C 194.5,184.833 194.5,182.167 194.5,179.5C 201.833,179.5 209.167,179.5 216.5,179.5 Z"/></g>
<g><path style="opacity:1" fill="#010101" d="M 216.5,179.5 C 219.167,179.5 221.833,179.5 224.5,179.5C 224.5,187.167 224.5,194.833 224.5,202.5C 221.833,202.5 219.167,202.5 216.5,202.5C 216.5,199.833 216.5,197.167 216.5,194.5C 216.5,189.5 216.5,184.5 216.5,179.5 Z"/></g>
<g><path style="opacity:1" fill="#261f1f" d="M 59.5,179.5 C 62.1667,179.5 64.8333,179.5 67.5,179.5C 67.5,182.167 67.5,184.833 67.5,187.5C 64.8333,187.5 62.1667,187.5 59.5,187.5C 59.5,184.833 59.5,182.167 59.5,179.5 Z"/></g>
<g><path style="opacity:1" fill="#221e1c" d="M 44.5,187.5 C 44.5,189.833 44.5,192.167 44.5,194.5C 46.8333,194.5 49.1667,194.5 51.5,194.5C 51.5,197.167 51.5,199.833 51.5,202.5C 46.5,202.5 41.5,202.5 36.5,202.5C 36.5,197.5 36.5,192.5 36.5,187.5C 39.1667,187.5 41.8333,187.5 44.5,187.5 Z"/></g>
<g><path style="opacity:1" fill="#d9d5d2" d="M 44.5,187.5 C 46.8333,187.5 49.1667,187.5 51.5,187.5C 51.5,189.833 51.5,192.167 51.5,194.5C 49.1667,194.5 46.8333,194.5 44.5,194.5C 44.5,192.167 44.5,189.833 44.5,187.5 Z"/></g>
<g><path style="opacity:1" fill="#221e1c" d="M 51.5,187.5 C 54.1667,187.5 56.8333,187.5 59.5,187.5C 59.5,189.833 59.5,192.167 59.5,194.5C 56.8333,194.5 54.1667,194.5 51.5,194.5C 51.5,192.167 51.5,189.833 51.5,187.5 Z"/></g>
<g><path style="opacity:1" fill="#817d7a" d="M 104.5,187.5 C 106.833,187.5 109.167,187.5 111.5,187.5C 111.5,189.833 111.5,192.167 111.5,194.5C 109.167,194.5 106.833,194.5 104.5,194.5C 104.5,192.167 104.5,189.833 104.5,187.5 Z"/></g>
<g><path style="opacity:1" fill="#b2b2b2" d="M 171.5,187.5 C 171.5,189.833 171.5,192.167 171.5,194.5C 169.167,194.5 166.833,194.5 164.5,194.5C 164.5,192.167 164.5,189.833 164.5,187.5C 166.833,187.5 169.167,187.5 171.5,187.5 Z"/></g>
<g><path style="opacity:1" fill="#817d7c" d="M 171.5,187.5 C 174.167,187.5 176.833,187.5 179.5,187.5C 179.5,189.833 179.5,192.167 179.5,194.5C 176.833,194.5 174.167,194.5 171.5,194.5C 171.5,192.167 171.5,189.833 171.5,187.5 Z"/></g>
<g><path style="opacity:1" fill="#010101" d="M 179.5,187.5 C 182.167,187.5 184.833,187.5 187.5,187.5C 187.5,189.833 187.5,192.167 187.5,194.5C 184.833,194.5 182.167,194.5 179.5,194.5C 179.5,192.167 179.5,189.833 179.5,187.5 Z"/></g>
<g><path style="opacity:1" fill="#817e7b" d="M 187.5,187.5 C 189.833,187.5 192.167,187.5 194.5,187.5C 197.167,187.5 199.833,187.5 202.5,187.5C 202.5,189.833 202.5,192.167 202.5,194.5C 207.167,194.5 211.833,194.5 216.5,194.5C 216.5,197.167 216.5,199.833 216.5,202.5C 209.167,202.5 201.833,202.5 194.5,202.5C 194.5,199.833 194.5,197.167 194.5,194.5C 192.167,194.5 189.833,194.5 187.5,194.5C 187.5,192.167 187.5,189.833 187.5,187.5 Z"/></g>
<g><path style="opacity:1" fill="#817e7b" d="M 82.5,194.5 C 87.1667,194.5 91.8333,194.5 96.5,194.5C 96.5,197.167 96.5,199.833 96.5,202.5C 91.8333,202.5 87.1667,202.5 82.5,202.5C 82.5,199.833 82.5,197.167 82.5,194.5 Z"/></g>
<g><path style="opacity:1" fill="#aeaaa8" d="M 104.5,194.5 C 106.833,194.5 109.167,194.5 111.5,194.5C 111.5,197.167 111.5,199.833 111.5,202.5C 109.167,202.5 106.833,202.5 104.5,202.5C 104.5,199.833 104.5,197.167 104.5,194.5 Z"/></g>
<g><path style="opacity:1" fill="#817d7a" d="M 111.5,194.5 C 114.167,194.5 116.833,194.5 119.5,194.5C 119.5,197.167 119.5,199.833 119.5,202.5C 116.833,202.5 114.167,202.5 111.5,202.5C 111.5,199.833 111.5,197.167 111.5,194.5 Z"/></g>
<g><path style="opacity:1" fill="#552f27" d="M 119.5,194.5 C 121.833,194.5 124.167,194.5 126.5,194.5C 126.5,199.5 126.5,204.5 126.5,209.5C 124.167,209.5 121.833,209.5 119.5,209.5C 116.833,209.5 114.167,209.5 111.5,209.5C 111.5,207.167 111.5,204.833 111.5,202.5C 114.167,202.5 116.833,202.5 119.5,202.5C 119.5,199.833 119.5,197.167 119.5,194.5 Z"/></g>
<g><path style="opacity:1" fill="#552f27" d="M 156.5,194.5 C 159.167,194.5 161.833,194.5 164.5,194.5C 164.5,197.167 164.5,199.833 164.5,202.5C 166.833,202.5 169.167,202.5 171.5,202.5C 171.5,204.833 171.5,207.167 171.5,209.5C 169.167,209.5 166.833,209.5 164.5,209.5C 161.833,209.5 159.167,209.5 156.5,209.5C 156.5,204.5 156.5,199.5 156.5,194.5 Z"/></g>
<g><path style="opacity:1" fill="#837e7b" d="M 164.5,194.5 C 166.833,194.5 169.167,194.5 171.5,194.5C 171.5,197.167 171.5,199.833 171.5,202.5C 169.167,202.5 166.833,202.5 164.5,202.5C 164.5,199.833 164.5,197.167 164.5,194.5 Z"/></g>
<g><path style="opacity:1" fill="#c0bbbb" d="M 171.5,194.5 C 174.167,194.5 176.833,194.5 179.5,194.5C 182.167,194.5 184.833,194.5 187.5,194.5C 187.5,197.167 187.5,199.833 187.5,202.5C 182.167,202.5 176.833,202.5 171.5,202.5C 171.5,199.833 171.5,197.167 171.5,194.5 Z"/></g>
<g><path style="opacity:1" fill="#010101" d="M 187.5,194.5 C 189.833,194.5 192.167,194.5 194.5,194.5C 194.5,197.167 194.5,199.833 194.5,202.5C 192.167,202.5 189.833,202.5 187.5,202.5C 187.5,199.833 187.5,197.167 187.5,194.5 Z"/></g>
<g><path style="opacity:1" fill="#827d7b" d="M 104.5,202.5 C 106.833,202.5 109.167,202.5 111.5,202.5C 111.5,204.833 111.5,207.167 111.5,209.5C 109.167,209.5 106.833,209.5 104.5,209.5C 104.5,207.167 104.5,204.833 104.5,202.5 Z"/></g>
<g><path style="opacity:1" fill="#908f8e" d="M 171.5,202.5 C 176.833,202.5 182.167,202.5 187.5,202.5C 187.5,204.833 187.5,207.167 187.5,209.5C 182.167,209.5 176.833,209.5 171.5,209.5C 171.5,207.167 171.5,204.833 171.5,202.5 Z"/></g>
<g><path style="opacity:1" fill="#b1b1b1" d="M 187.5,202.5 C 189.833,202.5 192.167,202.5 194.5,202.5C 194.5,204.833 194.5,207.167 194.5,209.5C 192.167,209.5 189.833,209.5 187.5,209.5C 187.5,207.167 187.5,204.833 187.5,202.5 Z"/></g>
<g><path style="opacity:1" fill="#010101" d="M 194.5,202.5 C 201.833,202.5 209.167,202.5 216.5,202.5C 216.5,204.833 216.5,207.167 216.5,209.5C 211.833,209.5 207.167,209.5 202.5,209.5C 202.5,211.833 202.5,214.167 202.5,216.5C 207.167,216.5 211.833,216.5 216.5,216.5C 216.5,219.167 216.5,221.833 216.5,224.5C 211.833,224.5 207.167,224.5 202.5,224.5C 202.5,229.5 202.5,234.5 202.5,239.5C 199.833,239.5 197.167,239.5 194.5,239.5C 194.5,231.833 194.5,224.167 194.5,216.5C 194.5,214.167 194.5,211.833 194.5,209.5C 194.5,207.167 194.5,204.833 194.5,202.5 Z"/></g>
<g><path style="opacity:1" fill="#37667c" d="M 216.5,202.5 C 219.167,202.5 221.833,202.5 224.5,202.5C 224.5,207.167 224.5,211.833 224.5,216.5C 224.5,219.167 224.5,221.833 224.5,224.5C 221.833,224.5 219.167,224.5 216.5,224.5C 216.5,221.833 216.5,219.167 216.5,216.5C 211.833,216.5 207.167,216.5 202.5,216.5C 202.5,214.167 202.5,211.833 202.5,209.5C 207.167,209.5 211.833,209.5 216.5,209.5C 216.5,207.167 216.5,204.833 216.5,202.5 Z"/></g>
<g><path style="opacity:1" fill="#4b4442" d="M 104.5,209.5 C 106.833,209.5 109.167,209.5 111.5,209.5C 114.167,209.5 116.833,209.5 119.5,209.5C 119.5,211.833 119.5,214.167 119.5,216.5C 114.5,216.5 109.5,216.5 104.5,216.5C 104.5,214.167 104.5,211.833 104.5,209.5 Z"/></g>
<g><path style="opacity:1" fill="#020101" d="M 119.5,209.5 C 121.833,209.5 124.167,209.5 126.5,209.5C 126.833,209.5 127.167,209.5 127.5,209.5C 127.5,211.833 127.5,214.167 127.5,216.5C 129.833,216.5 132.167,216.5 134.5,216.5C 134.5,219.167 134.5,221.833 134.5,224.5C 132.167,224.5 129.833,224.5 127.5,224.5C 127.5,229.5 127.5,234.5 127.5,239.5C 124.833,239.5 122.167,239.5 119.5,239.5C 119.5,231.833 119.5,224.167 119.5,216.5C 119.5,214.167 119.5,211.833 119.5,209.5 Z"/></g>
<g><path style="opacity:1" fill="#837c7b" d="M 156.5,209.5 C 159.167,209.5 161.833,209.5 164.5,209.5C 164.5,211.833 164.5,214.167 164.5,216.5C 161.833,216.5 159.167,216.5 156.5,216.5C 156.5,214.167 156.5,211.833 156.5,209.5 Z"/></g>
<g><path style="opacity:1" fill="#4b4442" d="M 164.5,209.5 C 166.833,209.5 169.167,209.5 171.5,209.5C 176.833,209.5 182.167,209.5 187.5,209.5C 189.833,209.5 192.167,209.5 194.5,209.5C 194.5,211.833 194.5,214.167 194.5,216.5C 184.5,216.5 174.5,216.5 164.5,216.5C 164.5,214.167 164.5,211.833 164.5,209.5 Z"/></g>
<g><path style="opacity:1" fill="#817d7b" d="M 104.5,216.5 C 109.5,216.5 114.5,216.5 119.5,216.5C 119.5,224.167 119.5,231.833 119.5,239.5C 111.833,239.5 104.167,239.5 96.5,239.5C 96.5,234.5 96.5,229.5 96.5,224.5C 99.1667,224.5 101.833,224.5 104.5,224.5C 104.5,221.833 104.5,219.167 104.5,216.5 Z"/></g>
<g><path style="opacity:1" fill="#010001" d="M 149.5,216.5 C 151.833,216.5 154.167,216.5 156.5,216.5C 159.167,216.5 161.833,216.5 164.5,216.5C 164.5,219.167 164.5,221.833 164.5,224.5C 161.833,224.5 159.167,224.5 156.5,224.5C 156.5,229.5 156.5,234.5 156.5,239.5C 154.167,239.5 151.833,239.5 149.5,239.5C 149.5,236.833 149.5,234.167 149.5,231.5C 144.5,231.5 139.5,231.5 134.5,231.5C 134.5,229.167 134.5,226.833 134.5,224.5C 139.5,224.5 144.5,224.5 149.5,224.5C 149.5,221.833 149.5,219.167 149.5,216.5 Z"/></g>
<g><path style="opacity:1" fill="#827e7b" d="M 164.5,216.5 C 174.5,216.5 184.5,216.5 194.5,216.5C 194.5,224.167 194.5,231.833 194.5,239.5C 181.833,239.5 169.167,239.5 156.5,239.5C 156.5,234.5 156.5,229.5 156.5,224.5C 159.167,224.5 161.833,224.5 164.5,224.5C 164.5,221.833 164.5,219.167 164.5,216.5 Z"/></g>
<g><path style="opacity:1" fill="#000102" d="M 224.5,216.5 C 226.833,216.5 229.167,216.5 231.5,216.5C 231.5,219.167 231.5,221.833 231.5,224.5C 229.167,224.5 226.833,224.5 224.5,224.5C 224.5,221.833 224.5,219.167 224.5,216.5 Z"/></g>
<g><path style="opacity:1" fill="#d68923" d="M 134.5,216.5 C 139.5,216.5 144.5,216.5 149.5,216.5C 149.5,219.167 149.5,221.833 149.5,224.5C 144.5,224.5 139.5,224.5 134.5,224.5C 134.5,221.833 134.5,219.167 134.5,216.5 Z"/></g>
<g><path style="opacity:1" fill="#010000" d="M 96.5,224.5 C 96.5,229.5 96.5,234.5 96.5,239.5C 94.1667,239.5 91.8333,239.5 89.5,239.5C 89.5,234.5 89.5,229.5 89.5,224.5C 91.8333,224.5 94.1667,224.5 96.5,224.5 Z"/></g>
<g><path style="opacity:1" fill="#010101" d="M 216.5,224.5 C 219.167,224.5 221.833,224.5 224.5,224.5C 224.5,226.833 224.5,229.167 224.5,231.5C 221.833,231.5 219.167,231.5 216.5,231.5C 216.5,229.167 216.5,226.833 216.5,224.5 Z"/></g>
</svg>
