<?xml version="1.0" encoding="UTF-8"?>
<svg version="1.1" xmlns="http://www.w3.org/2000/svg" width="240" height="240">
<path d="M0 0 C14.85 0 29.7 0 45 0 C45 2.64 45 5.28 45 8 C49.95 8 54.9 8 60 8 C60 10.31 60 12.62 60 15 C62.64 15 65.28 15 68 15 C68 17.64 68 20.28 68 23 C70.31 23 72.62 23 75 23 C75 25.31 75 27.62 75 30 C77.31 30 79.62 30 82 30 C82 32.31 82 34.62 82 37 C84.64 37 87.28 37 90 37 C90 39.64 90 42.28 90 45 C87.36 45 84.72 45 82 45 C82 49.95 82 54.9 82 60 C79.69 60 77.38 60 75 60 C75 67.59 75 75.18 75 83 C72.69 83 70.38 83 68 83 C68 90.26 68 97.52 68 105 C70.31 105 72.62 105 75 105 C75 109.95 75 114.9 75 120 C77.31 120 79.62 120 82 120 C82 122.64 82 125.28 82 128 C84.64 128 87.28 128 90 128 C90 135.26 90 142.52 90 150 C92.31 150 94.62 150 97 150 C97 152.31 97 154.62 97 157 C99.64 157 102.28 157 105 157 C105 154.69 105 152.38 105 150 C107.64 150 110.28 150 113 150 C113 147.69 113 145.38 113 143 C115.31 143 117.62 143 120 143 C120 140.36 120 137.72 120 135 C122.64 135 125.28 135 128 135 C128 132.69 128 130.38 128 128 C130.31 128 132.62 128 135 128 C135 125.36 135 122.72 135 120 C137.31 120 139.62 120 142 120 C142 117.36 142 114.72 142 112 C149.59 112 157.18 112 165 112 C165 119.59 165 127.18 165 135 C162.36 135 159.72 135 157 135 C157 137.64 157 140.28 157 143 C154.69 143 152.38 143 150 143 C150 145.31 150 147.62 150 150 C147.36 150 144.72 150 142 150 C142 152.31 142 154.62 142 157 C139.69 157 137.38 157 135 157 C135 159.64 135 162.28 135 165 C132.69 165 130.38 165 128 165 C128 167.31 128 169.62 128 172 C125.36 172 122.72 172 120 172 C120 177.28 120 182.56 120 188 C122.64 188 125.28 188 128 188 C128 192.95 128 197.9 128 203 C123.05 203 118.1 203 113 203 C113 200.36 113 197.72 113 195 C110.36 195 107.72 195 105 195 C105 192.69 105 190.38 105 188 C102.36 188 99.72 188 97 188 C97 190.31 97 192.62 97 195 C94.69 195 92.38 195 90 195 C90 197.64 90 200.28 90 203 C87.36 203 84.72 203 82 203 C82 205.31 82 207.62 82 210 C77.38 210 72.76 210 68 210 C68 214.95 68 219.9 68 225 C70.31 225 72.62 225 75 225 C75 229.95 75 234.9 75 240 C62.46 240 49.92 240 37 240 C37 235.05 37 230.1 37 225 C34.69 225 32.38 225 30 225 C30 227.31 30 229.62 30 232 C25.05 232 20.1 232 15 232 C15 234.64 15 237.28 15 240 C-2.49 240 -19.98 240 -38 240 C-38 235.05 -38 230.1 -38 225 C-42.62 225 -47.24 225 -52 225 C-52 227.31 -52 229.62 -52 232 C-54.64 232 -57.28 232 -60 232 C-60 229.69 -60 227.38 -60 225 C-62.31 225 -64.62 225 -67 225 C-67 222.36 -67 219.72 -67 217 C-69.64 217 -72.28 217 -75 217 C-75 189.94 -75 162.88 -75 135 C-72.36 135 -69.72 135 -67 135 C-67 130.05 -67 125.1 -67 120 C-64.69 120 -62.38 120 -60 120 C-60 117.36 -60 114.72 -60 112 C-57.36 112 -54.72 112 -52 112 C-52 107.05 -52 102.1 -52 97 C-49.69 97 -47.38 97 -45 97 C-45 94.69 -45 92.38 -45 90 C-42.69 90 -40.38 90 -38 90 C-38 87.69 -38 85.38 -38 83 C-40.31 83 -42.62 83 -45 83 C-45 67.82 -45 52.64 -45 37 C-42.69 37 -40.38 37 -38 37 C-38 34.69 -38 32.38 -38 30 C-35.36 30 -32.72 30 -30 30 C-30 27.69 -30 25.38 -30 23 C-27.69 23 -25.38 23 -23 23 C-23 20.36 -23 17.72 -23 15 C-20.36 15 -17.72 15 -15 15 C-15 12.69 -15 10.38 -15 8 C-10.05 8 -5.1 8 0 8 C0 5.36 0 2.72 0 0 Z " fill="#4B4442" transform="translate(75,0)"/>
<path d="M0 0 C14.85 0 29.7 0 45 0 C45 2.64 45 5.28 45 8 C49.95 8 54.9 8 60 8 C60 10.31 60 12.62 60 15 C62.64 15 65.28 15 68 15 C68 17.64 68 20.28 68 23 C70.31 23 72.62 23 75 23 C75 25.31 75 27.62 75 30 C77.31 30 79.62 30 82 30 C82 32.31 82 34.62 82 37 C84.64 37 87.28 37 90 37 C90 39.64 90 42.28 90 45 C87.36 45 84.72 45 82 45 C82 49.95 82 54.9 82 60 C79.69 60 77.38 60 75 60 C75 67.59 75 75.18 75 83 C72.69 83 70.38 83 68 83 C68 90.26 68 97.52 68 105 C65.36 105 62.72 105 60 105 C60 102.36 60 99.72 60 97 C55.05 97 50.1 97 45 97 C45 99.64 45 102.28 45 105 C27.84 105 10.68 105 -7 105 C-7 102.36 -7 99.72 -7 97 C-14.59 97 -22.18 97 -30 97 C-30 94.69 -30 92.38 -30 90 C-32.64 90 -35.28 90 -38 90 C-38 87.69 -38 85.38 -38 83 C-40.31 83 -42.62 83 -45 83 C-45 67.82 -45 52.64 -45 37 C-42.69 37 -40.38 37 -38 37 C-38 34.69 -38 32.38 -38 30 C-35.36 30 -32.72 30 -30 30 C-30 27.69 -30 25.38 -30 23 C-27.69 23 -25.38 23 -23 23 C-23 20.36 -23 17.72 -23 15 C-20.36 15 -17.72 15 -15 15 C-15 12.69 -15 10.38 -15 8 C-10.05 8 -5.1 8 0 8 C0 5.36 0 2.72 0 0 Z " fill="#4F4947" transform="translate(75,0)"/>
<path d="M0 0 C4.95 0 9.9 0 15 0 C15 2.31 15 4.62 15 7 C22.59 7 30.18 7 38 7 C38 9.64 38 12.28 38 15 C55.16 15 72.32 15 90 15 C90 12.36 90 9.72 90 7 C94.95 7 99.9 7 105 7 C105 9.64 105 12.28 105 15 C107.64 15 110.28 15 113 15 C113 22.59 113 30.18 113 38 C108.05 38 103.1 38 98 38 C98 40.31 98 42.62 98 45 C100.31 45 102.62 45 105 45 C105 52.26 105 59.52 105 67 C102.69 67 100.38 67 98 67 C98 69.64 98 72.28 98 75 C78.2 75 58.4 75 38 75 C38 72.36 38 69.72 38 67 C35.36 67 32.72 67 30 67 C30 64.69 30 62.38 30 60 C17.79 60 5.58 60 -7 60 C-7 62.31 -7 64.62 -7 67 C-9.64 67 -12.28 67 -15 67 C-15 84.49 -15 101.98 -15 120 C-17.31 120 -19.62 120 -22 120 C-22 90.3 -22 60.6 -22 30 C-19.69 30 -17.38 30 -15 30 C-15 27.36 -15 24.72 -15 22 C-12.36 22 -9.72 22 -7 22 C-7 17.05 -7 12.1 -7 7 C-4.69 7 -2.38 7 0 7 C0 4.69 0 2.38 0 0 Z " fill="#336175" transform="translate(30,90)"/>
<path d="M0 0 C2.31 0 4.62 0 7 0 C7 4.95 7 9.9 7 15 C9.31 15 11.62 15 14 15 C14 17.64 14 20.28 14 23 C16.64 23 19.28 23 22 23 C22 30.26 22 37.52 22 45 C24.31 45 26.62 45 29 45 C29 47.31 29 49.62 29 52 C31.64 52 34.28 52 37 52 C37 49.69 37 47.38 37 45 C39.64 45 42.28 45 45 45 C45 42.69 45 40.38 45 38 C47.31 38 49.62 38 52 38 C52 35.36 52 32.72 52 30 C54.64 30 57.28 30 60 30 C60 27.69 60 25.38 60 23 C62.31 23 64.62 23 67 23 C67 20.36 67 17.72 67 15 C69.31 15 71.62 15 74 15 C74 12.36 74 9.72 74 7 C81.59 7 89.18 7 97 7 C97 14.59 97 22.18 97 30 C94.36 30 91.72 30 89 30 C89 32.64 89 35.28 89 38 C86.69 38 84.38 38 82 38 C82 40.31 82 42.62 82 45 C79.36 45 76.72 45 74 45 C74 47.31 74 49.62 74 52 C71.69 52 69.38 52 67 52 C67 54.64 67 57.28 67 60 C64.69 60 62.38 60 60 60 C60 62.31 60 64.62 60 67 C57.36 67 54.72 67 52 67 C52 72.28 52 77.56 52 83 C54.64 83 57.28 83 60 83 C60 87.95 60 92.9 60 98 C55.05 98 50.1 98 45 98 C45 95.36 45 92.72 45 90 C42.36 90 39.72 90 37 90 C37 87.69 37 85.38 37 83 C34.36 83 31.72 83 29 83 C29 85.31 29 87.62 29 90 C26.69 90 24.38 90 22 90 C22 92.64 22 95.28 22 98 C19.36 98 16.72 98 14 98 C14 100.31 14 102.62 14 105 C9.38 105 4.76 105 0 105 C0 109.95 0 114.9 0 120 C2.31 120 4.62 120 7 120 C7 124.95 7 129.9 7 135 C-5.54 135 -18.08 135 -31 135 C-31 130.05 -31 125.1 -31 120 C-33.31 120 -35.62 120 -38 120 C-38 117.36 -38 114.72 -38 112 C-35.69 112 -33.38 112 -31 112 C-31 104.74 -31 97.48 -31 90 C-28.36 90 -25.72 90 -23 90 C-23 92.64 -23 95.28 -23 98 C-20.36 98 -17.72 98 -15 98 C-15 100.31 -15 102.62 -15 105 C-12.69 105 -10.38 105 -8 105 C-8 80.25 -8 55.5 -8 30 C-10.31 30 -12.62 30 -15 30 C-15 27.69 -15 25.38 -15 23 C-10.05 23 -5.1 23 0 23 C0 15.41 0 7.82 0 0 Z " fill="#010001" transform="translate(143,105)"/>
<path d="M0 0 C4.95 0 9.9 0 15 0 C15 4.95 15 9.9 15 15 C17.31 15 19.62 15 22 15 C22 17.31 22 19.62 22 22 C24.64 22 27.28 22 30 22 C30 24.64 30 27.28 30 30 C32.64 30 35.28 30 38 30 C38 34.95 38 39.9 38 45 C40.31 45 42.62 45 45 45 C45 49.95 45 54.9 45 60 C40.05 60 35.1 60 30 60 C30 62.31 30 64.62 30 67 C15.15 67 0.3 67 -15 67 C-15 64.69 -15 62.38 -15 60 C-19.95 60 -24.9 60 -30 60 C-30 55.05 -30 50.1 -30 45 C-32.64 45 -35.28 45 -38 45 C-38 37.41 -38 29.82 -38 22 C-32.72 22 -27.44 22 -22 22 C-22 29.59 -22 37.18 -22 45 C-19.69 45 -17.38 45 -15 45 C-15 35.1 -15 25.2 -15 15 C-12.36 15 -9.72 15 -7 15 C-7 12.36 -7 9.72 -7 7 C-4.69 7 -2.38 7 0 7 C0 4.69 0 2.38 0 0 Z " fill="#F0C5A0" transform="translate(90,30)"/>
<path d="M0 0 C2.64 0 5.28 0 8 0 C8 24.75 8 49.5 8 75 C10.31 75 12.62 75 15 75 C15 57.51 15 40.02 15 22 C17.64 22 20.28 22 23 22 C23 19.69 23 17.38 23 15 C35.21 15 47.42 15 60 15 C60 19.95 60 24.9 60 30 C57.36 30 54.72 30 52 30 C52 37.59 52 45.18 52 53 C49.69 53 47.38 53 45 53 C45 50.36 45 47.72 45 45 C37.74 45 30.48 45 23 45 C23 54.9 23 64.8 23 75 C27.62 75 32.24 75 37 75 C37 77.31 37 79.62 37 82 C32.38 82 27.76 82 23 82 C23 86.95 23 91.9 23 97 C20.36 97 17.72 97 15 97 C15 94.69 15 92.38 15 90 C12.69 90 10.38 90 8 90 C8 87.36 8 84.72 8 82 C5.36 82 2.72 82 0 82 C0 54.94 0 27.88 0 0 Z " fill="#3B241F" transform="translate(0,135)"/>
<path d="M0 0 C2.64 0 5.28 0 8 0 C8 2.31 8 4.62 8 7 C10.31 7 12.62 7 15 7 C15 4.69 15 2.38 15 0 C17.64 0 20.28 0 23 0 C23 2.31 23 4.62 23 7 C25.64 7 28.28 7 31 7 C31 11.95 31 16.9 31 22 C25.72 22 20.44 22 15 22 C15 29.59 15 37.18 15 45 C17.64 45 20.28 45 23 45 C23 49.95 23 54.9 23 60 C27.95 60 32.9 60 38 60 C38 62.31 38 64.62 38 67 C52.85 67 67.7 67 83 67 C83 69.64 83 72.28 83 75 C65.84 75 48.68 75 31 75 C31 72.36 31 69.72 31 67 C23.41 67 15.82 67 8 67 C8 64.69 8 62.38 8 60 C5.36 60 2.72 60 0 60 C0 57.69 0 55.38 0 53 C-2.31 53 -4.62 53 -7 53 C-7 37.82 -7 22.64 -7 7 C-4.69 7 -2.38 7 0 7 C0 4.69 0 2.38 0 0 Z " fill="#403837" transform="translate(37,30)"/>
<path d="M0 0 C4.95 0 9.9 0 15 0 C15 2.64 15 5.28 15 8 C19.95 8 24.9 8 30 8 C30 5.36 30 2.72 30 0 C34.95 0 39.9 0 45 0 C45 2.64 45 5.28 45 8 C52.59 8 60.18 8 68 8 C68 10.64 68 13.28 68 16 C57.77 16 47.54 16 37 16 C37 18.31 37 20.62 37 23 C27.43 23 17.86 23 8 23 C8 25.64 8 28.28 8 31 C17.57 31 27.14 31 37 31 C37 33.31 37 35.62 37 38 C27.43 38 17.86 38 8 38 C8 40.31 8 42.62 8 45 C5.36 45 2.72 45 0 45 C0 62.49 0 79.98 0 98 C-2.31 98 -4.62 98 -7 98 C-7 68.3 -7 38.6 -7 8 C-4.69 8 -2.38 8 0 8 C0 5.36 0 2.72 0 0 Z " fill="#447D97" transform="translate(15,112)"/>
<path d="M0 0 C7.59 0 15.18 0 23 0 C23 7.59 23 15.18 23 23 C20.36 23 17.72 23 15 23 C15 25.64 15 28.28 15 31 C12.69 31 10.38 31 8 31 C8 33.31 8 35.62 8 38 C5.36 38 2.72 38 0 38 C0 40.31 0 42.62 0 45 C-2.31 45 -4.62 45 -7 45 C-7 47.64 -7 50.28 -7 53 C-9.31 53 -11.62 53 -14 53 C-14 55.31 -14 57.62 -14 60 C-21.59 60 -29.18 60 -37 60 C-37 52.74 -37 45.48 -37 38 C-34.36 38 -31.72 38 -29 38 C-29 35.69 -29 33.38 -29 31 C-26.69 31 -24.38 31 -22 31 C-22 28.36 -22 25.72 -22 23 C-19.36 23 -16.72 23 -14 23 C-14 20.69 -14 18.38 -14 16 C-11.69 16 -9.38 16 -7 16 C-7 13.36 -7 10.72 -7 8 C-4.69 8 -2.38 8 0 8 C0 5.36 0 2.72 0 0 Z " fill="#C0C0C0" transform="translate(217,112)"/>
<path d="M0 0 C14.85 0 29.7 0 45 0 C45 12.54 45 25.08 45 38 C42.69 38 40.38 38 38 38 C38 35.69 38 33.38 38 31 C35.36 31 32.72 31 30 31 C30 28.36 30 25.72 30 23 C27.36 23 24.72 23 22 23 C22 30.26 22 37.52 22 45 C19.69 45 17.38 45 15 45 C15 47.64 15 50.28 15 53 C10.05 53 5.1 53 0 53 C0 35.51 0 18.02 0 0 Z " fill="#AEAAA8" transform="translate(90,172)"/>
<path d="M0 0 C2.64 0 5.28 0 8 0 C8 2.64 8 5.28 8 8 C10.31 8 12.62 8 15 8 C15 10.31 15 12.62 15 15 C17.31 15 19.62 15 22 15 C22 17.31 22 19.62 22 22 C24.64 22 27.28 22 30 22 C30 24.64 30 27.28 30 30 C27.36 30 24.72 30 22 30 C22 34.95 22 39.9 22 45 C19.69 45 17.38 45 15 45 C15 52.59 15 60.18 15 68 C12.69 68 10.38 68 8 68 C8 75.26 8 82.52 8 90 C5.36 90 2.72 90 0 90 C0 87.36 0 84.72 0 82 C-4.95 82 -9.9 82 -15 82 C-15 79.69 -15 77.38 -15 75 C-10.05 75 -5.1 75 0 75 C0 70.05 0 65.1 0 60 C-2.31 60 -4.62 60 -7 60 C-7 55.05 -7 50.1 -7 45 C-9.64 45 -12.28 45 -15 45 C-15 42.36 -15 39.72 -15 37 C-10.05 37 -5.1 37 0 37 C0 32.05 0 27.1 0 22 C-2.31 22 -4.62 22 -7 22 C-7 19.69 -7 17.38 -7 15 C-4.69 15 -2.38 15 0 15 C0 10.05 0 5.1 0 0 Z " fill="#4A4241" transform="translate(135,15)"/>
<path d="M0 0 C10.23 0 20.46 0 31 0 C31 7.59 31 15.18 31 23 C28.36 23 25.72 23 23 23 C23 25.64 23 28.28 23 31 C20.69 31 18.38 31 16 31 C16 33.31 16 35.62 16 38 C8.41 38 0.82 38 -7 38 C-7 35.69 -7 33.38 -7 31 C-14.26 31 -21.52 31 -29 31 C-29 23.41 -29 15.82 -29 8 C-21.74 8 -14.48 8 -7 8 C-7 10.64 -7 13.28 -7 16 C-4.69 16 -2.38 16 0 16 C0 10.72 0 5.44 0 0 Z " fill="#847C7A" transform="translate(52,172)"/>
<path d="M0 0 C2.31 0 4.62 0 7 0 C7 2.31 7 4.62 7 7 C9.64 7 12.28 7 15 7 C15 11.95 15 16.9 15 22 C19.95 22 24.9 22 30 22 C30 27.28 30 32.56 30 38 C32.64 38 35.28 38 38 38 C38 42.95 38 47.9 38 53 C33.05 53 28.1 53 23 53 C23 50.36 23 47.72 23 45 C20.36 45 17.72 45 15 45 C15 42.69 15 40.38 15 38 C12.36 38 9.72 38 7 38 C7 40.31 7 42.62 7 45 C4.69 45 2.38 45 0 45 C0 47.64 0 50.28 0 53 C-7.26 53 -14.52 53 -22 53 C-22 45.41 -22 37.82 -22 30 C-17.38 30 -12.76 30 -8 30 C-8 27.36 -8 24.72 -8 22 C-5.36 22 -2.72 22 0 22 C0 14.74 0 7.48 0 0 Z " fill="#231F1D" transform="translate(165,150)"/>
<path d="M0 0 C2.31 0 4.62 0 7 0 C7 2.64 7 5.28 7 8 C24.49 8 41.98 8 60 8 C60 5.36 60 2.72 60 0 C62.31 0 64.62 0 67 0 C67 7.26 67 14.52 67 22 C64.69 22 62.38 22 60 22 C60 24.64 60 27.28 60 30 C40.2 30 20.4 30 0 30 C0 27.36 0 24.72 0 22 C-2.64 22 -5.28 22 -8 22 C-8 17.38 -8 12.76 -8 8 C-5.36 8 -2.72 8 0 8 C0 5.36 0 2.72 0 0 Z " fill="#817E7B" transform="translate(68,135)"/>
<path d="M0 0 C2.64 0 5.28 0 8 0 C8 2.64 8 5.28 8 8 C10.64 8 13.28 8 16 8 C16 10.31 16 12.62 16 15 C18.31 15 20.62 15 23 15 C23 19.95 23 24.9 23 30 C27.95 30 32.9 30 38 30 C38 34.95 38 39.9 38 45 C25.46 45 12.92 45 0 45 C0 40.05 0 35.1 0 30 C-2.31 30 -4.62 30 -7 30 C-7 27.36 -7 24.72 -7 22 C-4.69 22 -2.38 22 0 22 C0 14.74 0 7.48 0 0 Z " fill="#817D7B" transform="translate(112,195)"/>
<path d="M0 0 C10.23 0 20.46 0 31 0 C31 2.31 31 4.62 31 7 C43.21 7 55.42 7 68 7 C68 4.69 68 2.38 68 0 C70.64 0 73.28 0 76 0 C76 4.95 76 9.9 76 15 C58.51 15 41.02 15 23 15 C23 12.36 23 9.72 23 7 C20.69 7 18.38 7 16 7 C16 9.64 16 12.28 16 15 C13.36 15 10.72 15 8 15 C8 17.31 8 19.62 8 22 C5.36 22 2.72 22 0 22 C0 19.69 0 17.38 0 15 C-9.57 15 -19.14 15 -29 15 C-29 12.36 -29 9.72 -29 7 C-19.43 7 -9.86 7 0 7 C0 4.69 0 2.38 0 0 Z " fill="#284A5D" transform="translate(52,128)"/>
<path d="M0 0 C4.95 0 9.9 0 15 0 C15 2.31 15 4.62 15 7 C22.59 7 30.18 7 38 7 C38 11.95 38 16.9 38 22 C42.95 22 47.9 22 53 22 C53 24.64 53 27.28 53 30 C45.41 30 37.82 30 30 30 C30 27.36 30 24.72 30 22 C25.05 22 20.1 22 15 22 C15 24.64 15 27.28 15 30 C10.05 30 5.1 30 0 30 C0 27.36 0 24.72 0 22 C-2.31 22 -4.62 22 -7 22 C-7 17.05 -7 12.1 -7 7 C-4.69 7 -2.38 7 0 7 C0 4.69 0 2.38 0 0 Z " fill="#336175" transform="translate(30,90)"/>
<path d="M0 0 C2.31 0 4.62 0 7 0 C7 7.59 7 15.18 7 23 C9.64 23 12.28 23 15 23 C15 27.95 15 32.9 15 38 C19.95 38 24.9 38 30 38 C30 40.31 30 42.62 30 45 C44.85 45 59.7 45 75 45 C75 47.64 75 50.28 75 53 C57.84 53 40.68 53 23 53 C23 50.36 23 47.72 23 45 C15.41 45 7.82 45 0 45 C0 42.69 0 40.38 0 38 C-2.64 38 -5.28 38 -8 38 C-8 35.69 -8 33.38 -8 31 C-5.36 31 -2.72 31 0 31 C0 20.77 0 10.54 0 0 Z " fill="#010101" transform="translate(45,52)"/>
<path d="M0 0 C2.64 0 5.28 0 8 0 C8 2.64 8 5.28 8 8 C27.8 8 47.6 8 68 8 C68 5.36 68 2.72 68 0 C70.31 0 72.62 0 75 0 C75 4.95 75 9.9 75 15 C60.15 15 45.3 15 30 15 C30 29.85 30 44.7 30 60 C27.69 60 25.38 60 23 60 C23 45.15 23 30.3 23 15 C12.77 15 2.54 15 -8 15 C-8 12.69 -8 10.38 -8 8 C-5.36 8 -2.72 8 0 8 C0 5.36 0 2.72 0 0 Z " fill="#98523E" transform="translate(60,157)"/>
<path d="M0 0 C7.59 0 15.18 0 23 0 C23 7.59 23 15.18 23 23 C20.36 23 17.72 23 15 23 C15 25.64 15 28.28 15 31 C10.05 31 5.1 31 0 31 C0 28.36 0 25.72 0 23 C-2.31 23 -4.62 23 -7 23 C-7 27.95 -7 32.9 -7 38 C-9.31 38 -11.62 38 -14 38 C-14 30.74 -14 23.48 -14 16 C-11.69 16 -9.38 16 -7 16 C-7 13.36 -7 10.72 -7 8 C-4.69 8 -2.38 8 0 8 C0 5.36 0 2.72 0 0 Z " fill="#C0C0C0" transform="translate(217,112)"/>
<path d="M0 0 C4.95 0 9.9 0 15 0 C15 2.64 15 5.28 15 8 C24.57 8 34.14 8 44 8 C44 10.31 44 12.62 44 15 C34.43 15 24.86 15 15 15 C15 17.31 15 19.62 15 22 C12.36 22 9.72 22 7 22 C7 39.49 7 56.98 7 75 C4.69 75 2.38 75 0 75 C0 50.25 0 25.5 0 0 Z " fill="#639CB6" transform="translate(8,135)"/>
<path d="M0 0 C9.9 0 19.8 0 30 0 C30 2.64 30 5.28 30 8 C32.64 8 35.28 8 38 8 C38 12.95 38 17.9 38 23 C25.46 23 12.92 23 0 23 C0 15.41 0 7.82 0 0 Z " fill="#827E7B" transform="translate(45,217)"/>
<path d="M0 0 C4.95 0 9.9 0 15 0 C15 17.49 15 34.98 15 53 C10.05 53 5.1 53 0 53 C0 35.51 0 18.02 0 0 Z " fill="#639BB5" transform="translate(90,172)"/>
<path d="M0 0 C2.31 0 4.62 0 7 0 C7 2.64 7 5.28 7 8 C24.49 8 41.98 8 60 8 C60 10.31 60 12.62 60 15 C57.36 15 54.72 15 52 15 C52 17.31 52 19.62 52 22 C37.15 22 22.3 22 7 22 C7 19.69 7 17.38 7 15 C4.69 15 2.38 15 0 15 C0 10.05 0 5.1 0 0 Z " fill="#AEABA8" transform="translate(68,135)"/>
<path d="M0 0 C7.26 0 14.52 0 22 0 C22 2.64 22 5.28 22 8 C26.95 8 31.9 8 37 8 C37 5.36 37 2.72 37 0 C39.64 0 42.28 0 45 0 C45 4.95 45 9.9 45 15 C39.72 15 34.44 15 29 15 C29 17.64 29 20.28 29 23 C19.43 23 9.86 23 0 23 C0 15.41 0 7.82 0 0 Z " fill="#817E7B" transform="translate(23,180)"/>
<path d="M0 0 C4.95 0 9.9 0 15 0 C15 7.59 15 15.18 15 23 C12.69 23 10.38 23 8 23 C8 25.64 8 28.28 8 31 C0.74 31 -6.52 31 -14 31 C-14 23.41 -14 15.82 -14 8 C-9.38 8 -4.76 8 0 8 C0 5.36 0 2.72 0 0 Z " fill="#533128" transform="translate(157,172)"/>
<path d="M0 0 C2.64 0 5.28 0 8 0 C8 2.64 8 5.28 8 8 C10.64 8 13.28 8 16 8 C16 10.31 16 12.62 16 15 C18.31 15 20.62 15 23 15 C23 17.31 23 19.62 23 22 C25.64 22 28.28 22 31 22 C31 24.64 31 27.28 31 30 C28.36 30 25.72 30 23 30 C23 39.9 23 49.8 23 60 C20.69 60 18.38 60 16 60 C16 47.46 16 34.92 16 22 C13.36 22 10.72 22 8 22 C8 19.69 8 17.38 8 15 C5.36 15 2.72 15 0 15 C0 17.31 0 19.62 0 22 C-2.31 22 -4.62 22 -7 22 C-7 17.38 -7 12.76 -7 8 C-4.69 8 -2.38 8 0 8 C0 5.36 0 2.72 0 0 Z " fill="#48403F" transform="translate(52,15)"/>
<path d="M0 0 C2.64 0 5.28 0 8 0 C8 27.06 8 54.12 8 82 C5.36 82 2.72 82 0 82 C0 54.94 0 27.88 0 0 Z " fill="#000204" transform="translate(0,135)"/>
<path d="M0 0 C4.95 0 9.9 0 15 0 C15 2.64 15 5.28 15 8 C12.69 8 10.38 8 8 8 C8 10.64 8 13.28 8 16 C5.36 16 2.72 16 0 16 C0 18.31 0 20.62 0 23 C-12.21 23 -24.42 23 -37 23 C-37 20.69 -37 18.38 -37 16 C-27.43 16 -17.86 16 -8 16 C-8 13.36 -8 10.72 -8 8 C-5.36 8 -2.72 8 0 8 C0 5.36 0 2.72 0 0 Z " fill="#457E98" transform="translate(120,112)"/>
<path d="M0 0 C7.26 0 14.52 0 22 0 C22 12.21 22 24.42 22 37 C19.36 37 16.72 37 14 37 C14 32.05 14 27.1 14 22 C9.38 22 4.76 22 0 22 C0 19.36 0 16.72 0 14 C4.62 14 9.24 14 14 14 C14 11.69 14 9.38 14 7 C9.38 7 4.76 7 0 7 C0 4.69 0 2.38 0 0 Z " fill="#010101" transform="translate(23,203)"/>
<path d="M0 0 C2.31 0 4.62 0 7 0 C7 7.59 7 15.18 7 23 C4.69 23 2.38 23 0 23 C0 30.26 0 37.52 0 45 C-2.64 45 -5.28 45 -8 45 C-8 42.36 -8 39.72 -8 37 C-12.95 37 -17.9 37 -23 37 C-23 34.69 -23 32.38 -23 30 C-18.05 30 -13.1 30 -8 30 C-8 25.05 -8 20.1 -8 15 C-5.36 15 -2.72 15 0 15 C0 10.05 0 5.1 0 0 Z " fill="#010101" transform="translate(143,60)"/>
<path d="M0 0 C14.52 0 29.04 0 44 0 C44 2.31 44 4.62 44 7 C41.69 7 39.38 7 37 7 C37 9.64 37 12.28 37 15 C29.74 15 22.48 15 15 15 C15 12.36 15 9.72 15 7 C10.05 7 5.1 7 0 7 C0 4.69 0 2.38 0 0 Z " fill="#629CB8" transform="translate(68,105)"/>
<path d="M0 0 C2.64 0 5.28 0 8 0 C8 2.31 8 4.62 8 7 C12.62 7 17.24 7 22 7 C22 9.31 22 11.62 22 14 C17.38 14 12.76 14 8 14 C8 18.95 8 23.9 8 29 C5.36 29 2.72 29 0 29 C0 26.69 0 24.38 0 22 C-2.31 22 -4.62 22 -7 22 C-7 17.05 -7 12.1 -7 7 C-4.69 7 -2.38 7 0 7 C0 4.69 0 2.38 0 0 Z " fill="#336176" transform="translate(15,203)"/>
<path d="M0 0 C2.31 0 4.62 0 7 0 C7 4.95 7 9.9 7 15 C9.31 15 11.62 15 14 15 C14 19.95 14 24.9 14 30 C4.43 30 -5.14 30 -15 30 C-15 27.69 -15 25.38 -15 23 C-10.05 23 -5.1 23 0 23 C0 15.41 0 7.82 0 0 Z " fill="#294B5E" transform="translate(143,105)"/>
<path d="M0 0 C14.85 0 29.7 0 45 0 C45 2.64 45 5.28 45 8 C42.36 8 39.72 8 37 8 C37 10.31 37 12.62 37 15 C34.36 15 31.72 15 29 15 C29 12.69 29 10.38 29 8 C19.43 8 9.86 8 0 8 C0 5.36 0 2.72 0 0 Z " fill="#356175" transform="translate(23,135)"/>
<path d="M0 0 C4.62 0 9.24 0 14 0 C14.8456877 9.96032176 14.9255738 19.02437129 14 29 C9.38 29 4.76 29 0 29 C-0.8456877 19.03967824 -0.9255738 9.97562871 0 0 Z " fill="#3B241E" transform="translate(143,143)"/>
<path d="M0 0 C2.31 0 4.62 0 7 0 C7 2.31 7 4.62 7 7 C9.64 7 12.28 7 15 7 C15 17.23 15 27.46 15 38 C12.36 38 9.72 38 7 38 C7 32.72 7 27.44 7 22 C4.69 22 2.38 22 0 22 C0 14.74 0 7.48 0 0 Z " fill="#221E1C" transform="translate(165,150)"/>
<path d="M0 0 C2.31 0 4.62 0 7 0 C7 4.95 7 9.9 7 15 C-7.85 15 -22.7 15 -38 15 C-38 12.69 -38 10.38 -38 8 C-25.46 8 -12.92 8 0 8 C0 5.36 0 2.72 0 0 Z " fill="#99523E" transform="translate(128,157)"/>
<path d="M0 0 C4.95 0 9.9 0 15 0 C15 2.64 15 5.28 15 8 C22.59 8 30.18 8 38 8 C38 10.64 38 13.28 38 16 C27.77 16 17.54 16 7 16 C7 13.36 7 10.72 7 8 C4.69 8 2.38 8 0 8 C0 5.36 0 2.72 0 0 Z " fill="#457D98" transform="translate(45,112)"/>
<path d="M0 0 C14.85 0 29.7 0 45 0 C45 2.64 45 5.28 45 8 C30.15 8 15.3 8 0 8 C0 5.36 0 2.72 0 0 Z " fill="#000000" transform="translate(75,0)"/>
<path d="M0 0 C4.95 0 9.9 0 15 0 C15 2.64 15 5.28 15 8 C12.36 8 9.72 8 7 8 C7 10.64 7 13.28 7 16 C-2.57 16 -12.14 16 -22 16 C-22 13.36 -22 10.72 -22 8 C-14.74 8 -7.48 8 0 8 C0 5.36 0 2.72 0 0 Z " fill="#274B5F" transform="translate(105,112)"/>
<path d="M0 0 C7.59 0 15.18 0 23 0 C23 4.95 23 9.9 23 15 C15.41 15 7.82 15 0 15 C0 10.05 0 5.1 0 0 Z " fill="#BFBFBF" transform="translate(180,157)"/>
<path d="M0 0 C2.31 0 4.62 0 7 0 C7 7.59 7 15.18 7 23 C4.69 23 2.38 23 0 23 C0 20.36 0 17.72 0 15 C-7.26 15 -14.52 15 -22 15 C-22 12.36 -22 9.72 -22 7 C-14.74 7 -7.48 7 0 7 C0 4.69 0 2.38 0 0 Z " fill="#010001" transform="translate(45,165)"/>
<path d="M0 0 C4.95 0 9.9 0 15 0 C15 2.64 15 5.28 15 8 C19.95 8 24.9 8 30 8 C30 10.31 30 12.62 30 15 C25.05 15 20.1 15 15 15 C15 17.64 15 20.28 15 23 C12.69 23 10.38 23 8 23 C8 18.05 8 13.1 8 8 C5.36 8 2.72 8 0 8 C0 5.36 0 2.72 0 0 Z " fill="#010001" transform="translate(75,217)"/>
<path d="M0 0 C4.62 0 9.24 0 14 0 C14 7.59 14 15.18 14 23 C9.38 23 4.76 23 0 23 C0 15.41 0 7.82 0 0 Z " fill="#A0A0A0" transform="translate(143,180)"/>
<path d="M0 0 C2.31 0 4.62 0 7 0 C7 15.18 7 30.36 7 46 C4.69 46 2.38 46 0 46 C0 30.82 0 15.64 0 0 Z " fill="#010101" transform="translate(30,37)"/>
<path d="M0 0 C2.31 0 4.62 0 7 0 C7 14.85 7 29.7 7 45 C4.69 45 2.38 45 0 45 C0 30.15 0 15.3 0 0 Z " fill="#D58A23" transform="translate(105,172)"/>
<path d="M0 0 C2.31 0 4.62 0 7 0 C7 14.85 7 29.7 7 45 C4.69 45 2.38 45 0 45 C0 30.15 0 15.3 0 0 Z " fill="#D38A26" transform="translate(83,172)"/>
<path d="M0 0 C14.85 0 29.7 0 45 0 C45 2.31 45 4.62 45 7 C30.15 7 15.3 7 0 7 C0 4.69 0 2.38 0 0 Z " fill="#D5AD8C" transform="translate(75,90)"/>
<path d="M0 0 C7.59 0 15.18 0 23 0 C23 7.59 23 15.18 23 23 C20.36 23 17.72 23 15 23 C15 18.05 15 13.1 15 8 C10.05 8 5.1 8 0 8 C0 5.36 0 2.72 0 0 Z " fill="#231F1D" transform="translate(217,112)"/>
<path d="M0 0 C2.64 0 5.28 0 8 0 C8 9.9 8 19.8 8 30 C5.36 30 2.72 30 0 30 C0 25.05 0 20.1 0 15 C-2.31 15 -4.62 15 -7 15 C-7 12.36 -7 9.72 -7 7 C-4.69 7 -2.38 7 0 7 C0 4.69 0 2.38 0 0 Z " fill="#020101" transform="translate(112,210)"/>
<path d="M0 0 C5.28 0 10.56 0 16 0 C16 4.95 16 9.9 16 15 C8.41 15 0.82 15 -7 15 C-7 12.69 -7 10.38 -7 8 C-4.69 8 -2.38 8 0 8 C0 5.36 0 2.72 0 0 Z " fill="#979797" transform="translate(52,195)"/>
<path d="M0 0 C4.95 0 9.9 0 15 0 C15 7.59 15 15.18 15 23 C10.05 23 5.1 23 0 23 C0 20.36 0 17.72 0 15 C2.64 15 5.28 15 8 15 C8 12.69 8 10.38 8 8 C5.36 8 2.72 8 0 8 C0 5.36 0 2.72 0 0 Z " fill="#FEFEFE" transform="translate(217,120)"/>
<path d="M0 0 C2.64 0 5.28 0 8 0 C8 2.64 8 5.28 8 8 C10.64 8 13.28 8 16 8 C16 10.31 16 12.62 16 15 C18.31 15 20.62 15 23 15 C23 17.31 23 19.62 23 22 C18.05 22 13.1 22 8 22 C8 19.69 8 17.38 8 15 C5.36 15 2.72 15 0 15 C0 10.05 0 5.1 0 0 Z " fill="#562F24" transform="translate(112,195)"/>
<path d="M0 0 C2.64 0 5.28 0 8 0 C8 2.31 8 4.62 8 7 C10.31 7 12.62 7 15 7 C15 11.95 15 16.9 15 22 C10.05 22 5.1 22 0 22 C0 14.74 0 7.48 0 0 Z " fill="#F0C59F" transform="translate(120,30)"/>
<path d="M0 0 C7.26 0 14.52 0 22 0 C22 2.64 22 5.28 22 8 C19.36 8 16.72 8 14 8 C14 10.31 14 12.62 14 15 C9.38 15 4.76 15 0 15 C0 10.05 0 5.1 0 0 Z " fill="#AEAAA8" transform="translate(23,180)"/>
<path d="M0 0 C7.59 0 15.18 0 23 0 C23 2.64 23 5.28 23 8 C18.05 8 13.1 8 8 8 C8 10.64 8 13.28 8 16 C5.36 16 2.72 16 0 16 C0 10.72 0 5.44 0 0 Z " fill="#B5AAA5" transform="translate(52,172)"/>
<path d="M0 0 C4.95 0 9.9 0 15 0 C15 2.64 15 5.28 15 8 C12.69 8 10.38 8 8 8 C8 10.64 8 13.28 8 16 C2.72 16 -2.56 16 -8 16 C-8 13.36 -8 10.72 -8 8 C-5.36 8 -2.72 8 0 8 C0 5.36 0 2.72 0 0 Z " fill="#629AB5" transform="translate(120,112)"/>
<path d="M0 0 C2.64 0 5.28 0 8 0 C8 2.64 8 5.28 8 8 C10.64 8 13.28 8 16 8 C16.04241723 10.33294775 16.04092937 12.66702567 16 15 C15 16 15 16 11.4375 16.0625 C10.303125 16.041875 9.16875 16.02125 8 16 C8 18.31 8 20.62 8 23 C5.36 23 2.72 23 0 23 C0 15.41 0 7.82 0 0 Z " fill="#867D77" transform="translate(112,172)"/>
<path d="M0 0 C2.64 0 5.28 0 8 0 C8 5.28 8 10.56 8 16 C5.36 16 2.72 16 0 16 C0 18.31 0 20.62 0 23 C-2.31 23 -4.62 23 -7 23 C-7 18.05 -7 13.1 -7 8 C-4.69 8 -2.38 8 0 8 C0 5.36 0 2.72 0 0 Z " fill="#447D98" transform="translate(15,112)"/>
<path d="M0 0 C2.31 0 4.62 0 7 0 C7 2.64 7 5.28 7 8 C11.95 8 16.9 8 22 8 C22 10.64 22 13.28 22 16 C14.74 16 7.48 16 0 16 C0 10.72 0 5.44 0 0 Z " fill="#629AB5" transform="translate(23,112)"/>
<path d="M0 0 C4.95 0 9.9 0 15 0 C15 7.59 15 15.18 15 23 C12.69 23 10.38 23 8 23 C8 18.05 8 13.1 8 8 C5.36 8 2.72 8 0 8 C0 5.36 0 2.72 0 0 Z " fill="#020001" transform="translate(120,52)"/>
<path d="M0 0 C4.95 0 9.9 0 15 0 C15 7.59 15 15.18 15 23 C12.69 23 10.38 23 8 23 C8 18.05 8 13.1 8 8 C5.36 8 2.72 8 0 8 C0 5.36 0 2.72 0 0 Z " fill="#020001" transform="translate(97,52)"/>
<path d="M0 0 C2.31 0 4.62 0 7 0 C7.84888195 5.37625234 8.0024305 9.65370398 7 15 C4.69 15 2.38 15 0 15 C0 17.31 0 19.62 0 22 C-2.31 22 -4.62 22 -7 22 C-7 17.05 -7 12.1 -7 7 C-4.69 7 -2.38 7 0 7 C0 4.69 0 2.38 0 0 Z " fill="#284B5D" transform="translate(30,90)"/>
<path d="M0 0 C9.9 0 19.8 0 30 0 C30 2.31 30 4.62 30 7 C20.1 7 10.2 7 0 7 C0 4.69 0 2.38 0 0 Z " fill="#A1A0A1" transform="translate(90,150)"/>
<path d="M0 0 C9.57 0 19.14 0 29 0 C29 2.31 29 4.62 29 7 C19.43 7 9.86 7 0 7 C0 4.69 0 2.38 0 0 Z " fill="#274B5F" transform="translate(23,150)"/>
<path d="M0 0 C4.62 0 9.24 0 14 0 C14 4.62 14 9.24 14 14 C9.38 14 4.76 14 0 14 C0 9.38 0 4.76 0 0 Z " fill="#817E7B" transform="translate(143,143)"/>
<path d="M0 0 C2.64 0 5.28 0 8 0 C8 7.59 8 15.18 8 23 C5.36 23 2.72 23 0 23 C0 15.41 0 7.82 0 0 Z " fill="#000000" transform="translate(157,180)"/>
<path d="M0 0 C2.64 0 5.28 0 8 0 C8 7.59 8 15.18 8 23 C5.36 23 2.72 23 0 23 C0 15.41 0 7.82 0 0 Z " fill="#010101" transform="translate(15,180)"/>
<path d="M0 0 C2.64 0 5.28 0 8 0 C8 7.59 8 15.18 8 23 C5.36 23 2.72 23 0 23 C0 15.41 0 7.82 0 0 Z " fill="#284A5D" transform="translate(15,157)"/>
<path d="M0 0 C2.64 0 5.28 0 8 0 C8 5.28 8 10.56 8 16 C3.05 16 -1.9 16 -7 16 C-7 13.36 -7 10.72 -7 8 C-4.69 8 -2.38 8 0 8 C0 5.36 0 2.72 0 0 Z " fill="#457D97" transform="translate(135,112)"/>
<path d="M0 0 C7.59 0 15.18 0 23 0 C23 2.64 23 5.28 23 8 C15.41 8 7.82 8 0 8 C0 5.36 0 2.72 0 0 Z " fill="#457D96" transform="translate(45,97)"/>
<path d="M0 0 C2.64 0 5.28 0 8 0 C8 7.59 8 15.18 8 23 C5.36 23 2.72 23 0 23 C0 15.41 0 7.82 0 0 Z " fill="#EFC4A2" transform="translate(135,52)"/>
<path d="M0 0 C2.64 0 5.28 0 8 0 C8 4.95 8 9.9 8 15 C3.05 15 -1.9 15 -7 15 C-7 12.36 -7 9.72 -7 7 C-4.69 7 -2.38 7 0 7 C0 4.69 0 2.38 0 0 Z " fill="#221E1C" transform="translate(195,188)"/>
<path d="M0 0 C7.26 0 14.52 0 22 0 C22 2.64 22 5.28 22 8 C14.74 8 7.48 8 0 8 C0 5.36 0 2.72 0 0 Z " fill="#457E99" transform="translate(83,112)"/>
<path d="M0 0 C4.95 0 9.9 0 15 0 C15 4.95 15 9.9 15 15 C12.69 15 10.38 15 8 15 C8 12.69 8 10.38 8 8 C5.36 8 2.72 8 0 8 C0 5.36 0 2.72 0 0 Z " fill="#AEAAA8" transform="translate(120,195)"/>
<path d="M0 0 C2.64 0 5.28 0 8 0 C8 4.95 8 9.9 8 15 C3.05 15 -1.9 15 -7 15 C-7 12.69 -7 10.38 -7 8 C-4.69 8 -2.38 8 0 8 C0 5.36 0 2.72 0 0 Z " fill="#562E28" transform="translate(75,195)"/>
<path d="M0 0 C2.64 0 5.28 0 8 0 C8 4.95 8 9.9 8 15 C3.05 15 -1.9 15 -7 15 C-7 12.69 -7 10.38 -7 8 C-4.69 8 -2.38 8 0 8 C0 5.36 0 2.72 0 0 Z " fill="#FEFDFE" transform="translate(195,135)"/>
<path d="M0 0 C2.31 0 4.62 0 7 0 C7 7.26 7 14.52 7 22 C4.69 22 2.38 22 0 22 C0 14.74 0 7.48 0 0 Z " fill="#FEFDFE" transform="translate(203,128)"/>
<path d="M0 0 C5.28 0 10.56 0 16 0 C16 2.64 16 5.28 16 8 C10.72 8 5.44 8 0 8 C0 5.36 0 2.72 0 0 Z " fill="#B1B1B1" transform="translate(52,195)"/>
<path d="M0 0 C2.64 0 5.28 0 8 0 C8 5.28 8 10.56 8 16 C5.36 16 2.72 16 0 16 C0 10.72 0 5.44 0 0 Z " fill="#251F1E" transform="translate(172,172)"/>
<path d="M0 0 C4.95 0 9.9 0 15 0 C15 2.64 15 5.28 15 8 C10.05 8 5.1 8 0 8 C0 5.36 0 2.72 0 0 Z " fill="#D68923" transform="translate(90,217)"/>
<path d="M0 0 C2.64 0 5.28 0 8 0 C8 4.95 8 9.9 8 15 C5.36 15 2.72 15 0 15 C0 10.05 0 5.1 0 0 Z " fill="#457D97" transform="translate(15,217)"/>
<path d="M0 0 C4.95 0 9.9 0 15 0 C15 2.64 15 5.28 15 8 C10.05 8 5.1 8 0 8 C0 5.36 0 2.72 0 0 Z " fill="#C7BEBC" transform="translate(120,172)"/>
<path d="M0 0 C2.64 0 5.28 0 8 0 C8 4.95 8 9.9 8 15 C5.36 15 2.72 15 0 15 C0 10.05 0 5.1 0 0 Z " fill="#010101" transform="translate(52,150)"/>
<path d="M0 0 C4.95 0 9.9 0 15 0 C15 2.64 15 5.28 15 8 C10.05 8 5.1 8 0 8 C0 5.36 0 2.72 0 0 Z " fill="#639BB5" transform="translate(68,120)"/>
<path d="M0 0 C4.95 0 9.9 0 15 0 C15 2.64 15 5.28 15 8 C10.05 8 5.1 8 0 8 C0 5.36 0 2.72 0 0 Z " fill="#346176" transform="translate(68,112)"/>
<path d="M0 0 C4.95 0 9.9 0 15 0 C15 2.64 15 5.28 15 8 C10.05 8 5.1 8 0 8 C0 5.36 0 2.72 0 0 Z " fill="#619AB5" transform="translate(45,112)"/>
<path d="M0 0 C4.95 0 9.9 0 15 0 C15 2.64 15 5.28 15 8 C10.05 8 5.1 8 0 8 C0 5.36 0 2.72 0 0 Z " fill="#346276" transform="translate(30,112)"/>
<path d="M0 0 C4.95 0 9.9 0 15 0 C15 2.64 15 5.28 15 8 C10.05 8 5.1 8 0 8 C0 5.36 0 2.72 0 0 Z " fill="#284B5F" transform="translate(105,112)"/>
<path d="M0 0 C4.95 0 9.9 0 15 0 C15 2.64 15 5.28 15 8 C10.05 8 5.1 8 0 8 C0 5.36 0 2.72 0 0 Z " fill="#629AB4" transform="translate(120,97)"/>
<path d="M0 0 C2.64 0 5.28 0 8 0 C8 4.95 8 9.9 8 15 C5.36 15 2.72 15 0 15 C0 10.05 0 5.1 0 0 Z " fill="#231F1D" transform="translate(37,68)"/>
<path d="M0 0 C2.64 0 5.28 0 8 0 C8 4.95 8 9.9 8 15 C5.36 15 2.72 15 0 15 C0 10.05 0 5.1 0 0 Z " fill="#FDFDFD" transform="translate(120,60)"/>
<path d="M0 0 C2.64 0 5.28 0 8 0 C8 4.95 8 9.9 8 15 C5.36 15 2.72 15 0 15 C0 10.05 0 5.1 0 0 Z " fill="#FDFDFB" transform="translate(97,60)"/>
<path d="M0 0 C4.62 0 9.24 0 14 0 C14 2.64 14 5.28 14 8 C9.38 8 4.76 8 0 8 C0 5.36 0 2.72 0 0 Z " fill="#817E7C" transform="translate(143,195)"/>
<path d="M0 0 C5.28 0 10.56 0 16 0 C16 2.31 16 4.62 16 7 C10.72 7 5.44 7 0 7 C0 4.69 0 2.38 0 0 Z " fill="#010101" transform="translate(52,45)"/>
<path d="M0 0 C2.31 0 4.62 0 7 0 C7 4.95 7 9.9 7 15 C4.69 15 2.38 15 0 15 C0 10.05 0 5.1 0 0 Z " fill="#010000" transform="translate(143,225)"/>
<path d="M0 0 C4.95 0 9.9 0 15 0 C15 2.31 15 4.62 15 7 C10.05 7 5.1 7 0 7 C0 4.69 0 2.38 0 0 Z " fill="#4B4442" transform="translate(120,210)"/>
<path d="M0 0 C2.31 0 4.62 0 7 0 C7 4.95 7 9.9 7 15 C4.69 15 2.38 15 0 15 C0 10.05 0 5.1 0 0 Z " fill="#837E7A" transform="translate(68,188)"/>
<path d="M0 0 C4.95 0 9.9 0 15 0 C15 2.31 15 4.62 15 7 C10.05 7 5.1 7 0 7 C0 4.69 0 2.38 0 0 Z " fill="#532F26" transform="translate(90,165)"/>
<path d="M0 0 C2.31 0 4.62 0 7 0 C7 4.95 7 9.9 7 15 C4.69 15 2.38 15 0 15 C0 10.05 0 5.1 0 0 Z " fill="#010101" transform="translate(8,120)"/>
<path d="M0 0 C4.95 0 9.9 0 15 0 C15 2.31 15 4.62 15 7 C10.05 7 5.1 7 0 7 C0 4.69 0 2.38 0 0 Z " fill="#284A5D" transform="translate(128,105)"/>
<path d="M0 0 C4.95 0 9.9 0 15 0 C15 2.31 15 4.62 15 7 C10.05 7 5.1 7 0 7 C0 4.69 0 2.38 0 0 Z " fill="#639CB7" transform="translate(30,105)"/>
<path d="M0 0 C2.31 0 4.62 0 7 0 C7 4.95 7 9.9 7 15 C4.69 15 2.38 15 0 15 C0 10.05 0 5.1 0 0 Z " fill="#010000" transform="translate(143,105)"/>
<path d="M0 0 C2.31 0 4.62 0 7 0 C7 4.95 7 9.9 7 15 C4.69 15 2.38 15 0 15 C0 10.05 0 5.1 0 0 Z " fill="#010001" transform="translate(23,97)"/>
<path d="M0 0 C4.95 0 9.9 0 15 0 C15 2.31 15 4.62 15 7 C10.05 7 5.1 7 0 7 C0 4.69 0 2.38 0 0 Z " fill="#D5AD8B" transform="translate(120,83)"/>
<path d="M0 0 C4.95 0 9.9 0 15 0 C15 2.31 15 4.62 15 7 C10.05 7 5.1 7 0 7 C0 4.69 0 2.38 0 0 Z " fill="#D6AD8B" transform="translate(60,83)"/>
<path d="M0 0 C2.31 0 4.62 0 7 0 C7 4.95 7 9.9 7 15 C4.69 15 2.38 15 0 15 C0 10.05 0 5.1 0 0 Z " fill="#000100" transform="translate(150,45)"/>
<path d="M0 0 C4.95 0 9.9 0 15 0 C15 2.31 15 4.62 15 7 C10.05 7 5.1 7 0 7 C0 4.69 0 2.38 0 0 Z " fill="#D58A22" transform="translate(90,30)"/>
<path d="M0 0 C4.95 0 9.9 0 15 0 C15 2.31 15 4.62 15 7 C10.05 7 5.1 7 0 7 C0 4.69 0 2.38 0 0 Z " fill="#010101" transform="translate(120,8)"/>
<path d="M0 0 C4.95 0 9.9 0 15 0 C15 2.31 15 4.62 15 7 C10.05 7 5.1 7 0 7 C0 4.69 0 2.38 0 0 Z " fill="#010101" transform="translate(60,8)"/>
<path d="M0 0 C2.64 0 5.28 0 8 0 C8 2.64 8 5.28 8 8 C5.36 8 2.72 8 0 8 C0 5.36 0 2.72 0 0 Z " fill="#817D7A" transform="translate(120,195)"/>
<path d="M0 0 C2.64 0 5.28 0 8 0 C8 2.64 8 5.28 8 8 C5.36 8 2.72 8 0 8 C0 5.36 0 2.72 0 0 Z " fill="#C7C0C0" transform="translate(52,195)"/>
<path d="M0 0 C2.64 0 5.28 0 8 0 C8 2.64 8 5.28 8 8 C5.36 8 2.72 8 0 8 C0 5.36 0 2.72 0 0 Z " fill="#D9D5D2" transform="translate(180,180)"/>
<path d="M0 0 C2.64 0 5.28 0 8 0 C8 2.64 8 5.28 8 8 C5.36 8 2.72 8 0 8 C0 5.36 0 2.72 0 0 Z " fill="#000000" transform="translate(60,180)"/>
<path d="M0 0 C2.64 0 5.28 0 8 0 C8 2.64 8 5.28 8 8 C5.36 8 2.72 8 0 8 C0 5.36 0 2.72 0 0 Z " fill="#AEAAA9" transform="translate(52,180)"/>
<path d="M0 0 C2.64 0 5.28 0 8 0 C8 2.64 8 5.28 8 8 C5.36 8 2.72 8 0 8 C0 5.36 0 2.72 0 0 Z " fill="#E21217" transform="translate(172,172)"/>
<path d="M0 0 C2.64 0 5.28 0 8 0 C8 2.64 8 5.28 8 8 C5.36 8 2.72 8 0 8 C0 5.36 0 2.72 0 0 Z " fill="#CBBEBC" transform="translate(52,172)"/>
<path d="M0 0 C2.64 0 5.28 0 8 0 C8 2.64 8 5.28 8 8 C5.36 8 2.72 8 0 8 C0 5.36 0 2.72 0 0 Z " fill="#FDFDFD" transform="translate(157,172)"/>
<path d="M0 0 C2.64 0 5.28 0 8 0 C8 2.64 8 5.28 8 8 C5.36 8 2.72 8 0 8 C0 5.36 0 2.72 0 0 Z " fill="#356074" transform="translate(15,157)"/>
<path d="M0 0 C2.64 0 5.28 0 8 0 C8 2.64 8 5.28 8 8 C5.36 8 2.72 8 0 8 C0 5.36 0 2.72 0 0 Z " fill="#FEFEFE" transform="translate(195,157)"/>
<path d="M0 0 C2.64 0 5.28 0 8 0 C8 2.64 8 5.28 8 8 C5.36 8 2.72 8 0 8 C0 5.36 0 2.72 0 0 Z " fill="#FEFEFE" transform="translate(180,157)"/>
<path d="M0 0 C2.64 0 5.28 0 8 0 C8 2.64 8 5.28 8 8 C5.36 8 2.72 8 0 8 C0 5.36 0 2.72 0 0 Z " fill="#4A4442" transform="translate(60,157)"/>
<path d="M0 0 C2.64 0 5.28 0 8 0 C8 2.64 8 5.28 8 8 C5.36 8 2.72 8 0 8 C0 5.36 0 2.72 0 0 Z " fill="#FEFEFE" transform="translate(217,135)"/>
<path d="M0 0 C2.64 0 5.28 0 8 0 C8 2.64 8 5.28 8 8 C5.36 8 2.72 8 0 8 C0 5.36 0 2.72 0 0 Z " fill="#211E1D" transform="translate(195,135)"/>
<path d="M0 0 C2.64 0 5.28 0 8 0 C8 2.64 8 5.28 8 8 C5.36 8 2.72 8 0 8 C0 5.36 0 2.72 0 0 Z " fill="#284B5F" transform="translate(60,112)"/>
<path d="M0 0 C2.64 0 5.28 0 8 0 C8 2.64 8 5.28 8 8 C5.36 8 2.72 8 0 8 C0 5.36 0 2.72 0 0 Z " fill="#010102" transform="translate(15,112)"/>
<path d="M0 0 C2.64 0 5.28 0 8 0 C8 2.64 8 5.28 8 8 C5.36 8 2.72 8 0 8 C0 5.36 0 2.72 0 0 Z " fill="#669AB1" transform="translate(60,97)"/>
<path d="M0 0 C2.64 0 5.28 0 8 0 C8 2.64 8 5.28 8 8 C5.36 8 2.72 8 0 8 C0 5.36 0 2.72 0 0 Z " fill="#BC9B7F" transform="translate(60,60)"/>
<path d="M0 0 C2.64 0 5.28 0 8 0 C8 2.64 8 5.28 8 8 C5.36 8 2.72 8 0 8 C0 5.36 0 2.72 0 0 Z " fill="#010101" transform="translate(157,37)"/>
<path d="M0 0 C2.64 0 5.28 0 8 0 C8 2.64 8 5.28 8 8 C5.36 8 2.72 8 0 8 C0 5.36 0 2.72 0 0 Z " fill="#010101" transform="translate(135,15)"/>
<path d="M0 0 C2.64 0 5.28 0 8 0 C8 2.64 8 5.28 8 8 C5.36 8 2.72 8 0 8 C0 5.36 0 2.72 0 0 Z " fill="#666263" transform="translate(60,15)"/>
<path d="M0 0 C2.64 0 5.28 0 8 0 C8 2.64 8 5.28 8 8 C5.36 8 2.72 8 0 8 C0 5.36 0 2.72 0 0 Z " fill="#010101" transform="translate(52,15)"/>
<path d="M0 0 C2.64 0 5.28 0 8 0 C8 2.31 8 4.62 8 7 C5.36 7 2.72 7 0 7 C0 4.69 0 2.38 0 0 Z " fill="#010101" transform="translate(15,225)"/>
<path d="M0 0 C2.31 0 4.62 0 7 0 C7 2.64 7 5.28 7 8 C4.69 8 2.38 8 0 8 C0 5.36 0 2.72 0 0 Z " fill="#000102" transform="translate(8,217)"/>
<path d="M0 0 C2.64 0 5.28 0 8 0 C8 2.31 8 4.62 8 7 C5.36 7 2.72 7 0 7 C0 4.69 0 2.38 0 0 Z " fill="#837C7A" transform="translate(75,210)"/>
<path d="M0 0 C2.64 0 5.28 0 8 0 C8 2.31 8 4.62 8 7 C5.36 7 2.72 7 0 7 C0 4.69 0 2.38 0 0 Z " fill="#827D7A" transform="translate(60,203)"/>
<path d="M0 0 C2.31 0 4.62 0 7 0 C7 2.64 7 5.28 7 8 C4.69 8 2.38 8 0 8 C0 5.36 0 2.72 0 0 Z " fill="#010101" transform="translate(45,195)"/>
<path d="M0 0 C2.64 0 5.28 0 8 0 C8 2.31 8 4.62 8 7 C5.36 7 2.72 7 0 7 C0 4.69 0 2.38 0 0 Z " fill="#221E1C" transform="translate(180,188)"/>
<path d="M0 0 C2.64 0 5.28 0 8 0 C8 2.31 8 4.62 8 7 C5.36 7 2.72 7 0 7 C0 4.69 0 2.38 0 0 Z " fill="#C1C1C1" transform="translate(120,188)"/>
<path d="M0 0 C2.64 0 5.28 0 8 0 C8 2.31 8 4.62 8 7 C5.36 7 2.72 7 0 7 C0 4.69 0 2.38 0 0 Z " fill="#817D7C" transform="translate(60,188)"/>
<path d="M0 0 C2.64 0 5.28 0 8 0 C8 2.31 8 4.62 8 7 C5.36 7 2.72 7 0 7 C0 4.69 0 2.38 0 0 Z " fill="#010101" transform="translate(52,188)"/>
<path d="M0 0 C2.31 0 4.62 0 7 0 C7 2.64 7 5.28 7 8 C4.69 8 2.38 8 0 8 C0 5.36 0 2.72 0 0 Z " fill="#221E1C" transform="translate(165,172)"/>
<path d="M0 0 C2.64 0 5.28 0 8 0 C8 2.31 8 4.62 8 7 C5.36 7 2.72 7 0 7 C0 4.69 0 2.38 0 0 Z " fill="#BFBFBF" transform="translate(180,165)"/>
<path d="M0 0 C2.64 0 5.28 0 8 0 C8 2.31 8 4.62 8 7 C5.36 7 2.72 7 0 7 C0 4.69 0 2.38 0 0 Z " fill="#221E1D" transform="translate(195,165)"/>
<path d="M0 0 C2.31 0 4.62 0 7 0 C7 2.64 7 5.28 7 8 C4.69 8 2.38 8 0 8 C0 5.36 0 2.72 0 0 Z " fill="#221E1D" transform="translate(203,157)"/>
<path d="M0 0 C2.31 0 4.62 0 7 0 C7 2.64 7 5.28 7 8 C4.69 8 2.38 8 0 8 C0 5.36 0 2.72 0 0 Z " fill="#4A4443" transform="translate(128,157)"/>
<path d="M0 0 C2.64 0 5.28 0 8 0 C8 2.31 8 4.62 8 7 C5.36 7 2.72 7 0 7 C0 4.69 0 2.38 0 0 Z " fill="#231F1D" transform="translate(180,150)"/>
<path d="M0 0 C2.64 0 5.28 0 8 0 C8 2.31 8 4.62 8 7 C5.36 7 2.72 7 0 7 C0 4.69 0 2.38 0 0 Z " fill="#A0A0A0" transform="translate(75,150)"/>
<path d="M0 0 C2.64 0 5.28 0 8 0 C8 2.31 8 4.62 8 7 C5.36 7 2.72 7 0 7 C0 4.69 0 2.38 0 0 Z " fill="#221E1C" transform="translate(217,143)"/>
<path d="M0 0 C2.64 0 5.28 0 8 0 C8 2.31 8 4.62 8 7 C5.36 7 2.72 7 0 7 C0 4.69 0 2.38 0 0 Z " fill="#C1C1C0" transform="translate(75,143)"/>
<path d="M0 0 C2.64 0 5.28 0 8 0 C8 2.31 8 4.62 8 7 C5.36 7 2.72 7 0 7 C0 4.69 0 2.38 0 0 Z " fill="#264B5E" transform="translate(52,143)"/>
<path d="M0 0 C2.31 0 4.62 0 7 0 C7 2.64 7 5.28 7 8 C4.69 8 2.38 8 0 8 C0 5.36 0 2.72 0 0 Z " fill="#221E1D" transform="translate(225,135)"/>
<path d="M0 0 C2.31 0 4.62 0 7 0 C7 2.64 7 5.28 7 8 C4.69 8 2.38 8 0 8 C0 5.36 0 2.72 0 0 Z " fill="#AEAAA8" transform="translate(128,135)"/>
<path d="M0 0 C2.31 0 4.62 0 7 0 C7 2.64 7 5.28 7 8 C4.69 8 2.38 8 0 8 C0 5.36 0 2.72 0 0 Z " fill="#284B5F" transform="translate(23,135)"/>
<path d="M0 0 C2.64 0 5.28 0 8 0 C8 2.31 8 4.62 8 7 C5.36 7 2.72 7 0 7 C0 4.69 0 2.38 0 0 Z " fill="#346074" transform="translate(120,128)"/>
<path d="M0 0 C2.64 0 5.28 0 8 0 C8 2.31 8 4.62 8 7 C5.36 7 2.72 7 0 7 C0 4.69 0 2.38 0 0 Z " fill="#274B5F" transform="translate(15,128)"/>
<path d="M0 0 C2.31 0 4.62 0 7 0 C7 2.64 7 5.28 7 8 C4.69 8 2.38 8 0 8 C0 5.36 0 2.72 0 0 Z " fill="#231F1D" transform="translate(210,120)"/>
<path d="M0 0 C2.31 0 4.62 0 7 0 C7 2.64 7 5.28 7 8 C4.69 8 2.38 8 0 8 C0 5.36 0 2.72 0 0 Z " fill="#010202" transform="translate(150,120)"/>
<path d="M0 0 C2.31 0 4.62 0 7 0 C7 2.64 7 5.28 7 8 C4.69 8 2.38 8 0 8 C0 5.36 0 2.72 0 0 Z " fill="#336076" transform="translate(143,120)"/>
<path d="M0 0 C2.31 0 4.62 0 7 0 C7 2.64 7 5.28 7 8 C4.69 8 2.38 8 0 8 C0 5.36 0 2.72 0 0 Z " fill="#264B5F" transform="translate(45,120)"/>
<path d="M0 0 C2.31 0 4.62 0 7 0 C7 2.64 7 5.28 7 8 C4.69 8 2.38 8 0 8 C0 5.36 0 2.72 0 0 Z " fill="#346276" transform="translate(105,112)"/>
<path d="M0 0 C2.31 0 4.62 0 7 0 C7 2.64 7 5.28 7 8 C4.69 8 2.38 8 0 8 C0 5.36 0 2.72 0 0 Z " fill="#447D97" transform="translate(45,112)"/>
<path d="M0 0 C2.31 0 4.62 0 7 0 C7 2.64 7 5.28 7 8 C4.69 8 2.38 8 0 8 C0 5.36 0 2.72 0 0 Z " fill="#274B5F" transform="translate(30,112)"/>
<path d="M0 0 C2.31 0 4.62 0 7 0 C7 2.64 7 5.28 7 8 C4.69 8 2.38 8 0 8 C0 5.36 0 2.72 0 0 Z " fill="#457D97" transform="translate(128,97)"/>
<path d="M0 0 C2.64 0 5.28 0 8 0 C8 2.31 8 4.62 8 7 C5.36 7 2.72 7 0 7 C0 4.69 0 2.38 0 0 Z " fill="#447D98" transform="translate(37,90)"/>
<path d="M0 0 C2.64 0 5.28 0 8 0 C8 2.31 8 4.62 8 7 C5.36 7 2.72 7 0 7 C0 4.69 0 2.38 0 0 Z " fill="#D3AD8D" transform="translate(135,68)"/>
<path d="M0 0 C2.64 0 5.28 0 8 0 C8 2.31 8 4.62 8 7 C5.36 7 2.72 7 0 7 C0 4.69 0 2.38 0 0 Z " fill="#D18B28" transform="translate(120,30)"/>
<path d="M0 0 C2.64 0 5.28 0 8 0 C8 2.31 8 4.62 8 7 C5.36 7 2.72 7 0 7 C0 4.69 0 2.38 0 0 Z " fill="#676364" transform="translate(75,30)"/>
<path d="M0 0 C2.64 0 5.28 0 8 0 C8 2.31 8 4.62 8 7 C5.36 7 2.72 7 0 7 C0 4.69 0 2.38 0 0 Z " fill="#010101" transform="translate(37,30)"/>
<path d="M0 0 C2.64 0 5.28 0 8 0 C8.04254356 1.99954746 8.04080783 4.00041636 8 6 C7 7 7 7 3.4375 7.0625 C2.303125 7.041875 1.16875 7.02125 0 7 C0 4.69 0 2.38 0 0 Z " fill="#346075" transform="translate(75,128)"/>
<path d="M0 0 C2.31 0 4.62 0 7 0 C7 2.31 7 4.62 7 7 C4.69 7 2.38 7 0 7 C0 4.69 0 2.38 0 0 Z " fill="#437D98" transform="translate(8,210)"/>
<path d="M0 0 C2.31 0 4.62 0 7 0 C7 2.31 7 4.62 7 7 C4.69 7 2.38 7 0 7 C0 4.69 0 2.38 0 0 Z " fill="#827E7C" transform="translate(128,203)"/>
<path d="M0 0 C2.31 0 4.62 0 7 0 C7 2.31 7 4.62 7 7 C4.69 7 2.38 7 0 7 C0 4.69 0 2.38 0 0 Z " fill="#B1B1B1" transform="translate(45,203)"/>
<path d="M0 0 C2.31 0 4.62 0 7 0 C7 2.31 7 4.62 7 7 C4.69 7 2.38 7 0 7 C0 4.69 0 2.38 0 0 Z " fill="#D9D5D2" transform="translate(188,188)"/>
<path d="M0 0 C2.31 0 4.62 0 7 0 C7 2.31 7 4.62 7 7 C4.69 7 2.38 7 0 7 C0 4.69 0 2.38 0 0 Z " fill="#817D7B" transform="translate(128,188)"/>
<path d="M0 0 C2.31 0 4.62 0 7 0 C7 2.31 7 4.62 7 7 C4.69 7 2.38 7 0 7 C0 4.69 0 2.38 0 0 Z " fill="#B3B2B2" transform="translate(68,188)"/>
<path d="M0 0 C2.31 0 4.62 0 7 0 C7 2.31 7 4.62 7 7 C4.69 7 2.38 7 0 7 C0 4.69 0 2.38 0 0 Z " fill="#A0A0A0" transform="translate(23,188)"/>
<path d="M0 0 C2.31 0 4.62 0 7 0 C7 2.31 7 4.62 7 7 C4.69 7 2.38 7 0 7 C0 4.69 0 2.38 0 0 Z " fill="#FEFEFE" transform="translate(188,165)"/>
<path d="M0 0 C2.31 0 4.62 0 7 0 C7 2.31 7 4.62 7 7 C4.69 7 2.38 7 0 7 C0 4.69 0 2.38 0 0 Z " fill="#D9D5D3" transform="translate(165,165)"/>
<path d="M0 0 C2.31 0 4.62 0 7 0 C7 2.31 7 4.62 7 7 C4.69 7 2.38 7 0 7 C0 4.69 0 2.38 0 0 Z " fill="#221F1D" transform="translate(210,150)"/>
<path d="M0 0 C2.31 0 4.62 0 7 0 C7 2.31 7 4.62 7 7 C4.69 7 2.38 7 0 7 C0 4.69 0 2.38 0 0 Z " fill="#FEFDFE" transform="translate(203,150)"/>
<path d="M0 0 C2.31 0 4.62 0 7 0 C7 2.31 7 4.62 7 7 C4.69 7 2.38 7 0 7 C0 4.69 0 2.38 0 0 Z " fill="#FEFEFE" transform="translate(188,150)"/>
<path d="M0 0 C2.31 0 4.62 0 7 0 C7 2.31 7 4.62 7 7 C4.69 7 2.38 7 0 7 C0 4.69 0 2.38 0 0 Z " fill="#C1C0C1" transform="translate(83,150)"/>
<path d="M0 0 C2.31 0 4.62 0 7 0 C7 2.31 7 4.62 7 7 C4.69 7 2.38 7 0 7 C0 4.69 0 2.38 0 0 Z " fill="#346175" transform="translate(23,150)"/>
<path d="M0 0 C2.31 0 4.62 0 7 0 C7 2.31 7 4.62 7 7 C4.69 7 2.38 7 0 7 C0 4.69 0 2.38 0 0 Z " fill="#FEFDFE" transform="translate(210,143)"/>
<path d="M0 0 C2.31 0 4.62 0 7 0 C7 2.31 7 4.62 7 7 C4.69 7 2.38 7 0 7 C0 4.69 0 2.38 0 0 Z " fill="#C1C1C1" transform="translate(203,143)"/>
<path d="M0 0 C2.31 0 4.62 0 7 0 C7 2.31 7 4.62 7 7 C4.69 7 2.38 7 0 7 C0 4.69 0 2.38 0 0 Z " fill="#221F1D" transform="translate(188,143)"/>
<path d="M0 0 C2.31 0 4.62 0 7 0 C7 2.31 7 4.62 7 7 C4.69 7 2.38 7 0 7 C0 4.69 0 2.38 0 0 Z " fill="#FEFEFE" transform="translate(210,128)"/>
<path d="M0 0 C2.31 0 4.62 0 7 0 C7 2.31 7 4.62 7 7 C4.69 7 2.38 7 0 7 C0 4.69 0 2.38 0 0 Z " fill="#221F1D" transform="translate(203,128)"/>
<path d="M0 0 C2.31 0 4.62 0 7 0 C7 2.31 7 4.62 7 7 C4.69 7 2.38 7 0 7 C0 4.69 0 2.38 0 0 Z " fill="#264B5F" transform="translate(45,105)"/>
<path d="M0 0 C2.31 0 4.62 0 7 0 C7 2.31 7 4.62 7 7 C4.69 7 2.38 7 0 7 C0 4.69 0 2.38 0 0 Z " fill="#457E99" transform="translate(30,105)"/>
<path d="M0 0 C2.31 0 4.62 0 7 0 C7 2.31 7 4.62 7 7 C4.69 7 2.38 7 0 7 C0 4.69 0 2.38 0 0 Z " fill="#010000" transform="translate(30,90)"/>
<path d="M0 0 C2.31 0 4.62 0 7 0 C7 2.31 7 4.62 7 7 C4.69 7 2.38 7 0 7 C0 4.69 0 2.38 0 0 Z " fill="#221E1D" transform="translate(45,83)"/>
<path d="M0 0 C2.31 0 4.62 0 7 0 C7 2.31 7 4.62 7 7 C4.69 7 2.38 7 0 7 C0 4.69 0 2.38 0 0 Z " fill="#010101" transform="translate(150,30)"/>
<path d="M0 0 C2.31 0 4.62 0 7 0 C7 2.31 7 4.62 7 7 C4.69 7 2.38 7 0 7 C0 4.69 0 2.38 0 0 Z " fill="#4B4444" transform="translate(45,30)"/>
<path d="M0 0 C2.31 0 4.62 0 7 0 C7 2.31 7 4.62 7 7 C4.69 7 2.38 7 0 7 C0 4.69 0 2.38 0 0 Z " fill="#010001" transform="translate(143,23)"/>
<path d="M0 0 C2.31 0 4.62 0 7 0 C7 2.31 7 4.62 7 7 C4.69 7 2.38 7 0 7 C0 4.69 0 2.38 0 0 Z " fill="#666263" transform="translate(128,23)"/>
<path d="M0 0 C2.31 0 4.62 0 7 0 C7 2.31 7 4.62 7 7 C4.69 7 2.38 7 0 7 C0 4.69 0 2.38 0 0 Z " fill="#666263" transform="translate(68,23)"/>
<path d="M0 0 C2.31 0 4.62 0 7 0 C7 2.31 7 4.62 7 7 C4.69 7 2.38 7 0 7 C0 4.69 0 2.38 0 0 Z " fill="#000000" transform="translate(45,23)"/>
<path d="M0 0 C2.64 0 5.28 0 8 0 C8 1.98 8 3.96 8 6 C5.36 6 2.72 6 0 6 C0 4.02 0 2.04 0 0 Z " fill="#B1B1B1" transform="translate(60,174)"/>
</svg>
