<?xml version="1.0" encoding="UTF-8"?>
<!DOCTYPE svg PUBLIC "-//W3C//DTD SVG 1.1//EN" "http://www.w3.org/Graphics/SVG/1.1/DTD/svg11.dtd">
<svg xmlns="http://www.w3.org/2000/svg" version="1.1" width="500px" height="500px" style="shape-rendering:geometricPrecision; text-rendering:geometricPrecision; image-rendering:optimizeQuality; fill-rule:evenodd; clip-rule:evenodd" xmlns:xlink="http://www.w3.org/1999/xlink">
<g><path style="opacity:0.465" fill="#7d5316" d="M 77.5,62.5 C 87.9869,61.5056 98.6536,61.1722 109.5,61.5C 109.5,66.8333 109.5,72.1667 109.5,77.5C 108.833,77.5 108.5,77.1667 108.5,76.5C 108.5,71.8333 108.5,67.1667 108.5,62.5C 98.1667,62.5 87.8333,62.5 77.5,62.5 Z"/></g>
<g><path style="opacity:0.483" fill="#8a6124" d="M 218.5,77.5 C 218.167,77.5 217.833,77.5 217.5,77.5C 217.5,72.5 217.5,67.5 217.5,62.5C 207.5,62.5 197.5,62.5 187.5,62.5C 187.5,67.5 187.5,72.5 187.5,77.5C 187.167,77.5 186.833,77.5 186.5,77.5C 186.5,72.1667 186.5,66.8333 186.5,61.5C 197.167,61.5 207.833,61.5 218.5,61.5C 218.5,66.8333 218.5,72.1667 218.5,77.5 Z"/></g>
<g><path style="opacity:0.478" fill="#8a6025" d="M 312.5,77.5 C 312.167,77.5 311.833,77.5 311.5,77.5C 311.5,72.5 311.5,67.5 311.5,62.5C 301.5,62.5 291.5,62.5 281.5,62.5C 281.5,67.1667 281.5,71.8333 281.5,76.5C 281.5,77.1667 281.167,77.5 280.5,77.5C 280.5,72.1667 280.5,66.8333 280.5,61.5C 291.167,61.5 301.833,61.5 312.5,61.5C 312.5,66.8333 312.5,72.1667 312.5,77.5 Z"/></g>
<g><path style="opacity:0.993" fill="#e5aa4a" d="M 217.5,77.5 C 216.514,73.03 216.181,68.3633 216.5,63.5C 207.167,63.5 197.833,63.5 188.5,63.5C 188.819,68.3633 188.486,73.03 187.5,77.5C 187.5,72.5 187.5,67.5 187.5,62.5C 197.5,62.5 207.5,62.5 217.5,62.5C 217.5,67.5 217.5,72.5 217.5,77.5 Z"/></g>
<g><path style="opacity:0.992" fill="#e7a94b" d="M 311.5,77.5 C 310.514,73.03 310.181,68.3633 310.5,63.5C 301.167,63.5 291.833,63.5 282.5,63.5C 282.818,68.0323 282.485,72.3656 281.5,76.5C 281.5,71.8333 281.5,67.1667 281.5,62.5C 291.5,62.5 301.5,62.5 311.5,62.5C 311.5,67.5 311.5,72.5 311.5,77.5 Z"/></g>
<g><path style="opacity:1" fill="#f3a632" d="M 108.5,76.5 C 108.5,77.1667 108.833,77.5 109.5,77.5C 135.167,77.5 160.833,77.5 186.5,77.5C 186.833,77.5 187.167,77.5 187.5,77.5C 188.486,73.03 188.819,68.3633 188.5,63.5C 197.833,63.5 207.167,63.5 216.5,63.5C 216.181,68.3633 216.514,73.03 217.5,77.5C 217.833,77.5 218.167,77.5 218.5,77.5C 239.167,77.5 259.833,77.5 280.5,77.5C 281.167,77.5 281.5,77.1667 281.5,76.5C 282.485,72.3656 282.818,68.0323 282.5,63.5C 291.833,63.5 301.167,63.5 310.5,63.5C 310.181,68.3633 310.514,73.03 311.5,77.5C 311.833,77.5 312.167,77.5 312.5,77.5C 343.5,77.5 374.5,77.5 405.5,77.5C 405.833,77.5 406.167,77.5 406.5,77.5C 407.191,73.1007 407.858,68.6007 408.5,64C 417.167,63.3333 425.833,63.3333 434.5,64C 435.155,73.5983 435.822,83.0983 436.5,92.5C 436.5,93.1667 436.833,93.5 437.5,93.5C 441.97,94.4861 446.637,94.8195 451.5,94.5C 451.5,114.833 451.5,135.167 451.5,155.5C 451.167,155.5 450.833,155.5 450.5,155.5C 450.667,140.496 450.5,125.496 450,110.5C 441,109.167 432,109.167 423,110.5C 422.5,125.163 422.333,139.83 422.5,154.5C 427.032,154.182 431.366,154.515 435.5,155.5C 430.833,155.5 426.167,155.5 421.5,155.5C 421.5,139.833 421.5,124.167 421.5,108.5C 406.181,107.167 390.515,106.501 374.5,106.5C 358.485,106.501 342.819,107.167 327.5,108.5C 327.167,108.5 326.833,108.5 326.5,108.5C 318.677,107.671 310.677,107.171 302.5,107C 300.111,105.337 298.111,105.837 296.5,108.5C 270.167,108.5 243.833,108.5 217.5,108.5C 217.5,109.5 217.5,110.5 217.5,111.5C 216.733,110.828 216.066,109.995 215.5,109C 206.119,108.22 196.786,108.387 187.5,109.5C 156.167,108.167 124.833,108.167 93.5,109.5C 93.5,124.833 93.5,140.167 93.5,155.5C 93.1667,155.5 92.8333,155.5 92.5,155.5C 92.7721,139.472 92.4387,123.472 91.5,107.5C 88.6354,107.945 86.1354,107.278 84,105.5C 83.2496,106.126 82.4162,106.626 81.5,107C 75.5845,107.19 69.7512,107.69 64,108.5C 63.5001,124.163 63.3334,139.83 63.5,155.5C 63.1667,155.5 62.8333,155.5 62.5,155.5C 62.5,134.833 62.5,114.167 62.5,93.5C 67.5,93.5 72.5,93.5 77.5,93.5C 78.494,83.6806 78.8274,73.6806 78.5,63.5C 88.1667,63.5 97.8333,63.5 107.5,63.5C 107.182,68.0323 107.515,72.3656 108.5,76.5 Z"/></g>
<g><path style="opacity:0.458" fill="#885b1a" d="M 437.5,92.5 C 437.5,92.8333 437.5,93.1667 437.5,93.5C 436.833,93.5 436.5,93.1667 436.5,92.5C 436.5,82.5 436.5,72.5 436.5,62.5C 426.5,62.5 416.5,62.5 406.5,62.5C 406.5,67.5 406.5,72.5 406.5,77.5C 406.167,77.5 405.833,77.5 405.5,77.5C 405.5,72.1667 405.5,66.8333 405.5,61.5C 416.167,61.5 426.833,61.5 437.5,61.5C 437.5,71.8333 437.5,82.1667 437.5,92.5 Z"/></g>
<g><path style="opacity:0.868" fill="#d49e48" d="M 77.5,62.5 C 87.8333,62.5 98.1667,62.5 108.5,62.5C 108.5,67.1667 108.5,71.8333 108.5,76.5C 107.515,72.3656 107.182,68.0323 107.5,63.5C 97.8333,63.5 88.1667,63.5 78.5,63.5C 78.8274,73.6806 78.494,83.6806 77.5,93.5C 77.5,93.1667 77.5,92.8333 77.5,92.5C 77.5,82.5 77.5,72.5 77.5,62.5 Z"/></g>
<g><path style="opacity:0.987" fill="#e9a94a" d="M 436.5,92.5 C 435.822,83.0983 435.155,73.5983 434.5,64C 425.833,63.3333 417.167,63.3333 408.5,64C 407.858,68.6007 407.191,73.1007 406.5,77.5C 406.5,72.5 406.5,67.5 406.5,62.5C 416.5,62.5 426.5,62.5 436.5,62.5C 436.5,72.5 436.5,82.5 436.5,92.5 Z"/></g>
<g><path style="opacity:1" fill="#f6a33b" d="M 421.5,108.5 C 390.167,108.5 358.833,108.5 327.5,108.5C 342.819,107.167 358.485,106.501 374.5,106.5C 390.515,106.501 406.181,107.167 421.5,108.5 Z"/></g>
<g><path style="opacity:1" fill="#c65e1b" d="M 93.5,109.5 C 124.833,108.167 156.167,108.167 187.5,109.5C 187.5,124.833 187.5,140.167 187.5,155.5C 187.167,155.5 186.833,155.5 186.5,155.5C 186.5,140.167 186.5,124.833 186.5,109.5C 155.5,109.5 124.5,109.5 93.5,109.5 Z"/></g>
<g><path style="opacity:1" fill="#9d2c0c" d="M 93.5,109.5 C 124.5,109.5 155.5,109.5 186.5,109.5C 186.5,124.833 186.5,140.167 186.5,155.5C 181.5,155.5 176.5,155.5 171.5,155.5C 175.634,154.515 179.968,154.182 184.5,154.5C 184.5,149.833 184.5,145.167 184.5,140.5C 185.474,130.582 185.807,120.582 185.5,110.5C 160.167,110.5 134.833,110.5 109.5,110.5C 108.833,110.5 108.167,110.5 107.5,110.5C 103.167,110.5 98.8333,110.5 94.5,110.5C 94.5,122.167 94.5,133.833 94.5,145.5C 94.3187,148.397 94.6521,151.23 95.5,154C 95.1639,155.03 94.4972,155.53 93.5,155.5C 93.5,140.167 93.5,124.833 93.5,109.5 Z"/></g>
<g><path style="opacity:1" fill="#a93011" d="M 327.5,109.5 C 353.167,109.5 378.833,109.5 404.5,109.5C 404.5,109.833 404.5,110.167 404.5,110.5C 379.824,110.167 355.158,110.5 330.5,111.5C 329.713,120.805 329.046,130.138 328.5,139.5C 328.5,144.167 328.5,148.833 328.5,153.5C 328.5,154.167 328.5,154.833 328.5,155.5C 328.167,155.5 327.833,155.5 327.5,155.5C 327.5,140.167 327.5,124.833 327.5,109.5 Z"/></g>
<g><path style="opacity:1" fill="#8d2820" d="M 107.5,110.5 C 107.5,120.5 107.5,130.5 107.5,140.5C 107.167,140.5 106.833,140.5 106.5,140.5C 102.833,140.5 99.1667,140.5 95.5,140.5C 95.7845,142.415 95.4511,144.081 94.5,145.5C 94.5,133.833 94.5,122.167 94.5,110.5C 98.8333,110.5 103.167,110.5 107.5,110.5 Z"/></g>
<g><path style="opacity:1" fill="#ab281e" d="M 109.5,110.5 C 134.833,110.5 160.167,110.5 185.5,110.5C 185.807,120.582 185.474,130.582 184.5,140.5C 159.5,140.5 134.5,140.5 109.5,140.5C 109.5,130.5 109.5,120.5 109.5,110.5 Z"/></g>
<g><path style="opacity:1" fill="#89261e" d="M 232.5,110.5 C 233.522,125.425 234.188,140.425 234.5,155.5C 229.5,155.5 224.5,155.5 219.5,155.5C 220.257,140.512 220.591,125.512 220.5,110.5C 224.5,110.5 228.5,110.5 232.5,110.5 Z"/></g>
<g><path style="opacity:1" fill="#8d2821" d="M 281.5,110.5 C 285.833,110.5 290.167,110.5 294.5,110.5C 294.5,120.167 294.5,129.833 294.5,139.5C 290.833,139.5 287.167,139.5 283.5,139.5C 282.761,139.631 282.094,139.464 281.5,139C 281.553,129.71 281.553,120.21 281.5,110.5 Z"/></g>
<g><path style="opacity:1" fill="#ab281e" d="M 404.5,110.5 C 405.494,120.319 405.827,130.319 405.5,140.5C 379.789,140.815 354.122,140.482 328.5,139.5C 329.046,130.138 329.713,120.805 330.5,111.5C 355.158,110.5 379.824,110.167 404.5,110.5 Z"/></g>
<g><path style="opacity:1" fill="#8c271e" d="M 404.5,110.5 C 404.5,110.167 404.5,109.833 404.5,109.5C 409.833,109.5 415.167,109.5 420.5,109.5C 420.5,122.167 420.5,134.833 420.5,147.5C 419.79,145.107 419.123,142.607 418.5,140C 417.5,139.5 416.5,139 415.5,138.5C 413.298,139.78 411.132,139.78 409,138.5C 408.25,139.126 407.416,139.626 406.5,140C 407.32,149.423 407.82,158.923 408,168.5C 412.164,169.197 416.33,169.863 420.5,170.5C 421.234,171.708 421.567,173.041 421.5,174.5C 421.167,174.5 420.833,174.5 420.5,174.5C 420.426,172.589 419.426,171.422 417.5,171C 414.21,171.369 410.877,171.369 407.5,171C 406.874,170.25 406.374,169.416 406,168.5C 405.5,159.173 405.334,149.839 405.5,140.5C 405.827,130.319 405.494,120.319 404.5,110.5 Z"/></g>
<g><path style="opacity:0.498" fill="#7a4a08" d="M 77.5,92.5 C 77.5,92.8333 77.5,93.1667 77.5,93.5C 72.5,93.5 67.5,93.5 62.5,93.5C 62.5,114.167 62.5,134.833 62.5,155.5C 62.1667,155.5 61.8333,155.5 61.5,155.5C 61.5,134.5 61.5,113.5 61.5,92.5C 66.8333,92.5 72.1667,92.5 77.5,92.5 Z"/></g>
<g><path style="opacity:1" fill="#fea215" d="M 217.5,111.5 C 217.5,126.167 217.5,140.833 217.5,155.5C 212.5,155.5 207.5,155.5 202.5,155.5C 197.5,155.5 192.5,155.5 187.5,155.5C 187.5,140.167 187.5,124.833 187.5,109.5C 196.786,108.387 206.119,108.22 215.5,109C 216.066,109.995 216.733,110.828 217.5,111.5 Z"/></g>
<g><path style="opacity:1" fill="#8e2b07" d="M 234.5,109.5 C 234.5,109.833 234.5,110.167 234.5,110.5C 233.833,110.5 233.167,110.5 232.5,110.5C 228.5,110.5 224.5,110.5 220.5,110.5C 220.591,125.512 220.257,140.512 219.5,155.5C 219.167,155.5 218.833,155.5 218.5,155.5C 218.5,140.167 218.5,124.833 218.5,109.5C 223.833,109.5 229.167,109.5 234.5,109.5 Z"/></g>
<g><path style="opacity:1" fill="#ab291e" d="M 234.5,109.5 C 249.833,109.5 265.167,109.5 280.5,109.5C 280.5,109.833 280.5,110.167 280.5,110.5C 280.796,120.108 280.463,129.942 279.5,140C 264.837,140.5 250.17,140.667 235.5,140.5C 234.576,130.539 234.242,120.539 234.5,110.5C 234.5,110.167 234.5,109.833 234.5,109.5 Z"/></g>
<g><path style="opacity:1" fill="#fb9c3b" d="M 296.5,108.5 C 297.496,123.658 297.83,138.991 297.5,154.5C 302.363,154.181 307.03,154.514 311.5,155.5C 306.5,155.5 301.5,155.5 296.5,155.5C 296.5,140.167 296.5,124.833 296.5,109.5C 296.5,109.167 296.5,108.833 296.5,108.5 Z"/></g>
<g><path style="opacity:0.996" fill="#e3a851" d="M 437.5,93.5 C 442.5,93.5 447.5,93.5 452.5,93.5C 452.5,114.167 452.5,134.833 452.5,155.5C 452.167,155.5 451.833,155.5 451.5,155.5C 451.5,135.167 451.5,114.833 451.5,94.5C 446.637,94.8195 441.97,94.4861 437.5,93.5 Z"/></g>
<g><path style="opacity:1" fill="#912e0c" d="M 280.5,110.5 C 280.5,110.167 280.5,109.833 280.5,109.5C 285.833,109.5 291.167,109.5 296.5,109.5C 296.5,124.833 296.5,140.167 296.5,155.5C 295.167,155.5 293.833,155.5 292.5,155.5C 294.333,150.392 294.999,145.058 294.5,139.5C 294.5,129.833 294.5,120.167 294.5,110.5C 290.167,110.5 285.833,110.5 281.5,110.5C 281.167,110.5 280.833,110.5 280.5,110.5 Z"/></g>
<g><path style="opacity:1" fill="#ab470f" d="M 327.5,109.5 C 327.5,109.167 327.5,108.833 327.5,108.5C 358.833,108.5 390.167,108.5 421.5,108.5C 421.5,124.167 421.5,139.833 421.5,155.5C 420.527,153.052 420.194,150.385 420.5,147.5C 420.5,134.833 420.5,122.167 420.5,109.5C 415.167,109.5 409.833,109.5 404.5,109.5C 378.833,109.5 353.167,109.5 327.5,109.5 Z"/></g>
<g><path style="opacity:1" fill="#fea215" d="M 92.5,155.5 C 87.5,155.5 82.5,155.5 77.5,155.5C 72.8333,155.5 68.1667,155.5 63.5,155.5C 63.3334,139.83 63.5001,124.163 64,108.5C 69.7512,107.69 75.5845,107.19 81.5,107C 82.4162,106.626 83.2496,106.126 84,105.5C 86.1354,107.278 88.6354,107.945 91.5,107.5C 92.4387,123.472 92.7721,139.472 92.5,155.5 Z"/></g>
<g><path style="opacity:1" fill="#fea214" d="M 326.5,108.5 C 326.5,124.167 326.5,139.833 326.5,155.5C 321.833,155.5 317.167,155.5 312.5,155.5C 312.167,155.5 311.833,155.5 311.5,155.5C 307.03,154.514 302.363,154.181 297.5,154.5C 297.83,138.991 297.496,123.658 296.5,108.5C 298.111,105.837 300.111,105.337 302.5,107C 310.677,107.171 318.677,107.671 326.5,108.5 Z"/></g>
<g><path style="opacity:1" fill="#fea214" d="M 450.5,155.5 C 446.167,155.5 441.833,155.5 437.5,155.5C 436.833,155.5 436.167,155.5 435.5,155.5C 431.366,154.515 427.032,154.182 422.5,154.5C 422.333,139.83 422.5,125.163 423,110.5C 432,109.167 441,109.167 450,110.5C 450.5,125.496 450.667,140.496 450.5,155.5 Z"/></g>
<g><path style="opacity:1" fill="#d27028" d="M 296.5,108.5 C 296.5,108.833 296.5,109.167 296.5,109.5C 291.167,109.5 285.833,109.5 280.5,109.5C 265.167,109.5 249.833,109.5 234.5,109.5C 229.167,109.5 223.833,109.5 218.5,109.5C 218.5,124.833 218.5,140.167 218.5,155.5C 218.167,155.5 217.833,155.5 217.5,155.5C 217.5,140.833 217.5,126.167 217.5,111.5C 217.5,110.5 217.5,109.5 217.5,108.5C 243.833,108.5 270.167,108.5 296.5,108.5 Z"/></g>
<g><path style="opacity:1" fill="#972117" d="M 107.5,110.5 C 108.167,110.5 108.833,110.5 109.5,110.5C 109.5,120.5 109.5,130.5 109.5,140.5C 134.5,140.5 159.5,140.5 184.5,140.5C 184.5,145.167 184.5,149.833 184.5,154.5C 179.968,154.182 175.634,154.515 171.5,155.5C 169.554,160.396 168.887,165.729 169.5,171.5C 149.167,171.5 128.833,171.5 108.5,171.5C 108.167,171.5 107.833,171.5 107.5,171.5C 108.796,161.039 108.796,150.705 107.5,140.5C 107.5,130.5 107.5,120.5 107.5,110.5 Z"/></g>
<g><path style="opacity:1" fill="#972218" d="M 232.5,110.5 C 233.167,110.5 233.833,110.5 234.5,110.5C 234.242,120.539 234.576,130.539 235.5,140.5C 250.17,140.667 264.837,140.5 279.5,140C 280.463,129.942 280.796,120.108 280.5,110.5C 280.833,110.5 281.167,110.5 281.5,110.5C 281.553,120.21 281.553,129.71 281.5,139C 282.094,139.464 282.761,139.631 283.5,139.5C 282.859,140.482 282.193,141.482 281.5,142.5C 282.254,145.777 282.754,149.11 283,152.5C 285.943,154.223 289.11,155.223 292.5,155.5C 293.833,155.5 295.167,155.5 296.5,155.5C 296.5,156.167 296.833,156.5 297.5,156.5C 296.555,161.405 296.221,166.405 296.5,171.5C 295.833,171.5 295.167,171.5 294.5,171.5C 269.5,171.5 244.5,171.5 219.5,171.5C 219.192,181.915 219.525,192.249 220.5,202.5C 219.833,202.5 219.167,202.5 218.5,202.5C 218.5,187.5 218.5,172.5 218.5,157.5C 215.941,157.802 213.607,157.468 211.5,156.5C 214.059,156.802 216.393,156.468 218.5,155.5C 218.833,155.5 219.167,155.5 219.5,155.5C 224.5,155.5 229.5,155.5 234.5,155.5C 234.188,140.425 233.522,125.425 232.5,110.5 Z"/></g>
<g><path style="opacity:1" fill="#7e221b" d="M 283.5,139.5 C 287.167,139.5 290.833,139.5 294.5,139.5C 294.999,145.058 294.333,150.392 292.5,155.5C 289.11,155.223 285.943,154.223 283,152.5C 282.754,149.11 282.254,145.777 281.5,142.5C 282.193,141.482 282.859,140.482 283.5,139.5 Z"/></g>
<g><path style="opacity:1" fill="#982117" d="M 328.5,139.5 C 354.122,140.482 379.789,140.815 405.5,140.5C 405.334,149.839 405.5,159.173 406,168.5C 406.374,169.416 406.874,170.25 407.5,171C 410.877,171.369 414.21,171.369 417.5,171C 419.426,171.422 420.426,172.589 420.5,174.5C 419.711,174.217 419.044,173.717 418.5,173C 393.857,171.629 369.19,171.129 344.5,171.5C 344.447,165.804 344.78,160.138 345.5,154.5C 339.741,154.786 334.075,154.452 328.5,153.5C 328.5,148.833 328.5,144.167 328.5,139.5 Z"/></g>
<g><path style="opacity:0.122" fill="#391600" d="M 437.5,93.5 C 437.5,93.1667 437.5,92.8333 437.5,92.5C 442.833,92.5 448.167,92.5 453.5,92.5C 453.5,113.5 453.5,134.5 453.5,155.5C 453.167,155.5 452.833,155.5 452.5,155.5C 452.5,134.833 452.5,114.167 452.5,93.5C 447.5,93.5 442.5,93.5 437.5,93.5 Z"/></g>
<g><path style="opacity:1" fill="#dc8e15" d="M 61.5,155.5 C 61.8333,155.5 62.1667,155.5 62.5,155.5C 62.8333,155.5 63.1667,155.5 63.5,155.5C 68.1667,155.5 72.8333,155.5 77.5,155.5C 77.5,155.833 77.5,156.167 77.5,156.5C 76.5039,171.324 76.1706,186.324 76.5,201.5C 71.6367,201.181 66.97,201.514 62.5,202.5C 62.1667,202.5 61.8333,202.5 61.5,202.5C 60.5058,212.653 60.1724,222.986 60.5,233.5C 51.3173,233.782 41.9839,233.782 32.5,233.5C 32.5,223.833 32.5,214.167 32.5,204.5C 36.1667,204.5 39.8333,204.5 43.5,204.5C 43.281,205.675 43.6143,206.675 44.5,207.5C 45.4287,206.311 45.762,204.978 45.5,203.5C 46.3382,203.158 46.6716,202.492 46.5,201.5C 47.4961,186.676 47.8294,171.676 47.5,156.5C 52.3633,156.819 57.03,156.486 61.5,155.5 Z"/></g>
<g><path style="opacity:1" fill="#dd8e15" d="M 186.5,155.5 C 186.833,155.5 187.167,155.5 187.5,155.5C 192.5,155.5 197.5,155.5 202.5,155.5C 202.5,155.833 202.5,156.167 202.5,156.5C 201.504,171.324 201.171,186.324 201.5,201.5C 196.637,201.181 191.97,201.514 187.5,202.5C 187.167,202.5 186.833,202.5 186.5,202.5C 185.506,212.653 185.172,222.986 185.5,233.5C 176.034,233.837 166.701,233.837 157.5,233.5C 157.237,224.324 157.57,214.99 158.5,205.5C 162.967,204.886 167.3,204.22 171.5,203.5C 171.5,203.167 171.5,202.833 171.5,202.5C 172.331,187.672 172.831,172.672 173,157.5C 177.601,156.858 182.101,156.191 186.5,155.5 Z"/></g>
<g><path style="opacity:1" fill="#dc8e15" d="M 342.5,202.5 C 346.977,204.177 351.81,205.177 357,205.5C 357.5,214.827 357.666,224.161 357.5,233.5C 347.954,233.616 338.287,233.616 328.5,233.5C 328.828,222.986 328.494,212.653 327.5,202.5C 323.101,201.809 318.601,201.142 314,200.5C 313.333,186.167 313.333,171.833 314,157.5C 323.166,157.716 332.332,157.716 341.5,157.5C 341.171,172.676 341.504,187.676 342.5,202.5 Z"/></g>
<g><path style="opacity:1" fill="#dc8e15" d="M 437.5,156.5 C 437.5,156.167 437.5,155.833 437.5,155.5C 441.833,155.5 446.167,155.5 450.5,155.5C 450.833,155.5 451.167,155.5 451.5,155.5C 451.833,155.5 452.167,155.5 452.5,155.5C 457.305,156.487 462.305,156.821 467.5,156.5C 467.17,172.009 467.504,187.342 468.5,202.5C 468.611,203.117 468.944,203.617 469.5,204C 473.753,204.2 477.92,204.7 482,205.5C 482.5,214.827 482.666,224.161 482.5,233.5C 473.018,233.831 463.685,233.831 454.5,233.5C 454.667,222.828 454.5,212.161 454,201.5C 448.928,200.529 443.762,200.195 438.5,200.5C 438.829,185.657 438.496,170.99 437.5,156.5 Z"/></g>
<g><path style="opacity:1" fill="#de812b" d="M 171.5,155.5 C 176.5,155.5 181.5,155.5 186.5,155.5C 182.101,156.191 177.601,156.858 173,157.5C 172.831,172.672 172.331,187.672 171.5,202.5C 171.5,187.167 171.5,171.833 171.5,156.5C 171.5,156.167 171.5,155.833 171.5,155.5 Z"/></g>
<g><path style="opacity:0.993" fill="#be8b3c" d="M 46.5,155.5 C 51.5,155.5 56.5,155.5 61.5,155.5C 57.03,156.486 52.3633,156.819 47.5,156.5C 47.8294,171.676 47.4961,186.676 46.5,201.5C 46.5,186.167 46.5,170.833 46.5,155.5 Z"/></g>
<g><path style="opacity:0.749" fill="#9a6e2d" d="M 452.5,155.5 C 452.833,155.5 453.167,155.5 453.5,155.5C 458.5,155.5 463.5,155.5 468.5,155.5C 468.5,171.167 468.5,186.833 468.5,202.5C 467.504,187.342 467.17,172.009 467.5,156.5C 462.305,156.821 457.305,156.487 452.5,155.5 Z"/></g>
<g><path style="opacity:1" fill="#e38c22" d="M 326.5,108.5 C 326.833,108.5 327.167,108.5 327.5,108.5C 327.5,108.833 327.5,109.167 327.5,109.5C 327.5,124.833 327.5,140.167 327.5,155.5C 332.305,156.487 337.305,156.821 342.5,156.5C 342.5,171.833 342.5,187.167 342.5,202.5C 341.504,187.676 341.171,172.676 341.5,157.5C 332.332,157.716 323.166,157.716 314,157.5C 313.333,171.833 313.333,186.167 314,200.5C 318.601,201.142 323.101,201.809 327.5,202.5C 322.5,202.5 317.5,202.5 312.5,202.5C 312.5,186.833 312.5,171.167 312.5,155.5C 317.167,155.5 321.833,155.5 326.5,155.5C 326.5,139.833 326.5,124.167 326.5,108.5 Z"/></g>
<g><path style="opacity:1" fill="#8c3007" d="M 77.5,155.5 C 82.5,155.5 87.5,155.5 92.5,155.5C 92.8333,155.5 93.1667,155.5 93.5,155.5C 88.6946,156.487 83.6946,156.821 78.5,156.5C 78.8295,172.009 78.4962,187.342 77.5,202.5C 77.5,187.167 77.5,171.833 77.5,156.5C 77.5,156.167 77.5,155.833 77.5,155.5 Z"/></g>
<g><path style="opacity:1" fill="#ab541b" d="M 421.5,155.5 C 426.167,155.5 430.833,155.5 435.5,155.5C 436.167,155.5 436.833,155.5 437.5,155.5C 437.5,155.833 437.5,156.167 437.5,156.5C 437.5,171.833 437.5,187.167 437.5,202.5C 437.167,202.5 436.833,202.5 436.5,202.5C 436.5,187.167 436.5,171.833 436.5,156.5C 434.833,156.5 433.167,156.5 431.5,156.5C 427.958,156.813 424.625,156.479 421.5,155.5 Z"/></g>
<g><path style="opacity:1" fill="#7d1e17" d="M 106.5,140.5 C 107.637,149.422 107.804,158.422 107,167.5C 105.477,169.62 103.644,169.953 101.5,168.5C 98.6272,169.775 95.6272,170.608 92.5,171C 92.5489,180.957 92.5489,191.124 92.5,201.5C 91.507,193.016 91.1736,184.349 91.5,175.5C 90.5,175.5 89.5,175.5 88.5,175.5C 88.7159,184.533 88.3825,193.533 87.5,202.5C 85.8561,202.714 84.3561,202.38 83,201.5C 81.4167,202.971 79.5834,203.971 77.5,204.5C 77.5,203.833 77.5,203.167 77.5,202.5C 78.4962,187.342 78.8295,172.009 78.5,156.5C 83.6946,156.821 88.6946,156.487 93.5,155.5C 94.4972,155.53 95.1639,155.03 95.5,154C 94.6521,151.23 94.3187,148.397 94.5,145.5C 95.4511,144.081 95.7845,142.415 95.5,140.5C 99.1667,140.5 102.833,140.5 106.5,140.5 Z"/></g>
<g><path style="opacity:1" fill="#921a10" d="M 171.5,155.5 C 171.5,155.833 171.5,156.167 171.5,156.5C 170.504,170.99 170.171,185.657 170.5,200.5C 166.293,200.663 162.126,200.329 158,199.5C 156.338,199.388 155.171,200.054 154.5,201.5C 134.511,202.5 114.511,202.833 94.5,202.5C 94.3335,193.161 94.5002,183.827 95,174.5C 96.126,173.056 97.626,172.39 99.5,172.5C 102.154,173.268 104.821,173.434 107.5,173C 108.056,172.617 108.389,172.117 108.5,171.5C 128.833,171.5 149.167,171.5 169.5,171.5C 168.887,165.729 169.554,160.396 171.5,155.5 Z"/></g>
<g><path style="opacity:1" fill="#921a10" d="M 294.5,171.5 C 295.444,179.865 295.777,188.199 295.5,196.5C 295.125,198.459 294.459,200.293 293.5,202C 269.169,202.5 244.836,202.667 220.5,202.5C 219.525,192.249 219.192,181.915 219.5,171.5C 244.5,171.5 269.5,171.5 294.5,171.5 Z"/></g>
<g><path style="opacity:1" fill="#7c1d17" d="M 297.5,156.5 C 298.833,156.5 300.167,156.5 301.5,156.5C 301.5,157.5 301.5,158.5 301.5,159.5C 303.367,159.045 305.2,158.378 307,157.5C 308.326,157.755 309.326,158.422 310,159.5C 310.5,172.829 310.667,186.163 310.5,199.5C 309.733,200.172 309.066,201.005 308.5,202C 304.892,202.026 301.558,202.859 298.5,204.5C 298.101,207.978 297.767,211.645 297.5,215.5C 296.59,211.051 296.257,206.718 296.5,202.5C 297.544,192.335 297.544,182.001 296.5,171.5C 296.221,166.405 296.555,161.405 297.5,156.5 Z"/></g>
<g><path style="opacity:1" fill="#7c2007" d="M 301.5,156.5 C 304.833,156.5 308.167,156.5 311.5,156.5C 311.5,171.833 311.5,187.167 311.5,202.5C 310.596,201.791 310.263,200.791 310.5,199.5C 310.667,186.163 310.5,172.829 310,159.5C 309.326,158.422 308.326,157.755 307,157.5C 305.2,158.378 303.367,159.045 301.5,159.5C 301.5,158.5 301.5,157.5 301.5,156.5 Z"/></g>
<g><path style="opacity:1" fill="#ab540f" d="M 296.5,155.5 C 301.5,155.5 306.5,155.5 311.5,155.5C 311.833,155.5 312.167,155.5 312.5,155.5C 312.5,171.167 312.5,186.833 312.5,202.5C 312.167,202.5 311.833,202.5 311.5,202.5C 311.5,187.167 311.5,171.833 311.5,156.5C 308.167,156.5 304.833,156.5 301.5,156.5C 300.167,156.5 298.833,156.5 297.5,156.5C 296.833,156.5 296.5,156.167 296.5,155.5 Z"/></g>
<g><path style="opacity:1" fill="#921a10" d="M 328.5,153.5 C 334.075,154.452 339.741,154.786 345.5,154.5C 344.78,160.138 344.447,165.804 344.5,171.5C 369.19,171.129 393.857,171.629 418.5,173C 419.044,173.717 419.711,174.217 420.5,174.5C 420.5,183.833 420.5,193.167 420.5,202.5C 400.94,202.434 381.274,202.434 361.5,202.5C 361.649,203.552 361.483,204.552 361,205.5C 360.768,204.263 360.268,203.263 359.5,202.5C 359.167,202.5 358.833,202.5 358.5,202.5C 353.5,202.5 348.5,202.5 343.5,202.5C 343.5,186.833 343.5,171.167 343.5,155.5C 338.5,155.5 333.5,155.5 328.5,155.5C 328.5,154.833 328.5,154.167 328.5,153.5 Z"/></g>
<g><path style="opacity:1" fill="#7c1e18" d="M 420.5,147.5 C 420.194,150.385 420.527,153.052 421.5,155.5C 424.625,156.479 427.958,156.813 431.5,156.5C 432.072,157.973 432.905,159.307 434,160.5C 434.232,171.853 434.732,183.186 435.5,194.5C 435.003,196.818 434.67,199.152 434.5,201.5C 434.189,202.478 433.522,203.145 432.5,203.5C 429.081,202.252 425.748,201.918 422.5,202.5C 423.14,193.165 423.807,183.832 424.5,174.5C 423.754,173.264 423.421,171.93 423.5,170.5C 422.5,170.5 421.5,170.5 420.5,170.5C 416.33,169.863 412.164,169.197 408,168.5C 407.82,158.923 407.32,149.423 406.5,140C 407.416,139.626 408.25,139.126 409,138.5C 411.132,139.78 413.298,139.78 415.5,138.5C 416.5,139 417.5,139.5 418.5,140C 419.123,142.607 419.79,145.107 420.5,147.5 Z"/></g>
<g><path style="opacity:1" fill="#8b3201" d="M 202.5,155.5 C 207.5,155.5 212.5,155.5 217.5,155.5C 217.833,155.5 218.167,155.5 218.5,155.5C 216.393,156.468 214.059,156.802 211.5,156.5C 208.833,156.5 206.167,156.5 203.5,156.5C 203.5,171.5 203.5,186.5 203.5,201.5C 203.5,202.167 203.167,202.5 202.5,202.5C 202.5,187.167 202.5,171.833 202.5,156.5C 202.5,156.167 202.5,155.833 202.5,155.5 Z"/></g>
<g><path style="opacity:1" fill="#db8930" d="M 77.5,156.5 C 77.5,171.833 77.5,187.167 77.5,202.5C 72.5,202.5 67.5,202.5 62.5,202.5C 66.97,201.514 71.6367,201.181 76.5,201.5C 76.1706,186.324 76.5039,171.324 77.5,156.5 Z"/></g>
<g><path style="opacity:1" fill="#db8835" d="M 202.5,156.5 C 202.5,171.833 202.5,187.167 202.5,202.5C 197.5,202.5 192.5,202.5 187.5,202.5C 191.97,201.514 196.637,201.181 201.5,201.5C 201.171,186.324 201.504,171.324 202.5,156.5 Z"/></g>
<g><path style="opacity:1" fill="#7c2008" d="M 431.5,156.5 C 433.167,156.5 434.833,156.5 436.5,156.5C 436.5,171.833 436.5,187.167 436.5,202.5C 435.833,202.167 435.167,201.833 434.5,201.5C 434.67,199.152 435.003,196.818 435.5,194.5C 434.732,183.186 434.232,171.853 434,160.5C 432.905,159.307 432.072,157.973 431.5,156.5 Z"/></g>
<g><path style="opacity:1" fill="#711813" d="M 203.5,201.5 C 207.4,202.43 211.4,202.763 215.5,202.5C 215.666,206.514 215.499,210.514 215,214.5C 203.399,213.765 198.399,219.099 200,230.5C 200.473,232.779 201.473,234.779 203,236.5C 203.333,244.167 203.667,251.833 204,259.5C 205.768,260.682 205.935,262.015 204.5,263.5C 202.833,263.5 201.167,263.5 199.5,263.5C 200.472,262.601 201.138,261.434 201.5,260C 200.357,252.14 200.19,244.306 201,236.5C 198.763,233.445 196.43,233.112 194,235.5C 192.893,235.415 191.893,235.081 191,234.5C 190.292,235.381 189.458,236.047 188.5,236.5C 188.334,226.161 188.5,215.828 189,205.5C 193.08,204.7 197.247,204.2 201.5,204C 202.056,203.617 202.389,203.117 202.5,202.5C 203.167,202.5 203.5,202.167 203.5,201.5 Z"/></g>
<g><path style="opacity:1" fill="#89150c" d="M 294.5,171.5 C 295.167,171.5 295.833,171.5 296.5,171.5C 297.544,182.001 297.544,192.335 296.5,202.5C 295.185,207.68 295.185,213.014 296.5,218.5C 300.779,219.274 305.113,219.774 309.5,220C 311.647,223.974 311.98,228.14 310.5,232.5C 309.784,233.311 308.95,233.978 308,234.5C 273.863,233.677 239.696,233.177 205.5,233C 204.74,231.559 204.074,230.059 203.5,228.5C 204.129,225.795 204.463,223.128 204.5,220.5C 208.796,219.672 213.129,219.172 217.5,219C 218,218.5 218.5,218 219,217.5C 219.778,212.416 219.611,207.416 218.5,202.5C 219.167,202.5 219.833,202.5 220.5,202.5C 244.836,202.667 269.169,202.5 293.5,202C 294.459,200.293 295.125,198.459 295.5,196.5C 295.777,188.199 295.444,179.865 294.5,171.5 Z"/></g>
<g><path style="opacity:1" fill="#89150c" d="M 420.5,174.5 C 420.833,174.5 421.167,174.5 421.5,174.5C 421.666,184.506 421.5,194.506 421,204.5C 418.736,209.739 419.236,214.572 422.5,219C 426.753,219.2 430.92,219.7 435,220.5C 435.947,225.04 435.447,229.374 433.5,233.5C 409.345,233.524 385.012,233.524 360.5,233.5C 360.167,233.5 359.833,233.5 359.5,233.5C 359.5,223.167 359.5,212.833 359.5,202.5C 360.268,203.263 360.768,204.263 361,205.5C 361.483,204.552 361.649,203.552 361.5,202.5C 381.274,202.434 400.94,202.434 420.5,202.5C 420.5,193.167 420.5,183.833 420.5,174.5 Z"/></g>
<g><path style="opacity:1" fill="#89150b" d="M 171.5,156.5 C 171.5,171.833 171.5,187.167 171.5,202.5C 166.167,202.5 160.833,202.5 155.5,202.5C 155.5,212.833 155.5,223.167 155.5,233.5C 155.167,233.5 154.833,233.5 154.5,233.5C 150.894,233.211 147.394,233.544 144,234.5C 122.333,233.833 100.667,233.167 79,232.5C 78.2327,228.406 78.566,224.406 80,220.5C 84.08,219.7 88.2467,219.2 92.5,219C 93.1258,218.25 93.6258,217.416 94,216.5C 93.4429,202.194 93.4429,187.86 94,173.5C 94.5,173 95,172.5 95.5,172C 99.6127,171.866 103.613,171.699 107.5,171.5C 107.833,171.5 108.167,171.5 108.5,171.5C 108.389,172.117 108.056,172.617 107.5,173C 104.821,173.434 102.154,173.268 99.5,172.5C 97.626,172.39 96.126,173.056 95,174.5C 94.5002,183.827 94.3335,193.161 94.5,202.5C 114.511,202.833 134.511,202.5 154.5,201.5C 155.171,200.054 156.338,199.388 158,199.5C 162.126,200.329 166.293,200.663 170.5,200.5C 170.171,185.657 170.504,170.99 171.5,156.5 Z"/></g>
<g><path style="opacity:1" fill="#711913" d="M 310.5,199.5 C 310.263,200.791 310.596,201.791 311.5,202.5C 311.833,202.5 312.167,202.5 312.5,202.5C 316.899,203.191 321.399,203.858 326,204.5C 326.5,215.161 326.667,225.828 326.5,236.5C 324.887,236.056 323.72,235.056 323,233.5C 322.632,234.91 321.799,235.91 320.5,236.5C 318.542,234.731 316.542,234.065 314.5,234.5C 313.926,236.059 313.26,237.559 312.5,239C 313.482,246.747 313.815,254.58 313.5,262.5C 312.522,262.189 311.855,261.522 311.5,260.5C 311.411,247.188 311.911,233.855 313,220.5C 312.877,217.234 311.21,215.568 308,215.5C 305.516,215.497 303.349,216.163 301.5,217.5C 300.167,216.833 298.833,216.167 297.5,215.5C 297.767,211.645 298.101,207.978 298.5,204.5C 301.558,202.859 304.892,202.026 308.5,202C 309.066,201.005 309.733,200.172 310.5,199.5 Z"/></g>
<g><path style="opacity:1" fill="#721913" d="M 92.5,201.5 C 92.1655,206.177 91.6655,210.844 91,215.5C 88.334,218.556 85.1673,219.222 81.5,217.5C 80.0055,217.709 78.8388,218.376 78,219.5C 77.5008,224.155 77.3342,228.821 77.5,233.5C 79.3291,243.36 79.9957,253.36 79.5,263.5C 74.3054,263.821 69.3054,263.487 64.5,262.5C 68.5,262.5 72.5,262.5 76.5,262.5C 76.585,253.177 76.2517,243.843 75.5,234.5C 75.1667,234.167 74.8333,233.833 74.5,233.5C 72.196,236.151 69.8627,236.151 67.5,233.5C 66.8333,233.833 66.1667,234.167 65.5,234.5C 64.9495,236.657 64.2829,238.657 63.5,240.5C 63.5,228.5 63.5,216.5 63.5,204.5C 68.1667,204.5 72.8333,204.5 77.5,204.5C 79.5834,203.971 81.4167,202.971 83,201.5C 84.3561,202.38 85.8561,202.714 87.5,202.5C 88.3825,193.533 88.7159,184.533 88.5,175.5C 89.5,175.5 90.5,175.5 91.5,175.5C 91.1736,184.349 91.507,193.016 92.5,201.5 Z"/></g>
<g><path style="opacity:1" fill="#d87d24" d="M 327.5,155.5 C 327.833,155.5 328.167,155.5 328.5,155.5C 333.5,155.5 338.5,155.5 343.5,155.5C 343.5,171.167 343.5,186.833 343.5,202.5C 348.5,202.5 353.5,202.5 358.5,202.5C 358.5,223.5 358.5,244.5 358.5,265.5C 357.506,255.013 357.172,244.346 357.5,233.5C 357.666,224.161 357.5,214.827 357,205.5C 351.81,205.177 346.977,204.177 342.5,202.5C 342.5,187.167 342.5,171.833 342.5,156.5C 337.305,156.821 332.305,156.487 327.5,155.5 Z"/></g>
<g><path style="opacity:1" fill="#721813" d="M 434.5,201.5 C 435.167,201.833 435.833,202.167 436.5,202.5C 436.833,202.5 437.167,202.5 437.5,202.5C 441.365,203.224 445.365,203.891 449.5,204.5C 450.499,214.478 450.832,224.478 450.5,234.5C 446.055,233.458 442.055,234.458 438.5,237.5C 437.803,245.193 437.136,252.86 436.5,260.5C 437.34,261.735 438.34,262.735 439.5,263.5C 438.167,263.5 436.833,263.5 435.5,263.5C 435.736,255.084 435.403,246.584 434.5,238C 434.93,236.566 435.764,235.399 437,234.5C 437.667,229.833 437.667,225.167 437,220.5C 436.5,219.333 435.667,218.5 434.5,218C 430.767,217.934 427.267,217.101 424,215.5C 422.633,211.3 422.133,206.967 422.5,202.5C 425.748,201.918 429.081,202.252 432.5,203.5C 433.522,203.145 434.189,202.478 434.5,201.5 Z"/></g>
<g><path style="opacity:0.984" fill="#c68e2e" d="M 468.5,202.5 C 473.5,202.5 478.5,202.5 483.5,202.5C 483.5,228.5 483.5,254.5 483.5,280.5C 483.167,280.5 482.833,280.5 482.5,280.5C 482.5,264.833 482.5,249.167 482.5,233.5C 482.666,224.161 482.5,214.827 482,205.5C 477.92,204.7 473.753,204.2 469.5,204C 468.944,203.617 468.611,203.117 468.5,202.5 Z"/></g>
<g><path style="opacity:1" fill="#801710" d="M 106.5,140.5 C 106.833,140.5 107.167,140.5 107.5,140.5C 108.796,150.705 108.796,161.039 107.5,171.5C 103.613,171.699 99.6127,171.866 95.5,172C 95,172.5 94.5,173 94,173.5C 93.4429,187.86 93.4429,202.194 94,216.5C 93.6258,217.416 93.1258,218.25 92.5,219C 88.2467,219.2 84.08,219.7 80,220.5C 78.566,224.406 78.2327,228.406 79,232.5C 100.667,233.167 122.333,233.833 144,234.5C 147.394,233.544 150.894,233.211 154.5,233.5C 154.5,235.167 154.5,236.833 154.5,238.5C 153.078,238.25 152.078,237.417 151.5,236C 126.767,236.238 102.1,235.405 77.5,233.5C 77.3342,228.821 77.5008,224.155 78,219.5C 78.8388,218.376 80.0055,217.709 81.5,217.5C 85.1673,219.222 88.334,218.556 91,215.5C 91.6655,210.844 92.1655,206.177 92.5,201.5C 92.5489,191.124 92.5489,180.957 92.5,171C 95.6272,170.608 98.6272,169.775 101.5,168.5C 103.644,169.953 105.477,169.62 107,167.5C 107.804,158.422 107.637,149.422 106.5,140.5 Z"/></g>
<g><path style="opacity:0.353" fill="#513609" d="M 483.5,202.5 C 484.498,238.996 484.832,275.663 484.5,312.5C 479.167,312.5 473.833,312.5 468.5,312.5C 473.305,311.513 478.305,311.179 483.5,311.5C 483.5,306.5 483.5,301.5 483.5,296.5C 483.5,291.167 483.5,285.833 483.5,280.5C 483.5,254.5 483.5,228.5 483.5,202.5 Z"/></g>
<g><path style="opacity:1" fill="#d2840c" d="M 61.5,202.5 C 61.1733,223.409 61.5066,244.242 62.5,265C 93.6694,265.831 124.669,265.664 155.5,264.5C 156.497,244.34 156.83,224.007 156.5,203.5C 161.5,203.5 166.5,203.5 171.5,203.5C 167.3,204.22 162.967,204.886 158.5,205.5C 157.57,214.99 157.237,224.324 157.5,233.5C 166.701,233.837 176.034,233.837 185.5,233.5C 185.172,222.986 185.506,212.653 186.5,202.5C 186.5,223.5 186.5,244.5 186.5,265.5C 196.5,265.5 206.5,265.5 216.5,265.5C 217.024,270.296 217.358,275.296 217.5,280.5C 217.167,280.5 216.833,280.5 216.5,280.5C 155.336,279.501 94.0023,279.168 32.5,279.5C 32.5,264.167 32.5,248.833 32.5,233.5C 41.9839,233.782 51.3173,233.782 60.5,233.5C 60.1724,222.986 60.5058,212.653 61.5,202.5 Z"/></g>
<g><path style="opacity:1" fill="#7a1811" d="M 211.5,156.5 C 213.607,157.468 215.941,157.802 218.5,157.5C 218.5,172.5 218.5,187.5 218.5,202.5C 218.936,207.048 218.436,211.715 217,216.5C 213.499,218.583 209.832,218.916 206,217.5C 204.739,217.759 203.739,218.426 203,219.5C 202.333,223.833 202.333,228.167 203,232.5C 203.667,234.5 205,235.833 207,236.5C 240.1,235.171 273.267,235.171 306.5,236.5C 306.808,237.308 307.308,237.975 308,238.5C 312.337,233.685 313.67,228.018 312,221.5C 311.682,219.939 310.849,218.772 309.5,218C 306.854,217.503 304.187,217.336 301.5,217.5C 303.349,216.163 305.516,215.497 308,215.5C 311.21,215.568 312.877,217.234 313,220.5C 311.911,233.855 311.411,247.188 311.5,260.5C 311.855,261.522 312.522,262.189 313.5,262.5C 277.337,263.498 241.004,263.832 204.5,263.5C 205.935,262.015 205.768,260.682 204,259.5C 203.667,251.833 203.333,244.167 203,236.5C 201.473,234.779 200.473,232.779 200,230.5C 198.399,219.099 203.399,213.765 215,214.5C 215.499,210.514 215.666,206.514 215.5,202.5C 211.4,202.763 207.4,202.43 203.5,201.5C 203.5,186.5 203.5,171.5 203.5,156.5C 206.167,156.5 208.833,156.5 211.5,156.5 Z"/></g>
<g><path style="opacity:1" fill="#d2830e" d="M 437.5,156.5 C 438.496,170.99 438.829,185.657 438.5,200.5C 443.762,200.195 448.928,200.529 454,201.5C 454.5,212.161 454.667,222.828 454.5,233.5C 463.685,233.831 473.018,233.831 482.5,233.5C 482.5,249.167 482.5,264.833 482.5,280.5C 420.833,280.5 359.167,280.5 297.5,280.5C 297.263,276.278 297.596,272.111 298.5,268C 297.944,266.989 297.278,266.156 296.5,265.5C 307.014,265.828 317.347,265.494 327.5,264.5C 327.5,243.833 327.5,223.167 327.5,202.5C 328.494,212.653 328.828,222.986 328.5,233.5C 338.287,233.616 347.954,233.616 357.5,233.5C 357.172,244.346 357.506,255.013 358.5,265.5C 390.004,265.832 421.338,265.498 452.5,264.5C 452.5,243.833 452.5,223.167 452.5,202.5C 447.5,202.5 442.5,202.5 437.5,202.5C 437.5,187.167 437.5,171.833 437.5,156.5 Z"/></g>
<g><path style="opacity:1" fill="#7a1610" d="M 420.5,170.5 C 421.5,170.5 422.5,170.5 423.5,170.5C 423.421,171.93 423.754,173.264 424.5,174.5C 423.807,183.832 423.14,193.165 422.5,202.5C 422.133,206.967 422.633,211.3 424,215.5C 427.267,217.101 430.767,217.934 434.5,218C 435.667,218.5 436.5,219.333 437,220.5C 437.667,225.167 437.667,229.833 437,234.5C 435.764,235.399 434.93,236.566 434.5,238C 435.403,246.584 435.736,255.084 435.5,263.5C 410.831,263.667 386.164,263.5 361.5,263C 360.514,253.25 360.181,243.416 360.5,233.5C 385.012,233.524 409.345,233.524 433.5,233.5C 435.447,229.374 435.947,225.04 435,220.5C 430.92,219.7 426.753,219.2 422.5,219C 419.236,214.572 418.736,209.739 421,204.5C 421.5,194.506 421.666,184.506 421.5,174.5C 421.567,173.041 421.234,171.708 420.5,170.5 Z"/></g>
<g><path style="opacity:1" fill="#c36a1a" d="M 171.5,202.5 C 171.5,202.833 171.5,203.167 171.5,203.5C 166.5,203.5 161.5,203.5 156.5,203.5C 156.83,224.007 156.497,244.34 155.5,264.5C 155.5,254.167 155.5,243.833 155.5,233.5C 155.5,223.167 155.5,212.833 155.5,202.5C 160.833,202.5 166.167,202.5 171.5,202.5 Z"/></g>
<g><path style="opacity:1" fill="#a0480e" d="M 186.5,202.5 C 186.833,202.5 187.167,202.5 187.5,202.5C 187.5,223.167 187.5,243.833 187.5,264.5C 234.167,264.5 280.833,264.5 327.5,264.5C 317.347,265.494 307.014,265.828 296.5,265.5C 269.833,265.5 243.167,265.5 216.5,265.5C 206.5,265.5 196.5,265.5 186.5,265.5C 186.5,244.5 186.5,223.5 186.5,202.5 Z"/></g>
<g><path style="opacity:0.717" fill="#7c5325" d="M 46.5,155.5 C 46.5,170.833 46.5,186.167 46.5,201.5C 46.6716,202.492 46.3382,203.158 45.5,203.5C 40.8333,203.5 36.1667,203.5 31.5,203.5C 31.5,229.167 31.5,254.833 31.5,280.5C 31.1667,280.5 30.8333,280.5 30.5,280.5C 30.5,254.5 30.5,228.5 30.5,202.5C 35.5,202.5 40.5,202.5 45.5,202.5C 45.1704,186.658 45.5037,170.991 46.5,155.5 Z"/></g>
<g><path style="opacity:1" fill="#842b08" d="M 61.5,202.5 C 61.8333,202.5 62.1667,202.5 62.5,202.5C 67.5,202.5 72.5,202.5 77.5,202.5C 77.5,203.167 77.5,203.833 77.5,204.5C 72.8333,204.5 68.1667,204.5 63.5,204.5C 63.5,216.5 63.5,228.5 63.5,240.5C 63.175,248.019 63.5084,255.352 64.5,262.5C 69.3054,263.487 74.3054,263.821 79.5,263.5C 103.836,263.667 128.169,263.5 152.5,263C 154.449,255.106 155.116,246.939 154.5,238.5C 154.5,236.833 154.5,235.167 154.5,233.5C 154.833,233.5 155.167,233.5 155.5,233.5C 155.5,243.833 155.5,254.167 155.5,264.5C 124.669,265.664 93.6694,265.831 62.5,265C 61.5066,244.242 61.1733,223.409 61.5,202.5 Z"/></g>
<g><path style="opacity:1" fill="#7a1710" d="M 77.5,233.5 C 102.1,235.405 126.767,236.238 151.5,236C 152.078,237.417 153.078,238.25 154.5,238.5C 155.116,246.939 154.449,255.106 152.5,263C 128.169,263.5 103.836,263.667 79.5,263.5C 79.9957,253.36 79.3291,243.36 77.5,233.5 Z"/></g>
<g><path style="opacity:1" fill="#671a15" d="M 64.5,262.5 C 63.5084,255.352 63.175,248.019 63.5,240.5C 64.2829,238.657 64.9495,236.657 65.5,234.5C 66.1667,234.167 66.8333,233.833 67.5,233.5C 69.8627,236.151 72.196,236.151 74.5,233.5C 74.8333,233.833 75.1667,234.167 75.5,234.5C 76.2517,243.843 76.585,253.177 76.5,262.5C 72.5,262.5 68.5,262.5 64.5,262.5 Z"/></g>
<g><path style="opacity:1" fill="#761b02" d="M 187.5,202.5 C 192.5,202.5 197.5,202.5 202.5,202.5C 202.389,203.117 202.056,203.617 201.5,204C 197.247,204.2 193.08,204.7 189,205.5C 188.5,215.828 188.334,226.161 188.5,236.5C 188.5,245.5 188.5,254.5 188.5,263.5C 192.167,263.5 195.833,263.5 199.5,263.5C 201.167,263.5 202.833,263.5 204.5,263.5C 241.004,263.832 277.337,263.498 313.5,262.5C 316.448,262.223 319.281,262.556 322,263.5C 323.512,262.743 324.846,261.743 326,260.5C 326.5,252.507 326.666,244.507 326.5,236.5C 326.667,225.828 326.5,215.161 326,204.5C 321.399,203.858 316.899,203.191 312.5,202.5C 317.5,202.5 322.5,202.5 327.5,202.5C 327.5,223.167 327.5,243.833 327.5,264.5C 280.833,264.5 234.167,264.5 187.5,264.5C 187.5,243.833 187.5,223.167 187.5,202.5 Z"/></g>
<g><path style="opacity:1" fill="#671a16" d="M 326.5,236.5 C 326.666,244.507 326.5,252.507 326,260.5C 324.846,261.743 323.512,262.743 322,263.5C 319.281,262.556 316.448,262.223 313.5,262.5C 313.815,254.58 313.482,246.747 312.5,239C 313.26,237.559 313.926,236.059 314.5,234.5C 316.542,234.065 318.542,234.731 320.5,236.5C 321.799,235.91 322.632,234.91 323,233.5C 323.72,235.056 324.887,236.056 326.5,236.5 Z"/></g>
<g><path style="opacity:1" fill="#671a16" d="M 199.5,263.5 C 195.833,263.5 192.167,263.5 188.5,263.5C 188.5,254.5 188.5,245.5 188.5,236.5C 189.458,236.047 190.292,235.381 191,234.5C 191.893,235.081 192.893,235.415 194,235.5C 196.43,233.112 198.763,233.445 201,236.5C 200.19,244.306 200.357,252.14 201.5,260C 201.138,261.434 200.472,262.601 199.5,263.5 Z"/></g>
<g><path style="opacity:1" fill="#80160e" d="M 218.5,202.5 C 219.611,207.416 219.778,212.416 219,217.5C 218.5,218 218,218.5 217.5,219C 213.129,219.172 208.796,219.672 204.5,220.5C 204.463,223.128 204.129,225.795 203.5,228.5C 204.074,230.059 204.74,231.559 205.5,233C 239.696,233.177 273.863,233.677 308,234.5C 308.95,233.978 309.784,233.311 310.5,232.5C 311.98,228.14 311.647,223.974 309.5,220C 305.113,219.774 300.779,219.274 296.5,218.5C 295.185,213.014 295.185,207.68 296.5,202.5C 296.257,206.718 296.59,211.051 297.5,215.5C 298.833,216.167 300.167,216.833 301.5,217.5C 304.187,217.336 306.854,217.503 309.5,218C 310.849,218.772 311.682,219.939 312,221.5C 313.67,228.018 312.337,233.685 308,238.5C 307.308,237.975 306.808,237.308 306.5,236.5C 273.267,235.171 240.1,235.171 207,236.5C 205,235.833 203.667,234.5 203,232.5C 202.333,228.167 202.333,223.833 203,219.5C 203.739,218.426 204.739,217.759 206,217.5C 209.832,218.916 213.499,218.583 217,216.5C 218.436,211.715 218.936,207.048 218.5,202.5 Z"/></g>
<g><path style="opacity:1" fill="#761a02" d="M 437.5,202.5 C 442.5,202.5 447.5,202.5 452.5,202.5C 452.5,223.167 452.5,243.833 452.5,264.5C 421.5,264.5 390.5,264.5 359.5,264.5C 359.5,254.167 359.5,243.833 359.5,233.5C 359.833,233.5 360.167,233.5 360.5,233.5C 360.181,243.416 360.514,253.25 361.5,263C 386.164,263.5 410.831,263.667 435.5,263.5C 436.833,263.5 438.167,263.5 439.5,263.5C 443.437,263.793 447.27,263.46 451,262.5C 450.724,253.193 450.558,243.859 450.5,234.5C 450.832,224.478 450.499,214.478 449.5,204.5C 445.365,203.891 441.365,203.224 437.5,202.5 Z"/></g>
<g><path style="opacity:1" fill="#671a16" d="M 450.5,234.5 C 450.558,243.859 450.724,253.193 451,262.5C 447.27,263.46 443.437,263.793 439.5,263.5C 438.34,262.735 437.34,261.735 436.5,260.5C 437.136,252.86 437.803,245.193 438.5,237.5C 442.055,234.458 446.055,233.458 450.5,234.5 Z"/></g>
<g><path style="opacity:1" fill="#9d430b" d="M 358.5,202.5 C 358.833,202.5 359.167,202.5 359.5,202.5C 359.5,212.833 359.5,223.167 359.5,233.5C 359.5,243.833 359.5,254.167 359.5,264.5C 390.5,264.5 421.5,264.5 452.5,264.5C 421.338,265.498 390.004,265.832 358.5,265.5C 358.5,244.5 358.5,223.5 358.5,202.5 Z"/></g>
<g><path style="opacity:1" fill="#e07721" d="M 216.5,265.5 C 243.167,265.5 269.833,265.5 296.5,265.5C 297.278,266.156 297.944,266.989 298.5,268C 297.596,272.111 297.263,276.278 297.5,280.5C 296.512,285.64 296.179,290.974 296.5,296.5C 295.186,294.085 294.519,291.252 294.5,288C 295.387,281.122 295.387,274.289 294.5,267.5C 269.507,266.334 244.507,266.167 219.5,267C 219.327,276.595 218.994,286.095 218.5,295.5C 218.821,290.305 218.487,285.305 217.5,280.5C 217.358,275.296 217.024,270.296 216.5,265.5 Z"/></g>
<g><path style="opacity:1" fill="#ca861e" d="M 45.5,203.5 C 45.762,204.978 45.4287,206.311 44.5,207.5C 43.6143,206.675 43.281,205.675 43.5,204.5C 39.8333,204.5 36.1667,204.5 32.5,204.5C 32.5,214.167 32.5,223.833 32.5,233.5C 32.5,248.833 32.5,264.167 32.5,279.5C 94.0023,279.168 155.336,279.501 216.5,280.5C 154.833,280.5 93.1667,280.5 31.5,280.5C 31.5,254.833 31.5,229.167 31.5,203.5C 36.1667,203.5 40.8333,203.5 45.5,203.5 Z"/></g>
<g><path style="opacity:1" fill="#985901" d="M 31.5,280.5 C 93.1667,280.5 154.833,280.5 216.5,280.5C 216.833,280.5 217.167,280.5 217.5,280.5C 218.487,285.305 218.821,290.305 218.5,295.5C 218.5,295.833 218.5,296.167 218.5,296.5C 176.833,296.5 135.167,296.5 93.5,296.5C 92.8333,296.5 92.1667,296.5 91.5,296.5C 133.33,295.501 175.33,295.168 217.5,295.5C 217.5,290.833 217.5,286.167 217.5,281.5C 155.833,281.5 94.1667,281.5 32.5,281.5C 31.8333,281.5 31.5,281.167 31.5,280.5 Z"/></g>
<g><path style="opacity:1" fill="#975901" d="M 297.5,280.5 C 359.167,280.5 420.833,280.5 482.5,280.5C 482.5,280.833 482.5,281.167 482.5,281.5C 420.833,281.5 359.167,281.5 297.5,281.5C 297.183,285.702 297.517,289.702 298.5,293.5C 298.5,293.833 298.5,294.167 298.5,294.5C 339.5,295.167 380.5,295.833 421.5,296.5C 380.167,296.5 338.833,296.5 297.5,296.5C 297.167,296.5 296.833,296.5 296.5,296.5C 296.179,290.974 296.512,285.64 297.5,280.5 Z"/></g>
<g><path style="opacity:1" fill="#7e4c05" d="M 482.5,281.5 C 482.875,284.907 481.875,285.407 479.5,283C 419.149,282.186 358.816,282.352 298.5,283.5C 298.5,286.833 298.5,290.167 298.5,293.5C 297.517,289.702 297.183,285.702 297.5,281.5C 359.167,281.5 420.833,281.5 482.5,281.5 Z"/></g>
<g><path style="opacity:1" fill="#754a11" d="M 30.5,280.5 C 30.8333,280.5 31.1667,280.5 31.5,280.5C 31.5,281.167 31.8333,281.5 32.5,281.5C 93.6644,282.499 154.998,282.832 216.5,282.5C 216.5,286.5 216.5,290.5 216.5,294.5C 175.476,294.822 134.476,294.489 93.5,293.5C 73.1909,294.31 52.8576,294.81 32.5,295C 31.944,295.383 31.6107,295.883 31.5,296.5C 31.5,301.5 31.5,306.5 31.5,311.5C 36.5,311.5 41.5,311.5 46.5,311.5C 46.5,363.5 46.5,415.5 46.5,467.5C 46.1667,467.5 45.8333,467.5 45.5,467.5C 45.5,415.833 45.5,364.167 45.5,312.5C 40.5,312.5 35.5,312.5 30.5,312.5C 30.5,301.833 30.5,291.167 30.5,280.5 Z"/></g>
<g><path style="opacity:1" fill="#794e11" d="M 482.5,280.5 C 482.833,280.5 483.167,280.5 483.5,280.5C 483.5,285.833 483.5,291.167 483.5,296.5C 483.167,296.5 482.833,296.5 482.5,296.5C 482.5,295.5 482.5,294.5 482.5,293.5C 421.288,294.117 359.954,294.45 298.5,294.5C 298.5,294.167 298.5,293.833 298.5,293.5C 298.5,290.167 298.5,286.833 298.5,283.5C 358.816,282.352 419.149,282.186 479.5,283C 481.875,285.407 482.875,284.907 482.5,281.5C 482.5,281.167 482.5,280.833 482.5,280.5 Z"/></g>
<g><path style="opacity:1" fill="#804d05" d="M 32.5,281.5 C 94.1667,281.5 155.833,281.5 217.5,281.5C 217.5,286.167 217.5,290.833 217.5,295.5C 175.33,295.168 133.33,295.501 91.5,296.5C 71.5,296.5 51.5,296.5 31.5,296.5C 31.6107,295.883 31.944,295.383 32.5,295C 52.8576,294.81 73.1909,294.31 93.5,293.5C 134.476,294.489 175.476,294.822 216.5,294.5C 216.5,290.5 216.5,286.5 216.5,282.5C 154.998,282.832 93.6644,282.499 32.5,281.5 Z"/></g>
<g><path style="opacity:1" fill="#814d06" d="M 482.5,296.5 C 462.167,296.5 441.833,296.5 421.5,296.5C 380.5,295.833 339.5,295.167 298.5,294.5C 359.954,294.45 421.288,294.117 482.5,293.5C 482.5,294.5 482.5,295.5 482.5,296.5 Z"/></g>
<g><path style="opacity:1" fill="#f0a431" d="M 297.5,296.5 C 338.833,296.5 380.167,296.5 421.5,296.5C 421.5,297.5 421.5,298.5 421.5,299.5C 380.216,297.845 338.883,296.845 297.5,296.5 Z"/></g>
<g><path style="opacity:1" fill="#bd7713" d="M 421.5,296.5 C 441.833,296.5 462.167,296.5 482.5,296.5C 482.833,296.5 483.167,296.5 483.5,296.5C 483.5,301.5 483.5,306.5 483.5,311.5C 478.305,311.179 473.305,311.513 468.5,312.5C 467.506,322.653 467.172,332.986 467.5,343.5C 457.833,343.5 448.167,343.5 438.5,343.5C 438.167,343.5 437.833,343.5 437.5,343.5C 437.167,343.5 436.833,343.5 436.5,343.5C 431.5,343.5 426.5,343.5 421.5,343.5C 421.5,333.167 421.5,322.833 421.5,312.5C 379.833,312.5 338.167,312.5 296.5,312.5C 296.5,312.167 296.5,311.833 296.5,311.5C 338.167,311.5 379.833,311.5 421.5,311.5C 421.5,307.5 421.5,303.5 421.5,299.5C 421.5,298.5 421.5,297.5 421.5,296.5 Z"/></g>
<g><path style="opacity:1" fill="#bf7b16" d="M 31.5,296.5 C 51.5,296.5 71.5,296.5 91.5,296.5C 92.1667,296.5 92.8333,296.5 93.5,296.5C 93.5,296.833 93.5,297.167 93.5,297.5C 93.5,301.833 93.5,306.167 93.5,310.5C 93.5,310.833 93.5,311.167 93.5,311.5C 91.5735,313.674 89.9069,316.174 88.5,319C 89.448,319.483 90.448,319.649 91.5,319.5C 91.5,326.833 91.5,334.167 91.5,341.5C 86.3814,340.897 81.7147,341.564 77.5,343.5C 77.1667,343.5 76.8333,343.5 76.5,343.5C 66.8333,343.5 57.1667,343.5 47.5,343.5C 47.5,374.5 47.5,405.5 47.5,436.5C 47.5,436.833 47.5,437.167 47.5,437.5C 47.8274,447.681 47.494,457.681 46.5,467.5C 46.5,415.5 46.5,363.5 46.5,311.5C 41.5,311.5 36.5,311.5 31.5,311.5C 31.5,306.5 31.5,301.5 31.5,296.5 Z"/></g>
<g><path style="opacity:1" fill="#fea214" d="M 93.5,297.5 C 134.833,297.5 176.167,297.5 217.5,297.5C 217.5,301.833 217.5,306.167 217.5,310.5C 176.167,310.5 134.833,310.5 93.5,310.5C 93.5,306.167 93.5,301.833 93.5,297.5 Z"/></g>
<g><path style="opacity:1" fill="#fda216" d="M 296.5,296.5 C 296.833,296.5 297.167,296.5 297.5,296.5C 338.883,296.845 380.216,297.845 421.5,299.5C 421.5,303.5 421.5,307.5 421.5,311.5C 379.833,311.5 338.167,311.5 296.5,311.5C 296.5,306.5 296.5,301.5 296.5,296.5 Z"/></g>
<g><path style="opacity:1" fill="#eb7515" d="M 296.5,296.5 C 296.5,301.5 296.5,306.5 296.5,311.5C 296.5,311.833 296.5,312.167 296.5,312.5C 296.5,317.5 296.5,322.5 296.5,327.5C 296.167,327.5 295.833,327.5 295.5,327.5C 290.305,327.179 285.305,327.513 280.5,328.5C 279.78,332.7 279.114,337.033 278.5,341.5C 263.848,342.499 249.182,342.833 234.5,342.5C 234.821,337.305 234.487,332.305 233.5,327.5C 228.5,327.5 223.5,327.5 218.5,327.5C 218.5,322.5 218.5,317.5 218.5,312.5C 218.5,312.167 218.5,311.833 218.5,311.5C 218.5,306.5 218.5,301.5 218.5,296.5C 218.5,296.167 218.5,295.833 218.5,295.5C 218.994,286.095 219.327,276.595 219.5,267C 244.507,266.167 269.507,266.334 294.5,267.5C 295.387,274.289 295.387,281.122 294.5,288C 294.519,291.252 295.186,294.085 296.5,296.5 Z M 280.5,281.5 C 280.819,286.363 280.486,291.03 279.5,295.5C 274.5,295.5 269.5,295.5 264.5,295.5C 264.5,300.833 264.5,306.167 264.5,311.5C 259.5,311.5 254.5,311.5 249.5,311.5C 249.5,306.167 249.5,300.833 249.5,295.5C 244.5,295.5 239.5,295.5 234.5,295.5C 234.5,290.833 234.5,286.167 234.5,281.5C 249.833,281.5 265.167,281.5 280.5,281.5 Z"/></g>
<g><path style="opacity:1" fill="#ba7238" d="M 280.5,280.5 C 281.651,285.65 281.817,290.984 281,296.5C 275.928,297.471 270.762,297.805 265.5,297.5C 270.167,296.833 274.833,296.167 279.5,295.5C 280.486,291.03 280.819,286.363 280.5,281.5C 280.5,281.167 280.5,280.833 280.5,280.5 Z"/></g>
<g><path style="opacity:0.989" fill="#a96230" d="M 233.5,295.5 C 233.833,295.5 234.167,295.5 234.5,295.5C 239.5,295.5 244.5,295.5 249.5,295.5C 249.5,300.833 249.5,306.167 249.5,311.5C 248.514,307.03 248.181,302.363 248.5,297.5C 243.056,298.108 238.056,297.442 233.5,295.5 Z"/></g>
<g><path style="opacity:0.22" fill="#5b1f02" d="M 280.5,280.5 C 280.5,280.833 280.5,281.167 280.5,281.5C 265.167,281.5 249.833,281.5 234.5,281.5C 234.5,286.167 234.5,290.833 234.5,295.5C 234.167,295.5 233.833,295.5 233.5,295.5C 233.5,290.5 233.5,285.5 233.5,280.5C 249.167,280.5 264.833,280.5 280.5,280.5 Z"/></g>
<g><path style="opacity:0.373" fill="#522309" d="M 279.5,295.5 C 274.833,296.167 270.167,296.833 265.5,297.5C 265.819,302.363 265.486,307.03 264.5,311.5C 264.5,306.167 264.5,300.833 264.5,295.5C 269.5,295.5 274.5,295.5 279.5,295.5 Z"/></g>
<g><path style="opacity:1" fill="#f6a12d" d="M 93.5,297.5 C 93.5,297.167 93.5,296.833 93.5,296.5C 135.167,296.5 176.833,296.5 218.5,296.5C 218.5,301.5 218.5,306.5 218.5,311.5C 176.833,311.5 135.167,311.5 93.5,311.5C 93.5,311.167 93.5,310.833 93.5,310.5C 134.833,310.5 176.167,310.5 217.5,310.5C 217.5,306.167 217.5,301.833 217.5,297.5C 176.167,297.5 134.833,297.5 93.5,297.5 Z"/></g>
<g><path style="opacity:1" fill="#701e01" d="M 218.5,312.5 C 218.5,317.5 218.5,322.5 218.5,327.5C 223.5,327.5 228.5,327.5 233.5,327.5C 233.5,332.833 233.5,338.167 233.5,343.5C 232.513,338.695 232.179,333.695 232.5,328.5C 227.489,328.666 222.489,328.499 217.5,328C 216.531,323.263 216.197,318.43 216.5,313.5C 175.833,313.5 135.167,313.5 94.5,313.5C 94.8274,323.681 94.494,333.681 93.5,343.5C 93.5,333.167 93.5,322.833 93.5,312.5C 135.167,312.5 176.833,312.5 218.5,312.5 Z"/></g>
<g><path style="opacity:1" fill="#6e1e02" d="M 296.5,312.5 C 338.167,312.5 379.833,312.5 421.5,312.5C 421.5,322.833 421.5,333.167 421.5,343.5C 420.833,334.991 420.167,326.324 419.5,317.5C 417.889,316.68 417.222,315.346 417.5,313.5C 378.165,313.333 338.832,313.5 299.5,314C 299.176,318.864 298.176,323.364 296.5,327.5C 296.5,322.5 296.5,317.5 296.5,312.5 Z"/></g>
<g><path style="opacity:1" fill="#651914" d="M 233.5,343.5 C 249.328,344.661 265.328,344.828 281.5,344C 282.471,338.928 282.805,333.762 282.5,328.5C 287.032,328.818 291.366,328.485 295.5,327.5C 295.833,327.5 296.167,327.5 296.5,327.5C 298.176,323.364 299.176,318.864 299.5,314C 338.832,313.5 378.165,313.333 417.5,313.5C 417.222,315.346 417.889,316.68 419.5,317.5C 420.167,326.324 420.833,334.991 421.5,343.5C 425.634,344.485 429.968,344.818 434.5,344.5C 434.5,354.5 434.5,364.5 434.5,374.5C 430.5,374.5 426.5,374.5 422.5,374.5C 422.217,373.784 421.884,372.951 421.5,372C 422.516,371.481 423.182,370.647 423.5,369.5C 422.861,366.525 422.361,363.525 422,360.5C 420.611,358.773 418.944,357.439 417,356.5C 414.152,357.783 411.318,357.783 408.5,356.5C 407.223,347.824 407.223,339.157 408.5,330.5C 407.9,328.532 406.567,327.532 404.5,327.5C 374.98,326.818 345.313,326.151 315.5,325.5C 313.272,326.219 311.439,327.552 310,329.5C 310.696,333.51 310.529,337.51 309.5,341.5C 305.441,341.434 301.441,341.267 297.5,341C 296.874,341.75 296.374,342.584 296,343.5C 295.667,347.833 295.333,352.167 295,356.5C 294.107,357.081 293.107,357.415 292,357.5C 268.594,357.618 245.094,357.451 221.5,357C 220.02,355.701 219.354,354.034 219.5,352C 221.67,347.503 220.67,344.003 216.5,341.5C 212.833,342.833 209.167,342.833 205.5,341.5C 204.104,340.148 203.437,338.481 203.5,336.5C 204.268,333.846 204.434,331.179 204,328.5C 203.329,327.748 202.496,327.414 201.5,327.5C 200.003,326.694 198.336,326.028 196.5,325.5C 168.542,326.658 140.542,326.825 112.5,326C 110.536,324.206 109.036,324.706 108,327.5C 107.685,330.372 107.185,333.205 106.5,336C 107.017,342.403 107.184,348.903 107,355.5C 105.135,357.673 102.969,358.007 100.5,356.5C 97.9607,357.115 95.4607,357.782 93,358.5C 90.2815,364.134 90.4481,369.467 93.5,374.5C 92.8333,374.5 92.1667,374.5 91.5,374.5C 89.7673,373.992 89.434,373.159 90.5,372C 89.8333,371.833 89.1667,371.667 88.5,371.5C 86.8333,372.167 85.1667,372.833 83.5,373.5C 82.2141,373.148 81.3808,372.482 81,371.5C 80.228,371.645 79.5613,371.978 79,372.5C 78.5001,384.162 78.3335,395.829 78.5,407.5C 78.5,417.167 78.5,426.833 78.5,436.5C 78.1667,436.5 77.8333,436.5 77.5,436.5C 77.5,405.5 77.5,374.5 77.5,343.5C 82.8333,343.5 88.1667,343.5 93.5,343.5C 94.494,333.681 94.8274,323.681 94.5,313.5C 135.167,313.5 175.833,313.5 216.5,313.5C 216.197,318.43 216.531,323.263 217.5,328C 222.489,328.499 227.489,328.666 232.5,328.5C 232.179,333.695 232.513,338.695 233.5,343.5 Z"/></g>
<g><path style="opacity:1" fill="#eaa237" d="M 62.5,311.5 C 67.5,311.5 72.5,311.5 77.5,311.5C 77.5,316.833 77.5,322.167 77.5,327.5C 72.5,327.5 67.5,327.5 62.5,327.5C 62.5,322.167 62.5,316.833 62.5,311.5 Z"/></g>
<g><path style="opacity:1" fill="#eaa036" d="M 436.5,311.5 C 441.833,311.5 447.167,311.5 452.5,311.5C 452.5,316.833 452.5,322.167 452.5,327.5C 447.167,327.5 441.833,327.5 436.5,327.5C 436.5,322.167 436.5,316.833 436.5,311.5 Z"/></g>
<g><path style="opacity:1" fill="#b36a1c" d="M 93.5,311.5 C 135.167,311.5 176.833,311.5 218.5,311.5C 218.5,311.833 218.5,312.167 218.5,312.5C 176.833,312.5 135.167,312.5 93.5,312.5C 93.5,322.833 93.5,333.167 93.5,343.5C 88.1667,343.5 82.8333,343.5 77.5,343.5C 81.7147,341.564 86.3814,340.897 91.5,341.5C 91.5,334.167 91.5,326.833 91.5,319.5C 90.448,319.649 89.448,319.483 88.5,319C 89.9069,316.174 91.5735,313.674 93.5,311.5 Z"/></g>
<g><path style="opacity:1" fill="#fea215" d="M 438.5,343.5 C 448.167,343.5 457.833,343.5 467.5,343.5C 467.831,374.671 467.498,405.671 466.5,436.5C 457.139,436.687 447.805,436.354 438.5,435.5C 438.5,404.833 438.5,374.167 438.5,343.5 Z"/></g>
<g><path style="opacity:1" fill="#681510" d="M 404.5,327.5 C 374.165,327.333 343.832,327.5 313.5,328C 313,328.5 312.5,329 312,329.5C 311.501,334.155 311.334,338.821 311.5,343.5C 307.632,343.57 304.132,343.237 301,342.5C 297.999,343.828 296.499,346.161 296.5,349.5C 298.881,354.67 297.548,358.337 292.5,360.5C 269.012,359.171 245.512,359.171 222,360.5C 220.395,359.899 219.062,358.899 218,357.5C 217.828,353.129 217.328,348.796 216.5,344.5C 212.96,343.582 209.46,343.915 206,345.5C 204.739,345.241 203.739,344.574 203,343.5C 202.825,338.981 202.325,334.647 201.5,330.5C 201.5,329.5 201.5,328.5 201.5,327.5C 202.496,327.414 203.329,327.748 204,328.5C 204.434,331.179 204.268,333.846 203.5,336.5C 203.437,338.481 204.104,340.148 205.5,341.5C 209.167,342.833 212.833,342.833 216.5,341.5C 220.67,344.003 221.67,347.503 219.5,352C 219.354,354.034 220.02,355.701 221.5,357C 245.094,357.451 268.594,357.618 292,357.5C 293.107,357.415 294.107,357.081 295,356.5C 295.333,352.167 295.667,347.833 296,343.5C 296.374,342.584 296.874,341.75 297.5,341C 301.441,341.267 305.441,341.434 309.5,341.5C 310.529,337.51 310.696,333.51 310,329.5C 311.439,327.552 313.272,326.219 315.5,325.5C 345.313,326.151 374.98,326.818 404.5,327.5 Z"/></g>
<g><path style="opacity:1" fill="#fea214" d="M 76.5,343.5 C 76.5,374.5 76.5,405.5 76.5,436.5C 66.8333,436.5 57.1667,436.5 47.5,436.5C 47.5,405.5 47.5,374.5 47.5,343.5C 57.1667,343.5 66.8333,343.5 76.5,343.5 Z"/></g>
<g><path style="opacity:1" fill="#a55819" d="M 436.5,343.5 C 436.833,343.5 437.167,343.5 437.5,343.5C 437.5,374.833 437.5,406.167 437.5,437.5C 432.167,437.5 426.833,437.5 421.5,437.5C 421.5,437.167 421.5,436.833 421.5,436.5C 426.5,436.5 431.5,436.5 436.5,436.5C 436.5,424.5 436.5,412.5 436.5,400.5C 436.5,381.5 436.5,362.5 436.5,343.5 Z"/></g>
<g><path style="opacity:1" fill="#f39d29" d="M 437.5,343.5 C 437.833,343.5 438.167,343.5 438.5,343.5C 438.5,374.167 438.5,404.833 438.5,435.5C 447.805,436.354 457.139,436.687 466.5,436.5C 466.5,436.833 466.5,437.167 466.5,437.5C 456.833,437.5 447.167,437.5 437.5,437.5C 437.5,406.167 437.5,374.833 437.5,343.5 Z"/></g>
<g><path style="opacity:1" fill="#620e07" d="M 201.5,327.5 C 170.832,327.333 140.165,327.5 109.5,328C 108.833,333 108.167,338 107.5,343C 109.35,347.661 109.85,352.494 109,357.5C 105.148,359.23 100.982,360.063 96.5,360C 92.8956,361.334 91.729,363.834 93,367.5C 94.2886,369.645 95.1219,371.978 95.5,374.5C 95.8039,375.15 96.1373,375.817 96.5,376.5C 202.831,377.5 309.165,377.833 415.5,377.5C 415.5,384.833 415.5,392.167 415.5,399.5C 309.165,399.167 202.831,399.5 96.5,400.5C 203.498,401.5 310.498,401.833 417.5,401.5C 416.199,392.507 416.199,383.507 417.5,374.5C 422.21,370.521 422.71,365.854 419,360.5C 418,359.833 417,359.167 416,358.5C 412.927,359.617 409.76,359.784 406.5,359C 405.874,358.25 405.374,357.416 405,356.5C 405.548,347.897 406.048,339.397 406.5,331C 405.695,329.887 405.028,328.721 404.5,327.5C 406.567,327.532 407.9,328.532 408.5,330.5C 407.223,339.157 407.223,347.824 408.5,356.5C 411.318,357.783 414.152,357.783 417,356.5C 418.944,357.439 420.611,358.773 422,360.5C 422.361,363.525 422.861,366.525 423.5,369.5C 423.182,370.647 422.516,371.481 421.5,372C 421.884,372.951 422.217,373.784 422.5,374.5C 422.5,374.833 422.5,375.167 422.5,375.5C 420.689,384.446 419.855,393.78 420,403.5C 419.5,404 419,404.5 418.5,405C 310.833,405.667 203.167,405.667 95.5,405C 95,404.5 94.5,404 94,403.5C 93.5002,393.839 93.3335,384.172 93.5,374.5C 90.4481,369.467 90.2815,364.134 93,358.5C 95.4607,357.782 97.9607,357.115 100.5,356.5C 102.969,358.007 105.135,357.673 107,355.5C 107.184,348.903 107.017,342.403 106.5,336C 107.185,333.205 107.685,330.372 108,327.5C 109.036,324.706 110.536,324.206 112.5,326C 140.542,326.825 168.542,326.658 196.5,325.5C 198.336,326.028 200.003,326.694 201.5,327.5 Z"/></g>
<g><path style="opacity:1" fill="#6f110b" d="M 201.5,327.5 C 201.5,328.5 201.5,329.5 201.5,330.5C 202.325,334.647 202.825,338.981 203,343.5C 203.739,344.574 204.739,345.241 206,345.5C 209.46,343.915 212.96,343.582 216.5,344.5C 217.328,348.796 217.828,353.129 218,357.5C 219.062,358.899 220.395,359.899 222,360.5C 245.512,359.171 269.012,359.171 292.5,360.5C 297.548,358.337 298.881,354.67 296.5,349.5C 296.499,346.161 297.999,343.828 301,342.5C 304.132,343.237 307.632,343.57 311.5,343.5C 311.334,338.821 311.501,334.155 312,329.5C 312.5,329 313,328.5 313.5,328C 343.832,327.5 374.165,327.333 404.5,327.5C 405.028,328.721 405.695,329.887 406.5,331C 406.048,339.397 405.548,347.897 405,356.5C 405.374,357.416 405.874,358.25 406.5,359C 409.76,359.784 412.927,359.617 416,358.5C 417,359.167 418,359.833 419,360.5C 422.71,365.854 422.21,370.521 417.5,374.5C 310.167,374.5 202.833,374.5 95.5,374.5C 95.1219,371.978 94.2886,369.645 93,367.5C 91.729,363.834 92.8956,361.334 96.5,360C 100.982,360.063 105.148,359.23 109,357.5C 109.85,352.494 109.35,347.661 107.5,343C 108.167,338 108.833,333 109.5,328C 140.165,327.5 170.832,327.333 201.5,327.5 Z"/></g>
<g><path style="opacity:1" fill="#701901" d="M 295.5,327.5 C 291.366,328.485 287.032,328.818 282.5,328.5C 282.805,333.762 282.471,338.928 281.5,344C 265.328,344.828 249.328,344.661 233.5,343.5C 249.167,343.5 264.833,343.5 280.5,343.5C 280.5,338.5 280.5,333.5 280.5,328.5C 285.305,327.513 290.305,327.179 295.5,327.5 Z"/></g>
<g><path style="opacity:1" fill="#c6611e" d="M 233.5,327.5 C 234.487,332.305 234.821,337.305 234.5,342.5C 249.182,342.833 263.848,342.499 278.5,341.5C 279.114,337.033 279.78,332.7 280.5,328.5C 280.5,333.5 280.5,338.5 280.5,343.5C 264.833,343.5 249.167,343.5 233.5,343.5C 233.5,338.167 233.5,332.833 233.5,327.5 Z"/></g>
<g><path style="opacity:1" fill="#791710" d="M 319.5,328.5 C 346.835,328.333 374.169,328.5 401.5,329C 404.474,330.506 404.807,332.172 402.5,334C 403.167,334.667 403.833,335.333 404.5,336C 404.072,338.629 403.072,340.962 401.5,343C 372.5,343.667 343.5,343.667 314.5,343C 313.378,339.591 313.211,336.091 314,332.5C 315.456,330.535 317.29,329.201 319.5,328.5 Z"/></g>
<g><path style="opacity:1" fill="#791710" d="M 201.5,330.5 C 201.073,334.824 200.739,339.158 200.5,343.5C 171.165,343.667 141.831,343.5 112.5,343C 109.631,338.473 109.298,333.807 111.5,329C 140.057,328.557 168.557,328.39 197,328.5C 198.833,328.519 200.333,329.185 201.5,330.5 Z"/></g>
<g><path style="opacity:1" fill="#611502" d="M 421.5,343.5 C 426.5,343.5 431.5,343.5 436.5,343.5C 436.5,362.5 436.5,381.5 436.5,400.5C 435.833,391.833 435.167,383.167 434.5,374.5C 434.5,364.5 434.5,354.5 434.5,344.5C 429.968,344.818 425.634,344.485 421.5,343.5 Z"/></g>
<g><path style="opacity:1" fill="#f19d2e" d="M 76.5,343.5 C 76.8333,343.5 77.1667,343.5 77.5,343.5C 77.5,374.5 77.5,405.5 77.5,436.5C 77.5,436.833 77.5,437.167 77.5,437.5C 67.5,437.5 57.5,437.5 47.5,437.5C 47.5,437.167 47.5,436.833 47.5,436.5C 57.1667,436.5 66.8333,436.5 76.5,436.5C 76.5,405.5 76.5,374.5 76.5,343.5 Z"/></g>
<g><path style="opacity:1" fill="#550d07" d="M 91.5,374.5 C 92.5638,384.145 92.5638,393.645 91.5,403C 92.5832,405.056 94.2499,406.389 96.5,407C 203.211,406.836 309.711,407.67 416,409.5C 417.2,407.588 418.867,406.255 421,405.5C 421.585,403.871 422.419,402.371 423.5,401C 422.543,392.542 422.21,384.042 422.5,375.5C 422.5,375.167 422.5,374.833 422.5,374.5C 426.5,374.5 430.5,374.5 434.5,374.5C 435.167,383.167 435.833,391.833 436.5,400.5C 436.5,412.5 436.5,424.5 436.5,436.5C 431.5,436.5 426.5,436.5 421.5,436.5C 422.172,435.733 423.005,435.066 424,434.5C 427.667,435.833 431.333,435.833 435,434.5C 435.5,424.839 435.666,415.172 435.5,405.5C 431.629,405.185 427.962,405.518 424.5,406.5C 423.448,406.351 422.448,406.517 421.5,407C 421.833,407.333 422.167,407.667 422.5,408C 421.108,411.75 419.775,415.583 418.5,419.5C 415.215,420.324 411.882,420.824 408.5,421C 404.567,423.867 403.567,427.533 405.5,432C 404.833,433.333 404.167,434.667 403.5,436C 306.167,436.5 208.834,436.667 111.5,436.5C 110.522,434.358 109.522,432.191 108.5,430C 110.571,425.478 109.571,421.978 105.5,419.5C 102.628,421.8 99.6278,421.967 96.5,420C 94.3807,415.485 92.714,410.818 91.5,406C 86.8564,405.002 82.5231,405.502 78.5,407.5C 78.3335,395.829 78.5001,384.162 79,372.5C 79.5613,371.978 80.228,371.645 81,371.5C 81.3808,372.482 82.2141,373.148 83.5,373.5C 85.1667,372.833 86.8333,372.167 88.5,371.5C 89.1667,371.667 89.8333,371.833 90.5,372C 89.434,373.159 89.7673,373.992 91.5,374.5 Z"/></g>
<g><path style="opacity:1" fill="#650e06" d="M 95.5,374.5 C 202.833,374.5 310.167,374.5 417.5,374.5C 416.199,383.507 416.199,392.507 417.5,401.5C 310.498,401.833 203.498,401.5 96.5,400.5C 202.831,399.5 309.165,399.167 415.5,399.5C 415.5,392.167 415.5,384.833 415.5,377.5C 309.165,377.833 202.831,377.5 96.5,376.5C 96.1373,375.817 95.8039,375.15 95.5,374.5 Z"/></g>
<g><path style="opacity:1" fill="#5a0d07" d="M 91.5,374.5 C 92.1667,374.5 92.8333,374.5 93.5,374.5C 93.3335,384.172 93.5002,393.839 94,403.5C 94.5,404 95,404.5 95.5,405C 203.167,405.667 310.833,405.667 418.5,405C 419,404.5 419.5,404 420,403.5C 419.855,393.78 420.689,384.446 422.5,375.5C 422.21,384.042 422.543,392.542 423.5,401C 422.419,402.371 421.585,403.871 421,405.5C 418.867,406.255 417.2,407.588 416,409.5C 309.711,407.67 203.211,406.836 96.5,407C 94.2499,406.389 92.5832,405.056 91.5,403C 92.5638,393.645 92.5638,384.145 91.5,374.5 Z"/></g>
<g><path style="opacity:1" fill="#490f0a" d="M 111.5,436.5 C 159.662,437.833 208.162,438.5 257,438.5C 305.5,438.333 354,438.167 402.5,438C 404.286,436.707 405.953,436.207 407.5,436.5C 406.351,432.392 406.351,428.059 407.5,423.5C 411.803,422.605 415.803,422.438 419.5,423C 420.833,421.667 422.167,420.333 423.5,419C 422.039,414.657 422.372,410.491 424.5,406.5C 427.962,405.518 431.629,405.185 435.5,405.5C 435.666,415.172 435.5,424.839 435,434.5C 431.333,435.833 427.667,435.833 424,434.5C 423.005,435.066 422.172,435.733 421.5,436.5C 420.674,440.982 420.174,445.649 420,450.5C 419.23,451.598 418.397,451.598 417.5,450.5C 310.166,450.667 202.833,450.5 95.5,450C 93.9332,446.108 94.2666,442.442 96.5,439C 95.6266,437.955 94.6266,437.122 93.5,436.5C 88.5,436.5 83.5,436.5 78.5,436.5C 78.5,426.833 78.5,417.167 78.5,407.5C 82.5231,405.502 86.8564,405.002 91.5,406C 92.714,410.818 94.3807,415.485 96.5,420C 99.6278,421.967 102.628,421.8 105.5,419.5C 109.571,421.978 110.571,425.478 108.5,430C 109.522,432.191 110.522,434.358 111.5,436.5 Z"/></g>
<g><path style="opacity:1" fill="#4d0d07" d="M 424.5,406.5 C 422.372,410.491 422.039,414.657 423.5,419C 422.167,420.333 420.833,421.667 419.5,423C 415.803,422.438 411.803,422.605 407.5,423.5C 406.351,428.059 406.351,432.392 407.5,436.5C 405.953,436.207 404.286,436.707 402.5,438C 354,438.167 305.5,438.333 257,438.5C 208.162,438.5 159.662,437.833 111.5,436.5C 208.834,436.667 306.167,436.5 403.5,436C 404.167,434.667 404.833,433.333 405.5,432C 403.567,427.533 404.567,423.867 408.5,421C 411.882,420.824 415.215,420.324 418.5,419.5C 419.775,415.583 421.108,411.75 422.5,408C 422.167,407.667 421.833,407.333 421.5,407C 422.448,406.517 423.448,406.351 424.5,406.5 Z"/></g>
<g><path style="opacity:1" fill="#c27b18" d="M 47.5,437.5 C 57.5,437.5 67.5,437.5 77.5,437.5C 82.5,437.5 87.5,437.5 92.5,437.5C 92.1795,442.695 92.5128,447.695 93.5,452.5C 202.5,452.5 311.5,452.5 420.5,452.5C 420.5,452.833 420.5,453.167 420.5,453.5C 311.5,453.5 202.5,453.5 93.5,453.5C 93.5,454.5 93.5,455.5 93.5,456.5C 93.5,465.167 93.5,473.833 93.5,482.5C 93.5,482.833 93.5,483.167 93.5,483.5C 72.8333,483.5 52.1667,483.5 31.5,483.5C 31.5,478.5 31.5,473.5 31.5,468.5C 36.3633,468.819 41.03,468.486 45.5,467.5C 45.8333,467.5 46.1667,467.5 46.5,467.5C 47.494,457.681 47.8274,447.681 47.5,437.5 Z"/></g>
<g><path style="opacity:1" fill="#be7911" d="M 421.5,437.5 C 426.833,437.5 432.167,437.5 437.5,437.5C 447.167,437.5 456.833,437.5 466.5,437.5C 466.832,446.857 466.498,456.19 465.5,465.5C 464.692,465.808 464.025,466.308 463.5,467C 465.167,468 466.833,469 468.5,470C 472.887,470.226 477.221,470.726 481.5,471.5C 482.489,475.107 482.823,478.774 482.5,482.5C 462.167,482.5 441.833,482.5 421.5,482.5C 421.827,472.652 421.494,462.986 420.5,453.5C 420.5,453.167 420.5,452.833 420.5,452.5C 421.487,447.695 421.821,442.695 421.5,437.5 Z"/></g>
<g><path style="opacity:1" fill="#955517" d="M 77.5,437.5 C 77.5,437.167 77.5,436.833 77.5,436.5C 77.8333,436.5 78.1667,436.5 78.5,436.5C 83.5,436.5 88.5,436.5 93.5,436.5C 93.5,441.5 93.5,446.5 93.5,451.5C 93.5,451.833 93.5,452.167 93.5,452.5C 92.5128,447.695 92.1795,442.695 92.5,437.5C 87.5,437.5 82.5,437.5 77.5,437.5 Z"/></g>
<g><path style="opacity:1" fill="#490e00" d="M 93.5,436.5 C 94.6266,437.122 95.6266,437.955 96.5,439C 94.2666,442.442 93.9332,446.108 95.5,450C 202.833,450.5 310.166,450.667 417.5,450.5C 309.668,451.499 201.668,451.833 93.5,451.5C 93.5,446.5 93.5,441.5 93.5,436.5 Z"/></g>
<g><path style="opacity:1" fill="#551100" d="M 421.5,436.5 C 421.5,436.833 421.5,437.167 421.5,437.5C 421.821,442.695 421.487,447.695 420.5,452.5C 311.5,452.5 202.5,452.5 93.5,452.5C 93.5,452.167 93.5,451.833 93.5,451.5C 201.668,451.833 309.668,451.499 417.5,450.5C 418.397,451.598 419.23,451.598 420,450.5C 420.174,445.649 420.674,440.982 421.5,436.5 Z"/></g>
<g><path style="opacity:1" fill="#e9a036" d="M 61.5,452.5 C 66.8333,452.5 72.1667,452.5 77.5,452.5C 77.5,457.833 77.5,463.167 77.5,468.5C 72.1667,468.5 66.8333,468.5 61.5,468.5C 61.5,463.167 61.5,457.833 61.5,452.5 Z"/></g>
<g><path style="opacity:1" fill="#f5a42b" d="M 420.5,453.5 C 421.494,462.986 421.827,472.652 421.5,482.5C 421.5,482.833 421.5,483.167 421.5,483.5C 312.167,483.5 202.833,483.5 93.5,483.5C 93.5,483.167 93.5,482.833 93.5,482.5C 202.5,482.5 311.5,482.5 420.5,482.5C 420.5,473.167 420.5,463.833 420.5,454.5C 312.166,454.333 203.833,454.5 95.5,455C 94.9558,455.717 94.2891,456.217 93.5,456.5C 93.5,455.5 93.5,454.5 93.5,453.5C 202.5,453.5 311.5,453.5 420.5,453.5 Z"/></g>
<g><path style="opacity:1" fill="#fea214" d="M 93.5,482.5 C 93.5,473.833 93.5,465.167 93.5,456.5C 94.2891,456.217 94.9558,455.717 95.5,455C 203.833,454.5 312.166,454.333 420.5,454.5C 420.5,463.833 420.5,473.167 420.5,482.5C 311.5,482.5 202.5,482.5 93.5,482.5 Z"/></g>
<g><path style="opacity:1" fill="#c28730" d="M 439.5,453.5 C 443.555,453.176 447.555,453.509 451.5,454.5C 452.439,458.765 452.772,463.098 452.5,467.5C 447.5,467.5 442.5,467.5 437.5,467.5C 436.962,462.533 437.629,457.866 439.5,453.5 Z"/></g>
<g><path style="opacity:0.745" fill="#644312" d="M 45.5,467.5 C 41.03,468.486 36.3633,468.819 31.5,468.5C 31.5,473.5 31.5,478.5 31.5,483.5C 52.1667,483.5 72.8333,483.5 93.5,483.5C 202.833,483.5 312.167,483.5 421.5,483.5C 421.5,483.833 421.5,484.167 421.5,484.5C 291.167,484.5 160.833,484.5 30.5,484.5C 30.5,478.833 30.5,473.167 30.5,467.5C 35.5,467.5 40.5,467.5 45.5,467.5 Z"/></g>
<g><path style="opacity:0.96" fill="#aa792a" d="M 468.5,312.5 C 468.5,364.167 468.5,415.833 468.5,467.5C 473.305,468.487 478.305,468.821 483.5,468.5C 483.5,473.5 483.5,478.5 483.5,483.5C 462.833,483.5 442.167,483.5 421.5,483.5C 421.5,483.167 421.5,482.833 421.5,482.5C 441.833,482.5 462.167,482.5 482.5,482.5C 482.823,478.774 482.489,475.107 481.5,471.5C 477.221,470.726 472.887,470.226 468.5,470C 466.833,469 465.167,468 463.5,467C 464.025,466.308 464.692,465.808 465.5,465.5C 466.498,456.19 466.832,446.857 466.5,437.5C 466.5,437.167 466.5,436.833 466.5,436.5C 467.498,405.671 467.831,374.671 467.5,343.5C 467.172,332.986 467.506,322.653 468.5,312.5 Z"/></g>
<g><path style="opacity:0.321" fill="#4d330a" d="M 468.5,467.5 C 473.833,467.5 479.167,467.5 484.5,467.5C 484.5,473.167 484.5,478.833 484.5,484.5C 463.5,484.5 442.5,484.5 421.5,484.5C 421.5,484.167 421.5,483.833 421.5,483.5C 442.167,483.5 462.833,483.5 483.5,483.5C 483.5,478.5 483.5,473.5 483.5,468.5C 478.305,468.821 473.305,468.487 468.5,467.5 Z"/></g>
</svg>
