<?xml version="1.0" encoding="UTF-8"?>
<!DOCTYPE svg PUBLIC "-//W3C//DTD SVG 1.1//EN" "http://www.w3.org/Graphics/SVG/1.1/DTD/svg11.dtd">
<svg xmlns="http://www.w3.org/2000/svg" version="1.1" width="500px" height="500px" style="shape-rendering:geometricPrecision; text-rendering:geometricPrecision; image-rendering:optimizeQuality; fill-rule:evenodd; clip-rule:evenodd" xmlns:xlink="http://www.w3.org/1999/xlink">
<g><path style="opacity:1" fill="#f0eaa2" d="M 202.5,46.5 C 239.004,46.1682 275.337,46.5016 311.5,47.5C 275.5,47.5 239.5,47.5 203.5,47.5C 203.5,52.1667 203.5,56.8333 203.5,61.5C 203.167,61.5 202.833,61.5 202.5,61.5C 202.5,56.5 202.5,51.5 202.5,46.5 Z"/></g>
<g><path style="opacity:1" fill="#feee80" d="M 311.5,47.5 C 311.5,52.1667 311.5,56.8333 311.5,61.5C 275.5,61.5 239.5,61.5 203.5,61.5C 203.5,56.8333 203.5,52.1667 203.5,47.5C 239.5,47.5 275.5,47.5 311.5,47.5 Z"/></g>
<g><path style="opacity:0.475" fill="#554f29" d="M 202.5,46.5 C 238.996,45.5015 275.663,45.1682 312.5,45.5C 312.5,50.8333 312.5,56.1667 312.5,61.5C 312.167,61.5 311.833,61.5 311.5,61.5C 311.5,56.8333 311.5,52.1667 311.5,47.5C 275.337,46.5016 239.004,46.1682 202.5,46.5 Z"/></g>
<g><path style="opacity:1" fill="#f9c74b" d="M 203.5,61.5 C 239.5,61.5 275.5,61.5 311.5,61.5C 311.833,61.5 312.167,61.5 312.5,61.5C 312.5,61.8333 312.5,62.1667 312.5,62.5C 312.5,62.8333 312.5,63.1667 312.5,63.5C 312.5,68.1667 312.5,72.8333 312.5,77.5C 312.167,77.5 311.833,77.5 311.5,77.5C 311.5,72.5 311.5,67.5 311.5,62.5C 275.329,62.8318 239.329,62.4984 203.5,61.5 Z"/></g>
<g><path style="opacity:0.498" fill="#7b7237" d="M 312.5,62.5 C 312.5,62.1667 312.5,61.8333 312.5,61.5C 328.167,61.5 343.833,61.5 359.5,61.5C 359.5,66.8333 359.5,72.1667 359.5,77.5C 359.167,77.5 358.833,77.5 358.5,77.5C 358.5,77.1667 358.5,76.8333 358.5,76.5C 358.5,71.8333 358.5,67.1667 358.5,62.5C 343.167,62.5 327.833,62.5 312.5,62.5 Z"/></g>
<g><path style="opacity:1" fill="#ccbf73" d="M 202.5,61.5 C 202.5,62.1667 202.5,62.8333 202.5,63.5C 187.83,63.3334 173.163,63.5001 158.5,64C 156.601,68.1778 155.935,72.6778 156.5,77.5C 156.167,77.5 155.833,77.5 155.5,77.5C 155.5,72.1667 155.5,66.8333 155.5,61.5C 171.167,61.5 186.833,61.5 202.5,61.5 Z"/></g>
<g><path style="opacity:1" fill="#eba729" d="M 202.5,61.5 C 202.833,61.5 203.167,61.5 203.5,61.5C 239.329,62.4984 275.329,62.8318 311.5,62.5C 311.5,67.5 311.5,72.5 311.5,77.5C 310.514,73.03 310.181,68.3633 310.5,63.5C 276.165,63.3333 241.832,63.5 207.5,64C 206.675,65.6883 205.675,65.8549 204.5,64.5C 203.833,68.9822 203.166,73.3155 202.5,77.5C 202.5,72.8333 202.5,68.1667 202.5,63.5C 202.5,62.8333 202.5,62.1667 202.5,61.5 Z"/></g>
<g><path style="opacity:1" fill="#f9ec96" d="M 312.5,63.5 C 312.5,63.1667 312.5,62.8333 312.5,62.5C 327.833,62.5 343.167,62.5 358.5,62.5C 358.5,67.1667 358.5,71.8333 358.5,76.5C 357.551,72.3435 356.884,68.0102 356.5,63.5C 341.833,63.5 327.167,63.5 312.5,63.5 Z"/></g>
<g><path style="opacity:1" fill="#fdee7f" d="M 202.5,63.5 C 202.5,68.1667 202.5,72.8333 202.5,77.5C 187.167,77.5 171.833,77.5 156.5,77.5C 155.935,72.6778 156.601,68.1778 158.5,64C 173.163,63.5001 187.83,63.3334 202.5,63.5 Z"/></g>
<g><path style="opacity:1" fill="#f5a120" d="M 311.5,77.5 C 311.833,77.5 312.167,77.5 312.5,77.5C 327.324,78.4961 342.324,78.8294 357.5,78.5C 357.179,83.6946 357.513,88.6946 358.5,93.5C 363.833,93.5 369.167,93.5 374.5,93.5C 374.5,98.5 374.5,103.5 374.5,108.5C 384.833,108.5 395.167,108.5 405.5,108.5C 405.5,108.833 405.5,109.167 405.5,109.5C 405.5,119.833 405.5,130.167 405.5,140.5C 410.833,140.5 416.167,140.5 421.5,140.5C 421.5,145.5 421.5,150.5 421.5,155.5C 426.305,156.487 431.305,156.821 436.5,156.5C 436.17,172.009 436.504,187.342 437.5,202.5C 442.5,202.5 447.5,202.5 452.5,202.5C 452.5,202.833 452.5,203.167 452.5,203.5C 452.5,239.5 452.5,275.5 452.5,311.5C 452.5,311.833 452.5,312.167 452.5,312.5C 452.167,312.5 451.833,312.5 451.5,312.5C 446.833,312.5 442.167,312.5 437.5,312.5C 437.5,327.5 437.5,342.5 437.5,357.5C 437.5,357.833 437.5,358.167 437.5,358.5C 437.167,358.5 436.833,358.5 436.5,358.5C 431.5,358.5 426.5,358.5 421.5,358.5C 421.5,363.833 421.5,369.167 421.5,374.5C 416.167,374.5 410.833,374.5 405.5,374.5C 405.5,384.833 405.5,395.167 405.5,405.5C 395.167,405.5 384.833,405.5 374.5,405.5C 374.5,410.833 374.5,416.167 374.5,421.5C 369.167,421.5 363.833,421.5 358.5,421.5C 358.5,426.5 358.5,431.5 358.5,436.5C 358.5,436.833 358.5,437.167 358.5,437.5C 343.167,437.5 327.833,437.5 312.5,437.5C 312.5,442.167 312.5,446.833 312.5,451.5C 312.5,451.833 312.5,452.167 312.5,452.5C 312.167,452.5 311.833,452.5 311.5,452.5C 275.167,452.5 238.833,452.5 202.5,452.5C 202.5,447.5 202.5,442.5 202.5,437.5C 187.342,436.504 172.009,436.17 156.5,436.5C 156.821,431.305 156.487,426.305 155.5,421.5C 150.5,421.5 145.5,421.5 140.5,421.5C 140.5,416.167 140.5,410.833 140.5,405.5C 139.866,404.053 138.699,403.387 137,403.5C 128.197,404.429 119.364,404.763 110.5,404.5C 110.832,394.145 110.499,383.812 109.5,373.5C 104.565,372.552 99.5649,372.219 94.5,372.5C 94.7868,367.733 94.7868,363.066 94.5,358.5C 89.2302,357.549 83.8968,357.215 78.5,357.5C 78.8294,342.324 78.4961,327.324 77.5,312.5C 77.5,312.167 77.5,311.833 77.5,311.5C 73.03,310.514 68.3633,310.181 63.5,310.5C 63.3333,275.498 63.5,240.498 64,205.5C 68.3783,203.904 72.8783,202.904 77.5,202.5C 78.4962,187.342 78.8295,172.009 78.5,156.5C 82.8333,156.5 87.1667,156.5 91.5,156.5C 91.281,157.675 91.6143,158.675 92.5,159.5C 93.4287,158.311 93.762,156.978 93.5,155.5C 93.5,150.5 93.5,145.5 93.5,140.5C 98.8333,140.5 104.167,140.5 109.5,140.5C 109.5,130.167 109.5,119.833 109.5,109.5C 119.833,109.5 130.167,109.5 140.5,109.5C 140.5,104.167 140.5,98.8333 140.5,93.5C 145.5,93.5 150.5,93.5 155.5,93.5C 156.487,88.6946 156.821,83.6946 156.5,78.5C 172.009,78.8295 187.342,78.4962 202.5,77.5C 203.166,73.3155 203.833,68.9822 204.5,64.5C 205.675,65.8549 206.675,65.6883 207.5,64C 241.832,63.5 276.165,63.3333 310.5,63.5C 310.181,68.3633 310.514,73.03 311.5,77.5 Z"/></g>
<g><path style="opacity:1" fill="#fdee7f" d="M 312.5,63.5 C 327.167,63.5 341.833,63.5 356.5,63.5C 356.884,68.0102 357.551,72.3435 358.5,76.5C 358.5,76.8333 358.5,77.1667 358.5,77.5C 343.167,77.5 327.833,77.5 312.5,77.5C 312.5,72.8333 312.5,68.1667 312.5,63.5 Z"/></g>
<g><path style="opacity:1" fill="#eeaf35" d="M 155.5,77.5 C 155.833,77.5 156.167,77.5 156.5,77.5C 171.833,77.5 187.167,77.5 202.5,77.5C 187.342,78.4962 172.009,78.8295 156.5,78.5C 156.821,83.6946 156.487,88.6946 155.5,93.5C 155.5,88.1667 155.5,82.8333 155.5,77.5 Z"/></g>
<g><path style="opacity:1" fill="#ecac31" d="M 312.5,77.5 C 327.833,77.5 343.167,77.5 358.5,77.5C 358.5,82.8333 358.5,88.1667 358.5,93.5C 357.513,88.6946 357.179,83.6946 357.5,78.5C 342.324,78.8294 327.324,78.4961 312.5,77.5 Z"/></g>
<g><path style="opacity:1" fill="#fcec80" d="M 140.5,77.5 C 145.5,77.5 150.5,77.5 155.5,77.5C 155.5,82.8333 155.5,88.1667 155.5,93.5C 150.5,93.5 145.5,93.5 140.5,93.5C 140.5,88.1667 140.5,82.8333 140.5,77.5 Z"/></g>
<g><path style="opacity:1" fill="#fced83" d="M 359.5,77.5 C 364.5,77.5 369.5,77.5 374.5,77.5C 374.5,82.5 374.5,87.5 374.5,92.5C 374.5,87.5 374.5,82.5 374.5,77.5C 369.5,77.5 364.5,77.5 359.5,77.5 Z"/></g>
<g><path style="opacity:1" fill="#fdd059" d="M 358.5,77.5 C 358.833,77.5 359.167,77.5 359.5,77.5C 359.5,82.5 359.5,87.5 359.5,92.5C 364.5,92.5 369.5,92.5 374.5,92.5C 374.5,92.8333 374.5,93.1667 374.5,93.5C 369.167,93.5 363.833,93.5 358.5,93.5C 358.5,88.1667 358.5,82.8333 358.5,77.5 Z"/></g>
<g><path style="opacity:0.247" fill="#5b5329" d="M 140.5,77.5 C 140.5,82.8333 140.5,88.1667 140.5,93.5C 140.167,93.5 139.833,93.5 139.5,93.5C 129.5,93.5 119.5,93.5 109.5,93.5C 109.5,98.5 109.5,103.5 109.5,108.5C 109.167,108.5 108.833,108.5 108.5,108.5C 108.5,103.167 108.5,97.8333 108.5,92.5C 118.833,92.5 129.167,92.5 139.5,92.5C 139.179,87.3054 139.513,82.3054 140.5,77.5 Z"/></g>
<g><path style="opacity:0.247" fill="#443d19" d="M 374.5,93.5 C 374.5,93.1667 374.5,92.8333 374.5,92.5C 385.167,92.5 395.833,92.5 406.5,92.5C 406.5,97.8333 406.5,103.167 406.5,108.5C 406.167,108.5 405.833,108.5 405.5,108.5C 405.5,103.5 405.5,98.5 405.5,93.5C 395.167,93.5 384.833,93.5 374.5,93.5 Z"/></g>
<g><path style="opacity:1" fill="#fdee80" d="M 374.5,93.5 C 384.833,93.5 395.167,93.5 405.5,93.5C 405.5,98.5 405.5,103.5 405.5,108.5C 395.167,108.5 384.833,108.5 374.5,108.5C 374.5,103.5 374.5,98.5 374.5,93.5 Z"/></g>
<g><path style="opacity:1" fill="#fded80" d="M 139.5,93.5 C 139.5,98.5 139.5,103.5 139.5,108.5C 129.5,108.5 119.5,108.5 109.5,108.5C 109.5,103.5 109.5,98.5 109.5,93.5C 119.5,93.5 129.5,93.5 139.5,93.5 Z"/></g>
<g><path style="opacity:1" fill="#fdee80" d="M 108.5,109.5 C 108.5,119.5 108.5,129.5 108.5,139.5C 103.5,139.5 98.5,139.5 93.5,139.5C 93.5,129.5 93.5,119.5 93.5,109.5C 98.5,109.5 103.5,109.5 108.5,109.5 Z"/></g>
<g><path style="opacity:1" fill="#de8523" d="M 204.5,93.5 C 203.555,98.4053 203.221,103.405 203.5,108.5C 239.5,108.5 275.5,108.5 311.5,108.5C 311.5,103.5 311.5,98.5 311.5,93.5C 312.487,98.3054 312.821,103.305 312.5,108.5C 322.833,108.5 333.167,108.5 343.5,108.5C 343.5,113.5 343.5,118.5 343.5,123.5C 342.514,119.03 342.181,114.363 342.5,109.5C 332.167,109.5 321.833,109.5 311.5,109.5C 311.223,114.233 311.557,118.9 312.5,123.5C 322.812,124.499 333.145,124.832 343.5,124.5C 343.5,129.833 343.5,135.167 343.5,140.5C 332.833,140.5 322.167,140.5 311.5,140.5C 311.5,135.167 311.5,129.833 311.5,124.5C 275.167,124.5 238.833,124.5 202.5,124.5C 202.5,119.5 202.5,114.5 202.5,109.5C 192.167,109.5 181.833,109.5 171.5,109.5C 181.653,108.506 191.986,108.172 202.5,108.5C 201.892,103.056 202.558,98.0557 204.5,93.5 Z"/></g>
<g><path style="opacity:1" fill="#c3751f" d="M 204.5,93.5 C 240.167,93.5 275.833,93.5 311.5,93.5C 311.5,98.5 311.5,103.5 311.5,108.5C 275.5,108.5 239.5,108.5 203.5,108.5C 203.221,103.405 203.555,98.4053 204.5,93.5 Z"/></g>
<g><path style="opacity:1" fill="#b36f09" d="M 405.5,109.5 C 410.5,109.5 415.5,109.5 420.5,109.5C 420.173,119.681 420.506,129.681 421.5,139.5C 421.5,139.833 421.5,140.167 421.5,140.5C 416.167,140.5 410.833,140.5 405.5,140.5C 405.5,130.167 405.5,119.833 405.5,109.5 Z"/></g>
<g><path style="opacity:1" fill="#f3c44c" d="M 139.5,93.5 C 139.833,93.5 140.167,93.5 140.5,93.5C 140.5,98.8333 140.5,104.167 140.5,109.5C 130.167,109.5 119.833,109.5 109.5,109.5C 109.5,119.833 109.5,130.167 109.5,140.5C 104.167,140.5 98.8333,140.5 93.5,140.5C 93.5,140.167 93.5,139.833 93.5,139.5C 98.5,139.5 103.5,139.5 108.5,139.5C 108.5,129.5 108.5,119.5 108.5,109.5C 108.5,109.167 108.5,108.833 108.5,108.5C 108.833,108.5 109.167,108.5 109.5,108.5C 119.5,108.5 129.5,108.5 139.5,108.5C 139.5,103.5 139.5,98.5 139.5,93.5 Z"/></g>
<g><path style="opacity:1" fill="#c4751d" d="M 343.5,123.5 C 343.5,123.833 343.5,124.167 343.5,124.5C 333.145,124.832 322.812,124.499 312.5,123.5C 311.557,118.9 311.223,114.233 311.5,109.5C 321.833,109.5 332.167,109.5 342.5,109.5C 342.181,114.363 342.514,119.03 343.5,123.5 Z"/></g>
<g><path style="opacity:0.247" fill="#5b5427" d="M 108.5,108.5 C 108.5,108.833 108.5,109.167 108.5,109.5C 103.5,109.5 98.5,109.5 93.5,109.5C 93.5,119.5 93.5,129.5 93.5,139.5C 93.5,139.833 93.5,140.167 93.5,140.5C 88.1667,140.5 82.8333,140.5 77.5,140.5C 82.3054,139.513 87.3054,139.179 92.5,139.5C 92.5,129.167 92.5,118.833 92.5,108.5C 97.8333,108.5 103.167,108.5 108.5,108.5 Z"/></g>
<g><path style="opacity:0.835" fill="#8a5f1f" d="M 405.5,109.5 C 405.5,109.167 405.5,108.833 405.5,108.5C 405.833,108.5 406.167,108.5 406.5,108.5C 411.5,108.5 416.5,108.5 421.5,108.5C 421.5,118.833 421.5,129.167 421.5,139.5C 420.506,129.681 420.173,119.681 420.5,109.5C 415.5,109.5 410.5,109.5 405.5,109.5 Z"/></g>
<g><path style="opacity:1" fill="#de8523" d="M 202.5,124.5 C 202.5,129.5 202.5,134.5 202.5,139.5C 192.167,139.5 181.833,139.5 171.5,139.5C 171.197,134.57 171.531,129.737 172.5,125C 182.494,124.5 192.494,124.334 202.5,124.5 Z"/></g>
<g><path style="opacity:1" fill="#f5a120" d="M 202.5,124.5 C 238.833,124.5 275.167,124.5 311.5,124.5C 311.5,129.833 311.5,135.167 311.5,140.5C 322.167,140.5 332.833,140.5 343.5,140.5C 343.5,145.5 343.5,150.5 343.5,155.5C 348.5,155.5 353.5,155.5 358.5,155.5C 358.5,160.833 358.5,166.167 358.5,171.5C 363.167,171.5 367.833,171.5 372.5,171.5C 372.5,182.5 372.5,193.5 372.5,204.5C 377.5,204.5 382.5,204.5 387.5,204.5C 388.48,239.802 388.814,275.136 388.5,310.5C 383.637,310.181 378.97,310.514 374.5,311.5C 373.5,311.5 372.5,311.5 371.5,311.5C 372.549,320.473 372.716,329.473 372,338.5C 371.586,338.957 371.086,339.291 370.5,339.5C 367.05,337.776 363.383,337.109 359.5,337.5C 358.132,342.711 357.299,348.044 357,353.5C 352.966,356.068 348.466,357.235 343.5,357C 342,357.833 340.833,359 340,360.5C 339.586,360.043 339.086,359.709 338.5,359.5C 338.167,361 337.833,362.5 337.5,364C 337.971,367.146 338.971,369.979 340.5,372.5C 330.801,372.725 321.134,372.392 311.5,371.5C 311.5,372.5 311.5,373.5 311.5,374.5C 311.5,375.5 311.5,376.5 311.5,377.5C 310.518,380.962 310.185,384.629 310.5,388.5C 264.5,388.5 218.5,388.5 172.5,388.5C 173.397,383.86 173.564,379.194 173,374.5C 172.5,374 172,373.5 171.5,373C 167.098,372.936 162.764,372.769 158.5,372.5C 157.221,367.814 157.221,363.147 158.5,358.5C 153.281,357.196 148.114,357.196 143,358.5C 142.056,357.737 141.556,356.737 141.5,355.5C 141.55,351.342 141.55,347.176 141.5,343C 136.177,342.501 130.844,342.334 125.5,342.5C 125.561,329.737 125.894,317.071 126.5,304.5C 125.84,272.039 125.174,239.706 124.5,207.5C 124.5,205.833 124.5,204.167 124.5,202.5C 129.833,202.5 135.167,202.5 140.5,202.5C 140.5,192.167 140.5,181.833 140.5,171.5C 145.5,171.5 150.5,171.5 155.5,171.5C 155.5,166.167 155.5,160.833 155.5,155.5C 160.833,155.5 166.167,155.5 171.5,155.5C 171.5,150.5 171.5,145.5 171.5,140.5C 171.5,140.167 171.5,139.833 171.5,139.5C 181.833,139.5 192.167,139.5 202.5,139.5C 202.5,134.5 202.5,129.5 202.5,124.5 Z"/></g>
<g><path style="opacity:1" fill="#c4751e" d="M 171.5,109.5 C 181.833,109.5 192.167,109.5 202.5,109.5C 202.5,114.5 202.5,119.5 202.5,124.5C 192.494,124.334 182.494,124.5 172.5,125C 171.531,129.737 171.197,134.57 171.5,139.5C 171.5,139.833 171.5,140.167 171.5,140.5C 166.57,140.803 161.737,140.469 157,139.5C 156.501,134.511 156.334,129.511 156.5,124.5C 161.5,124.5 166.5,124.5 171.5,124.5C 171.5,119.5 171.5,114.5 171.5,109.5 Z"/></g>
<g><path style="opacity:1" fill="#c4751e" d="M 343.5,124.5 C 348.5,124.5 353.5,124.5 358.5,124.5C 358.5,129.833 358.5,135.167 358.5,140.5C 353.5,140.5 348.5,140.5 343.5,140.5C 343.5,135.167 343.5,129.833 343.5,124.5 Z"/></g>
<g><path style="opacity:0.363" fill="#523001" d="M 421.5,140.5 C 421.5,140.167 421.5,139.833 421.5,139.5C 426.833,139.5 432.167,139.5 437.5,139.5C 437.5,144.833 437.5,150.167 437.5,155.5C 437.167,155.5 436.833,155.5 436.5,155.5C 436.5,150.5 436.5,145.5 436.5,140.5C 431.5,140.5 426.5,140.5 421.5,140.5 Z"/></g>
<g><path style="opacity:1" fill="#df8623" d="M 358.5,124.5 C 359.487,129.305 359.821,134.305 359.5,139.5C 364.695,139.179 369.695,139.513 374.5,140.5C 369.489,140.334 364.489,140.501 359.5,141C 358.531,145.737 358.197,150.57 358.5,155.5C 353.5,155.5 348.5,155.5 343.5,155.5C 343.5,150.5 343.5,145.5 343.5,140.5C 348.5,140.5 353.5,140.5 358.5,140.5C 358.5,135.167 358.5,129.833 358.5,124.5 Z"/></g>
<g><path style="opacity:1" fill="#c4751e" d="M 140.5,140.5 C 145.5,140.5 150.5,140.5 155.5,140.5C 155.5,145.5 155.5,150.5 155.5,155.5C 150.405,155.779 145.405,155.445 140.5,154.5C 140.5,149.833 140.5,145.167 140.5,140.5 Z"/></g>
<g><path style="opacity:1" fill="#dd8522" d="M 156.5,124.5 C 156.334,129.511 156.501,134.511 157,139.5C 161.737,140.469 166.57,140.803 171.5,140.5C 171.5,145.5 171.5,150.5 171.5,155.5C 166.167,155.5 160.833,155.5 155.5,155.5C 155.5,150.5 155.5,145.5 155.5,140.5C 150.5,140.5 145.5,140.5 140.5,140.5C 145.305,139.513 150.305,139.179 155.5,139.5C 155.179,134.305 155.513,129.305 156.5,124.5 Z"/></g>
<g><path style="opacity:1" fill="#c4751e" d="M 374.5,140.5 C 374.5,145.167 374.5,149.833 374.5,154.5C 369.26,155.449 363.927,155.782 358.5,155.5C 358.197,150.57 358.531,145.737 359.5,141C 364.489,140.501 369.489,140.334 374.5,140.5 Z"/></g>
<g><path style="opacity:1" fill="#b16f09" d="M 421.5,140.5 C 426.5,140.5 431.5,140.5 436.5,140.5C 436.5,145.5 436.5,150.5 436.5,155.5C 431.5,155.5 426.5,155.5 421.5,155.5C 421.5,150.5 421.5,145.5 421.5,140.5 Z"/></g>
<g><path style="opacity:1" fill="#fcec82" d="M 77.5,140.5 C 82.8333,140.5 88.1667,140.5 93.5,140.5C 93.5,145.5 93.5,150.5 93.5,155.5C 88.1667,155.5 82.8333,155.5 77.5,155.5C 77.5,150.5 77.5,145.5 77.5,140.5 Z"/></g>
<g><path style="opacity:1" fill="#de8622" d="M 374.5,154.5 C 379.64,155.488 384.974,155.821 390.5,155.5C 390.821,160.695 390.487,165.695 389.5,170.5C 389.5,165.833 389.5,161.167 389.5,156.5C 384.5,156.5 379.5,156.5 374.5,156.5C 374.5,161.5 374.5,166.5 374.5,171.5C 373.833,171.5 373.167,171.5 372.5,171.5C 367.833,171.5 363.167,171.5 358.5,171.5C 358.5,166.167 358.5,160.833 358.5,155.5C 363.927,155.782 369.26,155.449 374.5,154.5 Z"/></g>
<g><path style="opacity:1" fill="#feee7f" d="M 77.5,156.5 C 77.5,171.833 77.5,187.167 77.5,202.5C 72.5,202.5 67.5,202.5 62.5,202.5C 63.4834,187.245 63.8168,171.911 63.5,156.5C 68.1667,156.5 72.8333,156.5 77.5,156.5 Z"/></g>
<g><path style="opacity:1" fill="#c5751e" d="M 124.5,156.5 C 129.511,156.334 134.511,156.501 139.5,157C 140.469,161.737 140.803,166.57 140.5,171.5C 135.167,171.5 129.833,171.5 124.5,171.5C 124.5,166.5 124.5,161.5 124.5,156.5 Z"/></g>
<g><path style="opacity:1" fill="#dd8522" d="M 140.5,154.5 C 145.405,155.445 150.405,155.779 155.5,155.5C 155.5,160.833 155.5,166.167 155.5,171.5C 150.5,171.5 145.5,171.5 140.5,171.5C 140.803,166.57 140.469,161.737 139.5,157C 134.511,156.501 129.511,156.334 124.5,156.5C 129.833,155.833 135.167,155.167 140.5,154.5 Z"/></g>
<g><path style="opacity:1" fill="#c3761f" d="M 389.5,170.5 C 389.5,170.833 389.5,171.167 389.5,171.5C 384.5,171.5 379.5,171.5 374.5,171.5C 374.5,166.5 374.5,161.5 374.5,156.5C 379.5,156.5 384.5,156.5 389.5,156.5C 389.5,161.167 389.5,165.833 389.5,170.5 Z"/></g>
<g><path style="opacity:1" fill="#b16e08" d="M 437.5,156.5 C 442.167,156.5 446.833,156.5 451.5,156.5C 451.171,171.676 451.504,186.676 452.5,201.5C 452.5,201.833 452.5,202.167 452.5,202.5C 447.5,202.5 442.5,202.5 437.5,202.5C 437.5,187.167 437.5,171.833 437.5,156.5 Z"/></g>
<g><path style="opacity:1" fill="#eeb034" d="M 77.5,155.5 C 82.8333,155.5 88.1667,155.5 93.5,155.5C 93.762,156.978 93.4287,158.311 92.5,159.5C 91.6143,158.675 91.281,157.675 91.5,156.5C 87.1667,156.5 82.8333,156.5 78.5,156.5C 78.8295,172.009 78.4962,187.342 77.5,202.5C 77.5,187.167 77.5,171.833 77.5,156.5C 77.5,156.167 77.5,155.833 77.5,155.5 Z"/></g>
<g><path style="opacity:0.98" fill="#986d2b" d="M 437.5,156.5 C 437.5,156.167 437.5,155.833 437.5,155.5C 442.5,155.5 447.5,155.5 452.5,155.5C 452.5,170.833 452.5,186.167 452.5,201.5C 451.504,186.676 451.171,171.676 451.5,156.5C 446.833,156.5 442.167,156.5 437.5,156.5 Z"/></g>
<g><path style="opacity:1" fill="#cdbe74" d="M 77.5,155.5 C 77.5,155.833 77.5,156.167 77.5,156.5C 72.8333,156.5 68.1667,156.5 63.5,156.5C 63.8168,171.911 63.4834,187.245 62.5,202.5C 62.1667,202.5 61.8333,202.5 61.5,202.5C 61.5,186.833 61.5,171.167 61.5,155.5C 66.8333,155.5 72.1667,155.5 77.5,155.5 Z"/></g>
<g><path style="opacity:1" fill="#d68a14" d="M 421.5,155.5 C 426.5,155.5 431.5,155.5 436.5,155.5C 436.833,155.5 437.167,155.5 437.5,155.5C 437.5,155.833 437.5,156.167 437.5,156.5C 437.5,171.833 437.5,187.167 437.5,202.5C 436.504,187.342 436.17,172.009 436.5,156.5C 431.305,156.821 426.305,156.487 421.5,155.5 Z"/></g>
<g><path style="opacity:1" fill="#de8523" d="M 123.5,171.5 C 123.833,171.5 124.167,171.5 124.5,171.5C 129.833,171.5 135.167,171.5 140.5,171.5C 140.5,181.833 140.5,192.167 140.5,202.5C 135.167,202.5 129.833,202.5 124.5,202.5C 124.808,192.085 124.475,181.751 123.5,171.5 Z"/></g>
<g><path style="opacity:1" fill="#feee7e" d="M 218.5,171.5 C 244.5,171.5 270.5,171.5 296.5,171.5C 296.5,176.5 296.5,181.5 296.5,186.5C 270.5,186.5 244.5,186.5 218.5,186.5C 218.5,181.5 218.5,176.5 218.5,171.5 Z"/></g>
<g><path style="opacity:1" fill="#feed7e" d="M 374.5,171.5 C 379.5,171.5 384.5,171.5 389.5,171.5C 389.5,181.833 389.5,192.167 389.5,202.5C 384.5,202.5 379.5,202.5 374.5,202.5C 374.5,192.167 374.5,181.833 374.5,171.5 Z"/></g>
<g><path style="opacity:1" fill="#c3751e" d="M 109.5,171.5 C 114.167,171.5 118.833,171.5 123.5,171.5C 124.475,181.751 124.808,192.085 124.5,202.5C 119.5,202.5 114.5,202.5 109.5,202.5C 109.5,192.167 109.5,181.833 109.5,171.5 Z"/></g>
<g><path style="opacity:1" fill="#c2751e" d="M 390.5,171.5 C 395.5,171.5 400.5,171.5 405.5,171.5C 405.5,181.5 405.5,191.5 405.5,201.5C 404.833,201.5 404.5,201.833 404.5,202.5C 399.833,202.5 395.167,202.5 390.5,202.5C 390.5,192.167 390.5,181.833 390.5,171.5 Z"/></g>
<g><path style="opacity:1" fill="#f4c74e" d="M 218.5,171.5 C 218.5,176.5 218.5,181.5 218.5,186.5C 244.5,186.5 270.5,186.5 296.5,186.5C 296.5,186.833 296.5,187.167 296.5,187.5C 270.5,187.5 244.5,187.5 218.5,187.5C 218.821,192.695 218.487,197.695 217.5,202.5C 217.5,197.5 217.5,192.5 217.5,187.5C 212.5,187.5 207.5,187.5 202.5,187.5C 206.647,186.675 210.981,186.175 215.5,186C 216,185.5 216.5,185 217,184.5C 217.175,179.981 217.675,175.647 218.5,171.5 Z"/></g>
<g><path style="opacity:1" fill="#fded7d" d="M 202.5,187.5 C 207.5,187.5 212.5,187.5 217.5,187.5C 217.5,192.5 217.5,197.5 217.5,202.5C 212.5,202.5 207.5,202.5 202.5,202.5C 202.5,197.5 202.5,192.5 202.5,187.5 Z"/></g>
<g><path style="opacity:1" fill="#f5a120" d="M 296.5,188.5 C 296.5,193.167 296.5,197.833 296.5,202.5C 301.5,202.5 306.5,202.5 311.5,202.5C 311.5,207.833 311.5,213.167 311.5,218.5C 316.833,218.5 322.167,218.5 327.5,218.5C 327.5,244.5 327.5,270.5 327.5,296.5C 322.5,296.5 317.5,296.5 312.5,296.5C 311.513,301.305 311.179,306.305 311.5,311.5C 306.305,311.179 301.305,311.513 296.5,312.5C 296.5,317.5 296.5,322.5 296.5,327.5C 270.5,327.5 244.5,327.5 218.5,327.5C 219.113,321.729 218.446,316.396 216.5,311.5C 212.366,310.515 208.032,310.182 203.5,310.5C 204.186,305.118 204.186,299.784 203.5,294.5C 198.352,295.074 193.518,294.407 189,292.5C 188.5,268.502 188.333,244.502 188.5,220.5C 192.92,220.467 197.254,220.633 201.5,221C 202.333,220.167 203.167,219.333 204,218.5C 204.499,213.845 204.666,209.179 204.5,204.5C 209.179,204.666 213.845,204.499 218.5,204C 219.303,198.887 219.969,193.72 220.5,188.5C 245.833,188.5 271.167,188.5 296.5,188.5 Z"/></g>
<g><path style="opacity:1" fill="#dd8522" d="M 109.5,171.5 C 109.5,181.833 109.5,192.167 109.5,202.5C 114.5,202.5 119.5,202.5 124.5,202.5C 124.5,204.167 124.5,205.833 124.5,207.5C 124.5,252.833 124.5,298.167 124.5,343.5C 119.167,343.5 113.833,343.5 108.5,343.5C 108.5,332.833 108.5,322.167 108.5,311.5C 108.826,275.094 108.493,238.761 107.5,202.5C 108.167,192.167 108.833,181.833 109.5,171.5 Z"/></g>
<g><path style="opacity:1" fill="#feee80" d="M 390.5,202.5 C 395.167,202.5 399.833,202.5 404.5,202.5C 405.498,238.663 405.832,274.996 405.5,311.5C 400.5,311.5 395.5,311.5 390.5,311.5C 390.5,275.167 390.5,238.833 390.5,202.5 Z"/></g>
<g><path style="opacity:1" fill="#feee80" d="M 60.5,203.5 C 60.8333,203.5 61.1667,203.5 61.5,203.5C 61.5,239.167 61.5,274.833 61.5,310.5C 57.1667,310.5 52.8333,310.5 48.5,310.5C 48.5,275.167 48.5,239.833 48.5,204.5C 52.7016,204.817 56.7016,204.483 60.5,203.5 Z"/></g>
<g><path style="opacity:1" fill="#feed7c" d="M 187.5,202.5 C 192.5,202.5 197.5,202.5 202.5,202.5C 202.5,207.5 202.5,212.5 202.5,217.5C 197.5,217.5 192.5,217.5 187.5,217.5C 187.5,212.5 187.5,207.5 187.5,202.5 Z"/></g>
<g><path style="opacity:1" fill="#c3751f" d="M 107.5,202.5 C 108.493,238.761 108.826,275.094 108.5,311.5C 103.5,311.5 98.5,311.5 93.5,311.5C 93.5,275.167 93.5,238.833 93.5,202.5C 98.1667,202.5 102.833,202.5 107.5,202.5 Z"/></g>
<g><path style="opacity:1" fill="#cf983a" d="M 404.5,202.5 C 404.5,201.833 404.833,201.5 405.5,201.5C 406.167,201.5 406.5,201.833 406.5,202.5C 406.5,239.167 406.5,275.833 406.5,312.5C 406.167,312.5 405.833,312.5 405.5,312.5C 400.5,312.5 395.5,312.5 390.5,312.5C 390.5,312.167 390.5,311.833 390.5,311.5C 395.5,311.5 400.5,311.5 405.5,311.5C 405.832,274.996 405.498,238.663 404.5,202.5 Z"/></g>
<g><path style="opacity:1" fill="#c8781a" d="M 296.5,186.5 C 301.833,186.5 307.167,186.5 312.5,186.5C 312.5,191.833 312.5,197.167 312.5,202.5C 317.5,202.5 322.5,202.5 327.5,202.5C 327.5,207.833 327.5,213.167 327.5,218.5C 322.167,218.5 316.833,218.5 311.5,218.5C 311.5,213.167 311.5,207.833 311.5,202.5C 306.5,202.5 301.5,202.5 296.5,202.5C 296.5,197.833 296.5,193.167 296.5,188.5C 296.5,188.167 296.5,187.833 296.5,187.5C 296.5,187.167 296.5,186.833 296.5,186.5 Z"/></g>
<g><path style="opacity:1" fill="#c3761f" d="M 406.5,202.5 C 411.5,202.5 416.5,202.5 421.5,202.5C 421.5,239.167 421.5,275.833 421.5,312.5C 416.5,312.5 411.5,312.5 406.5,312.5C 406.5,275.833 406.5,239.167 406.5,202.5 Z"/></g>
<g><path style="opacity:0.984" fill="#f3eda5" d="M 46.5,202.5 C 51.5,202.5 56.5,202.5 61.5,202.5C 61.5,202.833 61.5,203.167 61.5,203.5C 61.1667,203.5 60.8333,203.5 60.5,203.5C 56.1667,203.5 51.8333,203.5 47.5,203.5C 47.5,239.5 47.5,275.5 47.5,311.5C 46.5016,275.337 46.1682,239.004 46.5,202.5 Z"/></g>
<g><path style="opacity:1" fill="#fbee8e" d="M 60.5,203.5 C 56.7016,204.483 52.7016,204.817 48.5,204.5C 48.5,239.833 48.5,275.167 48.5,310.5C 52.8333,310.5 57.1667,310.5 61.5,310.5C 61.5,310.833 61.5,311.167 61.5,311.5C 56.8333,311.5 52.1667,311.5 47.5,311.5C 47.5,275.5 47.5,239.5 47.5,203.5C 51.8333,203.5 56.1667,203.5 60.5,203.5 Z"/></g>
<g><path style="opacity:1" fill="#f8c64a" d="M 61.5,203.5 C 62.4984,239.329 62.8318,275.329 62.5,311.5C 67.5,311.5 72.5,311.5 77.5,311.5C 77.5,311.833 77.5,312.167 77.5,312.5C 72.5,312.5 67.5,312.5 62.5,312.5C 62.1667,312.5 61.8333,312.5 61.5,312.5C 61.5,312.167 61.5,311.833 61.5,311.5C 61.5,311.167 61.5,310.833 61.5,310.5C 61.5,274.833 61.5,239.167 61.5,203.5 Z"/></g>
<g><path style="opacity:1" fill="#eaa528" d="M 372.5,171.5 C 373.167,171.5 373.833,171.5 374.5,171.5C 374.5,181.833 374.5,192.167 374.5,202.5C 379.305,203.487 384.305,203.821 389.5,203.5C 389.5,239.5 389.5,275.5 389.5,311.5C 384.5,311.5 379.5,311.5 374.5,311.5C 378.97,310.514 383.637,310.181 388.5,310.5C 388.814,275.136 388.48,239.802 387.5,204.5C 382.5,204.5 377.5,204.5 372.5,204.5C 372.5,193.5 372.5,182.5 372.5,171.5 Z"/></g>
<g><path style="opacity:1" fill="#edbb4a" d="M 389.5,171.5 C 389.833,171.5 390.167,171.5 390.5,171.5C 390.5,181.833 390.5,192.167 390.5,202.5C 390.5,238.833 390.5,275.167 390.5,311.5C 390.5,311.833 390.5,312.167 390.5,312.5C 390.5,322.833 390.5,333.167 390.5,343.5C 390.167,343.5 389.833,343.5 389.5,343.5C 384.5,343.5 379.5,343.5 374.5,343.5C 369.5,343.5 364.5,343.5 359.5,343.5C 359.5,348.5 359.5,353.5 359.5,358.5C 364.5,358.5 369.5,358.5 374.5,358.5C 374.5,358.833 374.5,359.167 374.5,359.5C 369.5,359.5 364.5,359.5 359.5,359.5C 359.5,364.5 359.5,369.5 359.5,374.5C 359.167,374.5 358.833,374.5 358.5,374.5C 358.5,369.167 358.5,363.833 358.5,358.5C 358.5,353.167 358.5,347.833 358.5,342.5C 363.5,342.5 368.5,342.5 373.5,342.5C 373.173,332.319 373.506,322.319 374.5,312.5C 374.5,312.167 374.5,311.833 374.5,311.5C 379.5,311.5 384.5,311.5 389.5,311.5C 389.5,275.5 389.5,239.5 389.5,203.5C 384.305,203.821 379.305,203.487 374.5,202.5C 379.5,202.5 384.5,202.5 389.5,202.5C 389.5,192.167 389.5,181.833 389.5,171.5 Z"/></g>
<g><path style="opacity:1" fill="#b26e07" d="M 452.5,203.5 C 452.833,203.5 453.167,203.5 453.5,203.5C 457.634,204.485 461.968,204.818 466.5,204.5C 466.667,238.835 466.5,273.168 466,307.5C 465.167,308.333 464.333,309.167 463.5,310C 459.975,310.179 456.641,310.679 453.5,311.5C 453.167,311.5 452.833,311.5 452.5,311.5C 452.5,275.5 452.5,239.5 452.5,203.5 Z"/></g>
<g><path style="opacity:1" fill="#eba728" d="M 61.5,203.5 C 61.5,203.167 61.5,202.833 61.5,202.5C 61.8333,202.5 62.1667,202.5 62.5,202.5C 67.5,202.5 72.5,202.5 77.5,202.5C 72.8783,202.904 68.3783,203.904 64,205.5C 63.5,240.498 63.3333,275.498 63.5,310.5C 68.3633,310.181 73.03,310.514 77.5,311.5C 72.5,311.5 67.5,311.5 62.5,311.5C 62.8318,275.329 62.4984,239.329 61.5,203.5 Z"/></g>
<g><path style="opacity:1" fill="#feee7e" d="M 171.5,218.5 C 176.5,218.5 181.5,218.5 186.5,218.5C 186.5,244.5 186.5,270.5 186.5,296.5C 181.5,296.5 176.5,296.5 171.5,296.5C 171.5,270.5 171.5,244.5 171.5,218.5 Z"/></g>
<g><path style="opacity:1" fill="#eaa72b" d="M 296.5,187.5 C 296.5,187.833 296.5,188.167 296.5,188.5C 271.167,188.5 245.833,188.5 220.5,188.5C 219.969,193.72 219.303,198.887 218.5,204C 213.845,204.499 209.179,204.666 204.5,204.5C 204.666,209.179 204.499,213.845 204,218.5C 203.167,219.333 202.333,220.167 201.5,221C 197.254,220.633 192.92,220.467 188.5,220.5C 188.333,244.502 188.5,268.502 189,292.5C 193.518,294.407 198.352,295.074 203.5,294.5C 204.186,299.784 204.186,305.118 203.5,310.5C 208.032,310.182 212.366,310.515 216.5,311.5C 211.833,311.5 207.167,311.5 202.5,311.5C 202.5,306.5 202.5,301.5 202.5,296.5C 197.5,296.5 192.5,296.5 187.5,296.5C 187.5,270.5 187.5,244.5 187.5,218.5C 192.695,218.821 197.695,218.487 202.5,217.5C 202.5,212.5 202.5,207.5 202.5,202.5C 207.5,202.5 212.5,202.5 217.5,202.5C 218.487,197.695 218.821,192.695 218.5,187.5C 244.5,187.5 270.5,187.5 296.5,187.5 Z"/></g>
<g><path style="opacity:1" fill="#f5c74f" d="M 187.5,202.5 C 187.5,207.5 187.5,212.5 187.5,217.5C 192.5,217.5 197.5,217.5 202.5,217.5C 197.695,218.487 192.695,218.821 187.5,218.5C 187.5,244.5 187.5,270.5 187.5,296.5C 187.5,301.5 187.5,306.5 187.5,311.5C 186.513,306.695 186.179,301.695 186.5,296.5C 186.5,270.5 186.5,244.5 186.5,218.5C 181.5,218.5 176.5,218.5 171.5,218.5C 176.094,217.885 180.761,217.051 185.5,216C 186.142,211.399 186.809,206.899 187.5,202.5 Z"/></g>
<g><path style="opacity:1" fill="#c4751e" d="M 327.5,218.5 C 332.833,218.5 338.167,218.5 343.5,218.5C 343.5,244.5 343.5,270.5 343.5,296.5C 338.167,296.5 332.833,296.5 327.5,296.5C 327.5,270.5 327.5,244.5 327.5,218.5 Z"/></g>
<g><path style="opacity:1" fill="#a87017" d="M 453.5,203.5 C 458.167,203.5 462.833,203.5 467.5,203.5C 467.5,239.5 467.5,275.5 467.5,311.5C 462.833,311.5 458.167,311.5 453.5,311.5C 456.641,310.679 459.975,310.179 463.5,310C 464.333,309.167 465.167,308.333 466,307.5C 466.5,273.168 466.667,238.835 466.5,204.5C 461.968,204.818 457.634,204.485 453.5,203.5 Z"/></g>
<g><path style="opacity:0.699" fill="#68481d" d="M 452.5,155.5 C 453.496,170.991 453.83,186.658 453.5,202.5C 458.5,202.5 463.5,202.5 468.5,202.5C 468.5,239.167 468.5,275.833 468.5,312.5C 463.5,312.5 458.5,312.5 453.5,312.5C 453.167,312.5 452.833,312.5 452.5,312.5C 452.5,312.167 452.5,311.833 452.5,311.5C 452.833,311.5 453.167,311.5 453.5,311.5C 458.167,311.5 462.833,311.5 467.5,311.5C 467.5,275.5 467.5,239.5 467.5,203.5C 462.833,203.5 458.167,203.5 453.5,203.5C 453.167,203.5 452.833,203.5 452.5,203.5C 452.5,203.167 452.5,202.833 452.5,202.5C 452.5,202.167 452.5,201.833 452.5,201.5C 452.5,186.167 452.5,170.833 452.5,155.5 Z"/></g>
<g><path style="opacity:1" fill="#c4751d" d="M 312.5,296.5 C 317.5,296.5 322.5,296.5 327.5,296.5C 327.5,301.5 327.5,306.5 327.5,311.5C 322.5,311.5 317.5,311.5 312.5,311.5C 312.5,306.5 312.5,301.5 312.5,296.5 Z"/></g>
<g><path style="opacity:0.463" fill="#53502a" d="M 46.5,202.5 C 46.1682,239.004 46.5016,275.337 47.5,311.5C 52.1667,311.5 56.8333,311.5 61.5,311.5C 61.5,311.833 61.5,312.167 61.5,312.5C 56.1667,312.5 50.8333,312.5 45.5,312.5C 45.1682,275.663 45.5015,238.996 46.5,202.5 Z"/></g>
<g><path style="opacity:1" fill="#dc8a1f" d="M 312.5,296.5 C 312.5,301.5 312.5,306.5 312.5,311.5C 317.5,311.5 322.5,311.5 327.5,311.5C 322.695,312.487 317.695,312.821 312.5,312.5C 312.821,317.695 312.487,322.695 311.5,327.5C 311.5,322.5 311.5,317.5 311.5,312.5C 306.5,312.5 301.5,312.5 296.5,312.5C 301.305,311.513 306.305,311.179 311.5,311.5C 311.179,306.305 311.513,301.305 312.5,296.5 Z"/></g>
<g><path style="opacity:1" fill="#c3751e" d="M 111.5,312.5 C 115.437,312.207 119.27,312.54 123,313.5C 123.667,322.833 123.667,332.167 123,341.5C 118.599,342.467 114.099,342.8 109.5,342.5C 109.334,333.827 109.5,325.16 110,316.5C 110.41,315.099 110.91,313.766 111.5,312.5 Z"/></g>
<g><path style="opacity:1" fill="#fdee80" d="M 62.5,312.5 C 67.5,312.5 72.5,312.5 77.5,312.5C 77.5,327.833 77.5,343.167 77.5,358.5C 72.5,358.5 67.5,358.5 62.5,358.5C 62.5,343.167 62.5,327.833 62.5,312.5 Z"/></g>
<g><path style="opacity:1" fill="#feed7f" d="M 374.5,312.5 C 379.5,312.5 384.5,312.5 389.5,312.5C 389.5,322.5 389.5,332.5 389.5,342.5C 384.5,342.5 379.5,342.5 374.5,342.5C 374.5,332.5 374.5,322.5 374.5,312.5 Z"/></g>
<g><path style="opacity:1" fill="#ee9d28" d="M 124.5,207.5 C 125.174,239.706 125.84,272.039 126.5,304.5C 125.894,317.071 125.561,329.737 125.5,342.5C 130.844,342.334 136.177,342.501 141.5,343C 141.55,347.176 141.55,351.342 141.5,355.5C 141.556,356.737 142.056,357.737 143,358.5C 148.114,357.196 153.281,357.196 158.5,358.5C 157.221,363.147 157.221,367.814 158.5,372.5C 162.764,372.769 167.098,372.936 171.5,373C 172,373.5 172.5,374 173,374.5C 173.564,379.194 173.397,383.86 172.5,388.5C 218.5,388.5 264.5,388.5 310.5,388.5C 310.185,384.629 310.518,380.962 311.5,377.5C 311.5,381.5 311.5,385.5 311.5,389.5C 274.996,389.168 238.663,389.502 202.5,390.5C 192.167,390.5 181.833,390.5 171.5,390.5C 171.5,395.5 171.5,400.5 171.5,405.5C 170.807,401.435 170.14,397.268 169.5,393C 165.006,391.645 160.506,391.145 156,391.5C 154.987,386.663 154.154,381.83 153.5,377C 149.627,375.392 145.794,375.559 142,377.5C 141.311,376.643 140.478,375.977 139.5,375.5C 138.506,370.544 138.173,365.544 138.5,360.5C 133.381,361.103 128.715,360.436 124.5,358.5C 129.5,358.5 134.5,358.5 139.5,358.5C 139.5,353.5 139.5,348.5 139.5,343.5C 134.5,343.5 129.5,343.5 124.5,343.5C 124.5,298.167 124.5,252.833 124.5,207.5 Z"/></g>
<g><path style="opacity:1" fill="#c3761e" d="M 390.5,312.5 C 395.5,312.5 400.5,312.5 405.5,312.5C 405.5,322.833 405.5,333.167 405.5,343.5C 400.5,343.5 395.5,343.5 390.5,343.5C 390.5,333.167 390.5,322.833 390.5,312.5 Z"/></g>
<g><path style="opacity:1" fill="#b16e08" d="M 451.5,312.5 C 451.5,327.5 451.5,342.5 451.5,357.5C 446.833,357.5 442.167,357.5 437.5,357.5C 437.5,342.5 437.5,327.5 437.5,312.5C 442.167,312.5 446.833,312.5 451.5,312.5 Z"/></g>
<g><path style="opacity:0.498" fill="#7d7239" d="M 61.5,312.5 C 61.8333,312.5 62.1667,312.5 62.5,312.5C 62.5,327.833 62.5,343.167 62.5,358.5C 67.5,358.5 72.5,358.5 77.5,358.5C 77.5,358.833 77.5,359.167 77.5,359.5C 72.1667,359.5 66.8333,359.5 61.5,359.5C 61.5,343.833 61.5,328.167 61.5,312.5 Z"/></g>
<g><path style="opacity:1" fill="#c4751d" d="M 296.5,312.5 C 301.5,312.5 306.5,312.5 311.5,312.5C 311.5,317.5 311.5,322.5 311.5,327.5C 306.5,327.5 301.5,327.5 296.5,327.5C 296.5,322.5 296.5,317.5 296.5,312.5 Z"/></g>
<g><path style="opacity:1" fill="#fde06a" d="M 187.5,296.5 C 192.5,296.5 197.5,296.5 202.5,296.5C 202.5,301.5 202.5,306.5 202.5,311.5C 207.167,311.5 211.833,311.5 216.5,311.5C 218.446,316.396 219.113,321.729 218.5,327.5C 213.167,327.5 207.833,327.5 202.5,327.5C 202.5,322.5 202.5,317.5 202.5,312.5C 197.305,312.821 192.305,312.487 187.5,311.5C 187.5,306.5 187.5,301.5 187.5,296.5 Z"/></g>
<g><path style="opacity:1" fill="#fdee80" d="M 203.5,312.5 C 207.514,312.334 211.514,312.501 215.5,313C 216.022,313.561 216.355,314.228 216.5,315C 216.634,318.597 216.301,322.264 215.5,326C 211.514,326.499 207.514,326.666 203.5,326.5C 203.5,321.833 203.5,317.167 203.5,312.5 Z"/></g>
<g><path style="opacity:1" fill="#fdee81" d="M 190.5,297.5 C 194.167,297.5 197.833,297.5 201.5,297.5C 204.214,308.874 200.047,312.874 189,309.5C 188.019,305.183 188.519,301.183 190.5,297.5 Z"/></g>
<g><path style="opacity:0.997" fill="#a0732d" d="M 451.5,312.5 C 451.833,312.5 452.167,312.5 452.5,312.5C 452.5,327.833 452.5,343.167 452.5,358.5C 447.5,358.5 442.5,358.5 437.5,358.5C 437.5,358.167 437.5,357.833 437.5,357.5C 442.167,357.5 446.833,357.5 451.5,357.5C 451.5,342.5 451.5,327.5 451.5,312.5 Z"/></g>
<g><path style="opacity:1" fill="#c6761d" d="M 218.5,327.5 C 244.5,327.5 270.5,327.5 296.5,327.5C 296.5,332.833 296.5,338.167 296.5,343.5C 270.5,343.5 244.5,343.5 218.5,343.5C 218.5,338.167 218.5,332.833 218.5,327.5 Z"/></g>
<g><path style="opacity:1" fill="#eea426" d="M 374.5,311.5 C 374.5,311.833 374.5,312.167 374.5,312.5C 373.506,322.319 373.173,332.319 373.5,342.5C 368.5,342.5 363.5,342.5 358.5,342.5C 358.5,347.833 358.5,353.167 358.5,358.5C 353.5,358.5 348.5,358.5 343.5,358.5C 343.5,363.833 343.5,369.167 343.5,374.5C 342.833,374.5 342.167,374.5 341.5,374.5C 331.833,374.5 322.167,374.5 312.5,374.5C 312.167,374.5 311.833,374.5 311.5,374.5C 311.5,373.5 311.5,372.5 311.5,371.5C 321.134,372.392 330.801,372.725 340.5,372.5C 338.971,369.979 337.971,367.146 337.5,364C 337.833,362.5 338.167,361 338.5,359.5C 339.086,359.709 339.586,360.043 340,360.5C 340.833,359 342,357.833 343.5,357C 348.466,357.235 352.966,356.068 357,353.5C 357.299,348.044 358.132,342.711 359.5,337.5C 363.383,337.109 367.05,337.776 370.5,339.5C 371.086,339.291 371.586,338.957 372,338.5C 372.716,329.473 372.549,320.473 371.5,311.5C 372.5,311.5 373.5,311.5 374.5,311.5 Z"/></g>
<g><path style="opacity:1" fill="#c3751d" d="M 124.5,343.5 C 129.5,343.5 134.5,343.5 139.5,343.5C 139.5,348.5 139.5,353.5 139.5,358.5C 134.5,358.5 129.5,358.5 124.5,358.5C 124.5,353.5 124.5,348.5 124.5,343.5 Z"/></g>
<g><path style="opacity:1" fill="#c2761e" d="M 374.5,343.5 C 379.5,343.5 384.5,343.5 389.5,343.5C 389.5,348.5 389.5,353.5 389.5,358.5C 384.5,358.5 379.5,358.5 374.5,358.5C 374.5,353.5 374.5,348.5 374.5,343.5 Z"/></g>
<g><path style="opacity:1" fill="#feed7f" d="M 374.5,343.5 C 374.5,348.5 374.5,353.5 374.5,358.5C 369.5,358.5 364.5,358.5 359.5,358.5C 359.5,353.5 359.5,348.5 359.5,343.5C 364.5,343.5 369.5,343.5 374.5,343.5 Z"/></g>
<g><path style="opacity:1" fill="#fced82" d="M 77.5,359.5 C 82.5,359.5 87.5,359.5 92.5,359.5C 92.2213,364.595 92.5546,369.595 93.5,374.5C 93.1667,374.5 92.8333,374.5 92.5,374.5C 87.5,374.5 82.5,374.5 77.5,374.5C 77.5,369.5 77.5,364.5 77.5,359.5 Z"/></g>
<g><path style="opacity:1" fill="#c2761e" d="M 374.5,359.5 C 374.5,364.5 374.5,369.5 374.5,374.5C 369.5,374.5 364.5,374.5 359.5,374.5C 359.5,369.5 359.5,364.5 359.5,359.5C 364.5,359.5 369.5,359.5 374.5,359.5 Z"/></g>
<g><path style="opacity:1" fill="#ef9c29" d="M 405.5,312.5 C 405.833,312.5 406.167,312.5 406.5,312.5C 411.5,312.5 416.5,312.5 421.5,312.5C 417.366,313.485 413.032,313.818 408.5,313.5C 407.271,322.172 407.271,330.839 408.5,339.5C 408.281,340.938 407.781,342.271 407,343.5C 401.928,344.471 396.762,344.805 391.5,344.5C 391.666,349.179 391.499,353.845 391,358.5C 390.5,359 390,359.5 389.5,360C 385.247,360.2 381.08,360.7 377,361.5C 376.667,365.833 376.333,370.167 376,374.5C 375.5,375 375,375.5 374.5,376C 370.167,376.333 365.833,376.667 361.5,377C 360.7,381.08 360.2,385.247 360,389.5C 359.5,390 359,390.5 358.5,391C 354.187,391.735 349.853,392.235 345.5,392.5C 345.772,396.902 345.439,401.235 344.5,405.5C 334.17,406.326 323.836,406.993 313.5,407.5C 313.292,409.92 313.626,412.253 314.5,414.5C 314.234,417.345 313.234,419.678 311.5,421.5C 311.5,416.5 311.5,411.5 311.5,406.5C 312.167,406.5 312.5,406.167 312.5,405.5C 322.833,405.5 333.167,405.5 343.5,405.5C 343.5,400.5 343.5,395.5 343.5,390.5C 343.5,390.167 343.5,389.833 343.5,389.5C 348.5,389.5 353.5,389.5 358.5,389.5C 358.5,384.5 358.5,379.5 358.5,374.5C 358.833,374.5 359.167,374.5 359.5,374.5C 364.5,374.5 369.5,374.5 374.5,374.5C 374.5,369.5 374.5,364.5 374.5,359.5C 374.5,359.167 374.5,358.833 374.5,358.5C 379.5,358.5 384.5,358.5 389.5,358.5C 389.5,353.5 389.5,348.5 389.5,343.5C 389.833,343.5 390.167,343.5 390.5,343.5C 395.5,343.5 400.5,343.5 405.5,343.5C 405.5,333.167 405.5,322.833 405.5,312.5 Z"/></g>
<g><path style="opacity:1" fill="#b06f0e" d="M 436.5,358.5 C 436.5,363.833 436.5,369.167 436.5,374.5C 431.5,374.5 426.5,374.5 421.5,374.5C 421.5,369.167 421.5,363.833 421.5,358.5C 426.5,358.5 431.5,358.5 436.5,358.5 Z"/></g>
<g><path style="opacity:1" fill="#feec7d" d="M 358.5,358.5 C 358.5,363.833 358.5,369.167 358.5,374.5C 353.5,374.5 348.5,374.5 343.5,374.5C 343.5,369.167 343.5,363.833 343.5,358.5C 348.5,358.5 353.5,358.5 358.5,358.5 Z"/></g>
<g><path style="opacity:0.478" fill="#472805" d="M 452.5,312.5 C 452.833,312.5 453.167,312.5 453.5,312.5C 453.5,328.167 453.5,343.833 453.5,359.5C 448.167,359.5 442.833,359.5 437.5,359.5C 437.821,364.695 437.487,369.695 436.5,374.5C 436.5,369.167 436.5,363.833 436.5,358.5C 436.833,358.5 437.167,358.5 437.5,358.5C 442.5,358.5 447.5,358.5 452.5,358.5C 452.5,343.167 452.5,327.833 452.5,312.5 Z"/></g>
<g><path style="opacity:1" fill="#c5741b" d="M 155.5,374.5 C 150.5,374.5 145.5,374.5 140.5,374.5C 140.5,369.5 140.5,364.5 140.5,359.5C 145.5,359.5 150.5,359.5 155.5,359.5C 155.5,364.5 155.5,369.5 155.5,374.5 Z"/></g>
<g><path style="opacity:1" fill="#fdee80" d="M 93.5,374.5 C 98.5,374.5 103.5,374.5 108.5,374.5C 108.5,384.833 108.5,395.167 108.5,405.5C 103.5,405.5 98.5,405.5 93.5,405.5C 93.5,395.167 93.5,384.833 93.5,374.5 Z"/></g>
<g><path style="opacity:1" fill="#c5761b" d="M 155.5,374.5 C 160.833,374.5 166.167,374.5 171.5,374.5C 171.5,379.5 171.5,384.5 171.5,389.5C 166.5,389.5 161.5,389.5 156.5,389.5C 155.746,384.537 155.413,379.537 155.5,374.5 Z"/></g>
<g><path style="opacity:1" fill="#c1761e" d="M 343.5,374.5 C 348.5,374.5 353.5,374.5 358.5,374.5C 358.5,379.5 358.5,384.5 358.5,389.5C 353.5,389.5 348.5,389.5 343.5,389.5C 343.5,384.5 343.5,379.5 343.5,374.5 Z"/></g>
<g><path style="opacity:1" fill="#b06e0a" d="M 421.5,374.5 C 421.5,384.833 421.5,395.167 421.5,405.5C 416.167,405.5 410.833,405.5 405.5,405.5C 405.5,395.167 405.5,384.833 405.5,374.5C 410.833,374.5 416.167,374.5 421.5,374.5 Z"/></g>
<g><path style="opacity:0.247" fill="#4d4017" d="M 92.5,374.5 C 92.8333,374.5 93.1667,374.5 93.5,374.5C 93.5,384.833 93.5,395.167 93.5,405.5C 98.5,405.5 103.5,405.5 108.5,405.5C 108.833,405.5 109.167,405.5 109.5,405.5C 109.5,410.833 109.5,416.167 109.5,421.5C 108.513,416.695 108.179,411.695 108.5,406.5C 103.167,406.5 97.8333,406.5 92.5,406.5C 92.5,395.833 92.5,385.167 92.5,374.5 Z"/></g>
<g><path style="opacity:1" fill="#efbf55" d="M 311.5,374.5 C 311.833,374.5 312.167,374.5 312.5,374.5C 312.5,379.5 312.5,384.5 312.5,389.5C 322.5,389.5 332.5,389.5 342.5,389.5C 342.779,384.405 342.445,379.405 341.5,374.5C 342.167,374.5 342.833,374.5 343.5,374.5C 343.5,379.5 343.5,384.5 343.5,389.5C 343.5,389.833 343.5,390.167 343.5,390.5C 333.167,390.5 322.833,390.5 312.5,390.5C 312.5,395.167 312.5,399.833 312.5,404.5C 312.167,404.5 311.833,404.5 311.5,404.5C 311.5,399.833 311.5,395.167 311.5,390.5C 275.167,390.5 238.833,390.5 202.5,390.5C 238.663,389.502 274.996,389.168 311.5,389.5C 311.5,385.5 311.5,381.5 311.5,377.5C 311.5,376.5 311.5,375.5 311.5,374.5 Z"/></g>
<g><path style="opacity:1" fill="#feed7f" d="M 312.5,374.5 C 322.167,374.5 331.833,374.5 341.5,374.5C 342.445,379.405 342.779,384.405 342.5,389.5C 332.5,389.5 322.5,389.5 312.5,389.5C 312.5,384.5 312.5,379.5 312.5,374.5 Z"/></g>
<g><path style="opacity:1" fill="#feee7f" d="M 202.5,390.5 C 238.833,390.5 275.167,390.5 311.5,390.5C 311.5,395.167 311.5,399.833 311.5,404.5C 275.337,405.498 239.004,405.832 202.5,405.5C 202.5,400.5 202.5,395.5 202.5,390.5 Z"/></g>
<g><path style="opacity:1" fill="#c2761e" d="M 343.5,390.5 C 343.5,395.5 343.5,400.5 343.5,405.5C 333.167,405.5 322.833,405.5 312.5,405.5C 312.5,405.167 312.5,404.833 312.5,404.5C 312.5,399.833 312.5,395.167 312.5,390.5C 322.833,390.5 333.167,390.5 343.5,390.5 Z"/></g>
<g><path style="opacity:1" fill="#c3751e" d="M 202.5,390.5 C 202.5,395.5 202.5,400.5 202.5,405.5C 202.167,405.5 201.833,405.5 201.5,405.5C 191.5,405.5 181.5,405.5 171.5,405.5C 171.5,400.5 171.5,395.5 171.5,390.5C 181.833,390.5 192.167,390.5 202.5,390.5 Z"/></g>
<g><path style="opacity:1" fill="#eeac31" d="M 77.5,312.5 C 78.4961,327.324 78.8294,342.324 78.5,357.5C 83.8968,357.215 89.2302,357.549 94.5,358.5C 94.7868,363.066 94.7868,367.733 94.5,372.5C 99.5649,372.219 104.565,372.552 109.5,373.5C 110.499,383.812 110.832,394.145 110.5,404.5C 119.364,404.763 128.197,404.429 137,403.5C 138.699,403.387 139.866,404.053 140.5,405.5C 130.167,405.5 119.833,405.5 109.5,405.5C 109.167,405.5 108.833,405.5 108.5,405.5C 108.5,395.167 108.5,384.833 108.5,374.5C 103.5,374.5 98.5,374.5 93.5,374.5C 92.5546,369.595 92.2213,364.595 92.5,359.5C 87.5,359.5 82.5,359.5 77.5,359.5C 77.5,359.167 77.5,358.833 77.5,358.5C 77.5,343.167 77.5,327.833 77.5,312.5 Z"/></g>
<g><path style="opacity:1" fill="#ce9739" d="M 311.5,404.5 C 311.833,404.5 312.167,404.5 312.5,404.5C 312.5,404.833 312.5,405.167 312.5,405.5C 312.5,406.167 312.167,406.5 311.5,406.5C 275.167,406.5 238.833,406.5 202.5,406.5C 201.833,406.5 201.5,406.167 201.5,405.5C 201.833,405.5 202.167,405.5 202.5,405.5C 239.004,405.832 275.337,405.498 311.5,404.5 Z"/></g>
<g><path style="opacity:0.212" fill="#3a1f00" d="M 405.5,405.5 C 410.833,405.5 416.167,405.5 421.5,405.5C 416.695,406.487 411.695,406.821 406.5,406.5C 406.821,411.695 406.487,416.695 405.5,421.5C 405.5,416.167 405.5,410.833 405.5,405.5 Z"/></g>
<g><path style="opacity:1" fill="#b26f0b" d="M 109.5,405.5 C 119.833,405.5 130.167,405.5 140.5,405.5C 140.5,410.833 140.5,416.167 140.5,421.5C 140.167,421.5 139.833,421.5 139.5,421.5C 129.5,421.5 119.5,421.5 109.5,421.5C 109.5,416.167 109.5,410.833 109.5,405.5 Z"/></g>
<g><path style="opacity:1" fill="#c4751f" d="M 202.5,406.5 C 238.833,406.5 275.167,406.5 311.5,406.5C 311.5,411.5 311.5,416.5 311.5,421.5C 275.167,421.5 238.833,421.5 202.5,421.5C 202.5,416.5 202.5,411.5 202.5,406.5 Z"/></g>
<g><path style="opacity:1" fill="#b16e0b" d="M 405.5,405.5 C 405.5,410.833 405.5,416.167 405.5,421.5C 395.167,421.5 384.833,421.5 374.5,421.5C 374.5,416.167 374.5,410.833 374.5,405.5C 384.833,405.5 395.167,405.5 405.5,405.5 Z"/></g>
<g><path style="opacity:1" fill="#b06f0c" d="M 140.5,421.5 C 145.5,421.5 150.5,421.5 155.5,421.5C 155.5,426.5 155.5,431.5 155.5,436.5C 150.5,436.5 145.5,436.5 140.5,436.5C 140.5,431.5 140.5,426.5 140.5,421.5 Z"/></g>
<g><path style="opacity:1" fill="#b1700e" d="M 374.5,421.5 C 374.5,426.5 374.5,431.5 374.5,436.5C 369.167,436.5 363.833,436.5 358.5,436.5C 358.5,431.5 358.5,426.5 358.5,421.5C 363.833,421.5 369.167,421.5 374.5,421.5 Z"/></g>
<g><path style="opacity:0.373" fill="#513002" d="M 139.5,421.5 C 139.833,421.5 140.167,421.5 140.5,421.5C 140.5,426.5 140.5,431.5 140.5,436.5C 145.5,436.5 150.5,436.5 155.5,436.5C 155.5,436.833 155.5,437.167 155.5,437.5C 150.167,437.5 144.833,437.5 139.5,437.5C 139.5,432.167 139.5,426.833 139.5,421.5 Z"/></g>
<g><path style="opacity:1" fill="#d68a14" d="M 155.5,421.5 C 156.487,426.305 156.821,431.305 156.5,436.5C 172.009,436.17 187.342,436.504 202.5,437.5C 187.167,437.5 171.833,437.5 156.5,437.5C 156.167,437.5 155.833,437.5 155.5,437.5C 155.5,437.167 155.5,436.833 155.5,436.5C 155.5,431.5 155.5,426.5 155.5,421.5 Z"/></g>
<g><path style="opacity:0.435" fill="#4b2806" d="M 358.5,436.5 C 363.833,436.5 369.167,436.5 374.5,436.5C 369.695,437.487 364.695,437.821 359.5,437.5C 359.5,442.833 359.5,448.167 359.5,453.5C 343.833,453.5 328.167,453.5 312.5,453.5C 312.5,453.167 312.5,452.833 312.5,452.5C 327.833,452.5 343.167,452.5 358.5,452.5C 358.5,447.833 358.5,443.167 358.5,438.5C 358.5,438.167 358.5,437.833 358.5,437.5C 358.5,437.167 358.5,436.833 358.5,436.5 Z"/></g>
<g><path style="opacity:1" fill="#b16e08" d="M 156.5,437.5 C 171.833,437.5 187.167,437.5 202.5,437.5C 202.5,442.5 202.5,447.5 202.5,452.5C 187.245,451.517 171.911,451.183 156.5,451.5C 156.5,446.833 156.5,442.167 156.5,437.5 Z"/></g>
<g><path style="opacity:1" fill="#b16e09" d="M 358.5,437.5 C 358.5,437.833 358.5,438.167 358.5,438.5C 357.515,442.634 357.182,446.968 357.5,451.5C 342.5,451.5 327.5,451.5 312.5,451.5C 312.5,446.833 312.5,442.167 312.5,437.5C 327.833,437.5 343.167,437.5 358.5,437.5 Z"/></g>
<g><path style="opacity:0.933" fill="#785021" d="M 155.5,437.5 C 155.833,437.5 156.167,437.5 156.5,437.5C 156.5,442.167 156.5,446.833 156.5,451.5C 171.911,451.183 187.245,451.517 202.5,452.5C 202.5,452.833 202.5,453.167 202.5,453.5C 186.833,453.5 171.167,453.5 155.5,453.5C 155.5,448.167 155.5,442.833 155.5,437.5 Z"/></g>
<g><path style="opacity:0.94" fill="#a57630" d="M 358.5,438.5 C 358.5,443.167 358.5,447.833 358.5,452.5C 343.167,452.5 327.833,452.5 312.5,452.5C 312.5,452.167 312.5,451.833 312.5,451.5C 327.5,451.5 342.5,451.5 357.5,451.5C 357.182,446.968 357.515,442.634 358.5,438.5 Z"/></g>
<g><path style="opacity:1" fill="#b16e09" d="M 202.5,452.5 C 238.833,452.5 275.167,452.5 311.5,452.5C 311.5,457.5 311.5,462.5 311.5,467.5C 275.5,467.5 239.5,467.5 203.5,467.5C 203.818,462.968 203.485,458.634 202.5,454.5C 202.5,454.167 202.5,453.833 202.5,453.5C 202.5,453.167 202.5,452.833 202.5,452.5 Z"/></g>
<g><path style="opacity:0.696" fill="#7b5823" d="M 311.5,452.5 C 311.833,452.5 312.167,452.5 312.5,452.5C 312.5,452.833 312.5,453.167 312.5,453.5C 312.5,458.5 312.5,463.5 312.5,468.5C 275.833,468.5 239.167,468.5 202.5,468.5C 202.5,463.833 202.5,459.167 202.5,454.5C 203.485,458.634 203.818,462.968 203.5,467.5C 239.5,467.5 275.5,467.5 311.5,467.5C 311.5,462.5 311.5,457.5 311.5,452.5 Z"/></g>
</svg>
