<?xml version="1.0" encoding="UTF-8"?>
<!DOCTYPE svg PUBLIC "-//W3C//DTD SVG 1.1//EN" "http://www.w3.org/Graphics/SVG/1.1/DTD/svg11.dtd">
<svg xmlns="http://www.w3.org/2000/svg" version="1.1" width="500px" height="500px" style="shape-rendering:geometricPrecision; text-rendering:geometricPrecision; image-rendering:optimizeQuality; fill-rule:evenodd; clip-rule:evenodd" xmlns:xlink="http://www.w3.org/1999/xlink">
<g><path style="opacity:0.991" fill="#a91d1e" d="M 77.5,61.5 C 108.671,61.1685 139.671,61.5018 170.5,62.5C 159.986,62.1724 149.653,62.5058 139.5,63.5C 129.167,63.5 118.833,63.5 108.5,63.5C 98.5,63.5 88.5,63.5 78.5,63.5C 78.8195,68.3633 78.4861,73.03 77.5,77.5C 77.5,72.1667 77.5,66.8333 77.5,61.5 Z"/></g>
<g><path style="opacity:0.988" fill="#912b2c" d="M 296.5,61.5 C 332.864,61.1858 369.197,61.5192 405.5,62.5C 405.5,67.1667 405.5,71.8333 405.5,76.5C 404.515,72.3656 404.182,68.0323 404.5,63.5C 399.833,63.5 395.167,63.5 390.5,63.5C 359.5,63.5 328.5,63.5 297.5,63.5C 297.5,68.1667 297.5,72.8333 297.5,77.5C 297.167,77.5 296.833,77.5 296.5,77.5C 296.5,72.1667 296.5,66.8333 296.5,61.5 Z"/></g>
<g><path style="opacity:1" fill="#dd1515" d="M 108.5,63.5 C 118.833,63.5 129.167,63.5 139.5,63.5C 140.486,67.97 140.819,72.6367 140.5,77.5C 130.167,77.5 119.833,77.5 109.5,77.5C 109.167,77.5 108.833,77.5 108.5,77.5C 108.5,77.1667 108.5,76.8333 108.5,76.5C 108.5,72.1667 108.5,67.8333 108.5,63.5 Z"/></g>
<g><path style="opacity:1" fill="#c70101" d="M 139.5,63.5 C 149.653,62.5058 159.986,62.1724 170.5,62.5C 170.833,62.5 171.167,62.5 171.5,62.5C 171.5,67.5 171.5,72.5 171.5,77.5C 161.167,77.5 150.833,77.5 140.5,77.5C 140.819,72.6367 140.486,67.97 139.5,63.5 Z"/></g>
<g><path style="opacity:1" fill="#b12021" d="M 171.5,62.5 C 176.5,62.5 181.5,62.5 186.5,62.5C 186.5,67.5 186.5,72.5 186.5,77.5C 181.5,77.5 176.5,77.5 171.5,77.5C 171.5,72.5 171.5,67.5 171.5,62.5 Z"/></g>
<g><path style="opacity:0.49" fill="#380f0a" d="M 77.5,61.5 C 114.167,60.1667 150.833,60.1667 187.5,61.5C 187.5,66.8333 187.5,72.1667 187.5,77.5C 187.167,77.5 186.833,77.5 186.5,77.5C 186.5,72.5 186.5,67.5 186.5,62.5C 181.5,62.5 176.5,62.5 171.5,62.5C 171.167,62.5 170.833,62.5 170.5,62.5C 139.671,61.5018 108.671,61.1685 77.5,61.5 Z"/></g>
<g><path style="opacity:1" fill="#bb2d2d" d="M 390.5,63.5 C 390.5,67.5 390.5,71.5 390.5,75.5C 360.676,76.1012 331.009,76.7679 301.5,77.5C 300.167,77.5 298.833,77.5 297.5,77.5C 297.5,72.8333 297.5,68.1667 297.5,63.5C 328.5,63.5 359.5,63.5 390.5,63.5 Z"/></g>
<g><path style="opacity:0.272" fill="#200503" d="M 296.5,61.5 C 332.664,60.3356 368.998,60.169 405.5,61C 406.471,66.0717 406.805,71.2384 406.5,76.5C 411.695,76.1795 416.695,76.5128 421.5,77.5C 416.167,77.5 410.833,77.5 405.5,77.5C 405.5,77.1667 405.5,76.8333 405.5,76.5C 405.5,71.8333 405.5,67.1667 405.5,62.5C 369.197,61.5192 332.864,61.1858 296.5,61.5 Z"/></g>
<g><path style="opacity:0.048" fill="#290100" d="M 77.5,61.5 C 77.5,66.8333 77.5,72.1667 77.5,77.5C 72.1667,77.5 66.8333,77.5 61.5,77.5C 66.3054,76.5128 71.3054,76.1795 76.5,76.5C 76.1795,71.3054 76.5128,66.3054 77.5,61.5 Z"/></g>
<g><path style="opacity:0.057" fill="#1b0000" d="M 187.5,61.5 C 188.487,66.3054 188.821,71.3054 188.5,76.5C 193.695,76.1795 198.695,76.5128 203.5,77.5C 203.167,77.5 202.833,77.5 202.5,77.5C 197.5,77.5 192.5,77.5 187.5,77.5C 187.5,72.1667 187.5,66.8333 187.5,61.5 Z"/></g>
<g><path style="opacity:0.055" fill="#2a0100" d="M 296.5,61.5 C 296.5,66.8333 296.5,72.1667 296.5,77.5C 291.5,77.5 286.5,77.5 281.5,77.5C 281.167,77.5 280.833,77.5 280.5,77.5C 285.305,76.5128 290.305,76.1795 295.5,76.5C 295.179,71.3054 295.513,66.3054 296.5,61.5 Z"/></g>
<g><path style="opacity:0.835" fill="#af2b2e" d="M 61.5,77.5 C 66.8333,77.5 72.1667,77.5 77.5,77.5C 73.03,78.4861 68.3633,78.8195 63.5,78.5C 64.1083,83.9443 63.4417,88.9443 61.5,93.5C 61.5,88.1667 61.5,82.8333 61.5,77.5 Z"/></g>
<g><path style="opacity:1" fill="#fdfbf9" d="M 108.5,77.5 C 108.5,82.5 108.5,87.5 108.5,92.5C 103.5,92.5 98.5,92.5 93.5,92.5C 93.5,87.5 93.5,82.5 93.5,77.5C 98.5,77.5 103.5,77.5 108.5,77.5 Z"/></g>
<g><path style="opacity:1" fill="#e32626" d="M 109.5,77.5 C 119.833,77.5 130.167,77.5 140.5,77.5C 150.833,77.5 161.167,77.5 171.5,77.5C 176.5,77.5 181.5,77.5 186.5,77.5C 186.833,77.5 187.167,77.5 187.5,77.5C 187.5,77.8333 187.5,78.1667 187.5,78.5C 182.13,78.3921 176.797,78.7255 171.5,79.5C 171.5,84.1667 171.5,88.8333 171.5,93.5C 176.833,93.5 182.167,93.5 187.5,93.5C 192.167,93.5 196.833,93.5 201.5,93.5C 201.833,93.5 202.167,93.5 202.5,93.5C 202.5,98.5 202.5,103.5 202.5,108.5C 207.5,108.5 212.5,108.5 217.5,108.5C 217.328,109.492 217.662,110.158 218.5,110.5C 218.5,115.167 218.5,119.833 218.5,124.5C 223.167,124.5 227.833,124.5 232.5,124.5C 232.833,124.5 233.167,124.5 233.5,124.5C 233.5,129.833 233.5,135.167 233.5,140.5C 238.833,140.5 244.167,140.5 249.5,140.5C 249.5,135.5 249.5,130.5 249.5,125.5C 250.817,125.179 252.151,124.846 253.5,124.5C 257.577,126.384 261.911,127.384 266.5,127.5C 267.563,121.867 268.229,115.867 268.5,109.5C 271.187,109.336 273.854,109.503 276.5,110C 277.022,110.561 277.355,111.228 277.5,112C 276.833,113.333 276.167,114.667 275.5,116C 275.85,117.257 276.517,117.591 277.5,117C 279.402,115.229 281.235,113.395 283,111.5C 283.333,105.833 283.667,100.167 284,94.5C 288.066,93.5363 292.233,93.203 296.5,93.5C 296.5,88.5 296.5,83.5 296.5,78.5C 291.833,78.5 287.167,78.5 282.5,78.5C 282.821,83.6946 282.487,88.6946 281.5,93.5C 281.5,88.1667 281.5,82.8333 281.5,77.5C 286.5,77.5 291.5,77.5 296.5,77.5C 296.833,77.5 297.167,77.5 297.5,77.5C 298.833,77.5 300.167,77.5 301.5,77.5C 310.167,77.5 318.833,77.5 327.5,77.5C 327.5,82.5 327.5,87.5 327.5,92.5C 332.64,93.4881 337.974,93.8214 343.5,93.5C 343.5,98.5 343.5,103.5 343.5,108.5C 343.5,113.833 343.5,119.167 343.5,124.5C 348.5,124.5 353.5,124.5 358.5,124.5C 358.334,129.511 358.501,134.511 359,139.5C 364.072,140.471 369.238,140.805 374.5,140.5C 374.667,155.504 374.5,170.504 374,185.5C 369,186.167 364,186.833 359,187.5C 358.5,197.494 358.334,207.494 358.5,217.5C 353.463,217.413 348.463,217.746 343.5,218.5C 343.5,223.5 343.5,228.5 343.5,233.5C 338.167,233.5 332.833,233.5 327.5,233.5C 327.5,238.833 327.5,244.167 327.5,249.5C 322.125,249.172 316.792,249.505 311.5,250.5C 312.812,255.364 312.812,260.197 311.5,265C 306.581,265.802 301.748,265.635 297,264.5C 296.501,269.823 296.334,275.156 296.5,280.5C 291.167,280.5 285.833,280.5 280.5,280.5C 280.666,285.511 280.499,290.511 280,295.5C 275.263,296.469 270.43,296.803 265.5,296.5C 265.5,301.833 265.5,307.167 265.5,312.5C 259.364,312.641 253.531,312.308 248,311.5C 248.453,313.454 248.62,315.287 248.5,317C 247.887,319.147 247.221,321.314 246.5,323.5C 244.833,324.833 243.167,324.833 241.5,323.5C 240.692,323.808 240.025,324.308 239.5,325C 233.833,325.667 228.167,325.667 222.5,325C 221.245,321.002 219.912,317.002 218.5,313C 219.841,310.55 219.008,309.05 216,308.5C 213,308.833 210,309.167 207,309.5C 206.415,307.871 205.581,306.371 204.5,305C 205.993,301.972 205.326,299.472 202.5,297.5C 197.544,296.506 192.544,296.173 187.5,296.5C 187.666,291.489 187.499,286.489 187,281.5C 181.928,280.529 176.762,280.195 171.5,280.5C 171.827,275.786 171.493,271.12 170.5,266.5C 165.565,265.552 160.565,265.219 155.5,265.5C 155.5,260.167 155.5,254.833 155.5,249.5C 150.5,249.5 145.5,249.5 140.5,249.5C 140.666,244.489 140.499,239.489 140,234.5C 134.928,233.529 129.762,233.195 124.5,233.5C 124.5,228.5 124.5,223.5 124.5,218.5C 119.167,218.5 113.833,218.5 108.5,218.5C 108.5,213.167 108.5,207.833 108.5,202.5C 104.154,202.666 99.8206,202.499 95.5,202C 94.4946,197.372 94.1613,192.538 94.5,187.5C 92.7045,186.859 91.2045,185.859 90,184.5C 88.2859,185.925 86.9525,185.592 86,183.5C 85.6667,184.167 85.3333,184.833 85,185.5C 83.951,183.893 82.451,183.227 80.5,183.5C 80.3573,181.738 80.6906,180.071 81.5,178.5C 79.6128,176.112 78.9461,173.612 79.5,171C 78.6753,169.312 77.6753,169.145 76.5,170.5C 72.4562,169.582 68.4562,168.582 64.5,167.5C 64.5,165.5 64.5,163.5 64.5,161.5C 84.5,160.833 84.5,160.167 64.5,159.5C 64.7135,157.856 64.3802,156.356 63.5,155C 58.1771,154.501 52.8437,154.334 47.5,154.5C 47.4208,153.07 47.7542,151.736 48.5,150.5C 53.456,149.506 58.456,149.173 63.5,149.5C 63.5,148.167 63.5,146.833 63.5,145.5C 58.456,145.827 53.456,145.494 48.5,144.5C 48.8627,143.817 49.1961,143.15 49.5,142.5C 54.547,142.663 59.547,142.329 64.5,141.5C 64.5,136.5 64.5,131.5 64.5,126.5C 69.294,127.097 73.6273,126.43 77.5,124.5C 78.4861,120.03 78.8195,115.363 78.5,110.5C 83.6946,110.821 88.6946,110.487 93.5,109.5C 94.4872,104.695 94.8205,99.6946 94.5,94.5C 99.6946,94.8205 104.695,94.4872 109.5,93.5C 109.5,88.1667 109.5,82.8333 109.5,77.5 Z"/></g>
<g><path style="opacity:1" fill="#c50201" d="M 187.5,78.5 C 192.167,78.5 196.833,78.5 201.5,78.5C 201.5,83.5 201.5,88.5 201.5,93.5C 196.833,93.5 192.167,93.5 187.5,93.5C 187.5,88.5 187.5,83.5 187.5,78.5 Z"/></g>
<g><path style="opacity:1" fill="#b80808" d="M 327.5,77.5 C 348.836,77.3334 370.169,77.5 391.5,78C 390.529,83.0717 390.195,88.2384 390.5,93.5C 390.167,93.5 389.833,93.5 389.5,93.5C 368.919,91.2934 348.253,90.9601 327.5,92.5C 327.5,87.5 327.5,82.5 327.5,77.5 Z"/></g>
<g><path style="opacity:1" fill="#dd1414" d="M 187.5,78.5 C 187.5,83.5 187.5,88.5 187.5,93.5C 182.167,93.5 176.833,93.5 171.5,93.5C 171.5,88.8333 171.5,84.1667 171.5,79.5C 176.797,78.7255 182.13,78.3921 187.5,78.5 Z"/></g>
<g><path style="opacity:0.967" fill="#971615" d="M 187.5,78.5 C 187.5,78.1667 187.5,77.8333 187.5,77.5C 192.5,77.5 197.5,77.5 202.5,77.5C 202.5,82.8333 202.5,88.1667 202.5,93.5C 202.167,93.5 201.833,93.5 201.5,93.5C 201.5,88.5 201.5,83.5 201.5,78.5C 196.833,78.5 192.167,78.5 187.5,78.5 Z"/></g>
<g><path style="opacity:0.829" fill="#942c2c" d="M 405.5,77.5 C 410.833,77.5 416.167,77.5 421.5,77.5C 421.5,82.5 421.5,87.5 421.5,92.5C 420.809,88.1007 420.142,83.6007 419.5,79C 414.649,78.8255 409.982,78.3255 405.5,77.5 Z"/></g>
<g><path style="opacity:1" fill="#d45659" d="M 108.5,76.5 C 108.5,76.8333 108.5,77.1667 108.5,77.5C 103.5,77.5 98.5,77.5 93.5,77.5C 93.5,82.5 93.5,87.5 93.5,92.5C 93.5,92.8333 93.5,93.1667 93.5,93.5C 93.1667,93.5 92.8333,93.5 92.5,93.5C 87.5,93.5 82.5,93.5 77.5,93.5C 82.3054,92.5128 87.3054,92.1795 92.5,92.5C 92.5,87.1667 92.5,81.8333 92.5,76.5C 97.8333,76.5 103.167,76.5 108.5,76.5 Z"/></g>
<g><path style="opacity:1" fill="#efa8a5" d="M 108.5,77.5 C 108.833,77.5 109.167,77.5 109.5,77.5C 109.5,82.8333 109.5,88.1667 109.5,93.5C 104.167,93.5 98.8333,93.5 93.5,93.5C 93.5,93.1667 93.5,92.8333 93.5,92.5C 98.5,92.5 103.5,92.5 108.5,92.5C 108.5,87.5 108.5,82.5 108.5,77.5 Z"/></g>
<g><path style="opacity:0.304" fill="#3f0000" d="M 202.5,77.5 C 202.833,77.5 203.167,77.5 203.5,77.5C 203.5,82.5 203.5,87.5 203.5,92.5C 208.167,92.5 212.833,92.5 217.5,92.5C 217.5,92.8333 217.5,93.1667 217.5,93.5C 212.5,93.5 207.5,93.5 202.5,93.5C 202.5,88.1667 202.5,82.8333 202.5,77.5 Z"/></g>
<g><path style="opacity:0.3" fill="#310701" d="M 421.5,77.5 C 422.487,82.3054 422.821,87.3054 422.5,92.5C 427.695,92.1795 432.695,92.5128 437.5,93.5C 437.167,93.5 436.833,93.5 436.5,93.5C 431.305,93.8205 426.305,93.4872 421.5,92.5C 421.5,87.5 421.5,82.5 421.5,77.5 Z"/></g>
<g><path style="opacity:1" fill="#c83035" d="M 93.5,93.5 C 98.8333,93.5 104.167,93.5 109.5,93.5C 104.695,94.4872 99.6946,94.8205 94.5,94.5C 94.8205,99.6946 94.4872,104.695 93.5,109.5C 93.5,104.167 93.5,98.8333 93.5,93.5 Z"/></g>
<g><path style="opacity:0.977" fill="#b22222" d="M 280.5,77.5 C 280.833,77.5 281.167,77.5 281.5,77.5C 281.5,82.8333 281.5,88.1667 281.5,93.5C 276.695,94.4872 271.695,94.8205 266.5,94.5C 266.819,99.3633 266.486,104.03 265.5,108.5C 265.5,103.5 265.5,98.5 265.5,93.5C 270.5,93.5 275.5,93.5 280.5,93.5C 280.5,88.1667 280.5,82.8333 280.5,77.5 Z"/></g>
<g><path style="opacity:1" fill="#c70000" d="M 389.5,93.5 C 390.531,102.583 390.531,111.583 389.5,120.5C 391.071,125.361 394.238,126.695 399,124.5C 401.151,124.773 403.151,125.439 405,126.5C 405.483,135.177 405.317,143.677 404.5,152C 407.677,155.891 411.677,157.058 416.5,155.5C 418.029,155.529 419.196,156.196 420,157.5C 420.793,163.885 420.626,170.218 419.5,176.5C 423.064,185.605 420.064,188.605 410.5,185.5C 406.441,186.018 404.441,188.352 404.5,192.5C 406.015,195.737 405.681,198.737 403.5,201.5C 399.235,202.439 394.902,202.772 390.5,202.5C 390.5,181.833 390.5,161.167 390.5,140.5C 385.167,140.5 379.833,140.5 374.5,140.5C 374.5,135.167 374.5,129.833 374.5,124.5C 369.167,124.5 363.833,124.5 358.5,124.5C 358.5,119.167 358.5,113.833 358.5,108.5C 353.5,108.5 348.5,108.5 343.5,108.5C 343.5,103.5 343.5,98.5 343.5,93.5C 337.974,93.8214 332.64,93.4881 327.5,92.5C 348.253,90.9601 368.919,91.2934 389.5,93.5 Z"/></g>
<g><path style="opacity:1" fill="#b80807" d="M 390.5,93.5 C 394.167,93.5 397.833,93.5 401.5,93.5C 401.783,94.2891 402.283,94.9558 403,95.5C 403.306,99.336 403.472,103.003 403.5,106.5C 406.419,110.452 410.085,112.452 414.5,112.5C 412.162,110.951 412.662,109.951 416,109.5C 419.533,112.645 420.033,116.312 417.5,120.5C 420.996,126.264 422.496,132.598 422,139.5C 426.737,140.469 431.57,140.803 436.5,140.5C 436.051,146.352 436.551,152.019 438,157.5C 442.763,156.606 447.597,155.939 452.5,155.5C 452.833,155.5 453.167,155.5 453.5,155.5C 452.682,170.759 452.182,186.093 452,201.5C 446.928,202.471 441.762,202.805 436.5,202.5C 437.666,207.497 437.666,212.497 436.5,217.5C 431.887,218.279 427.22,218.779 422.5,219C 421.833,223.667 421.167,228.333 420.5,233C 415.816,233.435 411.149,233.935 406.5,234.5C 406.5,239.167 406.5,243.833 406.5,248.5C 401.994,249.94 397.327,250.774 392.5,251C 397.508,251.869 397.175,252.536 391.5,253C 392.167,253.333 392.833,253.667 393.5,254C 392.422,254.674 391.755,255.674 391.5,257C 392.146,260.024 392.146,262.857 391.5,265.5C 390.833,265.5 390.5,265.833 390.5,266.5C 385.584,265.389 380.584,265.222 375.5,266C 374.531,270.737 374.197,275.57 374.5,280.5C 369.238,280.805 364.072,280.471 359,279.5C 358.899,284.946 358.232,290.279 357,295.5C 352.586,296.303 348.086,296.803 343.5,297C 342.541,298.707 341.875,300.541 341.5,302.5C 342.71,305.193 342.71,307.859 341.5,310.5C 336.88,311.493 332.214,311.827 327.5,311.5C 327.5,316.833 327.5,322.167 327.5,327.5C 322.167,327.5 316.833,327.5 311.5,327.5C 311.666,332.179 311.499,336.845 311,341.5C 306.459,340.975 301.959,341.641 297.5,343.5C 296.672,348.132 296.172,352.798 296,357.5C 290.887,358.303 285.72,358.969 280.5,359.5C 280.5,364.5 280.5,369.5 280.5,374.5C 267.001,371.659 262.334,376.659 266.5,389.5C 266.167,390.167 265.833,390.833 265.5,391.5C 260.584,390.389 255.584,390.222 250.5,391C 249.92,396.195 249.087,401.362 248,406.5C 244.255,405.703 240.421,405.203 236.5,405C 236,404.5 235.5,404 235,403.5C 234.803,398.914 234.303,394.414 233.5,390C 228.582,389.805 223.749,389.305 219,388.5C 218.501,383.845 218.334,379.179 218.5,374.5C 213.489,374.666 208.489,374.499 203.5,374C 202.833,372.667 202.167,371.333 201.5,370C 202.46,366.27 202.793,362.437 202.5,358.5C 197.453,358.663 192.453,358.329 187.5,357.5C 187.5,352.833 187.5,348.167 187.5,343.5C 182.167,343.5 176.833,343.5 171.5,343.5C 171.5,338.167 171.5,332.833 171.5,327.5C 166.767,327.777 162.1,327.443 157.5,326.5C 156.668,321.508 156.001,316.508 155.5,311.5C 150.5,311.5 145.5,311.5 140.5,311.5C 140.5,306.5 140.5,301.5 140.5,296.5C 135.489,296.666 130.489,296.499 125.5,296C 124.695,291.251 124.195,286.418 124,281.5C 119.333,280.833 114.667,280.167 110,279.5C 109.779,274.78 109.279,270.113 108.5,265.5C 107.009,264.756 105.509,264.09 104,263.5C 100.667,264.833 97.3333,264.833 94,263.5C 93.5008,258.845 93.3342,254.179 93.5,249.5C 88.4351,249.781 83.4351,249.448 78.5,248.5C 77.9778,243.392 77.6445,238.392 77.5,233.5C 72.8215,233.666 68.1548,233.499 63.5,233C 62.5308,228.263 62.1975,223.43 62.5,218.5C 68.4095,216.186 73.5761,217.186 78,221.5C 78.074,225.701 78.9073,229.701 80.5,233.5C 83.1667,234.833 85.8333,234.833 88.5,233.5C 91.3017,234.469 93.3017,236.302 94.5,239C 91.9023,244.85 93.7357,248.35 100,249.5C 102.868,247.575 105.535,247.575 108,249.5C 108.333,253.167 108.667,256.833 109,260.5C 109.635,261.966 110.469,263.3 111.5,264.5C 115.47,265.196 119.47,265.363 123.5,265C 124.946,268.64 125.279,272.307 124.5,276C 125.257,277.512 126.257,278.846 127.5,280C 131.421,280.203 135.255,280.703 139,281.5C 139.638,282.609 140.138,283.775 140.5,285C 138.877,288.616 139.21,291.95 141.5,295C 145.831,296.467 150.164,296.967 154.5,296.5C 155.327,300.459 155.827,304.459 156,308.5C 157.171,310.616 158.671,311.282 160.5,310.5C 163.833,311.167 167.167,311.833 170.5,312.5C 171.222,316.847 171.888,321.18 172.5,325.5C 173.025,326.192 173.692,326.692 174.5,327C 178.167,327.333 181.833,327.667 185.5,328C 186.5,329 187.5,330 188.5,331C 186.621,334.738 186.788,338.571 189,342.5C 193.198,342.471 197.365,342.971 201.5,344C 202.357,344.689 203.023,345.522 203.5,346.5C 202.704,349.269 202.371,351.936 202.5,354.5C 202.977,355.931 203.643,357.264 204.5,358.5C 208.803,358.099 213.136,358.599 217.5,360C 218.357,360.689 219.023,361.522 219.5,362.5C 217.82,366.947 218.654,370.947 222,374.5C 232.59,372.098 236.756,375.931 234.5,386C 235.101,387.605 236.101,388.938 237.5,390C 239.966,389.93 242.3,390.096 244.5,390.5C 246.107,390.363 247.441,389.696 248.5,388.5C 249.142,383.635 249.808,378.801 250.5,374C 254.048,372.238 257.381,372.738 260.5,375.5C 262.499,374.492 264.166,373.159 265.5,371.5C 266.329,364.679 266.829,357.679 267,350.5C 267.44,348.924 268.273,347.59 269.5,346.5C 278.195,345.144 286.862,344.811 295.5,345.5C 296.014,343.302 297.014,341.302 298.5,339.5C 296.978,331.09 297.311,322.757 299.5,314.5C 302.443,312.237 305.276,312.237 308,314.5C 310.833,313 313,310.833 314.5,308C 312.078,305.888 312.078,303.888 314.5,302C 314.043,301.586 313.709,301.086 313.5,300.5C 315.246,299.605 317.08,298.938 319,298.5C 324.48,300.393 328.314,298.559 330.5,293C 328.696,289.704 328.196,286.204 329,282.5C 333.465,281.496 337.965,281.329 342.5,282C 344.213,280.622 345.547,278.955 346.5,277C 344.061,273.56 344.061,270.227 346.5,267C 350.5,266.667 354.5,266.333 358.5,266C 360.15,262.06 360.983,257.893 361,253.5C 361.5,253 362,252.5 362.5,252C 366.116,250.634 369.45,250.8 372.5,252.5C 373.478,252.023 374.311,251.357 375,250.5C 375.221,245.78 375.721,241.113 376.5,236.5C 381.161,236.172 385.828,235.838 390.5,235.5C 391.144,225.53 391.81,215.53 392.5,205.5C 395.5,204.167 398.5,204.167 401.5,205.5C 407.229,202.758 408.896,198.425 406.5,192.5C 406.977,191.069 407.643,189.736 408.5,188.5C 411.636,187.324 414.803,187.324 418,188.5C 425.3,187.249 426.966,183.582 423,177.5C 422.207,171.115 422.374,164.782 423.5,158.5C 422.352,156.851 421.019,155.351 419.5,154C 415.599,154.354 411.766,154.187 408,153.5C 407.744,150.443 407.244,147.443 406.5,144.5C 407.626,138.218 407.793,131.885 407,125.5C 403.409,122.568 399.409,121.901 395,123.5C 393.739,123.241 392.739,122.574 392,121.5C 391.807,112.09 391.307,102.756 390.5,93.5 Z"/></g>
<g><path style="opacity:1" fill="#fdfbf9" d="M 77.5,93.5 C 82.5,93.5 87.5,93.5 92.5,93.5C 92.5,98.5 92.5,103.5 92.5,108.5C 87.5,108.5 82.5,108.5 77.5,108.5C 77.5,103.5 77.5,98.5 77.5,93.5 Z"/></g>
<g><path style="opacity:1" fill="#c60102" d="M 202.5,93.5 C 207.5,93.5 212.5,93.5 217.5,93.5C 217.5,98.5 217.5,103.5 217.5,108.5C 212.5,108.5 207.5,108.5 202.5,108.5C 202.5,103.5 202.5,98.5 202.5,93.5 Z"/></g>
<g><path style="opacity:0.42" fill="#3c0603" d="M 280.5,77.5 C 280.5,82.8333 280.5,88.1667 280.5,93.5C 275.5,93.5 270.5,93.5 265.5,93.5C 265.5,98.5 265.5,103.5 265.5,108.5C 260.305,108.821 255.305,108.487 250.5,107.5C 255.167,107.5 259.833,107.5 264.5,107.5C 264.5,102.5 264.5,97.5 264.5,92.5C 269.5,92.5 274.5,92.5 279.5,92.5C 279.179,87.3054 279.513,82.3054 280.5,77.5 Z"/></g>
<g><path style="opacity:0.031" fill="#240000" d="M 217.5,93.5 C 217.5,93.1667 217.5,92.8333 217.5,92.5C 219.442,97.0557 220.108,102.056 219.5,107.5C 224.944,106.892 229.944,107.558 234.5,109.5C 234.167,109.5 233.833,109.5 233.5,109.5C 228.695,108.513 223.695,108.179 218.5,108.5C 218.821,103.305 218.487,98.3054 217.5,93.5 Z"/></g>
<g><path style="opacity:1" fill="#e01b1b" d="M 249.5,125.5 C 249.5,125.167 249.5,124.833 249.5,124.5C 250.486,120.03 250.819,115.363 250.5,110.5C 255.695,110.821 260.695,110.487 265.5,109.5C 265.5,109.167 265.5,108.833 265.5,108.5C 266.486,104.03 266.819,99.3633 266.5,94.5C 271.695,94.8205 276.695,94.4872 281.5,93.5C 282.487,88.6946 282.821,83.6946 282.5,78.5C 287.167,78.5 291.833,78.5 296.5,78.5C 296.5,83.5 296.5,88.5 296.5,93.5C 292.233,93.203 288.066,93.5363 284,94.5C 283.667,100.167 283.333,105.833 283,111.5C 281.235,113.395 279.402,115.229 277.5,117C 276.517,117.591 275.85,117.257 275.5,116C 276.167,114.667 276.833,113.333 277.5,112C 277.355,111.228 277.022,110.561 276.5,110C 273.854,109.503 271.187,109.336 268.5,109.5C 268.229,115.867 267.563,121.867 266.5,127.5C 261.911,127.384 257.577,126.384 253.5,124.5C 252.151,124.846 250.817,125.179 249.5,125.5 Z"/></g>
<g><path style="opacity:0.18" fill="#2c0501" d="M 61.5,77.5 C 61.5,82.8333 61.5,88.1667 61.5,93.5C 56.8333,93.5 52.1667,93.5 47.5,93.5C 46.5128,98.3054 46.1795,103.305 46.5,108.5C 41.1667,108.5 35.8333,108.5 30.5,108.5C 35.3054,107.513 40.3054,107.179 45.5,107.5C 45.5,102.5 45.5,97.5 45.5,92.5C 50.5,92.5 55.5,92.5 60.5,92.5C 60.1795,87.3054 60.5128,82.3054 61.5,77.5 Z"/></g>
<g><path style="opacity:1" fill="#e12727" d="M 108.5,63.5 C 108.5,67.8333 108.5,72.1667 108.5,76.5C 103.167,76.5 97.8333,76.5 92.5,76.5C 92.5,81.8333 92.5,87.1667 92.5,92.5C 87.3054,92.1795 82.3054,92.5128 77.5,93.5C 76.5139,97.97 76.1805,102.637 76.5,107.5C 71.3054,107.179 66.3054,107.513 61.5,108.5C 61.1667,108.5 60.8333,108.5 60.5,108.5C 62.2789,106.656 64.6122,105.99 67.5,106.5C 68.1059,103.084 67.1059,100.418 64.5,98.5C 63.6143,99.325 63.281,100.325 63.5,101.5C 61.0052,100.801 58.6719,99.8011 56.5,98.5C 57.0443,103.508 57.3776,108.508 57.5,113.5C 55.4004,113.523 53.5671,112.856 52,111.5C 49.6587,112.007 49.1587,113.174 50.5,115C 49.8095,116.067 49.3095,117.234 49,118.5C 48.6667,117.5 48.3333,116.5 48,115.5C 45.9656,116.862 43.7989,117.862 41.5,118.5C 42.6392,115.996 43.3059,113.33 43.5,110.5C 39.8333,110.5 36.1667,110.5 32.5,110.5C 32.8182,115.032 32.4849,119.366 31.5,123.5C 31.5,118.833 31.5,114.167 31.5,109.5C 36.8333,109.5 42.1667,109.5 47.5,109.5C 47.5,104.167 47.5,98.8333 47.5,93.5C 52.1667,93.5 56.8333,93.5 61.5,93.5C 63.4417,88.9443 64.1083,83.9443 63.5,78.5C 68.3633,78.8195 73.03,78.4861 77.5,77.5C 78.4861,73.03 78.8195,68.3633 78.5,63.5C 88.5,63.5 98.5,63.5 108.5,63.5 Z"/></g>
<g><path style="opacity:1" fill="#bd3535" d="M 77.5,93.5 C 77.5,98.5 77.5,103.5 77.5,108.5C 72.1667,108.5 66.8333,108.5 61.5,108.5C 66.3054,107.513 71.3054,107.179 76.5,107.5C 76.1805,102.637 76.5139,97.97 77.5,93.5 Z"/></g>
<g><path style="opacity:0.641" fill="#7f1a17" d="M 250.5,107.5 C 255.305,108.487 260.305,108.821 265.5,108.5C 265.5,108.833 265.5,109.167 265.5,109.5C 260.167,109.5 254.833,109.5 249.5,109.5C 249.5,109.167 249.5,108.833 249.5,108.5C 249.5,107.833 249.833,107.5 250.5,107.5 Z"/></g>
<g><path style="opacity:0.596" fill="#481513" d="M 436.5,93.5 C 436.833,93.5 437.167,93.5 437.5,93.5C 438.486,97.97 438.819,102.637 438.5,107.5C 439.833,107.5 441.167,107.5 442.5,107.5C 445.833,108.167 449.167,108.833 452.5,109.5C 447.5,109.5 442.5,109.5 437.5,109.5C 436.551,104.26 436.218,98.9265 436.5,93.5 Z"/></g>
<g><path style="opacity:1" fill="#dd1414" d="M 343.5,108.5 C 348.5,108.5 353.5,108.5 358.5,108.5C 358.5,113.833 358.5,119.167 358.5,124.5C 353.5,124.5 348.5,124.5 343.5,124.5C 343.5,119.167 343.5,113.833 343.5,108.5 Z"/></g>
<g><path style="opacity:1" fill="#ab0504" d="M 401.5,93.5 C 402.833,93.5 404.167,93.5 405.5,93.5C 405.503,98.5275 405.836,103.527 406.5,108.5C 411.511,108.334 416.511,108.501 421.5,109C 421.336,113.726 421.669,118.559 422.5,123.5C 427.1,124.443 431.767,124.777 436.5,124.5C 436.334,129.511 436.501,134.511 437,139.5C 442.072,140.471 447.238,140.805 452.5,140.5C 452.5,145.5 452.5,150.5 452.5,155.5C 447.597,155.939 442.763,156.606 438,157.5C 436.551,152.019 436.051,146.352 436.5,140.5C 431.57,140.803 426.737,140.469 422,139.5C 422.496,132.598 420.996,126.264 417.5,120.5C 420.033,116.312 419.533,112.645 416,109.5C 412.662,109.951 412.162,110.951 414.5,112.5C 410.085,112.452 406.419,110.452 403.5,106.5C 403.472,103.003 403.306,99.336 403,95.5C 402.283,94.9558 401.783,94.2891 401.5,93.5 Z"/></g>
<g><path style="opacity:1" fill="#fdfaf8" d="M 77.5,109.5 C 77.5,114.5 77.5,119.5 77.5,124.5C 72.5,124.5 67.5,124.5 62.5,124.5C 62.5,119.5 62.5,114.5 62.5,109.5C 67.5,109.5 72.5,109.5 77.5,109.5 Z"/></g>
<g><path style="opacity:1" fill="#c80102" d="M 218.5,110.5 C 223.167,110.5 227.833,110.5 232.5,110.5C 232.5,115.167 232.5,119.833 232.5,124.5C 232.5,119.833 232.5,115.167 232.5,110.5C 227.833,110.5 223.167,110.5 218.5,110.5 Z"/></g>
<g><path style="opacity:1" fill="#fdf9f8" d="M 296.5,109.5 C 301.5,109.5 306.5,109.5 311.5,109.5C 311.5,114.5 311.5,119.5 311.5,124.5C 306.5,124.5 301.5,124.5 296.5,124.5C 296.5,119.5 296.5,114.5 296.5,109.5 Z"/></g>
<g><path style="opacity:0.77" fill="#942e31" d="M 47.5,93.5 C 47.5,98.8333 47.5,104.167 47.5,109.5C 42.1667,109.5 36.8333,109.5 31.5,109.5C 31.5,114.167 31.5,118.833 31.5,123.5C 31.5,124.167 31.1667,124.5 30.5,124.5C 30.5,119.167 30.5,113.833 30.5,108.5C 35.8333,108.5 41.1667,108.5 46.5,108.5C 46.1795,103.305 46.5128,98.3054 47.5,93.5 Z"/></g>
<g><path style="opacity:1" fill="#c53335" d="M 77.5,109.5 C 82.8333,109.5 88.1667,109.5 93.5,109.5C 88.6946,110.487 83.6946,110.821 78.5,110.5C 78.8195,115.363 78.4861,120.03 77.5,124.5C 77.5,119.5 77.5,114.5 77.5,109.5 Z"/></g>
<g><path style="opacity:0.405" fill="#3c0300" d="M 249.5,108.5 C 249.5,108.833 249.5,109.167 249.5,109.5C 249.5,114.5 249.5,119.5 249.5,124.5C 244.167,124.5 238.833,124.5 233.5,124.5C 233.5,119.5 233.5,114.5 233.5,109.5C 233.833,109.5 234.167,109.5 234.5,109.5C 234.5,114.167 234.5,118.833 234.5,123.5C 239.167,123.5 243.833,123.5 248.5,123.5C 248.179,118.305 248.513,113.305 249.5,108.5 Z"/></g>
<g><path style="opacity:1" fill="#f09c9a" d="M 92.5,93.5 C 92.8333,93.5 93.1667,93.5 93.5,93.5C 93.5,98.8333 93.5,104.167 93.5,109.5C 88.1667,109.5 82.8333,109.5 77.5,109.5C 72.5,109.5 67.5,109.5 62.5,109.5C 62.5,114.5 62.5,119.5 62.5,124.5C 62.5,129.833 62.5,135.167 62.5,140.5C 56.9738,140.821 51.6405,140.488 46.5,139.5C 51.5,139.5 56.5,139.5 61.5,139.5C 61.5,134.5 61.5,129.5 61.5,124.5C 61.5,119.167 61.5,113.833 61.5,108.5C 66.8333,108.5 72.1667,108.5 77.5,108.5C 82.5,108.5 87.5,108.5 92.5,108.5C 92.5,103.5 92.5,98.5 92.5,93.5 Z"/></g>
<g><path style="opacity:1" fill="#e32423" d="M 60.5,108.5 C 60.5,113.167 60.5,117.833 60.5,122.5C 54.9066,122.193 49.4066,122.527 44,123.5C 44.0473,129.188 44.5473,134.854 45.5,140.5C 44.0337,139.653 43.2004,138.32 43,136.5C 42.5848,138.291 41.5848,139.624 40,140.5C 36.9531,140.071 33.7864,140.071 30.5,140.5C 25.8333,140.5 21.1667,140.5 16.5,140.5C 16.5,135.5 16.5,130.5 16.5,125.5C 21.3633,125.819 26.03,125.486 30.5,124.5C 31.1667,124.5 31.5,124.167 31.5,123.5C 32.4849,119.366 32.8182,115.032 32.5,110.5C 36.1667,110.5 39.8333,110.5 43.5,110.5C 43.3059,113.33 42.6392,115.996 41.5,118.5C 43.7989,117.862 45.9656,116.862 48,115.5C 48.3333,116.5 48.6667,117.5 49,118.5C 49.3095,117.234 49.8095,116.067 50.5,115C 49.1587,113.174 49.6587,112.007 52,111.5C 53.5671,112.856 55.4004,113.523 57.5,113.5C 57.3776,108.508 57.0443,103.508 56.5,98.5C 58.6719,99.8011 61.0052,100.801 63.5,101.5C 63.281,100.325 63.6143,99.325 64.5,98.5C 67.1059,100.418 68.1059,103.084 67.5,106.5C 64.6122,105.99 62.2789,106.656 60.5,108.5 Z"/></g>
<g><path style="opacity:0.984" fill="#960f0d" d="M 217.5,93.5 C 218.487,98.3054 218.821,103.305 218.5,108.5C 223.695,108.179 228.695,108.513 233.5,109.5C 233.5,114.5 233.5,119.5 233.5,124.5C 233.167,124.5 232.833,124.5 232.5,124.5C 232.5,119.833 232.5,115.167 232.5,110.5C 227.833,110.5 223.167,110.5 218.5,110.5C 217.662,110.158 217.328,109.492 217.5,108.5C 217.5,103.5 217.5,98.5 217.5,93.5 Z"/></g>
<g><path style="opacity:1" fill="#f89795" d="M 296.5,109.5 C 296.5,109.167 296.5,108.833 296.5,108.5C 301.833,108.5 307.167,108.5 312.5,108.5C 312.821,114.026 312.488,119.36 311.5,124.5C 311.5,119.5 311.5,114.5 311.5,109.5C 306.5,109.5 301.5,109.5 296.5,109.5 Z"/></g>
<g><path style="opacity:0.158" fill="#290100" d="M 442.5,107.5 C 446.167,107.5 449.833,107.5 453.5,107.5C 453.5,112.833 453.5,118.167 453.5,123.5C 458.695,123.179 463.695,123.513 468.5,124.5C 463.5,124.5 458.5,124.5 453.5,124.5C 452.513,119.695 452.179,114.695 452.5,109.5C 449.167,108.833 445.833,108.167 442.5,107.5 Z"/></g>
<g><path style="opacity:1" fill="#af3c3f" d="M 296.5,108.5 C 296.5,108.833 296.5,109.167 296.5,109.5C 296.5,114.5 296.5,119.5 296.5,124.5C 291.5,124.5 286.5,124.5 281.5,124.5C 285.97,123.514 290.637,123.181 295.5,123.5C 295.179,118.305 295.513,113.305 296.5,108.5 Z"/></g>
<g><path style="opacity:0.984" fill="#bf2325" d="M 249.5,109.5 C 254.833,109.5 260.167,109.5 265.5,109.5C 260.695,110.487 255.695,110.821 250.5,110.5C 250.819,115.363 250.486,120.03 249.5,124.5C 249.5,119.5 249.5,114.5 249.5,109.5 Z"/></g>
<g><path style="opacity:1" fill="#be0504" d="M 389.5,93.5 C 389.833,93.5 390.167,93.5 390.5,93.5C 391.307,102.756 391.807,112.09 392,121.5C 392.739,122.574 393.739,123.241 395,123.5C 399.409,121.901 403.409,122.568 407,125.5C 407.793,131.885 407.626,138.218 406.5,144.5C 407.244,147.443 407.744,150.443 408,153.5C 411.766,154.187 415.599,154.354 419.5,154C 421.019,155.351 422.352,156.851 423.5,158.5C 422.374,164.782 422.207,171.115 423,177.5C 426.966,183.582 425.3,187.249 418,188.5C 414.803,187.324 411.636,187.324 408.5,188.5C 407.643,189.736 406.977,191.069 406.5,192.5C 408.896,198.425 407.229,202.758 401.5,205.5C 398.5,204.167 395.5,204.167 392.5,205.5C 391.81,215.53 391.144,225.53 390.5,235.5C 385.828,235.838 381.161,236.172 376.5,236.5C 375.721,241.113 375.221,245.78 375,250.5C 374.311,251.357 373.478,252.023 372.5,252.5C 369.45,250.8 366.116,250.634 362.5,252C 362,252.5 361.5,253 361,253.5C 360.983,257.893 360.15,262.06 358.5,266C 354.5,266.333 350.5,266.667 346.5,267C 344.061,270.227 344.061,273.56 346.5,277C 345.547,278.955 344.213,280.622 342.5,282C 337.965,281.329 333.465,281.496 329,282.5C 328.196,286.204 328.696,289.704 330.5,293C 328.314,298.559 324.48,300.393 319,298.5C 317.08,298.938 315.246,299.605 313.5,300.5C 313.709,301.086 314.043,301.586 314.5,302C 312.078,303.888 312.078,305.888 314.5,308C 313,310.833 310.833,313 308,314.5C 305.276,312.237 302.443,312.237 299.5,314.5C 297.311,322.757 296.978,331.09 298.5,339.5C 297.014,341.302 296.014,343.302 295.5,345.5C 286.862,344.811 278.195,345.144 269.5,346.5C 268.273,347.59 267.44,348.924 267,350.5C 266.829,357.679 266.329,364.679 265.5,371.5C 265.657,362.907 265.49,354.24 265,345.5C 266.684,343.934 268.684,342.934 271,342.5C 277.872,343.323 284.705,343.656 291.5,343.5C 292.748,342.96 293.915,342.293 295,341.5C 295.416,331.341 295.916,321.341 296.5,311.5C 297.825,312.953 298.658,312.619 299,310.5C 309.283,313.907 313.617,309.907 312,298.5C 313,297.5 314,296.5 315,295.5C 316.819,295.925 318.986,296.258 321.5,296.5C 323.693,296.674 325.527,296.007 327,294.5C 327.14,291.099 326.973,287.933 326.5,285C 327.167,283.667 327.833,282.333 328.5,281C 332.833,280.667 337.167,280.333 341.5,280C 342.43,278.806 343.097,277.473 343.5,276C 341.799,271.869 342.466,268.202 345.5,265C 347.834,264.661 350.168,264.828 352.5,265.5C 354.535,264.796 356.535,264.129 358.5,263.5C 359.305,259.026 359.305,255.192 358.5,252C 360.421,248.731 363.088,247.897 366.5,249.5C 373.839,249.328 376.173,245.828 373.5,239C 373.755,237.674 374.422,236.674 375.5,236C 375.167,235.667 374.833,235.333 374.5,235C 375.966,234.365 377.3,233.531 378.5,232.5C 379.328,233.415 380.328,234.081 381.5,234.5C 384.145,233.892 386.812,233.392 389.5,233C 389.167,232.667 388.833,232.333 388.5,232C 389.796,228.091 390.463,223.925 390.5,219.5C 390.02,213.741 390.02,208.075 390.5,202.5C 394.902,202.772 399.235,202.439 403.5,201.5C 405.681,198.737 406.015,195.737 404.5,192.5C 404.441,188.352 406.441,186.018 410.5,185.5C 420.064,188.605 423.064,185.605 419.5,176.5C 420.626,170.218 420.793,163.885 420,157.5C 419.196,156.196 418.029,155.529 416.5,155.5C 411.677,157.058 407.677,155.891 404.5,152C 405.317,143.677 405.483,135.177 405,126.5C 403.151,125.439 401.151,124.773 399,124.5C 394.238,126.695 391.071,125.361 389.5,120.5C 390.531,111.583 390.531,102.583 389.5,93.5 Z"/></g>
<g><path style="opacity:0.058" fill="#2d0200" d="M 30.5,108.5 C 30.5,113.833 30.5,119.167 30.5,124.5C 25.0557,123.892 20.0557,124.558 15.5,126.5C 15.1667,126.5 14.8333,126.5 14.5,126.5C 14.5,125.5 14.5,124.5 14.5,123.5C 19.5,123.5 24.5,123.5 29.5,123.5C 29.1795,118.305 29.5128,113.305 30.5,108.5 Z"/></g>
<g><path style="opacity:1" fill="#b03c3c" d="M 296.5,124.5 C 301.5,124.5 306.5,124.5 311.5,124.5C 307.03,125.486 302.363,125.819 297.5,125.5C 297.819,130.363 297.486,135.03 296.5,139.5C 296.5,134.5 296.5,129.5 296.5,124.5 Z"/></g>
<g><path style="opacity:1" fill="#de1515" d="M 358.5,124.5 C 363.833,124.5 369.167,124.5 374.5,124.5C 374.5,129.833 374.5,135.167 374.5,140.5C 369.238,140.805 364.072,140.471 359,139.5C 358.501,134.511 358.334,129.511 358.5,124.5 Z"/></g>
<g><path style="opacity:1" fill="#a22728" d="M 437.5,109.5 C 442.5,109.5 447.5,109.5 452.5,109.5C 452.179,114.695 452.513,119.695 453.5,124.5C 457.97,125.486 462.637,125.819 467.5,125.5C 467.5,130.167 467.5,134.833 467.5,139.5C 466.515,135.366 466.182,131.032 466.5,126.5C 462.278,126.263 458.111,126.596 454,127.5C 452.523,126.556 451.523,125.223 451,123.5C 450.667,119.5 450.333,115.5 450,111.5C 445.732,110.86 441.565,110.193 437.5,109.5 Z"/></g>
<g><path style="opacity:1" fill="#c40405" d="M 233.5,124.5 C 238.833,124.5 244.167,124.5 249.5,124.5C 249.5,124.833 249.5,125.167 249.5,125.5C 249.5,130.5 249.5,135.5 249.5,140.5C 244.167,140.5 238.833,140.5 233.5,140.5C 233.5,135.167 233.5,129.833 233.5,124.5 Z"/></g>
<g><path style="opacity:1" fill="#fefaf9" d="M 281.5,124.5 C 286.5,124.5 291.5,124.5 296.5,124.5C 296.5,129.5 296.5,134.5 296.5,139.5C 291.5,139.5 286.5,139.5 281.5,139.5C 281.5,134.5 281.5,129.5 281.5,124.5 Z"/></g>
<g><path style="opacity:0.711" fill="#772829" d="M 453.5,124.5 C 458.5,124.5 463.5,124.5 468.5,124.5C 468.5,129.5 468.5,134.5 468.5,139.5C 468.167,139.5 467.833,139.5 467.5,139.5C 467.5,134.833 467.5,130.167 467.5,125.5C 462.637,125.819 457.97,125.486 453.5,124.5 Z"/></g>
<g><path style="opacity:1" fill="#cc3030" d="M 60.5,108.5 C 60.8333,108.5 61.1667,108.5 61.5,108.5C 61.5,113.833 61.5,119.167 61.5,124.5C 56.5,124.5 51.5,124.5 46.5,124.5C 46.5,129.5 46.5,134.5 46.5,139.5C 51.6405,140.488 56.9738,140.821 62.5,140.5C 62.5,135.167 62.5,129.833 62.5,124.5C 67.5,124.5 72.5,124.5 77.5,124.5C 73.6273,126.43 69.294,127.097 64.5,126.5C 64.5,131.5 64.5,136.5 64.5,141.5C 59.547,142.329 54.547,142.663 49.5,142.5C 48.0357,143.405 46.7024,143.405 45.5,142.5C 45.5,141.833 45.5,141.167 45.5,140.5C 44.5473,134.854 44.0473,129.188 44,123.5C 49.4066,122.527 54.9066,122.193 60.5,122.5C 60.5,117.833 60.5,113.167 60.5,108.5 Z"/></g>
<g><path style="opacity:1" fill="#fef9f8" d="M 61.5,124.5 C 61.5,129.5 61.5,134.5 61.5,139.5C 56.5,139.5 51.5,139.5 46.5,139.5C 46.5,134.5 46.5,129.5 46.5,124.5C 51.5,124.5 56.5,124.5 61.5,124.5 Z"/></g>
<g><path style="opacity:1" fill="#ffafae" d="M 281.5,124.5 C 281.5,129.5 281.5,134.5 281.5,139.5C 286.5,139.5 291.5,139.5 296.5,139.5C 291.36,140.488 286.026,140.821 280.5,140.5C 280.179,134.974 280.512,129.64 281.5,124.5 Z"/></g>
<g><path style="opacity:1" fill="#c80001" d="M 16.5,140.5 C 21.1667,140.5 25.8333,140.5 30.5,140.5C 30.2213,145.595 30.5546,150.595 31.5,155.5C 26.5,155.5 21.5,155.5 16.5,155.5C 16.5,150.5 16.5,145.5 16.5,140.5 Z"/></g>
<g><path style="opacity:1" fill="#dd1515" d="M 45.5,140.5 C 45.5,141.167 45.5,141.833 45.5,142.5C 46.3726,146.768 46.7059,151.102 46.5,155.5C 41.5,155.5 36.5,155.5 31.5,155.5C 30.5546,150.595 30.2213,145.595 30.5,140.5C 33.7864,140.071 36.9531,140.071 40,140.5C 41.5848,139.624 42.5848,138.291 43,136.5C 43.2004,138.32 44.0337,139.653 45.5,140.5 Z"/></g>
<g><path style="opacity:1" fill="#de1515" d="M 374.5,140.5 C 379.833,140.5 385.167,140.5 390.5,140.5C 390.5,161.167 390.5,181.833 390.5,202.5C 385.167,202.5 379.833,202.5 374.5,202.5C 374.5,212.833 374.5,223.167 374.5,233.5C 369.167,233.5 363.833,233.5 358.5,233.5C 358.5,238.833 358.5,244.167 358.5,249.5C 353.5,249.5 348.5,249.5 343.5,249.5C 343.5,254.833 343.5,260.167 343.5,265.5C 338.167,265.5 332.833,265.5 327.5,265.5C 327.5,270.5 327.5,275.5 327.5,280.5C 322.5,280.5 317.5,280.5 312.5,280.5C 312.666,285.511 312.499,290.511 312,295.5C 306.928,296.471 301.762,296.805 296.5,296.5C 296.5,301.5 296.5,306.5 296.5,311.5C 291.167,311.5 285.833,311.5 280.5,311.5C 280.5,316.833 280.5,322.167 280.5,327.5C 275.5,327.5 270.5,327.5 265.5,327.5C 265.5,332.833 265.5,338.167 265.5,343.5C 260.167,343.5 254.833,343.5 249.5,343.5C 249.5,348.5 249.5,353.5 249.5,358.5C 244.13,358.392 238.797,358.725 233.5,359.5C 233.5,354.167 233.5,348.833 233.5,343.5C 228.5,343.5 223.5,343.5 218.5,343.5C 218.5,338.167 218.5,332.833 218.5,327.5C 213.167,327.5 207.833,327.5 202.5,327.5C 202.5,322.167 202.5,316.833 202.5,311.5C 197.5,311.5 192.5,311.5 187.5,311.5C 187.5,306.5 187.5,301.5 187.5,296.5C 192.544,296.173 197.544,296.506 202.5,297.5C 205.326,299.472 205.993,301.972 204.5,305C 205.581,306.371 206.415,307.871 207,309.5C 210,309.167 213,308.833 216,308.5C 219.008,309.05 219.841,310.55 218.5,313C 219.912,317.002 221.245,321.002 222.5,325C 228.167,325.667 233.833,325.667 239.5,325C 240.025,324.308 240.692,323.808 241.5,323.5C 243.167,324.833 244.833,324.833 246.5,323.5C 247.221,321.314 247.887,319.147 248.5,317C 248.62,315.287 248.453,313.454 248,311.5C 253.531,312.308 259.364,312.641 265.5,312.5C 265.5,307.167 265.5,301.833 265.5,296.5C 270.43,296.803 275.263,296.469 280,295.5C 280.499,290.511 280.666,285.511 280.5,280.5C 285.833,280.5 291.167,280.5 296.5,280.5C 296.334,275.156 296.501,269.823 297,264.5C 301.748,265.635 306.581,265.802 311.5,265C 312.812,260.197 312.812,255.364 311.5,250.5C 316.792,249.505 322.125,249.172 327.5,249.5C 327.5,244.167 327.5,238.833 327.5,233.5C 332.833,233.5 338.167,233.5 343.5,233.5C 343.5,228.5 343.5,223.5 343.5,218.5C 348.463,217.746 353.463,217.413 358.5,217.5C 358.334,207.494 358.5,197.494 359,187.5C 364,186.833 369,186.167 374,185.5C 374.5,170.504 374.667,155.504 374.5,140.5 Z"/></g>
<g><path style="opacity:0.976" fill="#962828" d="M 469.5,140.5 C 474.167,140.5 478.833,140.5 483.5,140.5C 483.5,166.167 483.5,191.833 483.5,217.5C 478.695,218.487 473.695,218.821 468.5,218.5C 468.5,223.5 468.5,228.5 468.5,233.5C 463.5,233.5 458.5,233.5 453.5,233.5C 457.634,232.515 461.968,232.182 466.5,232.5C 466.334,227.489 466.501,222.489 467,217.5C 472.072,216.529 477.238,216.195 482.5,216.5C 482.5,191.5 482.5,166.5 482.5,141.5C 477.968,141.818 473.634,141.485 469.5,140.5 Z"/></g>
<g><path style="opacity:0.386" fill="#3f090a" d="M 468.5,124.5 C 469.487,129.305 469.821,134.305 469.5,139.5C 474.5,139.5 479.5,139.5 484.5,139.5C 484.5,165.5 484.5,191.5 484.5,217.5C 484.167,217.5 483.833,217.5 483.5,217.5C 483.5,191.833 483.5,166.167 483.5,140.5C 478.833,140.5 474.167,140.5 469.5,140.5C 468.833,140.5 468.5,140.167 468.5,139.5C 468.5,134.5 468.5,129.5 468.5,124.5 Z"/></g>
<g><path style="opacity:1" fill="#a60101" d="M 453.5,155.5 C 458.5,155.5 463.5,155.5 468.5,155.5C 468.5,171.167 468.5,186.833 468.5,202.5C 463.167,202.5 457.833,202.5 452.5,202.5C 452.5,207.833 452.5,213.167 452.5,218.5C 447.5,218.5 442.5,218.5 437.5,218.5C 437.5,223.5 437.5,228.5 437.5,233.5C 432.167,233.5 426.833,233.5 421.5,233.5C 421.5,238.833 421.5,244.167 421.5,249.5C 416.167,249.5 410.833,249.5 405.5,249.5C 405.5,254.833 405.5,260.167 405.5,265.5C 400.833,265.5 396.167,265.5 391.5,265.5C 392.146,262.857 392.146,260.024 391.5,257C 391.755,255.674 392.422,254.674 393.5,254C 392.833,253.667 392.167,253.333 391.5,253C 397.175,252.536 397.508,251.869 392.5,251C 397.327,250.774 401.994,249.94 406.5,248.5C 406.5,243.833 406.5,239.167 406.5,234.5C 411.149,233.935 415.816,233.435 420.5,233C 421.167,228.333 421.833,223.667 422.5,219C 427.22,218.779 431.887,218.279 436.5,217.5C 437.666,212.497 437.666,207.497 436.5,202.5C 441.762,202.805 446.928,202.471 452,201.5C 452.182,186.093 452.682,170.759 453.5,155.5 Z"/></g>
<g><path style="opacity:1" fill="#c70000" d="M 31.5,155.5 C 36.5,155.5 41.5,155.5 46.5,155.5C 46.5,160.833 46.5,166.167 46.5,171.5C 51.8333,171.5 57.1667,171.5 62.5,171.5C 62.5,176.833 62.5,182.167 62.5,187.5C 67.5,187.5 72.5,187.5 77.5,187.5C 77.5,192.5 77.5,197.5 77.5,202.5C 82.8333,202.5 88.1667,202.5 93.5,202.5C 93.5,207.833 93.5,213.167 93.5,218.5C 98.5,218.5 103.5,218.5 108.5,218.5C 108.5,223.5 108.5,228.5 108.5,233.5C 113.833,233.5 119.167,233.5 124.5,233.5C 124.5,238.833 124.5,244.167 124.5,249.5C 129.833,249.5 135.167,249.5 140.5,249.5C 140.5,254.833 140.5,260.167 140.5,265.5C 145.5,265.5 150.5,265.5 155.5,265.5C 155.5,270.5 155.5,275.5 155.5,280.5C 160.833,280.5 166.167,280.5 171.5,280.5C 171.5,285.833 171.5,291.167 171.5,296.5C 176.833,296.5 182.167,296.5 187.5,296.5C 187.5,301.5 187.5,306.5 187.5,311.5C 192.5,311.5 197.5,311.5 202.5,311.5C 202.5,316.833 202.5,322.167 202.5,327.5C 207.833,327.5 213.167,327.5 218.5,327.5C 218.5,332.833 218.5,338.167 218.5,343.5C 223.5,343.5 228.5,343.5 233.5,343.5C 233.5,348.833 233.5,354.167 233.5,359.5C 238.797,358.725 244.13,358.392 249.5,358.5C 249.5,353.5 249.5,348.5 249.5,343.5C 254.833,343.5 260.167,343.5 265.5,343.5C 265.5,338.167 265.5,332.833 265.5,327.5C 270.5,327.5 275.5,327.5 280.5,327.5C 280.5,322.167 280.5,316.833 280.5,311.5C 285.833,311.5 291.167,311.5 296.5,311.5C 295.916,321.341 295.416,331.341 295,341.5C 293.915,342.293 292.748,342.96 291.5,343.5C 284.705,343.656 277.872,343.323 271,342.5C 268.684,342.934 266.684,343.934 265,345.5C 265.49,354.24 265.657,362.907 265.5,371.5C 264.166,373.159 262.499,374.492 260.5,375.5C 257.381,372.738 254.048,372.238 250.5,374C 249.808,378.801 249.142,383.635 248.5,388.5C 247.441,389.696 246.107,390.363 244.5,390.5C 242.3,390.096 239.966,389.93 237.5,390C 236.101,388.938 235.101,387.605 234.5,386C 236.756,375.931 232.59,372.098 222,374.5C 218.654,370.947 217.82,366.947 219.5,362.5C 219.023,361.522 218.357,360.689 217.5,360C 213.136,358.599 208.803,358.099 204.5,358.5C 203.643,357.264 202.977,355.931 202.5,354.5C 202.371,351.936 202.704,349.269 203.5,346.5C 203.023,345.522 202.357,344.689 201.5,344C 197.365,342.971 193.198,342.471 189,342.5C 186.788,338.571 186.621,334.738 188.5,331C 187.5,330 186.5,329 185.5,328C 181.833,327.667 178.167,327.333 174.5,327C 173.692,326.692 173.025,326.192 172.5,325.5C 171.888,321.18 171.222,316.847 170.5,312.5C 167.167,311.833 163.833,311.167 160.5,310.5C 158.671,311.282 157.171,310.616 156,308.5C 155.827,304.459 155.327,300.459 154.5,296.5C 150.164,296.967 145.831,296.467 141.5,295C 139.21,291.95 138.877,288.616 140.5,285C 140.138,283.775 139.638,282.609 139,281.5C 135.255,280.703 131.421,280.203 127.5,280C 126.257,278.846 125.257,277.512 124.5,276C 125.279,272.307 124.946,268.64 123.5,265C 119.47,265.363 115.47,265.196 111.5,264.5C 110.469,263.3 109.635,261.966 109,260.5C 108.667,256.833 108.333,253.167 108,249.5C 105.535,247.575 102.868,247.575 100,249.5C 93.7357,248.35 91.9023,244.85 94.5,239C 93.3017,236.302 91.3017,234.469 88.5,233.5C 85.8333,234.833 83.1667,234.833 80.5,233.5C 78.9073,229.701 78.074,225.701 78,221.5C 73.5761,217.186 68.4095,216.186 62.5,218.5C 61.8783,217.373 61.045,216.373 60,215.5C 59.8404,211.713 59.1737,208.046 58,204.5C 55,203.167 52,203.167 49,204.5C 47.7101,202.208 46.0435,200.208 44,198.5C 43.2446,195.503 44.0779,193.003 46.5,191C 44.779,189.473 42.779,188.473 40.5,188C 37.5321,187.83 34.6988,187.664 32,187.5C 31.5002,176.839 31.3335,166.172 31.5,155.5 Z"/></g>
<g><path style="opacity:0.413" fill="#440c0e" d="M 14.5,126.5 C 14.8333,126.5 15.1667,126.5 15.5,126.5C 15.5,162.167 15.5,197.833 15.5,233.5C 20.8333,233.5 26.1667,233.5 31.5,233.5C 31.5,238.833 31.5,244.167 31.5,249.5C 31.1667,249.5 30.8333,249.5 30.5,249.5C 29.5128,244.695 29.1795,239.695 29.5,234.5C 24.5,234.5 19.5,234.5 14.5,234.5C 14.5,198.5 14.5,162.5 14.5,126.5 Z"/></g>
<g><path style="opacity:1" fill="#e11b1b" d="M 45.5,142.5 C 46.7024,143.405 48.0357,143.405 49.5,142.5C 49.1961,143.15 48.8627,143.817 48.5,144.5C 53.456,145.494 58.456,145.827 63.5,145.5C 63.5,146.833 63.5,148.167 63.5,149.5C 58.456,149.173 53.456,149.506 48.5,150.5C 47.7542,151.736 47.4208,153.07 47.5,154.5C 52.8437,154.334 58.1771,154.501 63.5,155C 64.3802,156.356 64.7135,157.856 64.5,159.5C 84.5,160.167 84.5,160.833 64.5,161.5C 64.5,163.5 64.5,165.5 64.5,167.5C 68.4562,168.582 72.4562,169.582 76.5,170.5C 77.6753,169.145 78.6753,169.312 79.5,171C 78.9461,173.612 79.6128,176.112 81.5,178.5C 80.6906,180.071 80.3573,181.738 80.5,183.5C 82.451,183.227 83.951,183.893 85,185.5C 85.3333,184.833 85.6667,184.167 86,183.5C 86.9525,185.592 88.2859,185.925 90,184.5C 91.2045,185.859 92.7045,186.859 94.5,187.5C 94.1613,192.538 94.4946,197.372 95.5,202C 99.8206,202.499 104.154,202.666 108.5,202.5C 108.5,207.833 108.5,213.167 108.5,218.5C 103.5,218.5 98.5,218.5 93.5,218.5C 93.5,213.167 93.5,207.833 93.5,202.5C 88.1667,202.5 82.8333,202.5 77.5,202.5C 77.5,197.5 77.5,192.5 77.5,187.5C 72.5,187.5 67.5,187.5 62.5,187.5C 62.5,182.167 62.5,176.833 62.5,171.5C 57.1667,171.5 51.8333,171.5 46.5,171.5C 46.5,166.167 46.5,160.833 46.5,155.5C 46.7059,151.102 46.3726,146.768 45.5,142.5 Z"/></g>
<g><path style="opacity:0.991" fill="#a22626" d="M 30.5,124.5 C 26.03,125.486 21.3633,125.819 16.5,125.5C 16.5,130.5 16.5,135.5 16.5,140.5C 16.5,145.5 16.5,150.5 16.5,155.5C 16.5,155.833 16.5,156.167 16.5,156.5C 16.5,181.833 16.5,207.167 16.5,232.5C 21.6946,232.179 26.6946,232.513 31.5,233.5C 26.1667,233.5 20.8333,233.5 15.5,233.5C 15.5,197.833 15.5,162.167 15.5,126.5C 20.0557,124.558 25.0557,123.892 30.5,124.5 Z"/></g>
<g><path style="opacity:1" fill="#b70908" d="M 16.5,156.5 C 16.5,156.167 16.5,155.833 16.5,155.5C 21.5,155.5 26.5,155.5 31.5,155.5C 31.3335,166.172 31.5002,176.839 32,187.5C 34.6988,187.664 37.5321,187.83 40.5,188C 42.779,188.473 44.779,189.473 46.5,191C 44.0779,193.003 43.2446,195.503 44,198.5C 46.0435,200.208 47.7101,202.208 49,204.5C 52,203.167 55,203.167 58,204.5C 59.1737,208.046 59.8404,211.713 60,215.5C 61.045,216.373 61.8783,217.373 62.5,218.5C 57.1667,218.5 51.8333,218.5 46.5,218.5C 46.5,213.167 46.5,207.833 46.5,202.5C 41.5,202.5 36.5,202.5 31.5,202.5C 30.7099,187.18 30.3766,171.847 30.5,156.5C 25.8333,156.5 21.1667,156.5 16.5,156.5 Z"/></g>
<g><path style="opacity:0.157" fill="#2b0502" d="M 483.5,217.5 C 483.833,217.5 484.167,217.5 484.5,217.5C 479.944,219.442 474.944,220.108 469.5,219.5C 469.5,224.5 469.5,229.5 469.5,234.5C 464.167,234.5 458.833,234.5 453.5,234.5C 453.821,239.695 453.487,244.695 452.5,249.5C 452.5,244.167 452.5,238.833 452.5,233.5C 452.833,233.5 453.167,233.5 453.5,233.5C 458.5,233.5 463.5,233.5 468.5,233.5C 468.5,228.5 468.5,223.5 468.5,218.5C 473.695,218.821 478.695,218.487 483.5,217.5 Z"/></g>
<g><path style="opacity:1" fill="#9e292a" d="M 31.5,233.5 C 32.4872,238.305 32.8205,243.305 32.5,248.5C 37.0323,248.182 41.3656,248.515 45.5,249.5C 40.8333,249.5 36.1667,249.5 31.5,249.5C 31.5,244.167 31.5,238.833 31.5,233.5 Z"/></g>
<g><path style="opacity:0.028" fill="#1d0000" d="M 452.5,249.5 C 448.03,250.486 443.363,250.819 438.5,250.5C 438.819,255.363 438.486,260.03 437.5,264.5C 437.5,259.5 437.5,254.5 437.5,249.5C 442.5,249.5 447.5,249.5 452.5,249.5 Z"/></g>
<g><path style="opacity:0.167" fill="#270000" d="M 30.5,249.5 C 30.8333,249.5 31.1667,249.5 31.5,249.5C 36.1667,249.5 40.8333,249.5 45.5,249.5C 45.8333,249.5 46.1667,249.5 46.5,249.5C 46.1786,255.026 46.5119,260.36 47.5,265.5C 47.5,265.833 47.5,266.167 47.5,266.5C 45.5539,261.604 44.8872,256.271 45.5,250.5C 40.3054,250.821 35.3054,250.487 30.5,249.5 Z"/></g>
<g><path style="opacity:0.575" fill="#7a2124" d="M 46.5,249.5 C 47.4872,254.305 47.8205,259.305 47.5,264.5C 52.3633,264.181 57.03,264.514 61.5,265.5C 56.8333,265.5 52.1667,265.5 47.5,265.5C 46.5119,260.36 46.1786,255.026 46.5,249.5 Z"/></g>
<g><path style="opacity:0.566" fill="#6e1f20" d="M 452.5,233.5 C 452.5,238.833 452.5,244.167 452.5,249.5C 447.5,249.5 442.5,249.5 437.5,249.5C 437.5,254.5 437.5,259.5 437.5,264.5C 432.944,266.442 427.944,267.108 422.5,266.5C 421.514,270.97 421.181,275.637 421.5,280.5C 416.5,280.5 411.5,280.5 406.5,280.5C 410.97,279.514 415.637,279.181 420.5,279.5C 420.197,274.57 420.531,269.737 421.5,265C 426.489,264.501 431.489,264.334 436.5,264.5C 436.5,259.167 436.5,253.833 436.5,248.5C 441.5,248.5 446.5,248.5 451.5,248.5C 451.179,243.305 451.513,238.305 452.5,233.5 Z"/></g>
<g><path style="opacity:0.008" fill="#010000" d="M 47.5,266.5 C 47.5,266.167 47.5,265.833 47.5,265.5C 52.1667,265.5 56.8333,265.5 61.5,265.5C 61.5,270.5 61.5,275.5 61.5,280.5C 60.5139,276.03 60.1805,271.363 60.5,266.5C 56.1667,266.5 51.8333,266.5 47.5,266.5 Z"/></g>
<g><path style="opacity:0.965" fill="#972c2c" d="M 62.5,265.5 C 63.4861,269.97 63.8195,274.637 63.5,279.5C 68.3633,279.181 73.03,279.514 77.5,280.5C 72.5,280.5 67.5,280.5 62.5,280.5C 62.5,275.5 62.5,270.5 62.5,265.5 Z"/></g>
<g><path style="opacity:0.271" fill="#410806" d="M 61.5,265.5 C 61.8333,265.5 62.1667,265.5 62.5,265.5C 62.5,270.5 62.5,275.5 62.5,280.5C 67.5,280.5 72.5,280.5 77.5,280.5C 77.5,280.833 77.5,281.167 77.5,281.5C 77.5,286.5 77.5,291.5 77.5,296.5C 76.5128,291.695 76.1795,286.695 76.5,281.5C 71.3054,281.821 66.3054,281.487 61.5,280.5C 61.5,275.5 61.5,270.5 61.5,265.5 Z"/></g>
<g><path style="opacity:0.263" fill="#2e0602" d="M 422.5,266.5 C 422.5,271.5 422.5,276.5 422.5,281.5C 417.167,281.5 411.833,281.5 406.5,281.5C 406.5,286.833 406.5,292.167 406.5,297.5C 401.5,297.5 396.5,297.5 391.5,297.5C 391.5,301.5 391.5,305.5 391.5,309.5C 390.515,305.366 390.182,301.032 390.5,296.5C 395.5,296.5 400.5,296.5 405.5,296.5C 405.5,291.5 405.5,286.5 405.5,281.5C 405.5,280.833 405.833,280.5 406.5,280.5C 411.5,280.5 416.5,280.5 421.5,280.5C 421.181,275.637 421.514,270.97 422.5,266.5 Z"/></g>
<g><path style="opacity:1" fill="#9d282d" d="M 405.5,281.5 C 405.5,286.5 405.5,291.5 405.5,296.5C 400.5,296.5 395.5,296.5 390.5,296.5C 390.167,296.5 389.833,296.5 389.5,296.5C 389.611,295.883 389.944,295.383 390.5,295C 395.155,294.501 399.821,294.334 404.5,294.5C 404.182,289.968 404.515,285.634 405.5,281.5 Z"/></g>
<g><path style="opacity:0.843" fill="#8f2f31" d="M 77.5,281.5 C 78.4861,285.97 78.8195,290.637 78.5,295.5C 83.6946,295.179 88.6946,295.513 93.5,296.5C 88.1667,296.5 82.8333,296.5 77.5,296.5C 77.5,291.5 77.5,286.5 77.5,281.5 Z"/></g>
<g><path style="opacity:0.295" fill="#320a06" d="M 77.5,296.5 C 82.8333,296.5 88.1667,296.5 93.5,296.5C 93.5,296.833 93.5,297.167 93.5,297.5C 93.5,302.167 93.5,306.833 93.5,311.5C 98.6946,311.179 103.695,311.513 108.5,312.5C 108.5,313.167 108.167,313.5 107.5,313.5C 102.57,313.803 97.7367,313.469 93,312.5C 92.5007,307.511 92.3341,302.511 92.5,297.5C 87.3054,297.821 82.3054,297.487 77.5,296.5 Z"/></g>
<g><path style="opacity:0.592" fill="#671d1a" d="M 389.5,296.5 C 389.833,296.5 390.167,296.5 390.5,296.5C 390.182,301.032 390.515,305.366 391.5,309.5C 391.5,309.833 391.5,310.167 391.5,310.5C 390.833,310.833 390.167,311.167 389.5,311.5C 389.5,306.5 389.5,301.5 389.5,296.5 Z"/></g>
<g><path style="opacity:0.473" fill="#2b0f0a" d="M 391.5,310.5 C 391.586,311.496 391.252,312.329 390.5,313C 385.511,313.499 380.511,313.666 375.5,313.5C 375.819,318.363 375.486,323.03 374.5,327.5C 374.5,322.167 374.5,316.833 374.5,311.5C 379.5,311.5 384.5,311.5 389.5,311.5C 390.167,311.167 390.833,310.833 391.5,310.5 Z"/></g>
<g><path style="opacity:0.996" fill="#9e282b" d="M 93.5,297.5 C 94.4849,301.634 94.8182,305.968 94.5,310.5C 99.5111,310.334 104.511,310.501 109.5,311C 110.471,316.072 110.805,321.238 110.5,326.5C 115.032,326.182 119.366,326.515 123.5,327.5C 118.637,327.819 113.97,327.486 109.5,326.5C 109.819,321.637 109.486,316.97 108.5,312.5C 103.695,311.513 98.6946,311.179 93.5,311.5C 93.5,306.833 93.5,302.167 93.5,297.5 Z"/></g>
<g><path style="opacity:0.624" fill="#4b1914" d="M 108.5,312.5 C 109.486,316.97 109.819,321.637 109.5,326.5C 108.833,325.833 108.167,325.167 107.5,324.5C 107.5,320.833 107.5,317.167 107.5,313.5C 108.167,313.5 108.5,313.167 108.5,312.5 Z"/></g>
<g><path style="opacity:0.956" fill="#962c2e" d="M 374.5,311.5 C 374.5,316.833 374.5,322.167 374.5,327.5C 369.167,327.5 363.833,327.5 358.5,327.5C 362.97,326.514 367.637,326.181 372.5,326.5C 371.892,321.056 372.558,316.056 374.5,311.5 Z"/></g>
<g><path style="opacity:0.047" fill="#250100" d="M 107.5,324.5 C 108.167,325.167 108.833,325.833 109.5,326.5C 113.97,327.486 118.637,327.819 123.5,327.5C 123.833,327.5 124.167,327.5 124.5,327.5C 124.5,332.833 124.5,338.167 124.5,343.5C 123.513,338.695 123.179,333.695 123.5,328.5C 118.167,328.5 112.833,328.5 107.5,328.5C 107.5,327.167 107.5,325.833 107.5,324.5 Z"/></g>
<g><path style="opacity:0.98" fill="#882a29" d="M 124.5,327.5 C 125.487,332.305 125.821,337.305 125.5,342.5C 130.363,342.181 135.03,342.514 139.5,343.5C 134.5,343.5 129.5,343.5 124.5,343.5C 124.5,338.167 124.5,332.833 124.5,327.5 Z"/></g>
<g><path style="opacity:0.384" fill="#3b0804" d="M 358.5,327.5 C 363.833,327.5 369.167,327.5 374.5,327.5C 369.695,328.487 364.695,328.821 359.5,328.5C 359.5,333.5 359.5,338.5 359.5,343.5C 359.167,343.5 358.833,343.5 358.5,343.5C 358.5,338.167 358.5,332.833 358.5,327.5 Z"/></g>
<g><path style="opacity:0.688" fill="#882225" d="M 358.5,327.5 C 358.5,332.833 358.5,338.167 358.5,343.5C 353.5,343.5 348.5,343.5 343.5,343.5C 347.97,342.514 352.637,342.181 357.5,342.5C 357.179,337.305 357.513,332.305 358.5,327.5 Z"/></g>
<g><path style="opacity:0.024" fill="#290501" d="M 343.5,343.5 C 348.5,343.5 353.5,343.5 358.5,343.5C 358.833,343.5 359.167,343.5 359.5,343.5C 354.695,344.487 349.695,344.821 344.5,344.5C 344.5,349.5 344.5,354.5 344.5,359.5C 339.167,359.5 333.833,359.5 328.5,359.5C 328.821,364.695 328.487,369.695 327.5,374.5C 327.5,369.167 327.5,363.833 327.5,358.5C 332.833,358.5 338.167,358.5 343.5,358.5C 343.5,353.5 343.5,348.5 343.5,343.5 Z"/></g>
<g><path style="opacity:0.992" fill="#982c2d" d="M 140.5,343.5 C 141.325,347.647 141.825,351.981 142,356.5C 146.268,357.14 150.435,357.807 154.5,358.5C 149.833,358.5 145.167,358.5 140.5,358.5C 140.5,353.5 140.5,348.5 140.5,343.5 Z"/></g>
<g><path style="opacity:0.417" fill="#360a04" d="M 124.5,343.5 C 129.5,343.5 134.5,343.5 139.5,343.5C 139.833,343.5 140.167,343.5 140.5,343.5C 140.5,348.5 140.5,353.5 140.5,358.5C 145.167,358.5 149.833,358.5 154.5,358.5C 155.167,358.5 155.5,358.833 155.5,359.5C 155.5,364.5 155.5,369.5 155.5,374.5C 154.513,369.695 154.179,364.695 154.5,359.5C 149.5,359.5 144.5,359.5 139.5,359.5C 139.5,354.5 139.5,349.5 139.5,344.5C 134.305,344.821 129.305,344.487 124.5,343.5 Z"/></g>
<g><path style="opacity:1" fill="#b31f1f" d="M 390.5,63.5 C 395.167,63.5 399.833,63.5 404.5,63.5C 404.182,68.0323 404.515,72.3656 405.5,76.5C 405.5,76.8333 405.5,77.1667 405.5,77.5C 409.982,78.3255 414.649,78.8255 419.5,79C 420.142,83.6007 420.809,88.1007 421.5,92.5C 426.305,93.4872 431.305,93.8205 436.5,93.5C 436.218,98.9265 436.551,104.26 437.5,109.5C 441.565,110.193 445.732,110.86 450,111.5C 450.333,115.5 450.667,119.5 451,123.5C 451.523,125.223 452.523,126.556 454,127.5C 458.111,126.596 462.278,126.263 466.5,126.5C 466.182,131.032 466.515,135.366 467.5,139.5C 467.833,139.5 468.167,139.5 468.5,139.5C 468.5,140.167 468.833,140.5 469.5,140.5C 473.634,141.485 477.968,141.818 482.5,141.5C 482.5,166.5 482.5,191.5 482.5,216.5C 477.238,216.195 472.072,216.529 467,217.5C 466.501,222.489 466.334,227.489 466.5,232.5C 461.968,232.182 457.634,232.515 453.5,233.5C 453.167,233.5 452.833,233.5 452.5,233.5C 451.513,238.305 451.179,243.305 451.5,248.5C 446.5,248.5 441.5,248.5 436.5,248.5C 436.5,253.833 436.5,259.167 436.5,264.5C 431.489,264.334 426.489,264.501 421.5,265C 420.531,269.737 420.197,274.57 420.5,279.5C 415.637,279.181 410.97,279.514 406.5,280.5C 405.833,280.5 405.5,280.833 405.5,281.5C 404.515,285.634 404.182,289.968 404.5,294.5C 399.821,294.334 395.155,294.501 390.5,295C 389.944,295.383 389.611,295.883 389.5,296.5C 389.5,301.5 389.5,306.5 389.5,311.5C 384.5,311.5 379.5,311.5 374.5,311.5C 372.558,316.056 371.892,321.056 372.5,326.5C 367.637,326.181 362.97,326.514 358.5,327.5C 357.513,332.305 357.179,337.305 357.5,342.5C 352.637,342.181 347.97,342.514 343.5,343.5C 342.514,347.97 342.181,352.637 342.5,357.5C 337.305,357.179 332.305,357.513 327.5,358.5C 326.514,362.97 326.181,367.637 326.5,372.5C 321.489,372.334 316.489,372.501 311.5,373C 310.529,378.072 310.195,383.238 310.5,388.5C 305.637,388.181 300.97,388.514 296.5,389.5C 295.883,389.611 295.383,389.944 295,390.5C 294.501,395.155 294.334,399.821 294.5,404.5C 289.828,403.997 285.161,403.831 280.5,404C 280,404.5 279.5,405 279,405.5C 278.501,410.155 278.334,414.821 278.5,419.5C 274.007,419.976 269.673,420.642 265.5,421.5C 264.513,426.305 264.179,431.305 264.5,436.5C 259.305,436.179 254.305,436.513 249.5,437.5C 248.514,441.97 248.181,446.637 248.5,451.5C 243.833,451.5 239.167,451.5 234.5,451.5C 234.819,446.637 234.486,441.97 233.5,437.5C 233.5,437.167 233.5,436.833 233.5,436.5C 229.361,435.437 225.028,434.77 220.5,434.5C 220.8,429.901 220.467,425.401 219.5,421C 214.177,420.501 208.844,420.334 203.5,420.5C 203.821,415.305 203.487,410.305 202.5,405.5C 202.167,405.5 201.833,405.5 201.5,405.5C 197.366,404.515 193.032,404.182 188.5,404.5C 188.827,399.456 188.494,394.456 187.5,389.5C 182.565,388.552 177.565,388.219 172.5,388.5C 172.818,383.968 172.485,379.634 171.5,375.5C 171.5,374.833 171.167,374.5 170.5,374.5C 166.03,373.514 161.363,373.181 156.5,373.5C 156.819,368.637 156.486,363.97 155.5,359.5C 155.5,358.833 155.167,358.5 154.5,358.5C 150.435,357.807 146.268,357.14 142,356.5C 141.825,351.981 141.325,347.647 140.5,343.5C 140.167,343.5 139.833,343.5 139.5,343.5C 135.03,342.514 130.363,342.181 125.5,342.5C 125.821,337.305 125.487,332.305 124.5,327.5C 124.167,327.5 123.833,327.5 123.5,327.5C 119.366,326.515 115.032,326.182 110.5,326.5C 110.805,321.238 110.471,316.072 109.5,311C 104.511,310.501 99.5111,310.334 94.5,310.5C 94.8182,305.968 94.4849,301.634 93.5,297.5C 93.5,297.167 93.5,296.833 93.5,296.5C 88.6946,295.513 83.6946,295.179 78.5,295.5C 78.8195,290.637 78.4861,285.97 77.5,281.5C 77.5,281.167 77.5,280.833 77.5,280.5C 73.03,279.514 68.3633,279.181 63.5,279.5C 63.8195,274.637 63.4861,269.97 62.5,265.5C 62.1667,265.5 61.8333,265.5 61.5,265.5C 57.03,264.514 52.3633,264.181 47.5,264.5C 47.8205,259.305 47.4872,254.305 46.5,249.5C 46.1667,249.5 45.8333,249.5 45.5,249.5C 41.3656,248.515 37.0323,248.182 32.5,248.5C 32.8205,243.305 32.4872,238.305 31.5,233.5C 26.6946,232.513 21.6946,232.179 16.5,232.5C 16.5,207.167 16.5,181.833 16.5,156.5C 21.1667,156.5 25.8333,156.5 30.5,156.5C 30.3766,171.847 30.7099,187.18 31.5,202.5C 36.5,202.5 41.5,202.5 46.5,202.5C 46.5,207.833 46.5,213.167 46.5,218.5C 46.5,223.5 46.5,228.5 46.5,233.5C 51.8333,233.5 57.1667,233.5 62.5,233.5C 62.5,238.833 62.5,244.167 62.5,249.5C 67.5,249.5 72.5,249.5 77.5,249.5C 77.3341,254.511 77.5007,259.511 78,264.5C 83.0717,265.471 88.2384,265.805 93.5,265.5C 93.5,270.5 93.5,275.5 93.5,280.5C 98.5,280.5 103.5,280.5 108.5,280.5C 108.5,285.833 108.5,291.167 108.5,296.5C 113.833,296.5 119.167,296.5 124.5,296.5C 124.5,301.5 124.5,306.5 124.5,311.5C 129.833,311.5 135.167,311.5 140.5,311.5C 140.5,316.833 140.5,322.167 140.5,327.5C 145.5,327.5 150.5,327.5 155.5,327.5C 155.5,332.833 155.5,338.167 155.5,343.5C 160.833,343.5 166.167,343.5 171.5,343.5C 171.5,348.5 171.5,353.5 171.5,358.5C 176.833,358.5 182.167,358.5 187.5,358.5C 187.5,363.833 187.5,369.167 187.5,374.5C 192.5,374.5 197.5,374.5 202.5,374.5C 202.5,379.833 202.5,385.167 202.5,390.5C 207.833,390.5 213.167,390.5 218.5,390.5C 218.5,395.5 218.5,400.5 218.5,405.5C 223.5,405.5 228.5,405.5 233.5,405.5C 233.5,410.833 233.5,416.167 233.5,421.5C 238.833,421.5 244.167,421.5 249.5,421.5C 249.5,416.167 249.5,410.833 249.5,405.5C 254.833,405.5 260.167,405.5 265.5,405.5C 265.5,400.833 265.5,396.167 265.5,391.5C 265.833,390.833 266.167,390.167 266.5,389.5C 271.167,389.5 275.833,389.5 280.5,389.5C 280.5,384.5 280.5,379.5 280.5,374.5C 285.833,374.5 291.167,374.5 296.5,374.5C 296.334,369.489 296.501,364.489 297,359.5C 301.737,358.531 306.57,358.197 311.5,358.5C 311.5,353.5 311.5,348.5 311.5,343.5C 316.833,343.5 322.167,343.5 327.5,343.5C 327.5,338.167 327.5,332.833 327.5,327.5C 332.833,327.5 338.167,327.5 343.5,327.5C 343.334,322.489 343.501,317.489 344,312.5C 348.737,311.531 353.57,311.197 358.5,311.5C 358.197,306.57 358.531,301.737 359.5,297C 364.489,296.501 369.489,296.334 374.5,296.5C 374.5,291.167 374.5,285.833 374.5,280.5C 379.833,280.5 385.167,280.5 390.5,280.5C 390.5,275.833 390.5,271.167 390.5,266.5C 390.5,265.833 390.833,265.5 391.5,265.5C 396.167,265.5 400.833,265.5 405.5,265.5C 405.5,260.167 405.5,254.833 405.5,249.5C 410.833,249.5 416.167,249.5 421.5,249.5C 421.5,244.167 421.5,238.833 421.5,233.5C 426.833,233.5 432.167,233.5 437.5,233.5C 437.5,228.5 437.5,223.5 437.5,218.5C 442.5,218.5 447.5,218.5 452.5,218.5C 452.5,213.167 452.5,207.833 452.5,202.5C 457.833,202.5 463.167,202.5 468.5,202.5C 468.5,186.833 468.5,171.167 468.5,155.5C 463.5,155.5 458.5,155.5 453.5,155.5C 453.167,155.5 452.833,155.5 452.5,155.5C 452.5,150.5 452.5,145.5 452.5,140.5C 447.238,140.805 442.072,140.471 437,139.5C 436.501,134.511 436.334,129.511 436.5,124.5C 431.767,124.777 427.1,124.443 422.5,123.5C 421.669,118.559 421.336,113.726 421.5,109C 416.511,108.501 411.511,108.334 406.5,108.5C 405.836,103.527 405.503,98.5275 405.5,93.5C 404.167,93.5 402.833,93.5 401.5,93.5C 397.833,93.5 394.167,93.5 390.5,93.5C 390.195,88.2384 390.529,83.0717 391.5,78C 370.169,77.5 348.836,77.3334 327.5,77.5C 318.833,77.5 310.167,77.5 301.5,77.5C 331.009,76.7679 360.676,76.1012 390.5,75.5C 390.5,71.5 390.5,67.5 390.5,63.5 Z"/></g>
<g><path style="opacity:1" fill="#a60101" d="M 140.5,311.5 C 145.5,311.5 150.5,311.5 155.5,311.5C 156.001,316.508 156.668,321.508 157.5,326.5C 162.1,327.443 166.767,327.777 171.5,327.5C 171.5,332.833 171.5,338.167 171.5,343.5C 166.167,343.5 160.833,343.5 155.5,343.5C 155.5,338.167 155.5,332.833 155.5,327.5C 150.5,327.5 145.5,327.5 140.5,327.5C 140.5,322.167 140.5,316.833 140.5,311.5 Z"/></g>
<g><path style="opacity:1" fill="#a70101" d="M 374.5,280.5 C 374.5,285.833 374.5,291.167 374.5,296.5C 369.489,296.334 364.489,296.501 359.5,297C 358.531,301.737 358.197,306.57 358.5,311.5C 353.57,311.197 348.737,311.531 344,312.5C 343.501,317.489 343.334,322.489 343.5,327.5C 338.167,327.5 332.833,327.5 327.5,327.5C 327.5,322.167 327.5,316.833 327.5,311.5C 332.214,311.827 336.88,311.493 341.5,310.5C 342.71,307.859 342.71,305.193 341.5,302.5C 341.875,300.541 342.541,298.707 343.5,297C 348.086,296.803 352.586,296.303 357,295.5C 358.232,290.279 358.899,284.946 359,279.5C 364.072,280.471 369.238,280.805 374.5,280.5 Z"/></g>
<g><path style="opacity:1" fill="#de1516" d="M 171.5,280.5 C 176.762,280.195 181.928,280.529 187,281.5C 187.499,286.489 187.666,291.489 187.5,296.5C 182.167,296.5 176.833,296.5 171.5,296.5C 171.5,291.167 171.5,285.833 171.5,280.5 Z"/></g>
<g><path style="opacity:1" fill="#a50101" d="M 390.5,266.5 C 390.5,271.167 390.5,275.833 390.5,280.5C 385.167,280.5 379.833,280.5 374.5,280.5C 374.197,275.57 374.531,270.737 375.5,266C 380.584,265.222 385.584,265.389 390.5,266.5 Z"/></g>
<g><path style="opacity:1" fill="#dd1415" d="M 155.5,265.5 C 160.565,265.219 165.565,265.552 170.5,266.5C 171.493,271.12 171.827,275.786 171.5,280.5C 166.167,280.5 160.833,280.5 155.5,280.5C 155.5,275.5 155.5,270.5 155.5,265.5 Z"/></g>
<g><path style="opacity:1" fill="#a70101" d="M 46.5,218.5 C 51.8333,218.5 57.1667,218.5 62.5,218.5C 62.1975,223.43 62.5308,228.263 63.5,233C 68.1548,233.499 72.8215,233.666 77.5,233.5C 77.6445,238.392 77.9778,243.392 78.5,248.5C 83.4351,249.448 88.4351,249.781 93.5,249.5C 93.3342,254.179 93.5008,258.845 94,263.5C 97.3333,264.833 100.667,264.833 104,263.5C 105.509,264.09 107.009,264.756 108.5,265.5C 109.279,270.113 109.779,274.78 110,279.5C 114.667,280.167 119.333,280.833 124,281.5C 124.195,286.418 124.695,291.251 125.5,296C 130.489,296.499 135.489,296.666 140.5,296.5C 140.5,301.5 140.5,306.5 140.5,311.5C 135.167,311.5 129.833,311.5 124.5,311.5C 124.5,306.5 124.5,301.5 124.5,296.5C 119.167,296.5 113.833,296.5 108.5,296.5C 108.5,291.167 108.5,285.833 108.5,280.5C 103.5,280.5 98.5,280.5 93.5,280.5C 93.5,275.5 93.5,270.5 93.5,265.5C 88.2384,265.805 83.0717,265.471 78,264.5C 77.5007,259.511 77.3341,254.511 77.5,249.5C 72.5,249.5 67.5,249.5 62.5,249.5C 62.5,244.167 62.5,238.833 62.5,233.5C 57.1667,233.5 51.8333,233.5 46.5,233.5C 46.5,228.5 46.5,223.5 46.5,218.5 Z"/></g>
<g><path style="opacity:1" fill="#dd1415" d="M 140.5,249.5 C 145.5,249.5 150.5,249.5 155.5,249.5C 155.5,254.833 155.5,260.167 155.5,265.5C 150.5,265.5 145.5,265.5 140.5,265.5C 140.5,260.167 140.5,254.833 140.5,249.5 Z"/></g>
<g><path style="opacity:1" fill="#c70101" d="M 390.5,202.5 C 390.02,208.075 390.02,213.741 390.5,219.5C 390.463,223.925 389.796,228.091 388.5,232C 388.833,232.333 389.167,232.667 389.5,233C 386.812,233.392 384.145,233.892 381.5,234.5C 380.328,234.081 379.328,233.415 378.5,232.5C 377.3,233.531 375.966,234.365 374.5,235C 374.833,235.333 375.167,235.667 375.5,236C 374.422,236.674 373.755,237.674 373.5,239C 376.173,245.828 373.839,249.328 366.5,249.5C 363.088,247.897 360.421,248.731 358.5,252C 359.305,255.192 359.305,259.026 358.5,263.5C 356.535,264.129 354.535,264.796 352.5,265.5C 350.168,264.828 347.834,264.661 345.5,265C 342.466,268.202 341.799,271.869 343.5,276C 343.097,277.473 342.43,278.806 341.5,280C 337.167,280.333 332.833,280.667 328.5,281C 327.833,282.333 327.167,283.667 326.5,285C 326.973,287.933 327.14,291.099 327,294.5C 325.527,296.007 323.693,296.674 321.5,296.5C 318.986,296.258 316.819,295.925 315,295.5C 314,296.5 313,297.5 312,298.5C 313.617,309.907 309.283,313.907 299,310.5C 298.658,312.619 297.825,312.953 296.5,311.5C 296.5,306.5 296.5,301.5 296.5,296.5C 301.762,296.805 306.928,296.471 312,295.5C 312.499,290.511 312.666,285.511 312.5,280.5C 317.5,280.5 322.5,280.5 327.5,280.5C 327.5,275.5 327.5,270.5 327.5,265.5C 332.833,265.5 338.167,265.5 343.5,265.5C 343.5,260.167 343.5,254.833 343.5,249.5C 348.5,249.5 353.5,249.5 358.5,249.5C 358.5,244.167 358.5,238.833 358.5,233.5C 363.833,233.5 369.167,233.5 374.5,233.5C 374.5,223.167 374.5,212.833 374.5,202.5C 379.833,202.5 385.167,202.5 390.5,202.5 Z"/></g>
<g><path style="opacity:1" fill="#dd1516" d="M 124.5,233.5 C 129.762,233.195 134.928,233.529 140,234.5C 140.499,239.489 140.666,244.489 140.5,249.5C 135.167,249.5 129.833,249.5 124.5,249.5C 124.5,244.167 124.5,238.833 124.5,233.5 Z"/></g>
<g><path style="opacity:1" fill="#dd1415" d="M 108.5,218.5 C 113.833,218.5 119.167,218.5 124.5,218.5C 124.5,223.5 124.5,228.5 124.5,233.5C 119.167,233.5 113.833,233.5 108.5,233.5C 108.5,228.5 108.5,223.5 108.5,218.5 Z"/></g>
<g><path style="opacity:0.97" fill="#90272a" d="M 343.5,343.5 C 343.5,348.5 343.5,353.5 343.5,358.5C 338.167,358.5 332.833,358.5 327.5,358.5C 332.305,357.513 337.305,357.179 342.5,357.5C 342.181,352.637 342.514,347.97 343.5,343.5 Z"/></g>
<g><path style="opacity:1" fill="#a70101" d="M 327.5,327.5 C 327.5,332.833 327.5,338.167 327.5,343.5C 322.167,343.5 316.833,343.5 311.5,343.5C 311.5,348.5 311.5,353.5 311.5,358.5C 306.57,358.197 301.737,358.531 297,359.5C 296.501,364.489 296.334,369.489 296.5,374.5C 291.167,374.5 285.833,374.5 280.5,374.5C 280.5,369.5 280.5,364.5 280.5,359.5C 285.72,358.969 290.887,358.303 296,357.5C 296.172,352.798 296.672,348.132 297.5,343.5C 301.959,341.641 306.459,340.975 311,341.5C 311.499,336.845 311.666,332.179 311.5,327.5C 316.833,327.5 322.167,327.5 327.5,327.5 Z"/></g>
<g><path style="opacity:0.941" fill="#892c2c" d="M 155.5,359.5 C 156.486,363.97 156.819,368.637 156.5,373.5C 161.363,373.181 166.03,373.514 170.5,374.5C 165.5,374.5 160.5,374.5 155.5,374.5C 155.5,369.5 155.5,364.5 155.5,359.5 Z"/></g>
<g><path style="opacity:0.028" fill="#230000" d="M 155.5,374.5 C 160.5,374.5 165.5,374.5 170.5,374.5C 171.167,374.5 171.5,374.833 171.5,375.5C 171.5,380.5 171.5,385.5 171.5,390.5C 170.513,385.695 170.179,380.695 170.5,375.5C 165.305,375.821 160.305,375.487 155.5,374.5 Z"/></g>
<g><path style="opacity:1" fill="#a60101" d="M 171.5,343.5 C 176.833,343.5 182.167,343.5 187.5,343.5C 187.5,348.167 187.5,352.833 187.5,357.5C 192.453,358.329 197.453,358.663 202.5,358.5C 202.793,362.437 202.46,366.27 201.5,370C 202.167,371.333 202.833,372.667 203.5,374C 208.489,374.499 213.489,374.666 218.5,374.5C 218.334,379.179 218.501,383.845 219,388.5C 223.749,389.305 228.582,389.805 233.5,390C 234.303,394.414 234.803,398.914 235,403.5C 235.5,404 236,404.5 236.5,405C 240.421,405.203 244.255,405.703 248,406.5C 249.087,401.362 249.92,396.195 250.5,391C 255.584,390.222 260.584,390.389 265.5,391.5C 265.5,396.167 265.5,400.833 265.5,405.5C 260.167,405.5 254.833,405.5 249.5,405.5C 249.5,410.833 249.5,416.167 249.5,421.5C 244.167,421.5 238.833,421.5 233.5,421.5C 233.5,416.167 233.5,410.833 233.5,405.5C 228.5,405.5 223.5,405.5 218.5,405.5C 218.5,400.5 218.5,395.5 218.5,390.5C 213.167,390.5 207.833,390.5 202.5,390.5C 202.5,385.167 202.5,379.833 202.5,374.5C 197.5,374.5 192.5,374.5 187.5,374.5C 187.5,369.167 187.5,363.833 187.5,358.5C 182.167,358.5 176.833,358.5 171.5,358.5C 171.5,353.5 171.5,348.5 171.5,343.5 Z"/></g>
<g><path style="opacity:1" fill="#a50000" d="M 280.5,374.5 C 280.5,379.5 280.5,384.5 280.5,389.5C 275.833,389.5 271.167,389.5 266.5,389.5C 262.334,376.659 267.001,371.659 280.5,374.5 Z"/></g>
<g><path style="opacity:0.027" fill="#1f0000" d="M 312.5,374.5 C 317.5,374.5 322.5,374.5 327.5,374.5C 323.03,375.486 318.363,375.819 313.5,375.5C 313.819,380.363 313.486,385.03 312.5,389.5C 312.5,384.5 312.5,379.5 312.5,374.5 Z"/></g>
<g><path style="opacity:0.996" fill="#9e292b" d="M 327.5,358.5 C 327.5,363.833 327.5,369.167 327.5,374.5C 322.5,374.5 317.5,374.5 312.5,374.5C 311.513,379.305 311.179,384.305 311.5,389.5C 306.5,389.5 301.5,389.5 296.5,389.5C 300.97,388.514 305.637,388.181 310.5,388.5C 310.195,383.238 310.529,378.072 311.5,373C 316.489,372.501 321.489,372.334 326.5,372.5C 326.181,367.637 326.514,362.97 327.5,358.5 Z"/></g>
<g><path style="opacity:0.554" fill="#491813" d="M 312.5,374.5 C 312.5,379.5 312.5,384.5 312.5,389.5C 307.944,391.442 302.944,392.108 297.5,391.5C 297.167,391.5 296.833,391.5 296.5,391.5C 296.5,390.833 296.5,390.167 296.5,389.5C 301.5,389.5 306.5,389.5 311.5,389.5C 311.179,384.305 311.513,379.305 312.5,374.5 Z"/></g>
<g><path style="opacity:0.012" fill="#020000" d="M 171.5,390.5 C 176.5,390.5 181.5,390.5 186.5,390.5C 186.5,395.5 186.5,400.5 186.5,405.5C 185.514,401.03 185.181,396.363 185.5,391.5C 180.637,391.819 175.97,391.486 171.5,390.5 Z"/></g>
<g><path style="opacity:0.996" fill="#98272d" d="M 171.5,375.5 C 172.485,379.634 172.818,383.968 172.5,388.5C 177.565,388.219 182.565,388.552 187.5,389.5C 188.494,394.456 188.827,399.456 188.5,404.5C 193.032,404.182 197.366,404.515 201.5,405.5C 196.833,405.5 192.167,405.5 187.5,405.5C 187.821,400.305 187.487,395.305 186.5,390.5C 181.5,390.5 176.5,390.5 171.5,390.5C 171.5,385.5 171.5,380.5 171.5,375.5 Z"/></g>
<g><path style="opacity:0.259" fill="#3e080a" d="M 186.5,390.5 C 187.487,395.305 187.821,400.305 187.5,405.5C 192.167,405.5 196.833,405.5 201.5,405.5C 201.833,405.5 202.167,405.5 202.5,405.5C 202.5,410.833 202.5,416.167 202.5,421.5C 201.513,416.695 201.179,411.695 201.5,406.5C 196.305,406.821 191.305,406.487 186.5,405.5C 186.5,400.5 186.5,395.5 186.5,390.5 Z"/></g>
<g><path style="opacity:0.256" fill="#2f0602" d="M 296.5,391.5 C 296.833,391.5 297.167,391.5 297.5,391.5C 297.5,396.5 297.5,401.5 297.5,406.5C 292.167,406.5 286.833,406.5 281.5,406.5C 281.5,411.833 281.5,417.167 281.5,422.5C 276.5,422.5 271.5,422.5 266.5,422.5C 266.821,427.695 266.487,432.695 265.5,437.5C 265.5,432.167 265.5,426.833 265.5,421.5C 270.5,421.5 275.5,421.5 280.5,421.5C 280.5,416.167 280.5,410.833 280.5,405.5C 285.833,405.5 291.167,405.5 296.5,405.5C 296.5,400.833 296.5,396.167 296.5,391.5 Z"/></g>
<g><path style="opacity:1" fill="#a1272b" d="M 296.5,389.5 C 296.5,390.167 296.5,390.833 296.5,391.5C 296.5,396.167 296.5,400.833 296.5,405.5C 291.167,405.5 285.833,405.5 280.5,405.5C 280.5,410.833 280.5,416.167 280.5,421.5C 275.5,421.5 270.5,421.5 265.5,421.5C 269.673,420.642 274.007,419.976 278.5,419.5C 278.334,414.821 278.501,410.155 279,405.5C 279.5,405 280,404.5 280.5,404C 285.161,403.831 289.828,403.997 294.5,404.5C 294.334,399.821 294.501,395.155 295,390.5C 295.383,389.944 295.883,389.611 296.5,389.5 Z"/></g>
<g><path style="opacity:0.295" fill="#440507" d="M 202.5,421.5 C 207.833,421.5 213.167,421.5 218.5,421.5C 218.5,426.5 218.5,431.5 218.5,436.5C 223.5,436.5 228.5,436.5 233.5,436.5C 233.5,436.833 233.5,437.167 233.5,437.5C 228.5,437.5 223.5,437.5 218.5,437.5C 217.513,432.695 217.179,427.695 217.5,422.5C 212.305,422.821 207.305,422.487 202.5,421.5 Z"/></g>
<g><path style="opacity:1" fill="#9e282d" d="M 202.5,405.5 C 203.487,410.305 203.821,415.305 203.5,420.5C 208.844,420.334 214.177,420.501 219.5,421C 220.467,425.401 220.8,429.901 220.5,434.5C 225.028,434.77 229.361,435.437 233.5,436.5C 228.5,436.5 223.5,436.5 218.5,436.5C 218.5,431.5 218.5,426.5 218.5,421.5C 213.167,421.5 207.833,421.5 202.5,421.5C 202.5,416.167 202.5,410.833 202.5,405.5 Z"/></g>
<g><path style="opacity:0.477" fill="#641316" d="M 265.5,421.5 C 265.5,426.833 265.5,432.167 265.5,437.5C 260.167,437.5 254.833,437.5 249.5,437.5C 254.305,436.513 259.305,436.179 264.5,436.5C 264.179,431.305 264.513,426.305 265.5,421.5 Z"/></g>
<g><path style="opacity:0.017" fill="#120000" d="M 218.5,437.5 C 223.5,437.5 228.5,437.5 233.5,437.5C 233.5,442.5 233.5,447.5 233.5,452.5C 238.833,452.5 244.167,452.5 249.5,452.5C 244.025,453.489 238.358,453.822 232.5,453.5C 232.5,448.5 232.5,443.5 232.5,438.5C 227.637,438.819 222.97,438.486 218.5,437.5 Z"/></g>
<g><path style="opacity:0.031" fill="#160000" d="M 249.5,437.5 C 254.833,437.5 260.167,437.5 265.5,437.5C 260.695,438.487 255.695,438.821 250.5,438.5C 250.819,443.363 250.486,448.03 249.5,452.5C 249.5,447.5 249.5,442.5 249.5,437.5 Z"/></g>
<g><path style="opacity:0.963" fill="#872a2c" d="M 233.5,437.5 C 234.486,441.97 234.819,446.637 234.5,451.5C 239.167,451.5 243.833,451.5 248.5,451.5C 248.181,446.637 248.514,441.97 249.5,437.5C 249.5,442.5 249.5,447.5 249.5,452.5C 244.167,452.5 238.833,452.5 233.5,452.5C 233.5,447.5 233.5,442.5 233.5,437.5 Z"/></g>
</svg>
