<?xml version="1.0" encoding="UTF-8"?>
<!DOCTYPE svg PUBLIC "-//W3C//DTD SVG 1.1//EN" "http://www.w3.org/Graphics/SVG/1.1/DTD/svg11.dtd">
<svg xmlns="http://www.w3.org/2000/svg" version="1.1" width="1984px" height="1984px" style="shape-rendering:geometricPrecision; text-rendering:geometricPrecision; image-rendering:optimizeQuality; fill-rule:evenodd; clip-rule:evenodd" xmlns:xlink="http://www.w3.org/1999/xlink">
<g><path style="opacity:1" fill="#e9a13e" d="M 929.5,-0.5 C 950.167,-0.5 970.833,-0.5 991.5,-0.5C 991.5,20.1667 991.5,40.8333 991.5,61.5C 970.833,61.5 950.167,61.5 929.5,61.5C 929.5,40.8333 929.5,20.1667 929.5,-0.5 Z"/></g>
<g><path style="opacity:1" fill="#5a3c18" d="M 991.5,-0.5 C 1094.83,-0.5 1198.17,-0.5 1301.5,-0.5C 1301.5,20.1667 1301.5,40.8333 1301.5,61.5C 1218.83,61.5 1136.17,61.5 1053.5,61.5C 1032.83,61.5 1012.17,61.5 991.5,61.5C 991.5,40.8333 991.5,20.1667 991.5,-0.5 Z"/></g>
<g><path style="opacity:1" fill="#e9a13e" d="M 929.5,61.5 C 929.5,82.1667 929.5,102.833 929.5,123.5C 908.833,123.5 888.167,123.5 867.5,123.5C 867.5,102.833 867.5,82.1667 867.5,61.5C 888.167,61.5 908.833,61.5 929.5,61.5 Z"/></g>
<g><path style="opacity:1" fill="#fcd768" d="M 929.5,61.5 C 950.167,61.5 970.833,61.5 991.5,61.5C 991.5,82.1667 991.5,102.833 991.5,123.5C 970.833,123.5 950.167,123.5 929.5,123.5C 929.5,102.833 929.5,82.1667 929.5,61.5 Z"/></g>
<g><path style="opacity:1" fill="#e9a13e" d="M 991.5,61.5 C 1012.17,61.5 1032.83,61.5 1053.5,61.5C 1053.5,82.1667 1053.5,102.833 1053.5,123.5C 1032.83,123.5 1012.17,123.5 991.5,123.5C 991.5,102.833 991.5,82.1667 991.5,61.5 Z"/></g>
<g><path style="opacity:1" fill="#855b2a" d="M 1053.5,61.5 C 1136.17,61.5 1218.83,61.5 1301.5,61.5C 1301.5,82.1667 1301.5,102.833 1301.5,123.5C 1280.83,123.5 1260.17,123.5 1239.5,123.5C 1239.5,144.167 1239.5,164.833 1239.5,185.5C 1198.17,185.5 1156.83,185.5 1115.5,185.5C 1115.5,164.833 1115.5,144.167 1115.5,123.5C 1094.83,123.5 1074.17,123.5 1053.5,123.5C 1053.5,102.833 1053.5,82.1667 1053.5,61.5 Z"/></g>
<g><path style="opacity:1" fill="#5a3c18" d="M 1301.5,61.5 C 1342.83,61.5 1384.17,61.5 1425.5,61.5C 1425.5,82.1667 1425.5,102.833 1425.5,123.5C 1404.83,123.5 1384.17,123.5 1363.5,123.5C 1342.83,123.5 1322.17,123.5 1301.5,123.5C 1301.5,102.833 1301.5,82.1667 1301.5,61.5 Z"/></g>
<g><path style="opacity:1" fill="#e9a13e" d="M 867.5,123.5 C 867.5,144.167 867.5,164.833 867.5,185.5C 846.833,185.5 826.167,185.5 805.5,185.5C 805.5,164.833 805.5,144.167 805.5,123.5C 826.167,123.5 846.833,123.5 867.5,123.5 Z"/></g>
<g><path style="opacity:1" fill="#fcd768" d="M 867.5,123.5 C 888.167,123.5 908.833,123.5 929.5,123.5C 929.5,144.167 929.5,164.833 929.5,185.5C 908.833,185.5 888.167,185.5 867.5,185.5C 867.5,164.833 867.5,144.167 867.5,123.5 Z"/></g>
<g><path style="opacity:1" fill="#0000ff" d="M 929.5,123.5 C 950.167,123.5 970.833,123.5 991.5,123.5C 991.5,144.167 991.5,164.833 991.5,185.5C 970.833,185.5 950.167,185.5 929.5,185.5C 929.5,164.833 929.5,144.167 929.5,123.5 Z"/></g>
<g><path style="opacity:1" fill="#fcd768" d="M 991.5,123.5 C 1012.17,123.5 1032.83,123.5 1053.5,123.5C 1053.5,144.167 1053.5,164.833 1053.5,185.5C 1032.83,185.5 1012.17,185.5 991.5,185.5C 991.5,164.833 991.5,144.167 991.5,123.5 Z"/></g>
<g><path style="opacity:1" fill="#e9a13e" d="M 1053.5,123.5 C 1074.17,123.5 1094.83,123.5 1115.5,123.5C 1115.5,144.167 1115.5,164.833 1115.5,185.5C 1094.83,185.5 1074.17,185.5 1053.5,185.5C 1053.5,164.833 1053.5,144.167 1053.5,123.5 Z"/></g>
<g><path style="opacity:1" fill="#7b562a" d="M 1301.5,123.5 C 1322.17,123.5 1342.83,123.5 1363.5,123.5C 1363.5,144.167 1363.5,164.833 1363.5,185.5C 1322.17,185.5 1280.83,185.5 1239.5,185.5C 1239.5,164.833 1239.5,144.167 1239.5,123.5C 1260.17,123.5 1280.83,123.5 1301.5,123.5 Z"/></g>
<g><path style="opacity:1" fill="#8d6637" d="M 1363.5,123.5 C 1384.17,123.5 1404.83,123.5 1425.5,123.5C 1425.5,144.167 1425.5,164.833 1425.5,185.5C 1404.83,185.5 1384.17,185.5 1363.5,185.5C 1363.5,164.833 1363.5,144.167 1363.5,123.5 Z"/></g>
<g><path style="opacity:1" fill="#5a3c18" d="M 1425.5,123.5 C 1446.17,123.5 1466.83,123.5 1487.5,123.5C 1487.5,144.167 1487.5,164.833 1487.5,185.5C 1466.83,185.5 1446.17,185.5 1425.5,185.5C 1425.5,164.833 1425.5,144.167 1425.5,123.5 Z"/></g>
<g><path style="opacity:1" fill="#d58a22" d="M 805.5,185.5 C 826.167,185.5 846.833,185.5 867.5,185.5C 888.167,185.5 908.833,185.5 929.5,185.5C 950.167,185.5 970.833,185.5 991.5,185.5C 1012.17,185.5 1032.83,185.5 1053.5,185.5C 1074.17,185.5 1094.83,185.5 1115.5,185.5C 1156.83,185.5 1198.17,185.5 1239.5,185.5C 1280.83,185.5 1322.17,185.5 1363.5,185.5C 1384.17,185.5 1404.83,185.5 1425.5,185.5C 1446.17,185.5 1466.83,185.5 1487.5,185.5C 1508.17,185.5 1528.83,185.5 1549.5,185.5C 1549.5,206.167 1549.5,226.833 1549.5,247.5C 1466.83,247.5 1384.17,247.5 1301.5,247.5C 1280.83,247.5 1260.17,247.5 1239.5,247.5C 1115.5,247.5 991.5,247.5 867.5,247.5C 846.833,247.5 826.167,247.5 805.5,247.5C 784.833,247.5 764.167,247.5 743.5,247.5C 743.5,226.833 743.5,206.167 743.5,185.5C 764.167,185.5 784.833,185.5 805.5,185.5 Z"/></g>
<g><path style="opacity:1" fill="#5a3c18" d="M 743.5,247.5 C 764.167,247.5 784.833,247.5 805.5,247.5C 805.5,268.167 805.5,288.833 805.5,309.5C 784.833,309.5 764.167,309.5 743.5,309.5C 743.5,288.833 743.5,268.167 743.5,247.5 Z"/></g>
<g><path style="opacity:1" fill="#8d6637" d="M 805.5,247.5 C 826.167,247.5 846.833,247.5 867.5,247.5C 867.5,268.167 867.5,288.833 867.5,309.5C 846.833,309.5 826.167,309.5 805.5,309.5C 805.5,288.833 805.5,268.167 805.5,247.5 Z"/></g>
<g><path style="opacity:1" fill="#7b562a" d="M 867.5,247.5 C 991.5,247.5 1115.5,247.5 1239.5,247.5C 1239.5,268.167 1239.5,288.833 1239.5,309.5C 1218.83,309.5 1198.17,309.5 1177.5,309.5C 1156.83,309.5 1136.17,309.5 1115.5,309.5C 1094.83,309.5 1074.17,309.5 1053.5,309.5C 1012.17,309.5 970.833,309.5 929.5,309.5C 908.833,309.5 888.167,309.5 867.5,309.5C 867.5,288.833 867.5,268.167 867.5,247.5 Z"/></g>
<g><path style="opacity:1" fill="#8d6637" d="M 1239.5,247.5 C 1260.17,247.5 1280.83,247.5 1301.5,247.5C 1301.5,268.167 1301.5,288.833 1301.5,309.5C 1280.83,309.5 1260.17,309.5 1239.5,309.5C 1239.5,288.833 1239.5,268.167 1239.5,247.5 Z"/></g>
<g><path style="opacity:1" fill="#5a3c18" d="M 1549.5,247.5 C 1570.17,247.5 1590.83,247.5 1611.5,247.5C 1611.5,268.167 1611.5,288.833 1611.5,309.5C 1590.83,309.5 1570.17,309.5 1549.5,309.5C 1549.5,288.833 1549.5,268.167 1549.5,247.5 Z"/></g>
<g><path style="opacity:1" fill="#5a3c18" d="M 743.5,309.5 C 743.5,330.167 743.5,350.833 743.5,371.5C 722.833,371.5 702.167,371.5 681.5,371.5C 681.5,350.833 681.5,330.167 681.5,309.5C 702.167,309.5 722.833,309.5 743.5,309.5 Z"/></g>
<g><path style="opacity:1" fill="#735025" d="M 743.5,309.5 C 764.167,309.5 784.833,309.5 805.5,309.5C 826.167,309.5 846.833,309.5 867.5,309.5C 867.5,330.167 867.5,350.833 867.5,371.5C 867.5,392.167 867.5,412.833 867.5,433.5C 846.833,433.5 826.167,433.5 805.5,433.5C 784.833,433.5 764.167,433.5 743.5,433.5C 743.5,412.833 743.5,392.167 743.5,371.5C 743.5,350.833 743.5,330.167 743.5,309.5 Z"/></g>
<g><path style="opacity:1" fill="#8d6637" d="M 867.5,309.5 C 888.167,309.5 908.833,309.5 929.5,309.5C 929.5,330.167 929.5,350.833 929.5,371.5C 908.833,371.5 888.167,371.5 867.5,371.5C 867.5,350.833 867.5,330.167 867.5,309.5 Z"/></g>
<g><path style="opacity:1" fill="#735025" d="M 929.5,309.5 C 970.833,309.5 1012.17,309.5 1053.5,309.5C 1053.5,330.167 1053.5,350.833 1053.5,371.5C 1032.83,371.5 1012.17,371.5 991.5,371.5C 991.5,392.167 991.5,412.833 991.5,433.5C 970.833,433.5 950.167,433.5 929.5,433.5C 929.5,412.833 929.5,392.167 929.5,371.5C 929.5,350.833 929.5,330.167 929.5,309.5 Z"/></g>
<g><path style="opacity:1" fill="#f4cfaf" d="M 1053.5,309.5 C 1074.17,309.5 1094.83,309.5 1115.5,309.5C 1115.5,330.167 1115.5,350.833 1115.5,371.5C 1136.17,371.5 1156.83,371.5 1177.5,371.5C 1177.5,392.167 1177.5,412.833 1177.5,433.5C 1198.17,433.5 1218.83,433.5 1239.5,433.5C 1239.5,454.167 1239.5,474.833 1239.5,495.5C 1260.17,495.5 1280.83,495.5 1301.5,495.5C 1301.5,536.833 1301.5,578.167 1301.5,619.5C 1322.17,619.5 1342.83,619.5 1363.5,619.5C 1363.5,640.167 1363.5,660.833 1363.5,681.5C 1342.83,681.5 1322.17,681.5 1301.5,681.5C 1301.5,702.167 1301.5,722.833 1301.5,743.5C 1198.17,743.5 1094.83,743.5 991.5,743.5C 991.5,722.833 991.5,702.167 991.5,681.5C 970.833,681.5 950.167,681.5 929.5,681.5C 929.5,660.833 929.5,640.167 929.5,619.5C 950.167,619.5 970.833,619.5 991.5,619.5C 991.5,578.167 991.5,536.833 991.5,495.5C 991.5,474.833 991.5,454.167 991.5,433.5C 991.5,412.833 991.5,392.167 991.5,371.5C 1012.17,371.5 1032.83,371.5 1053.5,371.5C 1053.5,350.833 1053.5,330.167 1053.5,309.5 Z"/></g>
<g><path style="opacity:1" fill="#735025" d="M 1115.5,309.5 C 1136.17,309.5 1156.83,309.5 1177.5,309.5C 1177.5,330.167 1177.5,350.833 1177.5,371.5C 1156.83,371.5 1136.17,371.5 1115.5,371.5C 1115.5,350.833 1115.5,330.167 1115.5,309.5 Z"/></g>
<g><path style="opacity:1" fill="#8d6637" d="M 1177.5,309.5 C 1198.17,309.5 1218.83,309.5 1239.5,309.5C 1239.5,330.167 1239.5,350.833 1239.5,371.5C 1218.83,371.5 1198.17,371.5 1177.5,371.5C 1177.5,350.833 1177.5,330.167 1177.5,309.5 Z"/></g>
<g><path style="opacity:1" fill="#744f25" d="M 1301.5,247.5 C 1384.17,247.5 1466.83,247.5 1549.5,247.5C 1549.5,268.167 1549.5,288.833 1549.5,309.5C 1528.83,309.5 1508.17,309.5 1487.5,309.5C 1487.5,330.167 1487.5,350.833 1487.5,371.5C 1446.17,371.5 1404.83,371.5 1363.5,371.5C 1363.5,392.167 1363.5,412.833 1363.5,433.5C 1363.5,454.167 1363.5,474.833 1363.5,495.5C 1363.5,516.167 1363.5,536.833 1363.5,557.5C 1363.5,578.167 1363.5,598.833 1363.5,619.5C 1342.83,619.5 1322.17,619.5 1301.5,619.5C 1301.5,578.167 1301.5,536.833 1301.5,495.5C 1280.83,495.5 1260.17,495.5 1239.5,495.5C 1239.5,474.833 1239.5,454.167 1239.5,433.5C 1218.83,433.5 1198.17,433.5 1177.5,433.5C 1177.5,412.833 1177.5,392.167 1177.5,371.5C 1198.17,371.5 1218.83,371.5 1239.5,371.5C 1239.5,350.833 1239.5,330.167 1239.5,309.5C 1260.17,309.5 1280.83,309.5 1301.5,309.5C 1301.5,288.833 1301.5,268.167 1301.5,247.5 Z"/></g>
<g><path style="opacity:1" fill="#8d6637" d="M 1549.5,309.5 C 1549.5,330.167 1549.5,350.833 1549.5,371.5C 1528.83,371.5 1508.17,371.5 1487.5,371.5C 1487.5,350.833 1487.5,330.167 1487.5,309.5C 1508.17,309.5 1528.83,309.5 1549.5,309.5 Z"/></g>
<g><path style="opacity:1" fill="#735025" d="M 1549.5,309.5 C 1570.17,309.5 1590.83,309.5 1611.5,309.5C 1611.5,350.833 1611.5,392.167 1611.5,433.5C 1611.5,454.167 1611.5,474.833 1611.5,495.5C 1590.83,495.5 1570.17,495.5 1549.5,495.5C 1549.5,474.833 1549.5,454.167 1549.5,433.5C 1528.83,433.5 1508.17,433.5 1487.5,433.5C 1487.5,412.833 1487.5,392.167 1487.5,371.5C 1508.17,371.5 1528.83,371.5 1549.5,371.5C 1549.5,350.833 1549.5,330.167 1549.5,309.5 Z"/></g>
<g><path style="opacity:1" fill="#5a3c18" d="M 1611.5,309.5 C 1632.17,309.5 1652.83,309.5 1673.5,309.5C 1673.5,350.833 1673.5,392.167 1673.5,433.5C 1652.83,433.5 1632.17,433.5 1611.5,433.5C 1611.5,392.167 1611.5,350.833 1611.5,309.5 Z"/></g>
<g><path style="opacity:1" fill="#5a3c18" d="M 681.5,371.5 C 681.5,392.167 681.5,412.833 681.5,433.5C 681.5,474.833 681.5,516.167 681.5,557.5C 681.5,598.833 681.5,640.167 681.5,681.5C 660.833,681.5 640.167,681.5 619.5,681.5C 619.5,578.167 619.5,474.833 619.5,371.5C 640.167,371.5 660.833,371.5 681.5,371.5 Z"/></g>
<g><path style="opacity:1" fill="#8d6637" d="M 681.5,371.5 C 702.167,371.5 722.833,371.5 743.5,371.5C 743.5,392.167 743.5,412.833 743.5,433.5C 722.833,433.5 702.167,433.5 681.5,433.5C 681.5,412.833 681.5,392.167 681.5,371.5 Z"/></g>
<g><path style="opacity:1" fill="#f1c6a0" d="M 867.5,371.5 C 888.167,371.5 908.833,371.5 929.5,371.5C 929.5,392.167 929.5,412.833 929.5,433.5C 908.833,433.5 888.167,433.5 867.5,433.5C 867.5,412.833 867.5,392.167 867.5,371.5 Z"/></g>
<g><path style="opacity:1" fill="#e1af95" d="M 1487.5,371.5 C 1487.5,392.167 1487.5,412.833 1487.5,433.5C 1446.17,433.5 1404.83,433.5 1363.5,433.5C 1363.5,412.833 1363.5,392.167 1363.5,371.5C 1404.83,371.5 1446.17,371.5 1487.5,371.5 Z"/></g>
<g><path style="opacity:1" fill="#735025" d="M 681.5,433.5 C 702.167,433.5 722.833,433.5 743.5,433.5C 743.5,454.167 743.5,474.833 743.5,495.5C 743.5,516.167 743.5,536.833 743.5,557.5C 722.833,557.5 702.167,557.5 681.5,557.5C 681.5,516.167 681.5,474.833 681.5,433.5 Z"/></g>
<g><path style="opacity:1" fill="#8d6637" d="M 743.5,433.5 C 764.167,433.5 784.833,433.5 805.5,433.5C 805.5,454.167 805.5,474.833 805.5,495.5C 784.833,495.5 764.167,495.5 743.5,495.5C 743.5,474.833 743.5,454.167 743.5,433.5 Z"/></g>
<g><path style="opacity:1" fill="#f4cfaf" d="M 805.5,433.5 C 826.167,433.5 846.833,433.5 867.5,433.5C 867.5,454.167 867.5,474.833 867.5,495.5C 867.5,516.167 867.5,536.833 867.5,557.5C 867.5,578.167 867.5,598.833 867.5,619.5C 846.833,619.5 826.167,619.5 805.5,619.5C 805.5,578.167 805.5,536.833 805.5,495.5C 805.5,474.833 805.5,454.167 805.5,433.5 Z"/></g>
<g><path style="opacity:1" fill="#442603" d="M 867.5,433.5 C 888.167,433.5 908.833,433.5 929.5,433.5C 929.5,454.167 929.5,474.833 929.5,495.5C 908.833,495.5 888.167,495.5 867.5,495.5C 867.5,474.833 867.5,454.167 867.5,433.5 Z"/></g>
<g><path style="opacity:1" fill="#4c2c06" d="M 929.5,433.5 C 950.167,433.5 970.833,433.5 991.5,433.5C 991.5,454.167 991.5,474.833 991.5,495.5C 970.833,495.5 950.167,495.5 929.5,495.5C 929.5,474.833 929.5,454.167 929.5,433.5 Z"/></g>
<g><path style="opacity:1" fill="#442603" d="M 1115.5,433.5 C 1115.5,454.167 1115.5,474.833 1115.5,495.5C 1094.83,495.5 1074.17,495.5 1053.5,495.5C 1053.5,474.833 1053.5,454.167 1053.5,433.5C 1074.17,433.5 1094.83,433.5 1115.5,433.5 Z"/></g>
<g><path style="opacity:1" fill="#4c2c06" d="M 1115.5,433.5 C 1136.17,433.5 1156.83,433.5 1177.5,433.5C 1177.5,454.167 1177.5,474.833 1177.5,495.5C 1156.83,495.5 1136.17,495.5 1115.5,495.5C 1115.5,474.833 1115.5,454.167 1115.5,433.5 Z"/></g>
<g><path style="opacity:1" fill="#f1c6a0" d="M 1363.5,433.5 C 1404.83,433.5 1446.17,433.5 1487.5,433.5C 1487.5,495.5 1487.5,557.5 1487.5,619.5C 1466.83,619.5 1446.17,619.5 1425.5,619.5C 1404.83,619.5 1384.17,619.5 1363.5,619.5C 1363.5,598.833 1363.5,578.167 1363.5,557.5C 1384.17,557.5 1404.83,557.5 1425.5,557.5C 1425.5,536.833 1425.5,516.167 1425.5,495.5C 1404.83,495.5 1384.17,495.5 1363.5,495.5C 1363.5,474.833 1363.5,454.167 1363.5,433.5 Z"/></g>
<g><path style="opacity:1" fill="#e1af95" d="M 1487.5,433.5 C 1508.17,433.5 1528.83,433.5 1549.5,433.5C 1549.5,454.167 1549.5,474.833 1549.5,495.5C 1549.5,516.167 1549.5,536.833 1549.5,557.5C 1549.5,598.833 1549.5,640.167 1549.5,681.5C 1528.83,681.5 1508.17,681.5 1487.5,681.5C 1487.5,702.167 1487.5,722.833 1487.5,743.5C 1466.83,743.5 1446.17,743.5 1425.5,743.5C 1425.5,722.833 1425.5,702.167 1425.5,681.5C 1425.5,660.833 1425.5,640.167 1425.5,619.5C 1446.17,619.5 1466.83,619.5 1487.5,619.5C 1487.5,557.5 1487.5,495.5 1487.5,433.5 Z"/></g>
<g><path style="opacity:1" fill="#7b562a" d="M 1611.5,433.5 C 1632.17,433.5 1652.83,433.5 1673.5,433.5C 1673.5,454.167 1673.5,474.833 1673.5,495.5C 1652.83,495.5 1632.17,495.5 1611.5,495.5C 1611.5,474.833 1611.5,454.167 1611.5,433.5 Z"/></g>
<g><path style="opacity:1" fill="#e1af95" d="M 743.5,495.5 C 764.167,495.5 784.833,495.5 805.5,495.5C 805.5,536.833 805.5,578.167 805.5,619.5C 805.5,640.167 805.5,660.833 805.5,681.5C 784.833,681.5 764.167,681.5 743.5,681.5C 743.5,640.167 743.5,598.833 743.5,557.5C 743.5,536.833 743.5,516.167 743.5,495.5 Z"/></g>
<g><path style="opacity:1" fill="#4c2c06" d="M 867.5,495.5 C 888.167,495.5 908.833,495.5 929.5,495.5C 929.5,516.167 929.5,536.833 929.5,557.5C 908.833,557.5 888.167,557.5 867.5,557.5C 867.5,536.833 867.5,516.167 867.5,495.5 Z"/></g>
<g><path style="opacity:1" fill="#fefffe" d="M 929.5,495.5 C 950.167,495.5 970.833,495.5 991.5,495.5C 991.5,536.833 991.5,578.167 991.5,619.5C 970.833,619.5 950.167,619.5 929.5,619.5C 929.5,598.833 929.5,578.167 929.5,557.5C 929.5,536.833 929.5,516.167 929.5,495.5 Z"/></g>
<g><path style="opacity:1" fill="#4c2c06" d="M 1053.5,495.5 C 1074.17,495.5 1094.83,495.5 1115.5,495.5C 1115.5,516.167 1115.5,536.833 1115.5,557.5C 1094.83,557.5 1074.17,557.5 1053.5,557.5C 1053.5,536.833 1053.5,516.167 1053.5,495.5 Z"/></g>
<g><path style="opacity:1" fill="#fefffe" d="M 1115.5,495.5 C 1136.17,495.5 1156.83,495.5 1177.5,495.5C 1177.5,536.833 1177.5,578.167 1177.5,619.5C 1156.83,619.5 1136.17,619.5 1115.5,619.5C 1115.5,598.833 1115.5,578.167 1115.5,557.5C 1115.5,536.833 1115.5,516.167 1115.5,495.5 Z"/></g>
<g><path style="opacity:1" fill="#bc9a7b" d="M 1363.5,495.5 C 1384.17,495.5 1404.83,495.5 1425.5,495.5C 1425.5,516.167 1425.5,536.833 1425.5,557.5C 1404.83,557.5 1384.17,557.5 1363.5,557.5C 1363.5,536.833 1363.5,516.167 1363.5,495.5 Z"/></g>
<g><path style="opacity:1" fill="#7b562a" d="M 1549.5,495.5 C 1570.17,495.5 1590.83,495.5 1611.5,495.5C 1611.5,516.167 1611.5,536.833 1611.5,557.5C 1590.83,557.5 1570.17,557.5 1549.5,557.5C 1549.5,536.833 1549.5,516.167 1549.5,495.5 Z"/></g>
<g><path style="opacity:1" fill="#5a3c18" d="M 1611.5,495.5 C 1632.17,495.5 1652.83,495.5 1673.5,495.5C 1673.5,598.833 1673.5,702.167 1673.5,805.5C 1652.83,805.5 1632.17,805.5 1611.5,805.5C 1611.5,722.833 1611.5,640.167 1611.5,557.5C 1611.5,536.833 1611.5,516.167 1611.5,495.5 Z"/></g>
<g><path style="opacity:1" fill="#6e4a20" d="M 681.5,557.5 C 702.167,557.5 722.833,557.5 743.5,557.5C 743.5,598.833 743.5,640.167 743.5,681.5C 722.833,681.5 702.167,681.5 681.5,681.5C 681.5,640.167 681.5,598.833 681.5,557.5 Z"/></g>
<g><path style="opacity:1" fill="#734f24" d="M 867.5,557.5 C 888.167,557.5 908.833,557.5 929.5,557.5C 929.5,578.167 929.5,598.833 929.5,619.5C 908.833,619.5 888.167,619.5 867.5,619.5C 867.5,598.833 867.5,578.167 867.5,557.5 Z"/></g>
<g><path style="opacity:1" fill="#734f24" d="M 1053.5,557.5 C 1074.17,557.5 1094.83,557.5 1115.5,557.5C 1115.5,578.167 1115.5,598.833 1115.5,619.5C 1094.83,619.5 1074.17,619.5 1053.5,619.5C 1053.5,598.833 1053.5,578.167 1053.5,557.5 Z"/></g>
<g><path style="opacity:1" fill="#6e4a20" d="M 1549.5,557.5 C 1570.17,557.5 1590.83,557.5 1611.5,557.5C 1611.5,640.167 1611.5,722.833 1611.5,805.5C 1611.5,826.167 1611.5,846.833 1611.5,867.5C 1590.83,867.5 1570.17,867.5 1549.5,867.5C 1528.83,867.5 1508.17,867.5 1487.5,867.5C 1466.83,867.5 1446.17,867.5 1425.5,867.5C 1425.5,888.167 1425.5,908.833 1425.5,929.5C 1425.5,970.833 1425.5,1012.17 1425.5,1053.5C 1425.5,1074.17 1425.5,1094.83 1425.5,1115.5C 1404.83,1115.5 1384.17,1115.5 1363.5,1115.5C 1363.5,1074.17 1363.5,1032.83 1363.5,991.5C 1363.5,950.167 1363.5,908.833 1363.5,867.5C 1363.5,846.833 1363.5,826.167 1363.5,805.5C 1384.17,805.5 1404.83,805.5 1425.5,805.5C 1425.5,784.833 1425.5,764.167 1425.5,743.5C 1446.17,743.5 1466.83,743.5 1487.5,743.5C 1487.5,722.833 1487.5,702.167 1487.5,681.5C 1508.17,681.5 1528.83,681.5 1549.5,681.5C 1549.5,640.167 1549.5,598.833 1549.5,557.5 Z"/></g>
<g><path style="opacity:1" fill="#feb2b1" d="M 805.5,619.5 C 826.167,619.5 846.833,619.5 867.5,619.5C 888.167,619.5 908.833,619.5 929.5,619.5C 929.5,640.167 929.5,660.833 929.5,681.5C 908.833,681.5 888.167,681.5 867.5,681.5C 846.833,681.5 826.167,681.5 805.5,681.5C 805.5,660.833 805.5,640.167 805.5,619.5 Z"/></g>
<g><path style="opacity:1" fill="#feb2b1" d="M 1115.5,619.5 C 1136.17,619.5 1156.83,619.5 1177.5,619.5C 1198.17,619.5 1218.83,619.5 1239.5,619.5C 1239.5,640.167 1239.5,660.833 1239.5,681.5C 1198.17,681.5 1156.83,681.5 1115.5,681.5C 1115.5,660.833 1115.5,640.167 1115.5,619.5 Z"/></g>
<g><path style="opacity:1" fill="#d8973d" d="M 1363.5,619.5 C 1384.17,619.5 1404.83,619.5 1425.5,619.5C 1425.5,640.167 1425.5,660.833 1425.5,681.5C 1404.83,681.5 1384.17,681.5 1363.5,681.5C 1363.5,660.833 1363.5,640.167 1363.5,619.5 Z"/></g>
<g><path style="opacity:1" fill="#5a3c18" d="M 681.5,681.5 C 702.167,681.5 722.833,681.5 743.5,681.5C 743.5,702.167 743.5,722.833 743.5,743.5C 722.833,743.5 702.167,743.5 681.5,743.5C 681.5,722.833 681.5,702.167 681.5,681.5 Z"/></g>
<g><path style="opacity:1" fill="#6e4a20" d="M 743.5,681.5 C 764.167,681.5 784.833,681.5 805.5,681.5C 805.5,702.167 805.5,722.833 805.5,743.5C 784.833,743.5 764.167,743.5 743.5,743.5C 743.5,722.833 743.5,702.167 743.5,681.5 Z"/></g>
<g><path style="opacity:1" fill="#e1af95" d="M 805.5,681.5 C 826.167,681.5 846.833,681.5 867.5,681.5C 867.5,702.167 867.5,722.833 867.5,743.5C 846.833,743.5 826.167,743.5 805.5,743.5C 805.5,722.833 805.5,702.167 805.5,681.5 Z"/></g>
<g><path style="opacity:1" fill="#edc6a4" d="M 867.5,681.5 C 888.167,681.5 908.833,681.5 929.5,681.5C 950.167,681.5 970.833,681.5 991.5,681.5C 991.5,702.167 991.5,722.833 991.5,743.5C 950.167,743.5 908.833,743.5 867.5,743.5C 867.5,722.833 867.5,702.167 867.5,681.5 Z"/></g>
<g><path style="opacity:1" fill="#edc6a4" d="M 1363.5,681.5 C 1384.17,681.5 1404.83,681.5 1425.5,681.5C 1425.5,702.167 1425.5,722.833 1425.5,743.5C 1384.17,743.5 1342.83,743.5 1301.5,743.5C 1301.5,722.833 1301.5,702.167 1301.5,681.5C 1322.17,681.5 1342.83,681.5 1363.5,681.5 Z"/></g>
<g><path style="opacity:1" fill="#5a3c18" d="M 743.5,743.5 C 764.167,743.5 784.833,743.5 805.5,743.5C 805.5,764.167 805.5,784.833 805.5,805.5C 805.5,826.167 805.5,846.833 805.5,867.5C 784.833,867.5 764.167,867.5 743.5,867.5C 743.5,826.167 743.5,784.833 743.5,743.5 Z"/></g>
<g><path style="opacity:1" fill="#6e4a20" d="M 805.5,743.5 C 826.167,743.5 846.833,743.5 867.5,743.5C 867.5,764.167 867.5,784.833 867.5,805.5C 846.833,805.5 826.167,805.5 805.5,805.5C 805.5,784.833 805.5,764.167 805.5,743.5 Z"/></g>
<g><path style="opacity:1" fill="#ca9e88" d="M 867.5,743.5 C 908.833,743.5 950.167,743.5 991.5,743.5C 991.5,764.167 991.5,784.833 991.5,805.5C 950.167,805.5 908.833,805.5 867.5,805.5C 867.5,784.833 867.5,764.167 867.5,743.5 Z"/></g>
<g><path style="opacity:1" fill="#edc6a4" d="M 991.5,743.5 C 1094.83,743.5 1198.17,743.5 1301.5,743.5C 1301.5,764.167 1301.5,784.833 1301.5,805.5C 1198.17,805.5 1094.83,805.5 991.5,805.5C 991.5,784.833 991.5,764.167 991.5,743.5 Z"/></g>
<g><path style="opacity:1" fill="#ca9e88" d="M 1301.5,743.5 C 1342.83,743.5 1384.17,743.5 1425.5,743.5C 1425.5,764.167 1425.5,784.833 1425.5,805.5C 1404.83,805.5 1384.17,805.5 1363.5,805.5C 1363.5,826.167 1363.5,846.833 1363.5,867.5C 1342.83,867.5 1322.17,867.5 1301.5,867.5C 1280.83,867.5 1260.17,867.5 1239.5,867.5C 1177.5,867.5 1115.5,867.5 1053.5,867.5C 1032.83,867.5 1012.17,867.5 991.5,867.5C 991.5,846.833 991.5,826.167 991.5,805.5C 1094.83,805.5 1198.17,805.5 1301.5,805.5C 1301.5,784.833 1301.5,764.167 1301.5,743.5 Z"/></g>
<g><path style="opacity:1" fill="#bb66f1" d="M 805.5,805.5 C 826.167,805.5 846.833,805.5 867.5,805.5C 867.5,826.167 867.5,846.833 867.5,867.5C 846.833,867.5 826.167,867.5 805.5,867.5C 805.5,846.833 805.5,826.167 805.5,805.5 Z"/></g>
<g><path style="opacity:1" fill="#6e4a20" d="M 867.5,805.5 C 908.833,805.5 950.167,805.5 991.5,805.5C 991.5,826.167 991.5,846.833 991.5,867.5C 970.833,867.5 950.167,867.5 929.5,867.5C 929.5,888.167 929.5,908.833 929.5,929.5C 929.5,950.167 929.5,970.833 929.5,991.5C 908.833,991.5 888.167,991.5 867.5,991.5C 867.5,950.167 867.5,908.833 867.5,867.5C 867.5,846.833 867.5,826.167 867.5,805.5 Z"/></g>
<g><path style="opacity:1" fill="#bb66f1" d="M 1611.5,805.5 C 1632.17,805.5 1652.83,805.5 1673.5,805.5C 1694.17,805.5 1714.83,805.5 1735.5,805.5C 1735.5,826.167 1735.5,846.833 1735.5,867.5C 1694.17,867.5 1652.83,867.5 1611.5,867.5C 1611.5,846.833 1611.5,826.167 1611.5,805.5 Z"/></g>
<g><path style="opacity:1" fill="#bb66f1" d="M 743.5,867.5 C 764.167,867.5 784.833,867.5 805.5,867.5C 805.5,888.167 805.5,908.833 805.5,929.5C 784.833,929.5 764.167,929.5 743.5,929.5C 743.5,908.833 743.5,888.167 743.5,867.5 Z"/></g>
<g><path style="opacity:1" fill="#ba4cff" d="M 805.5,867.5 C 826.167,867.5 846.833,867.5 867.5,867.5C 867.5,908.833 867.5,950.167 867.5,991.5C 826.167,991.5 784.833,991.5 743.5,991.5C 743.5,970.833 743.5,950.167 743.5,929.5C 764.167,929.5 784.833,929.5 805.5,929.5C 805.5,908.833 805.5,888.167 805.5,867.5 Z"/></g>
<g><path style="opacity:1" fill="#f1c6a0" d="M 991.5,867.5 C 991.5,888.167 991.5,908.833 991.5,929.5C 970.833,929.5 950.167,929.5 929.5,929.5C 929.5,908.833 929.5,888.167 929.5,867.5C 950.167,867.5 970.833,867.5 991.5,867.5 Z"/></g>
<g><path style="opacity:1" fill="#e9a13e" d="M 991.5,867.5 C 1012.17,867.5 1032.83,867.5 1053.5,867.5C 1053.5,888.167 1053.5,908.833 1053.5,929.5C 1032.83,929.5 1012.17,929.5 991.5,929.5C 991.5,908.833 991.5,888.167 991.5,867.5 Z"/></g>
<g><path style="opacity:1" fill="#f1c6a0" d="M 1053.5,867.5 C 1115.5,867.5 1177.5,867.5 1239.5,867.5C 1239.5,888.167 1239.5,908.833 1239.5,929.5C 1218.83,929.5 1198.17,929.5 1177.5,929.5C 1177.5,950.167 1177.5,970.833 1177.5,991.5C 1156.83,991.5 1136.17,991.5 1115.5,991.5C 1115.5,970.833 1115.5,950.167 1115.5,929.5C 1094.83,929.5 1074.17,929.5 1053.5,929.5C 1053.5,908.833 1053.5,888.167 1053.5,867.5 Z"/></g>
<g><path style="opacity:1" fill="#e9a13e" d="M 1239.5,867.5 C 1260.17,867.5 1280.83,867.5 1301.5,867.5C 1301.5,888.167 1301.5,908.833 1301.5,929.5C 1280.83,929.5 1260.17,929.5 1239.5,929.5C 1239.5,908.833 1239.5,888.167 1239.5,867.5 Z"/></g>
<g><path style="opacity:1" fill="#f1c6a0" d="M 1301.5,867.5 C 1322.17,867.5 1342.83,867.5 1363.5,867.5C 1363.5,908.833 1363.5,950.167 1363.5,991.5C 1322.17,991.5 1280.83,991.5 1239.5,991.5C 1239.5,970.833 1239.5,950.167 1239.5,929.5C 1260.17,929.5 1280.83,929.5 1301.5,929.5C 1301.5,908.833 1301.5,888.167 1301.5,867.5 Z"/></g>
<g><path style="opacity:1" fill="#f1c6a0" d="M 1487.5,867.5 C 1487.5,888.167 1487.5,908.833 1487.5,929.5C 1466.83,929.5 1446.17,929.5 1425.5,929.5C 1425.5,908.833 1425.5,888.167 1425.5,867.5C 1446.17,867.5 1466.83,867.5 1487.5,867.5 Z"/></g>
<g><path style="opacity:1" fill="#deabff" d="M 1487.5,867.5 C 1508.17,867.5 1528.83,867.5 1549.5,867.5C 1549.5,888.167 1549.5,908.833 1549.5,929.5C 1528.83,929.5 1508.17,929.5 1487.5,929.5C 1487.5,908.833 1487.5,888.167 1487.5,867.5 Z"/></g>
<g><path style="opacity:1" fill="#bb66f1" d="M 1549.5,867.5 C 1570.17,867.5 1590.83,867.5 1611.5,867.5C 1611.5,888.167 1611.5,908.833 1611.5,929.5C 1590.83,929.5 1570.17,929.5 1549.5,929.5C 1549.5,908.833 1549.5,888.167 1549.5,867.5 Z"/></g>
<g><path style="opacity:1" fill="#b654f5" d="M 1611.5,867.5 C 1652.83,867.5 1694.17,867.5 1735.5,867.5C 1735.5,888.167 1735.5,908.833 1735.5,929.5C 1694.17,929.5 1652.83,929.5 1611.5,929.5C 1611.5,908.833 1611.5,888.167 1611.5,867.5 Z"/></g>
<g><path style="opacity:1" fill="#bb66f1" d="M 1735.5,867.5 C 1756.17,867.5 1776.83,867.5 1797.5,867.5C 1797.5,888.167 1797.5,908.833 1797.5,929.5C 1776.83,929.5 1756.17,929.5 1735.5,929.5C 1735.5,908.833 1735.5,888.167 1735.5,867.5 Z"/></g>
<g><path style="opacity:1" fill="#bb66f1" d="M 743.5,929.5 C 743.5,950.167 743.5,970.833 743.5,991.5C 722.833,991.5 702.167,991.5 681.5,991.5C 681.5,970.833 681.5,950.167 681.5,929.5C 702.167,929.5 722.833,929.5 743.5,929.5 Z"/></g>
<g><path style="opacity:1" fill="#deabff" d="M 929.5,929.5 C 950.167,929.5 970.833,929.5 991.5,929.5C 991.5,950.167 991.5,970.833 991.5,991.5C 970.833,991.5 950.167,991.5 929.5,991.5C 929.5,970.833 929.5,950.167 929.5,929.5 Z"/></g>
<g><path style="opacity:1" fill="#f1c6a0" d="M 991.5,929.5 C 1012.17,929.5 1032.83,929.5 1053.5,929.5C 1053.5,950.167 1053.5,970.833 1053.5,991.5C 1032.83,991.5 1012.17,991.5 991.5,991.5C 991.5,970.833 991.5,950.167 991.5,929.5 Z"/></g>
<g><path style="opacity:1" fill="#e9a13e" d="M 1053.5,929.5 C 1074.17,929.5 1094.83,929.5 1115.5,929.5C 1115.5,950.167 1115.5,970.833 1115.5,991.5C 1094.83,991.5 1074.17,991.5 1053.5,991.5C 1053.5,970.833 1053.5,950.167 1053.5,929.5 Z"/></g>
<g><path style="opacity:1" fill="#e9a13e" d="M 1239.5,929.5 C 1239.5,950.167 1239.5,970.833 1239.5,991.5C 1218.83,991.5 1198.17,991.5 1177.5,991.5C 1177.5,970.833 1177.5,950.167 1177.5,929.5C 1198.17,929.5 1218.83,929.5 1239.5,929.5 Z"/></g>
<g><path style="opacity:1" fill="#deabff" d="M 1425.5,929.5 C 1446.17,929.5 1466.83,929.5 1487.5,929.5C 1487.5,950.167 1487.5,970.833 1487.5,991.5C 1487.5,1012.17 1487.5,1032.83 1487.5,1053.5C 1466.83,1053.5 1446.17,1053.5 1425.5,1053.5C 1425.5,1012.17 1425.5,970.833 1425.5,929.5 Z"/></g>
<g><path style="opacity:1" fill="#bb66f1" d="M 1487.5,929.5 C 1508.17,929.5 1528.83,929.5 1549.5,929.5C 1549.5,950.167 1549.5,970.833 1549.5,991.5C 1528.83,991.5 1508.17,991.5 1487.5,991.5C 1487.5,970.833 1487.5,950.167 1487.5,929.5 Z"/></g>
<g><path style="opacity:1" fill="#ba4cff" d="M 1549.5,929.5 C 1570.17,929.5 1590.83,929.5 1611.5,929.5C 1652.83,929.5 1694.17,929.5 1735.5,929.5C 1735.5,950.167 1735.5,970.833 1735.5,991.5C 1756.17,991.5 1776.83,991.5 1797.5,991.5C 1797.5,1012.17 1797.5,1032.83 1797.5,1053.5C 1714.83,1053.5 1632.17,1053.5 1549.5,1053.5C 1549.5,1032.83 1549.5,1012.17 1549.5,991.5C 1549.5,970.833 1549.5,950.167 1549.5,929.5 Z"/></g>
<g><path style="opacity:1" fill="#b654f5" d="M 1735.5,929.5 C 1756.17,929.5 1776.83,929.5 1797.5,929.5C 1797.5,950.167 1797.5,970.833 1797.5,991.5C 1776.83,991.5 1756.17,991.5 1735.5,991.5C 1735.5,970.833 1735.5,950.167 1735.5,929.5 Z"/></g>
<g><path style="opacity:1" fill="#bb66f1" d="M 1797.5,929.5 C 1818.17,929.5 1838.83,929.5 1859.5,929.5C 1859.5,950.167 1859.5,970.833 1859.5,991.5C 1838.83,991.5 1818.17,991.5 1797.5,991.5C 1797.5,970.833 1797.5,950.167 1797.5,929.5 Z"/></g>
<g><path style="opacity:1" fill="#b654f5" d="M 681.5,991.5 C 702.167,991.5 722.833,991.5 743.5,991.5C 784.833,991.5 826.167,991.5 867.5,991.5C 867.5,1012.17 867.5,1032.83 867.5,1053.5C 784.833,1053.5 702.167,1053.5 619.5,1053.5C 619.5,1032.83 619.5,1012.17 619.5,991.5C 640.167,991.5 660.833,991.5 681.5,991.5 Z"/></g>
<g><path style="opacity:1" fill="#deabff" d="M 867.5,991.5 C 888.167,991.5 908.833,991.5 929.5,991.5C 929.5,1012.17 929.5,1032.83 929.5,1053.5C 908.833,1053.5 888.167,1053.5 867.5,1053.5C 867.5,1032.83 867.5,1012.17 867.5,991.5 Z"/></g>
<g><path style="opacity:1" fill="#6e4a20" d="M 929.5,991.5 C 950.167,991.5 970.833,991.5 991.5,991.5C 991.5,1012.17 991.5,1032.83 991.5,1053.5C 970.833,1053.5 950.167,1053.5 929.5,1053.5C 929.5,1032.83 929.5,1012.17 929.5,991.5 Z"/></g>
<g><path style="opacity:1" fill="#deabff" d="M 991.5,991.5 C 1012.17,991.5 1032.83,991.5 1053.5,991.5C 1053.5,1012.17 1053.5,1032.83 1053.5,1053.5C 1053.5,1074.17 1053.5,1094.83 1053.5,1115.5C 1012.17,1115.5 970.833,1115.5 929.5,1115.5C 929.5,1094.83 929.5,1074.17 929.5,1053.5C 950.167,1053.5 970.833,1053.5 991.5,1053.5C 991.5,1032.83 991.5,1012.17 991.5,991.5 Z"/></g>
<g><path style="opacity:1" fill="#f1c6a0" d="M 1053.5,991.5 C 1074.17,991.5 1094.83,991.5 1115.5,991.5C 1115.5,1012.17 1115.5,1032.83 1115.5,1053.5C 1094.83,1053.5 1074.17,1053.5 1053.5,1053.5C 1053.5,1032.83 1053.5,1012.17 1053.5,991.5 Z"/></g>
<g><path style="opacity:1" fill="#e9a13e" d="M 1115.5,991.5 C 1136.17,991.5 1156.83,991.5 1177.5,991.5C 1177.5,1012.17 1177.5,1032.83 1177.5,1053.5C 1156.83,1053.5 1136.17,1053.5 1115.5,1053.5C 1115.5,1032.83 1115.5,1012.17 1115.5,991.5 Z"/></g>
<g><path style="opacity:1" fill="#f1c6a0" d="M 1177.5,991.5 C 1198.17,991.5 1218.83,991.5 1239.5,991.5C 1239.5,1012.17 1239.5,1032.83 1239.5,1053.5C 1218.83,1053.5 1198.17,1053.5 1177.5,1053.5C 1177.5,1032.83 1177.5,1012.17 1177.5,991.5 Z"/></g>
<g><path style="opacity:1" fill="#deabff" d="M 1239.5,991.5 C 1280.83,991.5 1322.17,991.5 1363.5,991.5C 1363.5,1032.83 1363.5,1074.17 1363.5,1115.5C 1342.83,1115.5 1322.17,1115.5 1301.5,1115.5C 1280.83,1115.5 1260.17,1115.5 1239.5,1115.5C 1239.5,1094.83 1239.5,1074.17 1239.5,1053.5C 1239.5,1032.83 1239.5,1012.17 1239.5,991.5 Z"/></g>
<g><path style="opacity:1" fill="#b654f5" d="M 1487.5,991.5 C 1508.17,991.5 1528.83,991.5 1549.5,991.5C 1549.5,1012.17 1549.5,1032.83 1549.5,1053.5C 1528.83,1053.5 1508.17,1053.5 1487.5,1053.5C 1487.5,1032.83 1487.5,1012.17 1487.5,991.5 Z"/></g>
<g><path style="opacity:1" fill="#ae4aee" d="M 1797.5,991.5 C 1818.17,991.5 1838.83,991.5 1859.5,991.5C 1859.5,1012.17 1859.5,1032.83 1859.5,1053.5C 1838.83,1053.5 1818.17,1053.5 1797.5,1053.5C 1797.5,1032.83 1797.5,1012.17 1797.5,991.5 Z"/></g>
<g><path style="opacity:1" fill="#ae4aee" d="M 619.5,1053.5 C 702.167,1053.5 784.833,1053.5 867.5,1053.5C 867.5,1074.17 867.5,1094.83 867.5,1115.5C 784.833,1115.5 702.167,1115.5 619.5,1115.5C 619.5,1094.83 619.5,1074.17 619.5,1053.5 Z"/></g>
<g><path style="opacity:1" fill="#d4afeb" d="M 867.5,1053.5 C 888.167,1053.5 908.833,1053.5 929.5,1053.5C 929.5,1074.17 929.5,1094.83 929.5,1115.5C 908.833,1115.5 888.167,1115.5 867.5,1115.5C 867.5,1094.83 867.5,1074.17 867.5,1053.5 Z"/></g>
<g><path style="opacity:1" fill="#d4afeb" d="M 1053.5,1053.5 C 1074.17,1053.5 1094.83,1053.5 1115.5,1053.5C 1115.5,1074.17 1115.5,1094.83 1115.5,1115.5C 1094.83,1115.5 1074.17,1115.5 1053.5,1115.5C 1053.5,1094.83 1053.5,1074.17 1053.5,1053.5 Z"/></g>
<g><path style="opacity:1" fill="#f1c6a0" d="M 1115.5,1053.5 C 1136.17,1053.5 1156.83,1053.5 1177.5,1053.5C 1177.5,1074.17 1177.5,1094.83 1177.5,1115.5C 1156.83,1115.5 1136.17,1115.5 1115.5,1115.5C 1115.5,1094.83 1115.5,1074.17 1115.5,1053.5 Z"/></g>
<g><path style="opacity:1" fill="#d4afeb" d="M 1177.5,1053.5 C 1198.17,1053.5 1218.83,1053.5 1239.5,1053.5C 1239.5,1074.17 1239.5,1094.83 1239.5,1115.5C 1218.83,1115.5 1198.17,1115.5 1177.5,1115.5C 1177.5,1094.83 1177.5,1074.17 1177.5,1053.5 Z"/></g>
<g><path style="opacity:1" fill="#d4afeb" d="M 1425.5,1053.5 C 1446.17,1053.5 1466.83,1053.5 1487.5,1053.5C 1487.5,1074.17 1487.5,1094.83 1487.5,1115.5C 1466.83,1115.5 1446.17,1115.5 1425.5,1115.5C 1425.5,1094.83 1425.5,1074.17 1425.5,1053.5 Z"/></g>
<g><path style="opacity:1" fill="#ae4aee" d="M 1487.5,1053.5 C 1508.17,1053.5 1528.83,1053.5 1549.5,1053.5C 1632.17,1053.5 1714.83,1053.5 1797.5,1053.5C 1797.5,1074.17 1797.5,1094.83 1797.5,1115.5C 1694.17,1115.5 1590.83,1115.5 1487.5,1115.5C 1487.5,1094.83 1487.5,1074.17 1487.5,1053.5 Z"/></g>
<g><path style="opacity:1" fill="#a837f0" d="M 1797.5,1053.5 C 1818.17,1053.5 1838.83,1053.5 1859.5,1053.5C 1859.5,1094.83 1859.5,1136.17 1859.5,1177.5C 1838.83,1177.5 1818.17,1177.5 1797.5,1177.5C 1714.83,1177.5 1632.17,1177.5 1549.5,1177.5C 1528.83,1177.5 1508.17,1177.5 1487.5,1177.5C 1487.5,1156.83 1487.5,1136.17 1487.5,1115.5C 1590.83,1115.5 1694.17,1115.5 1797.5,1115.5C 1797.5,1094.83 1797.5,1074.17 1797.5,1053.5 Z"/></g>
<g><path style="opacity:1" fill="#a837f0" d="M 619.5,1115.5 C 702.167,1115.5 784.833,1115.5 867.5,1115.5C 867.5,1136.17 867.5,1156.83 867.5,1177.5C 805.5,1177.5 743.5,1177.5 681.5,1177.5C 660.833,1177.5 640.167,1177.5 619.5,1177.5C 619.5,1156.83 619.5,1136.17 619.5,1115.5 Z"/></g>
<g><path style="opacity:1" fill="#d7a7f7" d="M 867.5,1115.5 C 888.167,1115.5 908.833,1115.5 929.5,1115.5C 929.5,1136.17 929.5,1156.83 929.5,1177.5C 908.833,1177.5 888.167,1177.5 867.5,1177.5C 867.5,1156.83 867.5,1136.17 867.5,1115.5 Z"/></g>
<g><path style="opacity:1" fill="#d4afeb" d="M 929.5,1115.5 C 970.833,1115.5 1012.17,1115.5 1053.5,1115.5C 1053.5,1136.17 1053.5,1156.83 1053.5,1177.5C 1012.17,1177.5 970.833,1177.5 929.5,1177.5C 929.5,1156.83 929.5,1136.17 929.5,1115.5 Z"/></g>
<g><path style="opacity:1" fill="#d7a7f7" d="M 1053.5,1115.5 C 1074.17,1115.5 1094.83,1115.5 1115.5,1115.5C 1115.5,1136.17 1115.5,1156.83 1115.5,1177.5C 1094.83,1177.5 1074.17,1177.5 1053.5,1177.5C 1053.5,1156.83 1053.5,1136.17 1053.5,1115.5 Z"/></g>
<g><path style="opacity:1" fill="#dab6f1" d="M 1115.5,1115.5 C 1136.17,1115.5 1156.83,1115.5 1177.5,1115.5C 1177.5,1136.17 1177.5,1156.83 1177.5,1177.5C 1177.5,1280.83 1177.5,1384.17 1177.5,1487.5C 1156.83,1487.5 1136.17,1487.5 1115.5,1487.5C 1115.5,1466.83 1115.5,1446.17 1115.5,1425.5C 1115.5,1342.83 1115.5,1260.17 1115.5,1177.5C 1115.5,1156.83 1115.5,1136.17 1115.5,1115.5 Z"/></g>
<g><path style="opacity:1" fill="#d7a7f7" d="M 1177.5,1115.5 C 1198.17,1115.5 1218.83,1115.5 1239.5,1115.5C 1239.5,1136.17 1239.5,1156.83 1239.5,1177.5C 1218.83,1177.5 1198.17,1177.5 1177.5,1177.5C 1177.5,1156.83 1177.5,1136.17 1177.5,1115.5 Z"/></g>
<g><path style="opacity:1" fill="#d4afeb" d="M 1239.5,1115.5 C 1260.17,1115.5 1280.83,1115.5 1301.5,1115.5C 1301.5,1136.17 1301.5,1156.83 1301.5,1177.5C 1280.83,1177.5 1260.17,1177.5 1239.5,1177.5C 1239.5,1156.83 1239.5,1136.17 1239.5,1115.5 Z"/></g>
<g><path style="opacity:1" fill="#6e4a20" d="M 1301.5,1115.5 C 1322.17,1115.5 1342.83,1115.5 1363.5,1115.5C 1363.5,1136.17 1363.5,1156.83 1363.5,1177.5C 1342.83,1177.5 1322.17,1177.5 1301.5,1177.5C 1301.5,1156.83 1301.5,1136.17 1301.5,1115.5 Z"/></g>
<g><path style="opacity:1" fill="#d4afeb" d="M 1363.5,1115.5 C 1384.17,1115.5 1404.83,1115.5 1425.5,1115.5C 1425.5,1136.17 1425.5,1156.83 1425.5,1177.5C 1404.83,1177.5 1384.17,1177.5 1363.5,1177.5C 1363.5,1156.83 1363.5,1136.17 1363.5,1115.5 Z"/></g>
<g><path style="opacity:1" fill="#d7a7f7" d="M 1425.5,1115.5 C 1446.17,1115.5 1466.83,1115.5 1487.5,1115.5C 1487.5,1136.17 1487.5,1156.83 1487.5,1177.5C 1466.83,1177.5 1446.17,1177.5 1425.5,1177.5C 1425.5,1156.83 1425.5,1136.17 1425.5,1115.5 Z"/></g>
<g><path style="opacity:1" fill="#fcd768" d="M 681.5,1177.5 C 743.5,1177.5 805.5,1177.5 867.5,1177.5C 867.5,1198.17 867.5,1218.83 867.5,1239.5C 805.5,1239.5 743.5,1239.5 681.5,1239.5C 681.5,1218.83 681.5,1198.17 681.5,1177.5 Z"/></g>
<g><path style="opacity:1" fill="#dab6f1" d="M 867.5,1177.5 C 888.167,1177.5 908.833,1177.5 929.5,1177.5C 929.5,1198.17 929.5,1218.83 929.5,1239.5C 929.5,1260.17 929.5,1280.83 929.5,1301.5C 908.833,1301.5 888.167,1301.5 867.5,1301.5C 867.5,1280.83 867.5,1260.17 867.5,1239.5C 867.5,1218.83 867.5,1198.17 867.5,1177.5 Z"/></g>
<g><path style="opacity:1" fill="#d7a7f7" d="M 929.5,1177.5 C 970.833,1177.5 1012.17,1177.5 1053.5,1177.5C 1053.5,1198.17 1053.5,1218.83 1053.5,1239.5C 1032.83,1239.5 1012.17,1239.5 991.5,1239.5C 970.833,1239.5 950.167,1239.5 929.5,1239.5C 929.5,1218.83 929.5,1198.17 929.5,1177.5 Z"/></g>
<g><path style="opacity:1" fill="#deabff" d="M 1053.5,1177.5 C 1074.17,1177.5 1094.83,1177.5 1115.5,1177.5C 1115.5,1260.17 1115.5,1342.83 1115.5,1425.5C 1094.83,1425.5 1074.17,1425.5 1053.5,1425.5C 1053.5,1404.83 1053.5,1384.17 1053.5,1363.5C 1053.5,1322.17 1053.5,1280.83 1053.5,1239.5C 1053.5,1218.83 1053.5,1198.17 1053.5,1177.5 Z"/></g>
<g><path style="opacity:1" fill="#deabff" d="M 1177.5,1177.5 C 1198.17,1177.5 1218.83,1177.5 1239.5,1177.5C 1239.5,1198.17 1239.5,1218.83 1239.5,1239.5C 1239.5,1301.5 1239.5,1363.5 1239.5,1425.5C 1239.5,1446.17 1239.5,1466.83 1239.5,1487.5C 1218.83,1487.5 1198.17,1487.5 1177.5,1487.5C 1177.5,1384.17 1177.5,1280.83 1177.5,1177.5 Z"/></g>
<g><path style="opacity:1" fill="#d7a7f7" d="M 1239.5,1177.5 C 1260.17,1177.5 1280.83,1177.5 1301.5,1177.5C 1322.17,1177.5 1342.83,1177.5 1363.5,1177.5C 1384.17,1177.5 1404.83,1177.5 1425.5,1177.5C 1425.5,1198.17 1425.5,1218.83 1425.5,1239.5C 1404.83,1239.5 1384.17,1239.5 1363.5,1239.5C 1342.83,1239.5 1322.17,1239.5 1301.5,1239.5C 1280.83,1239.5 1260.17,1239.5 1239.5,1239.5C 1239.5,1218.83 1239.5,1198.17 1239.5,1177.5 Z"/></g>
<g><path style="opacity:1" fill="#deabff" d="M 1425.5,1177.5 C 1446.17,1177.5 1466.83,1177.5 1487.5,1177.5C 1487.5,1198.17 1487.5,1218.83 1487.5,1239.5C 1487.5,1260.17 1487.5,1280.83 1487.5,1301.5C 1466.83,1301.5 1446.17,1301.5 1425.5,1301.5C 1425.5,1280.83 1425.5,1260.17 1425.5,1239.5C 1425.5,1218.83 1425.5,1198.17 1425.5,1177.5 Z"/></g>
<g><path style="opacity:1" fill="#d2a8ed" d="M 1487.5,1177.5 C 1508.17,1177.5 1528.83,1177.5 1549.5,1177.5C 1549.5,1198.17 1549.5,1218.83 1549.5,1239.5C 1528.83,1239.5 1508.17,1239.5 1487.5,1239.5C 1487.5,1218.83 1487.5,1198.17 1487.5,1177.5 Z"/></g>
<g><path style="opacity:1" fill="#fcd768" d="M 1549.5,1177.5 C 1632.17,1177.5 1714.83,1177.5 1797.5,1177.5C 1797.5,1198.17 1797.5,1218.83 1797.5,1239.5C 1714.83,1239.5 1632.17,1239.5 1549.5,1239.5C 1549.5,1218.83 1549.5,1198.17 1549.5,1177.5 Z"/></g>
<g><path style="opacity:1" fill="#f1c6a0" d="M 681.5,1239.5 C 743.5,1239.5 805.5,1239.5 867.5,1239.5C 867.5,1260.17 867.5,1280.83 867.5,1301.5C 867.5,1322.17 867.5,1342.83 867.5,1363.5C 805.5,1363.5 743.5,1363.5 681.5,1363.5C 681.5,1322.17 681.5,1280.83 681.5,1239.5 Z"/></g>
<g><path style="opacity:1" fill="#deabff" d="M 929.5,1239.5 C 950.167,1239.5 970.833,1239.5 991.5,1239.5C 991.5,1260.17 991.5,1280.83 991.5,1301.5C 970.833,1301.5 950.167,1301.5 929.5,1301.5C 929.5,1280.83 929.5,1260.17 929.5,1239.5 Z"/></g>
<g><path style="opacity:1" fill="#dab6f1" d="M 991.5,1239.5 C 1012.17,1239.5 1032.83,1239.5 1053.5,1239.5C 1053.5,1280.83 1053.5,1322.17 1053.5,1363.5C 1032.83,1363.5 1012.17,1363.5 991.5,1363.5C 991.5,1342.83 991.5,1322.17 991.5,1301.5C 991.5,1280.83 991.5,1260.17 991.5,1239.5 Z"/></g>
<g><path style="opacity:1" fill="#dab6f1" d="M 1239.5,1239.5 C 1260.17,1239.5 1280.83,1239.5 1301.5,1239.5C 1301.5,1280.83 1301.5,1322.17 1301.5,1363.5C 1301.5,1384.17 1301.5,1404.83 1301.5,1425.5C 1280.83,1425.5 1260.17,1425.5 1239.5,1425.5C 1239.5,1363.5 1239.5,1301.5 1239.5,1239.5 Z"/></g>
<g><path style="opacity:1" fill="#deabff" d="M 1301.5,1239.5 C 1322.17,1239.5 1342.83,1239.5 1363.5,1239.5C 1363.5,1260.17 1363.5,1280.83 1363.5,1301.5C 1363.5,1322.17 1363.5,1342.83 1363.5,1363.5C 1342.83,1363.5 1322.17,1363.5 1301.5,1363.5C 1301.5,1322.17 1301.5,1280.83 1301.5,1239.5 Z"/></g>
<g><path style="opacity:1" fill="#dab6f1" d="M 1363.5,1239.5 C 1384.17,1239.5 1404.83,1239.5 1425.5,1239.5C 1425.5,1260.17 1425.5,1280.83 1425.5,1301.5C 1404.83,1301.5 1384.17,1301.5 1363.5,1301.5C 1363.5,1280.83 1363.5,1260.17 1363.5,1239.5 Z"/></g>
<g><path style="opacity:1" fill="#5a3c18" d="M 1487.5,1239.5 C 1508.17,1239.5 1528.83,1239.5 1549.5,1239.5C 1549.5,1280.83 1549.5,1322.17 1549.5,1363.5C 1549.5,1384.17 1549.5,1404.83 1549.5,1425.5C 1528.83,1425.5 1508.17,1425.5 1487.5,1425.5C 1487.5,1404.83 1487.5,1384.17 1487.5,1363.5C 1466.83,1363.5 1446.17,1363.5 1425.5,1363.5C 1425.5,1342.83 1425.5,1322.17 1425.5,1301.5C 1446.17,1301.5 1466.83,1301.5 1487.5,1301.5C 1487.5,1280.83 1487.5,1260.17 1487.5,1239.5 Z"/></g>
<g><path style="opacity:1" fill="#f1c6a0" d="M 1549.5,1239.5 C 1632.17,1239.5 1714.83,1239.5 1797.5,1239.5C 1797.5,1260.17 1797.5,1280.83 1797.5,1301.5C 1797.5,1322.17 1797.5,1342.83 1797.5,1363.5C 1714.83,1363.5 1632.17,1363.5 1549.5,1363.5C 1549.5,1322.17 1549.5,1280.83 1549.5,1239.5 Z"/></g>
<g><path style="opacity:1" fill="#5a3c18" d="M 867.5,1301.5 C 888.167,1301.5 908.833,1301.5 929.5,1301.5C 929.5,1322.17 929.5,1342.83 929.5,1363.5C 908.833,1363.5 888.167,1363.5 867.5,1363.5C 867.5,1342.83 867.5,1322.17 867.5,1301.5 Z"/></g>
<g><path style="opacity:1" fill="#fcd768" d="M 929.5,1301.5 C 950.167,1301.5 970.833,1301.5 991.5,1301.5C 991.5,1322.17 991.5,1342.83 991.5,1363.5C 970.833,1363.5 950.167,1363.5 929.5,1363.5C 929.5,1342.83 929.5,1322.17 929.5,1301.5 Z"/></g>
<g><path style="opacity:1" fill="#fcd768" d="M 1363.5,1301.5 C 1384.17,1301.5 1404.83,1301.5 1425.5,1301.5C 1425.5,1322.17 1425.5,1342.83 1425.5,1363.5C 1404.83,1363.5 1384.17,1363.5 1363.5,1363.5C 1363.5,1342.83 1363.5,1322.17 1363.5,1301.5 Z"/></g>
<g><path style="opacity:1" fill="#5a3c18" d="M 1797.5,1301.5 C 1818.17,1301.5 1838.83,1301.5 1859.5,1301.5C 1859.5,1322.17 1859.5,1342.83 1859.5,1363.5C 1880.17,1363.5 1900.83,1363.5 1921.5,1363.5C 1921.5,1384.17 1921.5,1404.83 1921.5,1425.5C 1942.17,1425.5 1962.83,1425.5 1983.5,1425.5C 1983.5,1446.17 1983.5,1466.83 1983.5,1487.5C 1962.83,1487.5 1942.17,1487.5 1921.5,1487.5C 1921.5,1508.17 1921.5,1528.83 1921.5,1549.5C 1900.83,1549.5 1880.17,1549.5 1859.5,1549.5C 1859.5,1528.83 1859.5,1508.17 1859.5,1487.5C 1838.83,1487.5 1818.17,1487.5 1797.5,1487.5C 1797.5,1446.17 1797.5,1404.83 1797.5,1363.5C 1797.5,1342.83 1797.5,1322.17 1797.5,1301.5 Z"/></g>
<g><path style="opacity:1" fill="#5a3c18" d="M 681.5,1363.5 C 681.5,1404.83 681.5,1446.17 681.5,1487.5C 660.833,1487.5 640.167,1487.5 619.5,1487.5C 619.5,1528.83 619.5,1570.17 619.5,1611.5C 598.833,1611.5 578.167,1611.5 557.5,1611.5C 557.5,1590.83 557.5,1570.17 557.5,1549.5C 536.833,1549.5 516.167,1549.5 495.5,1549.5C 495.5,1528.83 495.5,1508.17 495.5,1487.5C 516.167,1487.5 536.833,1487.5 557.5,1487.5C 557.5,1466.83 557.5,1446.17 557.5,1425.5C 578.167,1425.5 598.833,1425.5 619.5,1425.5C 619.5,1404.83 619.5,1384.17 619.5,1363.5C 640.167,1363.5 660.833,1363.5 681.5,1363.5 Z"/></g>
<g><path style="opacity:1" fill="#febffe" d="M 681.5,1363.5 C 743.5,1363.5 805.5,1363.5 867.5,1363.5C 867.5,1384.17 867.5,1404.83 867.5,1425.5C 867.5,1446.17 867.5,1466.83 867.5,1487.5C 846.833,1487.5 826.167,1487.5 805.5,1487.5C 764.167,1487.5 722.833,1487.5 681.5,1487.5C 681.5,1446.17 681.5,1404.83 681.5,1363.5 Z"/></g>
<g><path style="opacity:1" fill="#d49bf8" d="M 867.5,1363.5 C 888.167,1363.5 908.833,1363.5 929.5,1363.5C 950.167,1363.5 970.833,1363.5 991.5,1363.5C 991.5,1384.17 991.5,1404.83 991.5,1425.5C 950.167,1425.5 908.833,1425.5 867.5,1425.5C 867.5,1404.83 867.5,1384.17 867.5,1363.5 Z"/></g>
<g><path style="opacity:1" fill="#fcd768" d="M 991.5,1363.5 C 1012.17,1363.5 1032.83,1363.5 1053.5,1363.5C 1053.5,1384.17 1053.5,1404.83 1053.5,1425.5C 1032.83,1425.5 1012.17,1425.5 991.5,1425.5C 991.5,1404.83 991.5,1384.17 991.5,1363.5 Z"/></g>
<g><path style="opacity:1" fill="#fcd768" d="M 1301.5,1363.5 C 1322.17,1363.5 1342.83,1363.5 1363.5,1363.5C 1363.5,1384.17 1363.5,1404.83 1363.5,1425.5C 1342.83,1425.5 1322.17,1425.5 1301.5,1425.5C 1301.5,1404.83 1301.5,1384.17 1301.5,1363.5 Z"/></g>
<g><path style="opacity:1" fill="#d49bf8" d="M 1363.5,1363.5 C 1384.17,1363.5 1404.83,1363.5 1425.5,1363.5C 1446.17,1363.5 1466.83,1363.5 1487.5,1363.5C 1487.5,1384.17 1487.5,1404.83 1487.5,1425.5C 1446.17,1425.5 1404.83,1425.5 1363.5,1425.5C 1363.5,1404.83 1363.5,1384.17 1363.5,1363.5 Z"/></g>
<g><path style="opacity:1" fill="#febffe" d="M 1549.5,1363.5 C 1632.17,1363.5 1714.83,1363.5 1797.5,1363.5C 1797.5,1404.83 1797.5,1446.17 1797.5,1487.5C 1735.5,1487.5 1673.5,1487.5 1611.5,1487.5C 1590.83,1487.5 1570.17,1487.5 1549.5,1487.5C 1549.5,1466.83 1549.5,1446.17 1549.5,1425.5C 1549.5,1404.83 1549.5,1384.17 1549.5,1363.5 Z"/></g>
<g><path style="opacity:1" fill="#c47ef0" d="M 867.5,1425.5 C 908.833,1425.5 950.167,1425.5 991.5,1425.5C 991.5,1466.83 991.5,1508.17 991.5,1549.5C 950.167,1549.5 908.833,1549.5 867.5,1549.5C 867.5,1528.83 867.5,1508.17 867.5,1487.5C 867.5,1466.83 867.5,1446.17 867.5,1425.5 Z"/></g>
<g><path style="opacity:1" fill="#9c00ff" d="M 991.5,1425.5 C 1012.17,1425.5 1032.83,1425.5 1053.5,1425.5C 1053.5,1446.17 1053.5,1466.83 1053.5,1487.5C 1053.5,1508.17 1053.5,1528.83 1053.5,1549.5C 1053.5,1570.17 1053.5,1590.83 1053.5,1611.5C 1032.83,1611.5 1012.17,1611.5 991.5,1611.5C 991.5,1590.83 991.5,1570.17 991.5,1549.5C 991.5,1508.17 991.5,1466.83 991.5,1425.5 Z"/></g>
<g><path style="opacity:1" fill="#fcd768" d="M 1053.5,1425.5 C 1074.17,1425.5 1094.83,1425.5 1115.5,1425.5C 1115.5,1446.17 1115.5,1466.83 1115.5,1487.5C 1094.83,1487.5 1074.17,1487.5 1053.5,1487.5C 1053.5,1466.83 1053.5,1446.17 1053.5,1425.5 Z"/></g>
<g><path style="opacity:1" fill="#fcd768" d="M 1239.5,1425.5 C 1260.17,1425.5 1280.83,1425.5 1301.5,1425.5C 1301.5,1446.17 1301.5,1466.83 1301.5,1487.5C 1280.83,1487.5 1260.17,1487.5 1239.5,1487.5C 1239.5,1466.83 1239.5,1446.17 1239.5,1425.5 Z"/></g>
<g><path style="opacity:1" fill="#9c00ff" d="M 1301.5,1425.5 C 1322.17,1425.5 1342.83,1425.5 1363.5,1425.5C 1363.5,1466.83 1363.5,1508.17 1363.5,1549.5C 1363.5,1570.17 1363.5,1590.83 1363.5,1611.5C 1342.83,1611.5 1322.17,1611.5 1301.5,1611.5C 1301.5,1570.17 1301.5,1528.83 1301.5,1487.5C 1301.5,1466.83 1301.5,1446.17 1301.5,1425.5 Z"/></g>
<g><path style="opacity:1" fill="#c47ef0" d="M 1363.5,1425.5 C 1404.83,1425.5 1446.17,1425.5 1487.5,1425.5C 1508.17,1425.5 1528.83,1425.5 1549.5,1425.5C 1549.5,1446.17 1549.5,1466.83 1549.5,1487.5C 1549.5,1508.17 1549.5,1528.83 1549.5,1549.5C 1528.83,1549.5 1508.17,1549.5 1487.5,1549.5C 1446.17,1549.5 1404.83,1549.5 1363.5,1549.5C 1363.5,1508.17 1363.5,1466.83 1363.5,1425.5 Z"/></g>
<g><path style="opacity:1" fill="#e5e6e5" d="M 681.5,1487.5 C 681.5,1528.83 681.5,1570.17 681.5,1611.5C 681.5,1632.17 681.5,1652.83 681.5,1673.5C 660.833,1673.5 640.167,1673.5 619.5,1673.5C 619.5,1652.83 619.5,1632.17 619.5,1611.5C 619.5,1570.17 619.5,1528.83 619.5,1487.5C 640.167,1487.5 660.833,1487.5 681.5,1487.5 Z"/></g>
<g><path style="opacity:1" fill="#f6f0ef" d="M 681.5,1487.5 C 722.833,1487.5 764.167,1487.5 805.5,1487.5C 805.5,1528.83 805.5,1570.17 805.5,1611.5C 764.167,1611.5 722.833,1611.5 681.5,1611.5C 681.5,1570.17 681.5,1528.83 681.5,1487.5 Z"/></g>
<g><path style="opacity:1" fill="#e5e6e5" d="M 805.5,1487.5 C 826.167,1487.5 846.833,1487.5 867.5,1487.5C 867.5,1508.17 867.5,1528.83 867.5,1549.5C 867.5,1590.83 867.5,1632.17 867.5,1673.5C 867.5,1694.17 867.5,1714.83 867.5,1735.5C 846.833,1735.5 826.167,1735.5 805.5,1735.5C 764.167,1735.5 722.833,1735.5 681.5,1735.5C 681.5,1714.83 681.5,1694.17 681.5,1673.5C 722.833,1673.5 764.167,1673.5 805.5,1673.5C 805.5,1652.83 805.5,1632.17 805.5,1611.5C 805.5,1570.17 805.5,1528.83 805.5,1487.5 Z"/></g>
<g><path style="opacity:1" fill="#feb0fe" d="M 1053.5,1487.5 C 1074.17,1487.5 1094.83,1487.5 1115.5,1487.5C 1115.5,1508.17 1115.5,1528.83 1115.5,1549.5C 1094.83,1549.5 1074.17,1549.5 1053.5,1549.5C 1053.5,1528.83 1053.5,1508.17 1053.5,1487.5 Z"/></g>
<g><path style="opacity:1" fill="#fcd768" d="M 1115.5,1487.5 C 1136.17,1487.5 1156.83,1487.5 1177.5,1487.5C 1198.17,1487.5 1218.83,1487.5 1239.5,1487.5C 1239.5,1508.17 1239.5,1528.83 1239.5,1549.5C 1218.83,1549.5 1198.17,1549.5 1177.5,1549.5C 1156.83,1549.5 1136.17,1549.5 1115.5,1549.5C 1115.5,1528.83 1115.5,1508.17 1115.5,1487.5 Z"/></g>
<g><path style="opacity:1" fill="#feb0fe" d="M 1239.5,1487.5 C 1260.17,1487.5 1280.83,1487.5 1301.5,1487.5C 1301.5,1528.83 1301.5,1570.17 1301.5,1611.5C 1280.83,1611.5 1260.17,1611.5 1239.5,1611.5C 1239.5,1590.83 1239.5,1570.17 1239.5,1549.5C 1239.5,1528.83 1239.5,1508.17 1239.5,1487.5 Z"/></g>
<g><path style="opacity:1" fill="#e5e6e5" d="M 1549.5,1487.5 C 1570.17,1487.5 1590.83,1487.5 1611.5,1487.5C 1611.5,1508.17 1611.5,1528.83 1611.5,1549.5C 1590.83,1549.5 1570.17,1549.5 1549.5,1549.5C 1549.5,1528.83 1549.5,1508.17 1549.5,1487.5 Z"/></g>
<g><path style="opacity:1" fill="#f6f0ef" d="M 1611.5,1487.5 C 1673.5,1487.5 1735.5,1487.5 1797.5,1487.5C 1797.5,1508.17 1797.5,1528.83 1797.5,1549.5C 1776.83,1549.5 1756.17,1549.5 1735.5,1549.5C 1735.5,1570.17 1735.5,1590.83 1735.5,1611.5C 1714.83,1611.5 1694.17,1611.5 1673.5,1611.5C 1673.5,1590.83 1673.5,1570.17 1673.5,1549.5C 1652.83,1549.5 1632.17,1549.5 1611.5,1549.5C 1611.5,1528.83 1611.5,1508.17 1611.5,1487.5 Z"/></g>
<g><path style="opacity:1" fill="#e6e5e5" d="M 1797.5,1487.5 C 1818.17,1487.5 1838.83,1487.5 1859.5,1487.5C 1859.5,1508.17 1859.5,1528.83 1859.5,1549.5C 1859.5,1590.83 1859.5,1632.17 1859.5,1673.5C 1838.83,1673.5 1818.17,1673.5 1797.5,1673.5C 1797.5,1652.83 1797.5,1632.17 1797.5,1611.5C 1776.83,1611.5 1756.17,1611.5 1735.5,1611.5C 1735.5,1590.83 1735.5,1570.17 1735.5,1549.5C 1756.17,1549.5 1776.83,1549.5 1797.5,1549.5C 1797.5,1528.83 1797.5,1508.17 1797.5,1487.5 Z"/></g>
<g><path style="opacity:1" fill="#ba69ed" d="M 867.5,1549.5 C 908.833,1549.5 950.167,1549.5 991.5,1549.5C 991.5,1570.17 991.5,1590.83 991.5,1611.5C 970.833,1611.5 950.167,1611.5 929.5,1611.5C 929.5,1632.17 929.5,1652.83 929.5,1673.5C 908.833,1673.5 888.167,1673.5 867.5,1673.5C 867.5,1632.17 867.5,1590.83 867.5,1549.5 Z"/></g>
<g><path style="opacity:1" fill="#f7a3f7" d="M 1053.5,1549.5 C 1074.17,1549.5 1094.83,1549.5 1115.5,1549.5C 1115.5,1570.17 1115.5,1590.83 1115.5,1611.5C 1094.83,1611.5 1074.17,1611.5 1053.5,1611.5C 1053.5,1590.83 1053.5,1570.17 1053.5,1549.5 Z"/></g>
<g><path style="opacity:1" fill="#feb0fe" d="M 1115.5,1549.5 C 1136.17,1549.5 1156.83,1549.5 1177.5,1549.5C 1177.5,1570.17 1177.5,1590.83 1177.5,1611.5C 1156.83,1611.5 1136.17,1611.5 1115.5,1611.5C 1115.5,1590.83 1115.5,1570.17 1115.5,1549.5 Z"/></g>
<g><path style="opacity:1" fill="#f7a3f7" d="M 1177.5,1549.5 C 1198.17,1549.5 1218.83,1549.5 1239.5,1549.5C 1239.5,1570.17 1239.5,1590.83 1239.5,1611.5C 1218.83,1611.5 1198.17,1611.5 1177.5,1611.5C 1177.5,1590.83 1177.5,1570.17 1177.5,1549.5 Z"/></g>
<g><path style="opacity:1" fill="#ba69ed" d="M 1363.5,1549.5 C 1404.83,1549.5 1446.17,1549.5 1487.5,1549.5C 1487.5,1570.17 1487.5,1590.83 1487.5,1611.5C 1508.17,1611.5 1528.83,1611.5 1549.5,1611.5C 1549.5,1632.17 1549.5,1652.83 1549.5,1673.5C 1528.83,1673.5 1508.17,1673.5 1487.5,1673.5C 1466.83,1673.5 1446.17,1673.5 1425.5,1673.5C 1425.5,1652.83 1425.5,1632.17 1425.5,1611.5C 1404.83,1611.5 1384.17,1611.5 1363.5,1611.5C 1363.5,1590.83 1363.5,1570.17 1363.5,1549.5 Z"/></g>
<g><path style="opacity:1" fill="#e5e6e5" d="M 1487.5,1549.5 C 1508.17,1549.5 1528.83,1549.5 1549.5,1549.5C 1549.5,1570.17 1549.5,1590.83 1549.5,1611.5C 1528.83,1611.5 1508.17,1611.5 1487.5,1611.5C 1487.5,1590.83 1487.5,1570.17 1487.5,1549.5 Z"/></g>
<g><path style="opacity:1" fill="#ded8d7" d="M 1549.5,1549.5 C 1570.17,1549.5 1590.83,1549.5 1611.5,1549.5C 1632.17,1549.5 1652.83,1549.5 1673.5,1549.5C 1673.5,1570.17 1673.5,1590.83 1673.5,1611.5C 1694.17,1611.5 1714.83,1611.5 1735.5,1611.5C 1756.17,1611.5 1776.83,1611.5 1797.5,1611.5C 1797.5,1632.17 1797.5,1652.83 1797.5,1673.5C 1735.5,1673.5 1673.5,1673.5 1611.5,1673.5C 1611.5,1652.83 1611.5,1632.17 1611.5,1611.5C 1590.83,1611.5 1570.17,1611.5 1549.5,1611.5C 1549.5,1590.83 1549.5,1570.17 1549.5,1549.5 Z"/></g>
<g><path style="opacity:1" fill="#ded8d7" d="M 681.5,1611.5 C 722.833,1611.5 764.167,1611.5 805.5,1611.5C 805.5,1632.17 805.5,1652.83 805.5,1673.5C 764.167,1673.5 722.833,1673.5 681.5,1673.5C 681.5,1652.83 681.5,1632.17 681.5,1611.5 Z"/></g>
<g><path style="opacity:1" fill="#9c00ff" d="M 991.5,1611.5 C 991.5,1632.17 991.5,1652.83 991.5,1673.5C 970.833,1673.5 950.167,1673.5 929.5,1673.5C 929.5,1652.83 929.5,1632.17 929.5,1611.5C 950.167,1611.5 970.833,1611.5 991.5,1611.5 Z"/></g>
<g><path style="opacity:1" fill="#f7a3f7" d="M 991.5,1611.5 C 1012.17,1611.5 1032.83,1611.5 1053.5,1611.5C 1053.5,1632.17 1053.5,1652.83 1053.5,1673.5C 1032.83,1673.5 1012.17,1673.5 991.5,1673.5C 991.5,1652.83 991.5,1632.17 991.5,1611.5 Z"/></g>
<g><path style="opacity:1" fill="#feb0fe" d="M 1053.5,1611.5 C 1074.17,1611.5 1094.83,1611.5 1115.5,1611.5C 1115.5,1632.17 1115.5,1652.83 1115.5,1673.5C 1136.17,1673.5 1156.83,1673.5 1177.5,1673.5C 1177.5,1652.83 1177.5,1632.17 1177.5,1611.5C 1198.17,1611.5 1218.83,1611.5 1239.5,1611.5C 1239.5,1632.17 1239.5,1652.83 1239.5,1673.5C 1260.17,1673.5 1280.83,1673.5 1301.5,1673.5C 1301.5,1652.83 1301.5,1632.17 1301.5,1611.5C 1322.17,1611.5 1342.83,1611.5 1363.5,1611.5C 1384.17,1611.5 1404.83,1611.5 1425.5,1611.5C 1425.5,1632.17 1425.5,1652.83 1425.5,1673.5C 1425.5,1694.17 1425.5,1714.83 1425.5,1735.5C 1425.5,1756.17 1425.5,1776.83 1425.5,1797.5C 1404.83,1797.5 1384.17,1797.5 1363.5,1797.5C 1363.5,1776.83 1363.5,1756.17 1363.5,1735.5C 1342.83,1735.5 1322.17,1735.5 1301.5,1735.5C 1301.5,1756.17 1301.5,1776.83 1301.5,1797.5C 1280.83,1797.5 1260.17,1797.5 1239.5,1797.5C 1239.5,1776.83 1239.5,1756.17 1239.5,1735.5C 1218.83,1735.5 1198.17,1735.5 1177.5,1735.5C 1177.5,1756.17 1177.5,1776.83 1177.5,1797.5C 1156.83,1797.5 1136.17,1797.5 1115.5,1797.5C 1115.5,1776.83 1115.5,1756.17 1115.5,1735.5C 1094.83,1735.5 1074.17,1735.5 1053.5,1735.5C 1053.5,1756.17 1053.5,1776.83 1053.5,1797.5C 1032.83,1797.5 1012.17,1797.5 991.5,1797.5C 991.5,1776.83 991.5,1756.17 991.5,1735.5C 970.833,1735.5 950.167,1735.5 929.5,1735.5C 929.5,1714.83 929.5,1694.17 929.5,1673.5C 950.167,1673.5 970.833,1673.5 991.5,1673.5C 1012.17,1673.5 1032.83,1673.5 1053.5,1673.5C 1053.5,1652.83 1053.5,1632.17 1053.5,1611.5 Z"/></g>
<g><path style="opacity:1" fill="#f7a3f7" d="M 1115.5,1611.5 C 1136.17,1611.5 1156.83,1611.5 1177.5,1611.5C 1177.5,1632.17 1177.5,1652.83 1177.5,1673.5C 1156.83,1673.5 1136.17,1673.5 1115.5,1673.5C 1115.5,1652.83 1115.5,1632.17 1115.5,1611.5 Z"/></g>
<g><path style="opacity:1" fill="#f7a3f7" d="M 1239.5,1611.5 C 1260.17,1611.5 1280.83,1611.5 1301.5,1611.5C 1301.5,1632.17 1301.5,1652.83 1301.5,1673.5C 1280.83,1673.5 1260.17,1673.5 1239.5,1673.5C 1239.5,1652.83 1239.5,1632.17 1239.5,1611.5 Z"/></g>
<g><path style="opacity:1" fill="#9c00ff" d="M 1363.5,1611.5 C 1384.17,1611.5 1404.83,1611.5 1425.5,1611.5C 1425.5,1632.17 1425.5,1652.83 1425.5,1673.5C 1404.83,1673.5 1384.17,1673.5 1363.5,1673.5C 1363.5,1652.83 1363.5,1632.17 1363.5,1611.5 Z"/></g>
<g><path style="opacity:1" fill="#e5e6e5" d="M 1549.5,1611.5 C 1570.17,1611.5 1590.83,1611.5 1611.5,1611.5C 1611.5,1632.17 1611.5,1652.83 1611.5,1673.5C 1590.83,1673.5 1570.17,1673.5 1549.5,1673.5C 1549.5,1652.83 1549.5,1632.17 1549.5,1611.5 Z"/></g>
<g><path style="opacity:1" fill="#9c00ff" d="M 867.5,1673.5 C 888.167,1673.5 908.833,1673.5 929.5,1673.5C 929.5,1694.17 929.5,1714.83 929.5,1735.5C 908.833,1735.5 888.167,1735.5 867.5,1735.5C 867.5,1714.83 867.5,1694.17 867.5,1673.5 Z"/></g>
<g><path style="opacity:1" fill="#9c00ff" d="M 1425.5,1673.5 C 1446.17,1673.5 1466.83,1673.5 1487.5,1673.5C 1487.5,1694.17 1487.5,1714.83 1487.5,1735.5C 1466.83,1735.5 1446.17,1735.5 1425.5,1735.5C 1425.5,1714.83 1425.5,1694.17 1425.5,1673.5 Z"/></g>
<g><path style="opacity:1" fill="#ae4bed" d="M 1487.5,1673.5 C 1508.17,1673.5 1528.83,1673.5 1549.5,1673.5C 1570.17,1673.5 1590.83,1673.5 1611.5,1673.5C 1611.5,1694.17 1611.5,1714.83 1611.5,1735.5C 1652.83,1735.5 1694.17,1735.5 1735.5,1735.5C 1735.5,1756.17 1735.5,1776.83 1735.5,1797.5C 1694.17,1797.5 1652.83,1797.5 1611.5,1797.5C 1590.83,1797.5 1570.17,1797.5 1549.5,1797.5C 1549.5,1776.83 1549.5,1756.17 1549.5,1735.5C 1528.83,1735.5 1508.17,1735.5 1487.5,1735.5C 1487.5,1714.83 1487.5,1694.17 1487.5,1673.5 Z"/></g>
<g><path style="opacity:1" fill="#e5e6e5" d="M 1611.5,1673.5 C 1673.5,1673.5 1735.5,1673.5 1797.5,1673.5C 1797.5,1694.17 1797.5,1714.83 1797.5,1735.5C 1776.83,1735.5 1756.17,1735.5 1735.5,1735.5C 1694.17,1735.5 1652.83,1735.5 1611.5,1735.5C 1611.5,1714.83 1611.5,1694.17 1611.5,1673.5 Z"/></g>
<g><path style="opacity:1" fill="#ae4bed" d="M 681.5,1735.5 C 722.833,1735.5 764.167,1735.5 805.5,1735.5C 805.5,1756.17 805.5,1776.83 805.5,1797.5C 784.833,1797.5 764.167,1797.5 743.5,1797.5C 702.167,1797.5 660.833,1797.5 619.5,1797.5C 619.5,1776.83 619.5,1756.17 619.5,1735.5C 640.167,1735.5 660.833,1735.5 681.5,1735.5 Z"/></g>
<g><path style="opacity:1" fill="#9c00ff" d="M 805.5,1735.5 C 826.167,1735.5 846.833,1735.5 867.5,1735.5C 867.5,1756.17 867.5,1776.83 867.5,1797.5C 846.833,1797.5 826.167,1797.5 805.5,1797.5C 805.5,1776.83 805.5,1756.17 805.5,1735.5 Z"/></g>
<g><path style="opacity:1" fill="#feb0fe" d="M 867.5,1735.5 C 888.167,1735.5 908.833,1735.5 929.5,1735.5C 929.5,1756.17 929.5,1776.83 929.5,1797.5C 908.833,1797.5 888.167,1797.5 867.5,1797.5C 867.5,1776.83 867.5,1756.17 867.5,1735.5 Z"/></g>
<g><path style="opacity:1" fill="#f7a3f7" d="M 929.5,1735.5 C 950.167,1735.5 970.833,1735.5 991.5,1735.5C 991.5,1756.17 991.5,1776.83 991.5,1797.5C 970.833,1797.5 950.167,1797.5 929.5,1797.5C 929.5,1776.83 929.5,1756.17 929.5,1735.5 Z"/></g>
<g><path style="opacity:1" fill="#f7a3f7" d="M 1115.5,1797.5 C 1094.83,1797.5 1074.17,1797.5 1053.5,1797.5C 1053.5,1776.83 1053.5,1756.17 1053.5,1735.5C 1074.17,1735.5 1094.83,1735.5 1115.5,1735.5C 1115.5,1756.17 1115.5,1776.83 1115.5,1797.5 Z"/></g>
<g><path style="opacity:1" fill="#f7a3f7" d="M 1239.5,1797.5 C 1218.83,1797.5 1198.17,1797.5 1177.5,1797.5C 1177.5,1776.83 1177.5,1756.17 1177.5,1735.5C 1198.17,1735.5 1218.83,1735.5 1239.5,1735.5C 1239.5,1756.17 1239.5,1776.83 1239.5,1797.5 Z"/></g>
<g><path style="opacity:1" fill="#f7a3f7" d="M 1363.5,1797.5 C 1342.83,1797.5 1322.17,1797.5 1301.5,1797.5C 1301.5,1776.83 1301.5,1756.17 1301.5,1735.5C 1322.17,1735.5 1342.83,1735.5 1363.5,1735.5C 1363.5,1756.17 1363.5,1776.83 1363.5,1797.5 Z"/></g>
<g><path style="opacity:1" fill="#f7a3f7" d="M 1425.5,1735.5 C 1446.17,1735.5 1466.83,1735.5 1487.5,1735.5C 1487.5,1756.17 1487.5,1776.83 1487.5,1797.5C 1466.83,1797.5 1446.17,1797.5 1425.5,1797.5C 1425.5,1776.83 1425.5,1756.17 1425.5,1735.5 Z"/></g>
<g><path style="opacity:1" fill="#9c00ff" d="M 1487.5,1735.5 C 1508.17,1735.5 1528.83,1735.5 1549.5,1735.5C 1549.5,1756.17 1549.5,1776.83 1549.5,1797.5C 1528.83,1797.5 1508.17,1797.5 1487.5,1797.5C 1487.5,1776.83 1487.5,1756.17 1487.5,1735.5 Z"/></g>
<g><path style="opacity:1" fill="#a424f5" d="M 619.5,1797.5 C 660.833,1797.5 702.167,1797.5 743.5,1797.5C 743.5,1818.17 743.5,1838.83 743.5,1859.5C 722.833,1859.5 702.167,1859.5 681.5,1859.5C 681.5,1880.17 681.5,1900.83 681.5,1921.5C 619.5,1921.5 557.5,1921.5 495.5,1921.5C 495.5,1900.83 495.5,1880.17 495.5,1859.5C 516.167,1859.5 536.833,1859.5 557.5,1859.5C 557.5,1838.83 557.5,1818.17 557.5,1797.5C 578.167,1797.5 598.833,1797.5 619.5,1797.5 Z"/></g>
<g><path style="opacity:1" fill="#9c00ff" d="M 743.5,1797.5 C 764.167,1797.5 784.833,1797.5 805.5,1797.5C 805.5,1818.17 805.5,1838.83 805.5,1859.5C 784.833,1859.5 764.167,1859.5 743.5,1859.5C 743.5,1838.83 743.5,1818.17 743.5,1797.5 Z"/></g>
<g><path style="opacity:1" fill="#efa1ef" d="M 805.5,1797.5 C 826.167,1797.5 846.833,1797.5 867.5,1797.5C 867.5,1818.17 867.5,1838.83 867.5,1859.5C 867.5,1880.17 867.5,1900.83 867.5,1921.5C 846.833,1921.5 826.167,1921.5 805.5,1921.5C 805.5,1942.17 805.5,1962.83 805.5,1983.5C 764.167,1983.5 722.833,1983.5 681.5,1983.5C 681.5,1962.83 681.5,1942.17 681.5,1921.5C 702.167,1921.5 722.833,1921.5 743.5,1921.5C 743.5,1900.83 743.5,1880.17 743.5,1859.5C 764.167,1859.5 784.833,1859.5 805.5,1859.5C 805.5,1838.83 805.5,1818.17 805.5,1797.5 Z"/></g>
<g><path style="opacity:1" fill="#f7a3f7" d="M 867.5,1797.5 C 888.167,1797.5 908.833,1797.5 929.5,1797.5C 929.5,1818.17 929.5,1838.83 929.5,1859.5C 908.833,1859.5 888.167,1859.5 867.5,1859.5C 867.5,1838.83 867.5,1818.17 867.5,1797.5 Z"/></g>
<g><path style="opacity:1" fill="#efa1ef" d="M 929.5,1797.5 C 950.167,1797.5 970.833,1797.5 991.5,1797.5C 991.5,1818.17 991.5,1838.83 991.5,1859.5C 1012.17,1859.5 1032.83,1859.5 1053.5,1859.5C 1053.5,1880.17 1053.5,1900.83 1053.5,1921.5C 1032.83,1921.5 1012.17,1921.5 991.5,1921.5C 991.5,1942.17 991.5,1962.83 991.5,1983.5C 950.167,1983.5 908.833,1983.5 867.5,1983.5C 867.5,1962.83 867.5,1942.17 867.5,1921.5C 888.167,1921.5 908.833,1921.5 929.5,1921.5C 929.5,1900.83 929.5,1880.17 929.5,1859.5C 929.5,1838.83 929.5,1818.17 929.5,1797.5 Z"/></g>
<g><path style="opacity:1" fill="#f7a3f7" d="M 991.5,1797.5 C 1012.17,1797.5 1032.83,1797.5 1053.5,1797.5C 1053.5,1818.17 1053.5,1838.83 1053.5,1859.5C 1032.83,1859.5 1012.17,1859.5 991.5,1859.5C 991.5,1838.83 991.5,1818.17 991.5,1797.5 Z"/></g>
<g><path style="opacity:1" fill="#efa1ef" d="M 1053.5,1797.5 C 1074.17,1797.5 1094.83,1797.5 1115.5,1797.5C 1115.5,1818.17 1115.5,1838.83 1115.5,1859.5C 1094.83,1859.5 1074.17,1859.5 1053.5,1859.5C 1053.5,1838.83 1053.5,1818.17 1053.5,1797.5 Z"/></g>
<g><path style="opacity:1" fill="#f7a3f7" d="M 1115.5,1797.5 C 1136.17,1797.5 1156.83,1797.5 1177.5,1797.5C 1177.5,1818.17 1177.5,1838.83 1177.5,1859.5C 1156.83,1859.5 1136.17,1859.5 1115.5,1859.5C 1115.5,1838.83 1115.5,1818.17 1115.5,1797.5 Z"/></g>
<g><path style="opacity:1" fill="#efa1ef" d="M 1177.5,1797.5 C 1198.17,1797.5 1218.83,1797.5 1239.5,1797.5C 1239.5,1818.17 1239.5,1838.83 1239.5,1859.5C 1218.83,1859.5 1198.17,1859.5 1177.5,1859.5C 1177.5,1838.83 1177.5,1818.17 1177.5,1797.5 Z"/></g>
<g><path style="opacity:1" fill="#f7a3f7" d="M 1239.5,1797.5 C 1260.17,1797.5 1280.83,1797.5 1301.5,1797.5C 1301.5,1818.17 1301.5,1838.83 1301.5,1859.5C 1280.83,1859.5 1260.17,1859.5 1239.5,1859.5C 1239.5,1838.83 1239.5,1818.17 1239.5,1797.5 Z"/></g>
<g><path style="opacity:1" fill="#efa1ef" d="M 1301.5,1797.5 C 1322.17,1797.5 1342.83,1797.5 1363.5,1797.5C 1363.5,1818.17 1363.5,1838.83 1363.5,1859.5C 1342.83,1859.5 1322.17,1859.5 1301.5,1859.5C 1301.5,1838.83 1301.5,1818.17 1301.5,1797.5 Z"/></g>
<g><path style="opacity:1" fill="#f7a3f7" d="M 1363.5,1797.5 C 1384.17,1797.5 1404.83,1797.5 1425.5,1797.5C 1425.5,1818.17 1425.5,1838.83 1425.5,1859.5C 1404.83,1859.5 1384.17,1859.5 1363.5,1859.5C 1363.5,1838.83 1363.5,1818.17 1363.5,1797.5 Z"/></g>
<g><path style="opacity:1" fill="#efa1ef" d="M 1425.5,1797.5 C 1446.17,1797.5 1466.83,1797.5 1487.5,1797.5C 1487.5,1818.17 1487.5,1838.83 1487.5,1859.5C 1487.5,1880.17 1487.5,1900.83 1487.5,1921.5C 1508.17,1921.5 1528.83,1921.5 1549.5,1921.5C 1549.5,1942.17 1549.5,1962.83 1549.5,1983.5C 1508.17,1983.5 1466.83,1983.5 1425.5,1983.5C 1425.5,1962.83 1425.5,1942.17 1425.5,1921.5C 1404.83,1921.5 1384.17,1921.5 1363.5,1921.5C 1363.5,1900.83 1363.5,1880.17 1363.5,1859.5C 1384.17,1859.5 1404.83,1859.5 1425.5,1859.5C 1425.5,1838.83 1425.5,1818.17 1425.5,1797.5 Z"/></g>
<g><path style="opacity:1" fill="#f7a3f7" d="M 1487.5,1797.5 C 1508.17,1797.5 1528.83,1797.5 1549.5,1797.5C 1549.5,1818.17 1549.5,1838.83 1549.5,1859.5C 1528.83,1859.5 1508.17,1859.5 1487.5,1859.5C 1487.5,1838.83 1487.5,1818.17 1487.5,1797.5 Z"/></g>
<g><path style="opacity:1" fill="#9c00ff" d="M 1549.5,1797.5 C 1570.17,1797.5 1590.83,1797.5 1611.5,1797.5C 1611.5,1818.17 1611.5,1838.83 1611.5,1859.5C 1590.83,1859.5 1570.17,1859.5 1549.5,1859.5C 1549.5,1838.83 1549.5,1818.17 1549.5,1797.5 Z"/></g>
<g><path style="opacity:1" fill="#a424f5" d="M 1611.5,1797.5 C 1652.83,1797.5 1694.17,1797.5 1735.5,1797.5C 1756.17,1797.5 1776.83,1797.5 1797.5,1797.5C 1797.5,1818.17 1797.5,1838.83 1797.5,1859.5C 1818.17,1859.5 1838.83,1859.5 1859.5,1859.5C 1859.5,1880.17 1859.5,1900.83 1859.5,1921.5C 1797.5,1921.5 1735.5,1921.5 1673.5,1921.5C 1673.5,1900.83 1673.5,1880.17 1673.5,1859.5C 1652.83,1859.5 1632.17,1859.5 1611.5,1859.5C 1611.5,1838.83 1611.5,1818.17 1611.5,1797.5 Z"/></g>
<g><path style="opacity:1" fill="#9c00ff" d="M 743.5,1859.5 C 743.5,1880.17 743.5,1900.83 743.5,1921.5C 722.833,1921.5 702.167,1921.5 681.5,1921.5C 681.5,1900.83 681.5,1880.17 681.5,1859.5C 702.167,1859.5 722.833,1859.5 743.5,1859.5 Z"/></g>
<g><path style="opacity:1" fill="#febffe" d="M 867.5,1859.5 C 888.167,1859.5 908.833,1859.5 929.5,1859.5C 929.5,1880.17 929.5,1900.83 929.5,1921.5C 908.833,1921.5 888.167,1921.5 867.5,1921.5C 867.5,1900.83 867.5,1880.17 867.5,1859.5 Z"/></g>
<g><path style="opacity:1" fill="#febffe" d="M 1053.5,1859.5 C 1074.17,1859.5 1094.83,1859.5 1115.5,1859.5C 1115.5,1880.17 1115.5,1900.83 1115.5,1921.5C 1094.83,1921.5 1074.17,1921.5 1053.5,1921.5C 1053.5,1900.83 1053.5,1880.17 1053.5,1859.5 Z"/></g>
<g><path style="opacity:1" fill="#efa1ef" d="M 1115.5,1859.5 C 1136.17,1859.5 1156.83,1859.5 1177.5,1859.5C 1177.5,1900.83 1177.5,1942.17 1177.5,1983.5C 1136.17,1983.5 1094.83,1983.5 1053.5,1983.5C 1053.5,1962.83 1053.5,1942.17 1053.5,1921.5C 1074.17,1921.5 1094.83,1921.5 1115.5,1921.5C 1115.5,1900.83 1115.5,1880.17 1115.5,1859.5 Z"/></g>
<g><path style="opacity:1" fill="#febffe" d="M 1177.5,1859.5 C 1198.17,1859.5 1218.83,1859.5 1239.5,1859.5C 1239.5,1900.83 1239.5,1942.17 1239.5,1983.5C 1218.83,1983.5 1198.17,1983.5 1177.5,1983.5C 1177.5,1942.17 1177.5,1900.83 1177.5,1859.5 Z"/></g>
<g><path style="opacity:1" fill="#efa1ef" d="M 1239.5,1859.5 C 1260.17,1859.5 1280.83,1859.5 1301.5,1859.5C 1301.5,1880.17 1301.5,1900.83 1301.5,1921.5C 1322.17,1921.5 1342.83,1921.5 1363.5,1921.5C 1363.5,1942.17 1363.5,1962.83 1363.5,1983.5C 1322.17,1983.5 1280.83,1983.5 1239.5,1983.5C 1239.5,1942.17 1239.5,1900.83 1239.5,1859.5 Z"/></g>
<g><path style="opacity:1" fill="#febffe" d="M 1301.5,1859.5 C 1322.17,1859.5 1342.83,1859.5 1363.5,1859.5C 1363.5,1880.17 1363.5,1900.83 1363.5,1921.5C 1342.83,1921.5 1322.17,1921.5 1301.5,1921.5C 1301.5,1900.83 1301.5,1880.17 1301.5,1859.5 Z"/></g>
<g><path style="opacity:1" fill="#febffe" d="M 1487.5,1859.5 C 1508.17,1859.5 1528.83,1859.5 1549.5,1859.5C 1549.5,1880.17 1549.5,1900.83 1549.5,1921.5C 1528.83,1921.5 1508.17,1921.5 1487.5,1921.5C 1487.5,1900.83 1487.5,1880.17 1487.5,1859.5 Z"/></g>
<g><path style="opacity:1" fill="#efa1ef" d="M 1549.5,1859.5 C 1570.17,1859.5 1590.83,1859.5 1611.5,1859.5C 1611.5,1880.17 1611.5,1900.83 1611.5,1921.5C 1590.83,1921.5 1570.17,1921.5 1549.5,1921.5C 1549.5,1900.83 1549.5,1880.17 1549.5,1859.5 Z"/></g>
<g><path style="opacity:1" fill="#9c00ff" d="M 1611.5,1859.5 C 1632.17,1859.5 1652.83,1859.5 1673.5,1859.5C 1673.5,1880.17 1673.5,1900.83 1673.5,1921.5C 1652.83,1921.5 1632.17,1921.5 1611.5,1921.5C 1611.5,1900.83 1611.5,1880.17 1611.5,1859.5 Z"/></g>
<g><path style="opacity:1" fill="#9c00ff" d="M 495.5,1921.5 C 557.5,1921.5 619.5,1921.5 681.5,1921.5C 681.5,1942.17 681.5,1962.83 681.5,1983.5C 598.833,1983.5 516.167,1983.5 433.5,1983.5C 433.5,1962.83 433.5,1942.17 433.5,1921.5C 454.167,1921.5 474.833,1921.5 495.5,1921.5 Z"/></g>
<g><path style="opacity:1" fill="#febffe" d="M 867.5,1921.5 C 867.5,1942.17 867.5,1962.83 867.5,1983.5C 846.833,1983.5 826.167,1983.5 805.5,1983.5C 805.5,1962.83 805.5,1942.17 805.5,1921.5C 826.167,1921.5 846.833,1921.5 867.5,1921.5 Z"/></g>
<g><path style="opacity:1" fill="#febffe" d="M 1053.5,1921.5 C 1053.5,1942.17 1053.5,1962.83 1053.5,1983.5C 1032.83,1983.5 1012.17,1983.5 991.5,1983.5C 991.5,1962.83 991.5,1942.17 991.5,1921.5C 1012.17,1921.5 1032.83,1921.5 1053.5,1921.5 Z"/></g>
<g><path style="opacity:1" fill="#febffe" d="M 1363.5,1921.5 C 1384.17,1921.5 1404.83,1921.5 1425.5,1921.5C 1425.5,1942.17 1425.5,1962.83 1425.5,1983.5C 1404.83,1983.5 1384.17,1983.5 1363.5,1983.5C 1363.5,1962.83 1363.5,1942.17 1363.5,1921.5 Z"/></g>
<g><path style="opacity:1" fill="#febffe" d="M 1549.5,1921.5 C 1570.17,1921.5 1590.83,1921.5 1611.5,1921.5C 1611.5,1942.17 1611.5,1962.83 1611.5,1983.5C 1590.83,1983.5 1570.17,1983.5 1549.5,1983.5C 1549.5,1962.83 1549.5,1942.17 1549.5,1921.5 Z"/></g>
<g><path style="opacity:1" fill="#efa1ef" d="M 1611.5,1921.5 C 1632.17,1921.5 1652.83,1921.5 1673.5,1921.5C 1673.5,1942.17 1673.5,1962.83 1673.5,1983.5C 1652.83,1983.5 1632.17,1983.5 1611.5,1983.5C 1611.5,1962.83 1611.5,1942.17 1611.5,1921.5 Z"/></g>
<g><path style="opacity:1" fill="#9c00ff" d="M 1673.5,1921.5 C 1735.5,1921.5 1797.5,1921.5 1859.5,1921.5C 1880.17,1921.5 1900.83,1921.5 1921.5,1921.5C 1921.5,1942.17 1921.5,1962.83 1921.5,1983.5C 1838.83,1983.5 1756.17,1983.5 1673.5,1983.5C 1673.5,1962.83 1673.5,1942.17 1673.5,1921.5 Z"/></g>
</svg>
