<?xml version="1.0" encoding="UTF-8"?>
<!DOCTYPE svg PUBLIC "-//W3C//DTD SVG 1.1//EN" "http://www.w3.org/Graphics/SVG/1.1/DTD/svg11.dtd">
<svg xmlns="http://www.w3.org/2000/svg" version="1.1" width="500px" height="500px" style="shape-rendering:geometricPrecision; text-rendering:geometricPrecision; image-rendering:optimizeQuality; fill-rule:evenodd; clip-rule:evenodd" xmlns:xlink="http://www.w3.org/1999/xlink">
<g><path style="opacity:0.71" fill="#652329" d="M 374.5,45.5 C 374.167,45.5 373.833,45.5 373.5,45.5C 373.5,40.8333 373.5,36.1667 373.5,31.5C 348.167,31.5 322.833,31.5 297.5,31.5C 297.5,36.1667 297.5,40.8333 297.5,45.5C 297.167,45.5 296.833,45.5 296.5,45.5C 296.5,40.5 296.5,35.5 296.5,30.5C 321.676,30.5993 347.009,30.4326 372.5,30C 374.414,34.8582 375.081,40.0248 374.5,45.5 Z"/></g>
<g><path style="opacity:1" fill="#a42531" d="M 373.5,45.5 C 373.167,45.5 372.833,45.5 372.5,45.5C 372.5,41.1667 372.5,36.8333 372.5,32.5C 347.833,32.5 323.167,32.5 298.5,32.5C 298.5,34.5 298.5,36.5 298.5,38.5C 298.802,41.0593 298.468,43.3926 297.5,45.5C 297.5,40.8333 297.5,36.1667 297.5,31.5C 322.833,31.5 348.167,31.5 373.5,31.5C 373.5,36.1667 373.5,40.8333 373.5,45.5 Z"/></g>
<g><path style="opacity:1" fill="#b31f29" d="M 372.5,45.5 C 368.119,45.3718 363.785,45.7051 359.5,46.5C 358.833,46.5 358.5,46.8333 358.5,47.5C 358.167,47.5 357.833,47.5 357.5,47.5C 356.426,46.1154 355.093,44.9487 353.5,44C 355.473,43.5045 357.473,43.3379 359.5,43.5C 359.762,42.0222 359.429,40.6888 358.5,39.5C 357.402,40.6155 356.235,40.6155 355,39.5C 353.779,40.2718 352.779,41.2718 352,42.5C 345.244,41.8421 338.41,41.5088 331.5,41.5C 320.846,41.3242 310.846,41.9909 301.5,43.5C 301.167,43.1667 300.833,42.8333 300.5,42.5C 301.811,41.7425 302.311,40.7425 302,39.5C 301.667,39.8333 301.333,40.1667 301,40.5C 300.292,39.6195 299.458,38.9528 298.5,38.5C 298.5,36.5 298.5,34.5 298.5,32.5C 323.167,32.5 347.833,32.5 372.5,32.5C 372.5,36.8333 372.5,41.1667 372.5,45.5 Z"/></g>
<g><path style="opacity:1" fill="#b22029" d="M 298.5,38.5 C 299.458,38.9528 300.292,39.6195 301,40.5C 301.333,40.1667 301.667,39.8333 302,39.5C 302.311,40.7425 301.811,41.7425 300.5,42.5C 300.833,42.8333 301.167,43.1667 301.5,43.5C 310.846,41.9909 320.846,41.3242 331.5,41.5C 338.41,41.5088 345.244,41.8421 352,42.5C 352.779,41.2718 353.779,40.2718 355,39.5C 356.235,40.6155 357.402,40.6155 358.5,39.5C 359.429,40.6888 359.762,42.0222 359.5,43.5C 357.473,43.3379 355.473,43.5045 353.5,44C 355.093,44.9487 356.426,46.1154 357.5,47.5C 356.5,47.5 355.5,47.5 354.5,47.5C 340.098,46.8256 325.598,46.159 311,45.5C 310.5,46 310,46.5 309.5,47C 310.467,51.4014 310.8,55.9014 310.5,60.5C 305.821,60.3342 301.155,60.5008 296.5,61C 296,61.5 295.5,62 295,62.5C 294.35,66.9701 294.016,71.3034 294,75.5C 290.001,76.279 286.168,76.279 282.5,75.5C 282.5,66.5 282.5,57.5 282.5,48.5C 287.179,48.6658 291.845,48.4992 296.5,48C 297.252,47.3292 297.586,46.4959 297.5,45.5C 298.468,43.3926 298.802,41.0593 298.5,38.5 Z"/></g>
<g><path style="opacity:0.129" fill="#2a0000" d="M 296.5,30.5 C 296.5,35.5 296.5,40.5 296.5,45.5C 296.5,46.1667 296.167,46.5 295.5,46.5C 290.5,46.5 285.5,46.5 280.5,46.5C 285.305,45.5128 290.305,45.1795 295.5,45.5C 295.179,40.3054 295.513,35.3054 296.5,30.5 Z"/></g>
<g><path style="opacity:0.58" fill="#752b25" d="M 374.5,45.5 C 379.833,45.5 385.167,45.5 390.5,45.5C 390.5,50.8333 390.5,56.1667 390.5,61.5C 390.167,61.5 389.833,61.5 389.5,61.5C 389.5,56.8333 389.5,52.1667 389.5,47.5C 384.821,47.6658 380.155,47.4992 375.5,47C 374.944,46.6174 374.611,46.1174 374.5,45.5 Z"/></g>
<g><path style="opacity:1" fill="#a8252b" d="M 354.5,47.5 C 341.163,47.3334 327.829,47.5001 314.5,48C 313.376,48.8388 312.709,50.0055 312.5,51.5C 313.541,53.8765 313.541,56.2098 312.5,58.5C 312.608,59.4419 312.941,60.2753 313.5,61C 328.163,61.4999 342.83,61.6666 357.5,61.5C 357.5,56.8333 357.5,52.1667 357.5,47.5C 357.833,47.5 358.167,47.5 358.5,47.5C 358.5,53.1667 358.5,58.8333 358.5,64.5C 357.244,64.5386 356.244,64.0386 355.5,63C 342.5,62.3333 329.5,62.3333 316.5,63C 315.584,63.3742 314.75,63.8742 314,64.5C 313.942,69.5191 313.108,74.3524 311.5,79C 306.941,78.5285 302.441,78.6952 298,79.5C 298.156,83.5064 298.656,87.5064 299.5,91.5C 297.712,91.7852 296.045,91.4519 294.5,90.5C 296.121,86.2952 295.788,82.2952 293.5,78.5C 289.411,78.1119 285.744,77.1119 282.5,75.5C 286.168,76.279 290.001,76.279 294,75.5C 294.016,71.3034 294.35,66.9701 295,62.5C 295.5,62 296,61.5 296.5,61C 301.155,60.5008 305.821,60.3342 310.5,60.5C 310.8,55.9014 310.467,51.4014 309.5,47C 310,46.5 310.5,46 311,45.5C 325.598,46.159 340.098,46.8256 354.5,47.5 Z"/></g>
<g><path style="opacity:1" fill="#9b2c2f" d="M 354.5,47.5 C 355.5,47.5 356.5,47.5 357.5,47.5C 357.5,52.1667 357.5,56.8333 357.5,61.5C 342.83,61.6666 328.163,61.4999 313.5,61C 312.941,60.2753 312.608,59.4419 312.5,58.5C 313.541,56.2098 313.541,53.8765 312.5,51.5C 312.709,50.0055 313.376,48.8388 314.5,48C 327.829,47.5001 341.163,47.3334 354.5,47.5 Z"/></g>
<g><path style="opacity:0.496" fill="#661c0e" d="M 421.5,62.5 C 410.986,62.8276 400.653,62.4942 390.5,61.5C 399.194,61.7452 407.861,61.4118 416.5,60.5C 418.557,60.4357 420.223,61.1024 421.5,62.5 Z"/></g>
<g><path style="opacity:1" fill="#b22029" d="M 358.5,64.5 C 358.5,68.5 358.5,72.5 358.5,76.5C 353.167,76.5 347.833,76.5 342.5,76.5C 342.5,81.8333 342.5,87.1667 342.5,92.5C 329.5,92.5 316.5,92.5 303.5,92.5C 302.432,91.5655 301.099,91.2322 299.5,91.5C 298.656,87.5064 298.156,83.5064 298,79.5C 302.441,78.6952 306.941,78.5285 311.5,79C 313.108,74.3524 313.942,69.5191 314,64.5C 314.75,63.8742 315.584,63.3742 316.5,63C 329.5,62.3333 342.5,62.3333 355.5,63C 356.244,64.0386 357.244,64.5386 358.5,64.5 Z"/></g>
<g><path style="opacity:1" fill="#ba3e2d" d="M 359.5,46.5 C 359.5,52.1667 359.5,57.8333 359.5,63.5C 361.099,63.7678 362.432,63.4345 363.5,62.5C 366.777,62.2161 369.943,62.5495 373,63.5C 373.61,67.2364 373.277,70.9031 372,74.5C 370.69,75.8969 369.19,76.8969 367.5,77.5C 364.921,77.0833 362.754,77.75 361,79.5C 360.5,88.8274 360.334,98.1607 360.5,107.5C 365.511,107.334 370.511,107.501 375.5,108C 376.469,112.737 376.803,117.57 376.5,122.5C 375.833,118.167 375.167,113.833 374.5,109.5C 369.695,108.513 364.695,108.179 359.5,108.5C 359.828,97.9865 359.494,87.6532 358.5,77.5C 358.5,77.1667 358.5,76.8333 358.5,76.5C 358.5,72.5 358.5,68.5 358.5,64.5C 358.5,58.8333 358.5,53.1667 358.5,47.5C 358.5,46.8333 358.833,46.5 359.5,46.5 Z"/></g>
<g><path style="opacity:1" fill="#de3e22" d="M 372.5,45.5 C 372.833,45.5 373.167,45.5 373.5,45.5C 373.833,45.5 374.167,45.5 374.5,45.5C 374.611,46.1174 374.944,46.6174 375.5,47C 380.155,47.4992 384.821,47.6658 389.5,47.5C 389.5,52.1667 389.5,56.8333 389.5,61.5C 399.446,63.4753 409.779,64.1419 420.5,63.5C 420.334,68.1785 420.501,72.8452 421,77.5C 425.737,78.4692 430.57,78.8025 435.5,78.5C 434.859,88.8893 435.526,98.8893 437.5,108.5C 441.634,109.485 445.968,109.818 450.5,109.5C 451.441,114.07 451.774,118.737 451.5,123.5C 441.5,123.5 431.5,123.5 421.5,123.5C 421.666,118.821 421.499,114.155 421,109.5C 416.263,108.531 411.43,108.197 406.5,108.5C 406.827,103.786 406.493,99.1196 405.5,94.5C 404.692,94.1924 404.025,93.6924 403.5,93C 399.514,92.5012 395.514,92.3345 391.5,92.5C 390.935,87.8507 390.435,83.184 390,78.5C 385.679,76.9928 381.179,75.9928 376.5,75.5C 375.86,70.9675 375.194,66.4675 374.5,62C 370.642,61.1901 366.976,61.3567 363.5,62.5C 362.432,63.4345 361.099,63.7678 359.5,63.5C 359.5,57.8333 359.5,52.1667 359.5,46.5C 363.785,45.7051 368.119,45.3718 372.5,45.5 Z"/></g>
<g><path style="opacity:1" fill="#9a2c2f" d="M 301.5,62.5 C 304.365,62.0548 306.865,62.7215 309,64.5C 308.536,67.8037 308.536,71.137 309,74.5C 305.317,75.864 301.484,76.5307 297.5,76.5C 297.467,72.1311 297.8,67.7978 298.5,63.5C 299.791,63.7373 300.791,63.404 301.5,62.5 Z"/></g>
<g><path style="opacity:0.818" fill="#a23a29" d="M 389.5,61.5 C 389.833,61.5 390.167,61.5 390.5,61.5C 400.653,62.4942 410.986,62.8276 421.5,62.5C 421.21,67.5169 421.71,72.5169 423,77.5C 427.667,76.1667 432.333,76.1667 437,77.5C 437.5,87.828 437.666,98.1613 437.5,108.5C 435.526,98.8893 434.859,88.8893 435.5,78.5C 430.57,78.8025 425.737,78.4692 421,77.5C 420.501,72.8452 420.334,68.1785 420.5,63.5C 409.779,64.1419 399.446,63.4753 389.5,61.5 Z"/></g>
<g><path style="opacity:0.624" fill="#68271f" d="M 343.5,78.5 C 348.305,77.5128 353.305,77.1795 358.5,77.5C 359.494,87.6532 359.828,97.9865 359.5,108.5C 359.167,108.5 358.833,108.5 358.5,108.5C 358.5,98.5 358.5,88.5 358.5,78.5C 353.5,78.5 348.5,78.5 343.5,78.5 Z"/></g>
<g><path style="opacity:1" fill="#9c2b30" d="M 296.5,45.5 C 296.833,45.5 297.167,45.5 297.5,45.5C 297.586,46.4959 297.252,47.3292 296.5,48C 291.845,48.4992 287.179,48.6658 282.5,48.5C 282.5,57.5 282.5,66.5 282.5,75.5C 285.744,77.1119 289.411,78.1119 293.5,78.5C 295.788,82.2952 296.121,86.2952 294.5,90.5C 296.045,91.4519 297.712,91.7852 299.5,91.5C 301.099,91.2322 302.432,91.5655 303.5,92.5C 296.5,92.5 289.5,92.5 282.5,92.5C 282.818,87.9677 282.485,83.6344 281.5,79.5C 281.5,68.8333 281.5,58.1667 281.5,47.5C 286.363,47.8195 291.03,47.4861 295.5,46.5C 296.167,46.5 296.5,46.1667 296.5,45.5 Z"/></g>
<g><path style="opacity:0.749" fill="#82212b" d="M 358.5,76.5 C 358.5,76.8333 358.5,77.1667 358.5,77.5C 353.305,77.1795 348.305,77.5128 343.5,78.5C 343.5,83.5 343.5,88.5 343.5,93.5C 328.167,93.5 312.833,93.5 297.5,93.5C 296.167,93.5 294.833,93.5 293.5,93.5C 289.5,93.5 285.5,93.5 281.5,93.5C 281.5,88.8333 281.5,84.1667 281.5,79.5C 282.485,83.6344 282.818,87.9677 282.5,92.5C 289.5,92.5 296.5,92.5 303.5,92.5C 316.5,92.5 329.5,92.5 342.5,92.5C 342.5,87.1667 342.5,81.8333 342.5,76.5C 347.833,76.5 353.167,76.5 358.5,76.5 Z"/></g>
<g><path style="opacity:1" fill="#72192c" d="M 280.5,46.5 C 285.5,46.5 290.5,46.5 295.5,46.5C 291.03,47.4861 286.363,47.8195 281.5,47.5C 281.5,58.1667 281.5,68.8333 281.5,79.5C 281.5,84.1667 281.5,88.8333 281.5,93.5C 285.5,93.5 289.5,93.5 293.5,93.5C 294.473,103.084 294.806,112.75 294.5,122.5C 289.489,122.334 284.489,122.501 279.5,123C 278.31,127.787 278.31,132.621 279.5,137.5C 269.532,138.396 259.532,138.729 249.5,138.5C 249.334,134.154 249.501,129.821 250,125.5C 251.734,124.751 253.567,124.251 255.5,124C 256.833,123.333 256.833,122.667 255.5,122C 257.833,121.667 260.167,121.333 262.5,121C 265.953,112.482 263.287,108.816 254.5,110C 253.789,111.255 252.956,112.421 252,113.5C 251.667,113.167 251.333,112.833 251,112.5C 250.501,106.509 250.334,100.509 250.5,94.5C 256.176,94.3339 261.843,94.5006 267.5,95C 268.103,98.0631 267.437,101.063 265.5,104C 267.247,107.994 269.747,108.494 273,105.5C 275,108.167 277,108.167 279,105.5C 279.369,101.137 279.869,96.8038 280.5,92.5C 280.5,77.1667 280.5,61.8333 280.5,46.5 Z"/></g>
<g><path style="opacity:1" fill="#de3e22" d="M 367.5,77.5 C 369.262,77.3573 370.929,77.6906 372.5,78.5C 373.328,82.7956 373.828,87.1289 374,91.5C 374.383,92.056 374.883,92.3893 375.5,92.5C 379.312,93.3238 383.312,93.8238 387.5,94C 388,94.5 388.5,95 389,95.5C 389.232,99.5548 389.732,103.555 390.5,107.5C 394.122,108.325 397.789,108.825 401.5,109C 402.308,109.308 402.975,109.808 403.5,110.5C 404.443,115.1 404.777,119.767 404.5,124.5C 409.833,124.5 415.167,124.5 420.5,124.5C 420.5,129.167 420.5,133.833 420.5,138.5C 410.833,138.5 401.167,138.5 391.5,138.5C 391.818,133.968 391.485,129.634 390.5,125.5C 390.5,124.833 390.167,124.5 389.5,124.5C 385.167,123.833 380.833,123.167 376.5,122.5C 376.803,117.57 376.469,112.737 375.5,108C 370.511,107.501 365.511,107.334 360.5,107.5C 360.334,98.1607 360.5,88.8274 361,79.5C 362.754,77.75 364.921,77.0833 367.5,77.5 Z"/></g>
<g><path style="opacity:0.376" fill="#520c02" d="M 358.5,108.5 C 358.833,108.5 359.167,108.5 359.5,108.5C 364.695,108.179 369.695,108.513 374.5,109.5C 374.5,113.833 374.5,118.167 374.5,122.5C 373.515,118.366 373.182,114.032 373.5,109.5C 368.305,109.821 363.305,109.487 358.5,108.5 Z"/></g>
<g><path style="opacity:0.62" fill="#591f18" d="M 453.5,124.5 C 453.167,124.5 452.833,124.5 452.5,124.5C 453.108,119.056 452.442,114.056 450.5,109.5C 445.968,109.818 441.634,109.485 437.5,108.5C 442.939,108.178 448.273,108.178 453.5,108.5C 453.5,113.833 453.5,119.167 453.5,124.5 Z"/></g>
<g><path style="opacity:1" fill="#c74027" d="M 363.5,62.5 C 366.976,61.3567 370.642,61.1901 374.5,62C 375.194,66.4675 375.86,70.9675 376.5,75.5C 381.179,75.9928 385.679,76.9928 390,78.5C 390.435,83.184 390.935,87.8507 391.5,92.5C 395.514,92.3345 399.514,92.5012 403.5,93C 404.025,93.6924 404.692,94.1924 405.5,94.5C 406.493,99.1196 406.827,103.786 406.5,108.5C 411.43,108.197 416.263,108.531 421,109.5C 421.499,114.155 421.666,118.821 421.5,123.5C 431.5,123.5 441.5,123.5 451.5,123.5C 451.5,123.833 451.5,124.167 451.5,124.5C 446.5,124.5 441.5,124.5 436.5,124.5C 431.5,124.5 426.5,124.5 421.5,124.5C 421.5,129.5 421.5,134.5 421.5,139.5C 411.167,139.5 400.833,139.5 390.5,139.5C 390.5,134.833 390.5,130.167 390.5,125.5C 391.485,129.634 391.818,133.968 391.5,138.5C 401.167,138.5 410.833,138.5 420.5,138.5C 420.5,133.833 420.5,129.167 420.5,124.5C 415.167,124.5 409.833,124.5 404.5,124.5C 404.777,119.767 404.443,115.1 403.5,110.5C 402.975,109.808 402.308,109.308 401.5,109C 397.789,108.825 394.122,108.325 390.5,107.5C 389.732,103.555 389.232,99.5548 389,95.5C 388.5,95 388,94.5 387.5,94C 383.312,93.8238 379.312,93.3238 375.5,92.5C 374.883,92.3893 374.383,92.056 374,91.5C 373.828,87.1289 373.328,82.7956 372.5,78.5C 370.929,77.6906 369.262,77.3573 367.5,77.5C 369.19,76.8969 370.69,75.8969 372,74.5C 373.277,70.9031 373.61,67.2364 373,63.5C 369.943,62.5495 366.777,62.2161 363.5,62.5 Z"/></g>
<g><path style="opacity:1" fill="#b53e2c" d="M 393.5,94.5 C 396.909,94.2493 400.242,94.5827 403.5,95.5C 404.491,99.4454 404.824,103.445 404.5,107.5C 400.167,107.5 395.833,107.5 391.5,107.5C 390.999,102.847 391.666,98.5135 393.5,94.5 Z"/></g>
<g><path style="opacity:1" fill="#b63e2b" d="M 375.5,92.5 C 375.334,88.1539 375.501,83.8206 376,79.5C 380.066,76.935 384.233,76.935 388.5,79.5C 389.492,83.7828 389.826,88.1161 389.5,92.5C 384.833,92.5 380.167,92.5 375.5,92.5 Z"/></g>
<g><path style="opacity:1" fill="#b63e2b" d="M 409.5,109.5 C 419.509,107.679 423.009,111.679 420,121.5C 415.822,123.399 411.322,124.065 406.5,123.5C 406.334,119.486 406.501,115.486 407,111.5C 407.995,110.934 408.828,110.267 409.5,109.5 Z"/></g>
<g><path style="opacity:0.969" fill="#b5503e" d="M 450.5,109.5 C 452.442,114.056 453.108,119.056 452.5,124.5C 452.167,124.5 451.833,124.5 451.5,124.5C 451.5,124.167 451.5,123.833 451.5,123.5C 451.774,118.737 451.441,114.07 450.5,109.5 Z"/></g>
<g><path style="opacity:1" fill="#682330" d="M 280.5,92.5 C 279.869,96.8038 279.369,101.137 279,105.5C 277,108.167 275,108.167 273,105.5C 269.747,108.494 267.247,107.994 265.5,104C 267.437,101.063 268.103,98.0631 267.5,95C 261.843,94.5006 256.176,94.3339 250.5,94.5C 250.334,100.509 250.501,106.509 251,112.5C 251.333,112.833 251.667,113.167 252,113.5C 252.956,112.421 253.789,111.255 254.5,110C 263.287,108.816 265.953,112.482 262.5,121C 260.167,121.333 257.833,121.667 255.5,122C 256.833,122.667 256.833,123.333 255.5,124C 253.567,124.251 251.734,124.751 250,125.5C 249.501,129.821 249.334,134.154 249.5,138.5C 259.532,138.729 269.532,138.396 279.5,137.5C 278.31,132.621 278.31,127.787 279.5,123C 284.489,122.501 289.489,122.334 294.5,122.5C 294.806,112.75 294.473,103.084 293.5,93.5C 294.833,93.5 296.167,93.5 297.5,93.5C 296.525,103.751 296.192,114.085 296.5,124.5C 291.5,124.5 286.5,124.5 281.5,124.5C 280.513,129.305 280.179,134.305 280.5,139.5C 265.167,139.5 249.833,139.5 234.5,139.5C 234.5,134.5 234.5,129.5 234.5,124.5C 239.43,124.803 244.263,124.469 249,123.5C 249.5,113.172 249.666,102.839 249.5,92.5C 259.833,92.5 270.167,92.5 280.5,92.5 Z"/></g>
<g><path style="opacity:1" fill="#b24f41" d="M 374.5,109.5 C 375.167,113.833 375.833,118.167 376.5,122.5C 380.833,123.167 385.167,123.833 389.5,124.5C 384.056,125.108 379.056,124.442 374.5,122.5C 374.5,118.167 374.5,113.833 374.5,109.5 Z"/></g>
<g><path style="opacity:1" fill="#d37945" d="M 436.5,124.5 C 436.5,124.833 436.5,125.167 436.5,125.5C 431.833,125.5 427.167,125.5 422.5,125.5C 422.5,130.167 422.5,134.833 422.5,139.5C 422.167,139.5 421.833,139.5 421.5,139.5C 421.5,134.5 421.5,129.5 421.5,124.5C 426.5,124.5 431.5,124.5 436.5,124.5 Z"/></g>
<g><path style="opacity:1" fill="#bc8743" d="M 436.5,125.5 C 436.5,130.5 436.5,135.5 436.5,140.5C 431.637,140.819 426.97,140.486 422.5,139.5C 422.5,134.833 422.5,130.167 422.5,125.5C 427.167,125.5 431.833,125.5 436.5,125.5 Z"/></g>
<g><path style="opacity:0.624" fill="#40151e" d="M 234.5,124.5 C 234.5,129.5 234.5,134.5 234.5,139.5C 249.833,139.5 265.167,139.5 280.5,139.5C 280.179,134.305 280.513,129.305 281.5,124.5C 281.5,129.833 281.5,135.167 281.5,140.5C 265.5,140.5 249.5,140.5 233.5,140.5C 233.179,134.974 233.512,129.64 234.5,124.5 Z"/></g>
<g><path style="opacity:0.624" fill="#642519" d="M 389.5,124.5 C 390.167,124.5 390.5,124.833 390.5,125.5C 390.5,130.167 390.5,134.833 390.5,139.5C 400.833,139.5 411.167,139.5 421.5,139.5C 421.5,144.833 421.5,150.167 421.5,155.5C 421.167,155.5 420.833,155.5 420.5,155.5C 420.5,150.5 420.5,145.5 420.5,140.5C 410.167,140.5 399.833,140.5 389.5,140.5C 389.5,135.167 389.5,129.833 389.5,124.5 Z"/></g>
<g><path style="opacity:1" fill="#e9ae4d" d="M 468.5,140.5 C 472.899,141.191 477.399,141.858 482,142.5C 482.833,161.509 482.666,180.509 481.5,199.5C 478.227,200.585 474.894,200.752 471.5,200C 470.219,198.591 469.219,197.091 468.5,195.5C 468.5,182.167 468.5,168.833 468.5,155.5C 468.389,154.883 468.056,154.383 467.5,154C 463.514,153.501 459.514,153.334 455.5,153.5C 455.211,149.894 455.544,146.394 456.5,143C 455.299,142.097 454.465,140.931 454,139.5C 450.153,138.904 445.986,138.237 441.5,137.5C 439.364,136.883 438.53,135.549 439,133.5C 440.126,134.944 441.626,135.61 443.5,135.5C 445.846,134.5 448.013,133.167 450,131.5C 451.987,133.167 454.154,134.5 456.5,135.5C 459.703,134.108 463.036,133.441 466.5,133.5C 466.5,134.833 466.5,136.167 466.5,137.5C 463.092,138.372 460.092,140.039 457.5,142.5C 458.376,143.251 459.376,143.751 460.5,144C 459.742,145.364 460.242,146.531 462,147.5C 464.54,146.124 466.54,146.79 468,149.5C 467.592,146.839 466.759,144.173 465.5,141.5C 465.876,139.197 466.876,138.863 468.5,140.5 Z"/></g>
<g><path style="opacity:0.344" fill="#453117" d="M 468.5,140.5 C 468.5,140.167 468.5,139.833 468.5,139.5C 473.833,139.5 479.167,139.5 484.5,139.5C 484.5,160.833 484.5,182.167 484.5,203.5C 479.167,203.5 473.833,203.5 468.5,203.5C 468.5,203.167 468.5,202.833 468.5,202.5C 473.5,202.5 478.5,202.5 483.5,202.5C 483.5,181.833 483.5,161.167 483.5,140.5C 478.5,140.5 473.5,140.5 468.5,140.5 Z"/></g>
<g><path style="opacity:0.977" fill="#dcb066" d="M 468.5,140.5 C 473.5,140.5 478.5,140.5 483.5,140.5C 483.5,161.167 483.5,181.833 483.5,202.5C 478.5,202.5 473.5,202.5 468.5,202.5C 468.167,202.5 467.833,202.5 467.5,202.5C 467.5,202.167 467.5,201.833 467.5,201.5C 468.461,199.735 468.795,197.735 468.5,195.5C 469.219,197.091 470.219,198.591 471.5,200C 474.894,200.752 478.227,200.585 481.5,199.5C 482.666,180.509 482.833,161.509 482,142.5C 477.399,141.858 472.899,141.191 468.5,140.5 Z"/></g>
<g><path style="opacity:1" fill="#e7ae4f" d="M 436.5,124.5 C 441.5,124.5 446.5,124.5 451.5,124.5C 451.833,124.5 452.167,124.5 452.5,124.5C 452.833,124.5 453.167,124.5 453.5,124.5C 458.5,124.5 463.5,124.5 468.5,124.5C 468.5,129.5 468.5,134.5 468.5,139.5C 468.5,139.833 468.5,140.167 468.5,140.5C 466.876,138.863 465.876,139.197 465.5,141.5C 466.759,144.173 467.592,146.839 468,149.5C 466.54,146.79 464.54,146.124 462,147.5C 460.242,146.531 459.742,145.364 460.5,144C 459.376,143.751 458.376,143.251 457.5,142.5C 460.092,140.039 463.092,138.372 466.5,137.5C 466.5,136.167 466.5,134.833 466.5,133.5C 463.036,133.441 459.703,134.108 456.5,135.5C 454.154,134.5 451.987,133.167 450,131.5C 448.013,133.167 445.846,134.5 443.5,135.5C 441.626,135.61 440.126,134.944 439,133.5C 438.53,135.549 439.364,136.883 441.5,137.5C 445.986,138.237 450.153,138.904 454,139.5C 454.465,140.931 455.299,142.097 456.5,143C 455.544,146.394 455.211,149.894 455.5,153.5C 459.514,153.334 463.514,153.501 467.5,154C 468.056,154.383 468.389,154.883 468.5,155.5C 463.167,155.5 457.833,155.5 452.5,155.5C 452.5,150.5 452.5,145.5 452.5,140.5C 447.5,140.5 442.5,140.5 437.5,140.5C 437.5,145.5 437.5,150.5 437.5,155.5C 441.7,156.22 446.033,156.886 450.5,157.5C 451.499,172.485 451.833,187.485 451.5,202.5C 446.833,202.5 442.167,202.5 437.5,202.5C 437.167,202.5 436.833,202.5 436.5,202.5C 431.5,202.5 426.5,202.5 421.5,202.5C 421.5,197.5 421.5,192.5 421.5,187.5C 416.695,186.513 411.695,186.179 406.5,186.5C 406.5,176.5 406.5,166.5 406.5,156.5C 411.695,156.821 416.695,156.487 421.5,155.5C 421.5,150.167 421.5,144.833 421.5,139.5C 421.833,139.5 422.167,139.5 422.5,139.5C 426.97,140.486 431.637,140.819 436.5,140.5C 436.5,135.5 436.5,130.5 436.5,125.5C 436.5,125.167 436.5,124.833 436.5,124.5 Z"/></g>
<g><path style="opacity:1" fill="#bc8542" d="M 452.5,155.5 C 447.5,155.5 442.5,155.5 437.5,155.5C 437.5,150.5 437.5,145.5 437.5,140.5C 442.5,140.5 447.5,140.5 452.5,140.5C 452.5,145.5 452.5,150.5 452.5,155.5 Z"/></g>
<g><path style="opacity:1" fill="#ba8545" d="M 467.5,201.5 C 467.5,201.833 467.5,202.167 467.5,202.5C 463.833,202.5 460.167,202.5 456.5,202.5C 455.5,202.5 454.5,202.5 453.5,202.5C 453.333,188.163 453.5,173.829 454,159.5C 457.836,157.611 462.003,156.945 466.5,157.5C 466.363,172.181 466.697,186.848 467.5,201.5 Z"/></g>
<g><path style="opacity:0.749" fill="#9f7b44" d="M 420.5,155.5 C 420.833,155.5 421.167,155.5 421.5,155.5C 416.695,156.487 411.695,156.821 406.5,156.5C 406.5,166.5 406.5,176.5 406.5,186.5C 411.695,186.179 416.695,186.513 421.5,187.5C 421.167,187.5 420.833,187.5 420.5,187.5C 415.5,187.5 410.5,187.5 405.5,187.5C 405.5,176.833 405.5,166.167 405.5,155.5C 410.5,155.5 415.5,155.5 420.5,155.5 Z"/></g>
<g><path style="opacity:1" fill="#c38c3d" d="M 452.5,155.5 C 457.833,155.5 463.167,155.5 468.5,155.5C 468.5,168.833 468.5,182.167 468.5,195.5C 468.795,197.735 468.461,199.735 467.5,201.5C 466.697,186.848 466.363,172.181 466.5,157.5C 462.003,156.945 457.836,157.611 454,159.5C 453.5,173.829 453.333,188.163 453.5,202.5C 453.167,202.5 452.833,202.5 452.5,202.5C 452.5,186.833 452.5,171.167 452.5,155.5 Z"/></g>
<g><path style="opacity:0.122" fill="#120000" d="M 420.5,187.5 C 420.833,187.5 421.167,187.5 421.5,187.5C 421.5,192.5 421.5,197.5 421.5,202.5C 426.5,202.5 431.5,202.5 436.5,202.5C 436.5,202.833 436.5,203.167 436.5,203.5C 431.167,203.5 425.833,203.5 420.5,203.5C 420.5,198.167 420.5,192.833 420.5,187.5 Z"/></g>
<g><path style="opacity:1" fill="#d59f45" d="M 437.5,155.5 C 442.5,155.5 447.5,155.5 452.5,155.5C 452.5,171.167 452.5,186.833 452.5,202.5C 452.5,228.5 452.5,254.5 452.5,280.5C 447.167,280.5 441.833,280.5 436.5,280.5C 432.154,280.666 427.821,280.499 423.5,280C 422.858,275.399 422.191,270.899 421.5,266.5C 421.5,266.167 421.5,265.833 421.5,265.5C 416.695,264.513 411.695,264.179 406.5,264.5C 406.5,254.5 406.5,244.5 406.5,234.5C 411.695,234.821 416.695,234.487 421.5,233.5C 421.5,228.5 421.5,223.5 421.5,218.5C 426.833,218.5 432.167,218.5 437.5,218.5C 437.5,213.167 437.5,207.833 437.5,202.5C 442.167,202.5 446.833,202.5 451.5,202.5C 451.833,187.485 451.499,172.485 450.5,157.5C 446.033,156.886 441.7,156.22 437.5,155.5 Z"/></g>
<g><path style="opacity:1" fill="#ae7b41" d="M 456.5,202.5 C 460.167,202.5 463.833,202.5 467.5,202.5C 467.5,207.833 467.5,213.167 467.5,218.5C 467.5,218.833 467.5,219.167 467.5,219.5C 466.022,219.238 464.689,219.571 463.5,220.5C 465.466,237.33 466.133,254.33 465.5,271.5C 463.396,271.201 461.396,271.534 459.5,272.5C 461.833,273.833 464.167,275.167 466.5,276.5C 462.973,277.921 459.306,278.588 455.5,278.5C 455.177,253.092 455.51,227.759 456.5,202.5 Z"/></g>
<g><path style="opacity:1" fill="#b27c3a" d="M 452.5,202.5 C 452.833,202.5 453.167,202.5 453.5,202.5C 454.5,202.5 455.5,202.5 456.5,202.5C 455.51,227.759 455.177,253.092 455.5,278.5C 459.306,278.588 462.973,277.921 466.5,276.5C 464.167,275.167 461.833,273.833 459.5,272.5C 461.396,271.534 463.396,271.201 465.5,271.5C 466.133,254.33 465.466,237.33 463.5,220.5C 464.689,219.571 466.022,219.238 467.5,219.5C 467.833,219.5 468.167,219.5 468.5,219.5C 468.5,239.5 468.5,259.5 468.5,279.5C 468.5,279.833 468.5,280.167 468.5,280.5C 468.167,280.5 467.833,280.5 467.5,280.5C 462.5,280.5 457.5,280.5 452.5,280.5C 452.5,254.5 452.5,228.5 452.5,202.5 Z"/></g>
<g><path style="opacity:0.234" fill="#3f290e" d="M 436.5,202.5 C 436.833,202.5 437.167,202.5 437.5,202.5C 437.5,207.833 437.5,213.167 437.5,218.5C 432.167,218.5 426.833,218.5 421.5,218.5C 421.5,223.5 421.5,228.5 421.5,233.5C 421.167,233.5 420.833,233.5 420.5,233.5C 420.5,228.167 420.5,222.833 420.5,217.5C 425.833,217.5 431.167,217.5 436.5,217.5C 436.5,212.833 436.5,208.167 436.5,203.5C 436.5,203.167 436.5,202.833 436.5,202.5 Z"/></g>
<g><path style="opacity:1" fill="#d59e44" d="M 468.5,219.5 C 473.167,219.5 477.833,219.5 482.5,219.5C 482.833,239.178 482.5,258.845 481.5,278.5C 477.235,279.439 472.902,279.772 468.5,279.5C 468.5,259.5 468.5,239.5 468.5,219.5 Z"/></g>
<g><path style="opacity:0.975" fill="#c89f5c" d="M 467.5,219.5 C 467.5,219.167 467.5,218.833 467.5,218.5C 472.833,218.5 478.167,218.5 483.5,218.5C 483.5,239.167 483.5,259.833 483.5,280.5C 478.5,280.5 473.5,280.5 468.5,280.5C 468.5,280.167 468.5,279.833 468.5,279.5C 472.902,279.772 477.235,279.439 481.5,278.5C 482.5,258.845 482.833,239.178 482.5,219.5C 477.833,219.5 473.167,219.5 468.5,219.5C 468.167,219.5 467.833,219.5 467.5,219.5 Z"/></g>
<g><path style="opacity:0.342" fill="#4d3819" d="M 467.5,202.5 C 467.833,202.5 468.167,202.5 468.5,202.5C 468.5,202.833 468.5,203.167 468.5,203.5C 468.5,208.167 468.5,212.833 468.5,217.5C 473.833,217.5 479.167,217.5 484.5,217.5C 484.5,238.833 484.5,260.167 484.5,281.5C 479.167,281.5 473.833,281.5 468.5,281.5C 468.5,281.167 468.5,280.833 468.5,280.5C 473.5,280.5 478.5,280.5 483.5,280.5C 483.5,259.833 483.5,239.167 483.5,218.5C 478.167,218.5 472.833,218.5 467.5,218.5C 467.5,213.167 467.5,207.833 467.5,202.5 Z"/></g>
<g><path style="opacity:0.749" fill="#95713d" d="M 420.5,233.5 C 420.833,233.5 421.167,233.5 421.5,233.5C 416.695,234.487 411.695,234.821 406.5,234.5C 406.5,244.5 406.5,254.5 406.5,264.5C 411.695,264.179 416.695,264.513 421.5,265.5C 421.167,265.5 420.833,265.5 420.5,265.5C 415.5,265.5 410.5,265.5 405.5,265.5C 405.5,254.833 405.5,244.167 405.5,233.5C 410.5,233.5 415.5,233.5 420.5,233.5 Z"/></g>
<g><path style="opacity:0.738" fill="#5f4833" d="M 420.5,265.5 C 420.833,265.5 421.167,265.5 421.5,265.5C 421.5,265.833 421.5,266.167 421.5,266.5C 421.5,271.5 421.5,276.5 421.5,281.5C 411.167,281.5 400.833,281.5 390.5,281.5C 390.5,286.5 390.5,291.5 390.5,296.5C 385.167,296.5 379.833,296.5 374.5,296.5C 379.305,295.513 384.305,295.179 389.5,295.5C 389.5,290.5 389.5,285.5 389.5,280.5C 399.833,280.5 410.167,280.5 420.5,280.5C 420.5,275.5 420.5,270.5 420.5,265.5 Z"/></g>
<g><path style="opacity:1" fill="#daa364" d="M 421.5,266.5 C 422.191,270.899 422.858,275.399 423.5,280C 427.821,280.499 432.154,280.666 436.5,280.5C 437.449,285.74 437.782,291.073 437.5,296.5C 437.195,301.762 437.529,306.928 438.5,312C 437.271,313.529 435.771,314.696 434,315.5C 430.927,314.383 427.76,314.216 424.5,315C 425.167,315.333 425.833,315.667 426.5,316C 421.136,318.858 421.469,321.358 427.5,323.5C 428.736,322.754 430.07,322.421 431.5,322.5C 431.5,323.5 431.5,324.5 431.5,325.5C 434.983,325.309 438.316,324.643 441.5,323.5C 441.5,324.5 441.5,325.5 441.5,326.5C 444.448,326.777 447.281,326.444 450,325.5C 450.192,315.756 450.692,306.09 451.5,296.5C 451.833,296.5 452.167,296.5 452.5,296.5C 452.5,306.833 452.5,317.167 452.5,327.5C 447.5,327.5 442.5,327.5 437.5,327.5C 436.513,332.305 436.179,337.305 436.5,342.5C 431.056,341.892 426.056,342.558 421.5,344.5C 421.5,349.167 421.5,353.833 421.5,358.5C 411.167,358.5 400.833,358.5 390.5,358.5C 390.5,353.5 390.5,348.5 390.5,343.5C 385.167,343.5 379.833,343.5 374.5,343.5C 374.5,348.5 374.5,353.5 374.5,358.5C 369.5,358.5 364.5,358.5 359.5,358.5C 359.5,348.167 359.5,337.833 359.5,327.5C 359.5,322.5 359.5,317.5 359.5,312.5C 364.695,312.821 369.695,312.487 374.5,311.5C 374.5,306.5 374.5,301.5 374.5,296.5C 379.833,296.5 385.167,296.5 390.5,296.5C 390.5,291.5 390.5,286.5 390.5,281.5C 400.833,281.5 411.167,281.5 421.5,281.5C 421.5,276.5 421.5,271.5 421.5,266.5 Z"/></g>
<g><path style="opacity:1" fill="#b37f52" d="M 436.5,280.5 C 441.833,280.5 447.167,280.5 452.5,280.5C 452.5,285.5 452.5,290.5 452.5,295.5C 457.5,295.5 462.5,295.5 467.5,295.5C 467.5,290.5 467.5,285.5 467.5,280.5C 467.833,280.5 468.167,280.5 468.5,280.5C 468.5,280.833 468.5,281.167 468.5,281.5C 468.5,286.5 468.5,291.5 468.5,296.5C 463.5,296.5 458.5,296.5 453.5,296.5C 453.167,296.5 452.833,296.5 452.5,296.5C 452.167,296.5 451.833,296.5 451.5,296.5C 446.833,296.5 442.167,296.5 437.5,296.5C 437.782,291.073 437.449,285.74 436.5,280.5 Z"/></g>
<g><path style="opacity:1" fill="#d39e48" d="M 452.5,280.5 C 457.5,280.5 462.5,280.5 467.5,280.5C 467.5,285.5 467.5,290.5 467.5,295.5C 462.5,295.5 457.5,295.5 452.5,295.5C 452.5,290.5 452.5,285.5 452.5,280.5 Z"/></g>
<g><path style="opacity:0.718" fill="#6b452e" d="M 93.5,311.5 C 93.5,311.833 93.5,312.167 93.5,312.5C 92.8103,307.767 92.1437,302.934 91.5,298C 86.8452,297.501 82.1785,297.334 77.5,297.5C 72.6946,296.513 67.6946,296.179 62.5,296.5C 62.5,301.5 62.5,306.5 62.5,311.5C 62.1667,311.5 61.8333,311.5 61.5,311.5C 61.5,306.167 61.5,300.833 61.5,295.5C 72.1667,295.5 82.8333,295.5 93.5,295.5C 93.5,300.833 93.5,306.167 93.5,311.5 Z"/></g>
<g><path style="opacity:1" fill="#dba463" d="M 437.5,296.5 C 442.167,296.5 446.833,296.5 451.5,296.5C 450.692,306.09 450.192,315.756 450,325.5C 447.281,326.444 444.448,326.777 441.5,326.5C 441.5,325.5 441.5,324.5 441.5,323.5C 438.316,324.643 434.983,325.309 431.5,325.5C 431.5,324.5 431.5,323.5 431.5,322.5C 430.07,322.421 428.736,322.754 427.5,323.5C 421.469,321.358 421.136,318.858 426.5,316C 425.833,315.667 425.167,315.333 424.5,315C 427.76,314.216 430.927,314.383 434,315.5C 435.771,314.696 437.271,313.529 438.5,312C 437.529,306.928 437.195,301.762 437.5,296.5 Z"/></g>
<g><path style="opacity:0.118" fill="#120000" d="M 452.5,296.5 C 452.833,296.5 453.167,296.5 453.5,296.5C 453.5,307.167 453.5,317.833 453.5,328.5C 448.167,328.5 442.833,328.5 437.5,328.5C 437.5,328.167 437.5,327.833 437.5,327.5C 442.5,327.5 447.5,327.5 452.5,327.5C 452.5,317.167 452.5,306.833 452.5,296.5 Z"/></g>
<g><path style="opacity:1" fill="#b37e50" d="M 421.5,311.5 C 421.5,306.5 421.5,301.5 421.5,296.5C 426.5,296.5 431.5,296.5 436.5,296.5C 436.5,301.5 436.5,306.5 436.5,311.5C 431.5,311.5 426.5,311.5 421.5,311.5 Z"/></g>
<g><path style="opacity:0.373" fill="#3f2916" d="M 187.5,311.5 C 187.167,311.5 186.833,311.5 186.5,311.5C 186.5,306.5 186.5,301.5 186.5,296.5C 171.167,296.5 155.833,296.5 140.5,296.5C 140.5,306.833 140.5,317.167 140.5,327.5C 140.167,327.5 139.833,327.5 139.5,327.5C 139.5,316.833 139.5,306.167 139.5,295.5C 155.5,295.5 171.5,295.5 187.5,295.5C 187.5,300.833 187.5,306.167 187.5,311.5 Z"/></g>
<g><path style="opacity:1" fill="#eda332" d="M 77.5,297.5 C 77.5,312.5 77.5,327.5 77.5,342.5C 72.5,342.5 67.5,342.5 62.5,342.5C 62.5,337.5 62.5,332.5 62.5,327.5C 63.4861,331.97 63.8195,336.637 63.5,341.5C 67.8333,341.5 72.1667,341.5 76.5,341.5C 76.5,327.167 76.5,312.833 76.5,298.5C 72.1667,298.5 67.8333,298.5 63.5,298.5C 63.7009,301.508 64.0343,304.508 64.5,307.5C 64.4146,309.333 63.7479,310.666 62.5,311.5C 62.5,306.5 62.5,301.5 62.5,296.5C 67.6946,296.179 72.6946,296.513 77.5,297.5 Z"/></g>
<g><path style="opacity:1" fill="#f8a21a" d="M 62.5,327.5 C 62.1667,327.5 61.8333,327.5 61.5,327.5C 61.5,327.167 61.5,326.833 61.5,326.5C 61.5,321.833 61.5,317.167 61.5,312.5C 61.5,312.167 61.5,311.833 61.5,311.5C 61.8333,311.5 62.1667,311.5 62.5,311.5C 63.7479,310.666 64.4146,309.333 64.5,307.5C 64.0343,304.508 63.7009,301.508 63.5,298.5C 67.8333,298.5 72.1667,298.5 76.5,298.5C 76.5,312.833 76.5,327.167 76.5,341.5C 72.1667,341.5 67.8333,341.5 63.5,341.5C 63.8195,336.637 63.4861,331.97 62.5,327.5 Z"/></g>
<g><path style="opacity:1" fill="#dba363" d="M 155.5,311.5 C 155.5,311.833 155.5,312.167 155.5,312.5C 154.514,316.97 154.181,321.637 154.5,326.5C 150.167,326.5 145.833,326.5 141.5,326.5C 141.182,317.249 141.515,308.083 142.5,299C 156.829,298.5 171.163,298.333 185.5,298.5C 185.5,302.5 185.5,306.5 185.5,310.5C 175.319,310.173 165.319,310.506 155.5,311.5 Z"/></g>
<g><path style="opacity:1" fill="#6f5739" d="M 155.5,311.5 C 165.833,311.5 176.167,311.5 186.5,311.5C 181.695,312.487 176.695,312.821 171.5,312.5C 166.5,312.5 161.5,312.5 156.5,312.5C 156.821,317.695 156.487,322.695 155.5,327.5C 155.5,322.5 155.5,317.5 155.5,312.5C 155.5,312.167 155.5,311.833 155.5,311.5 Z"/></g>
<g><path style="opacity:0.998" fill="#181513" d="M 187.5,311.5 C 239.5,311.5 291.5,311.5 343.5,311.5C 343.218,316.927 343.551,322.26 344.5,327.5C 344.167,327.5 343.833,327.5 343.5,327.5C 342.513,322.695 342.179,317.695 342.5,312.5C 337.5,312.5 332.5,312.5 327.5,312.5C 322.167,312.5 316.833,312.5 311.5,312.5C 292.833,312.5 274.167,312.5 255.5,312.5C 247.833,312.5 240.167,312.5 232.5,312.5C 222.5,312.5 212.5,312.5 202.5,312.5C 202.5,328.167 202.5,343.833 202.5,359.5C 197.5,359.5 192.5,359.5 187.5,359.5C 187.5,362.5 187.5,365.5 187.5,368.5C 186.523,365.713 186.19,362.713 186.5,359.5C 180.794,359.829 175.128,359.495 169.5,358.5C 168.585,357.672 167.919,356.672 167.5,355.5C 169.295,344.308 169.961,332.641 169.5,320.5C 166.873,319.908 164.206,319.575 161.5,319.5C 161.666,329.839 161.5,340.172 161,350.5C 160.263,347.207 159.596,343.874 159,340.5C 158.768,341.737 158.268,342.737 157.5,343.5C 156.596,342.791 156.263,341.791 156.5,340.5C 151.87,341.229 147.203,341.563 142.5,341.5C 142.628,337.119 142.295,332.785 141.5,328.5C 146.363,328.819 151.03,328.486 155.5,327.5C 156.487,322.695 156.821,317.695 156.5,312.5C 161.5,312.5 166.5,312.5 171.5,312.5C 171.5,327.833 171.5,343.167 171.5,358.5C 176.5,358.5 181.5,358.5 186.5,358.5C 187.137,345.086 186.47,331.919 184.5,319C 186.3,316.886 187.3,314.386 187.5,311.5 Z"/></g>
<g><path style="opacity:1" fill="#231f1c" d="M 232.5,312.5 C 233.466,326.785 233.8,341.118 233.5,355.5C 233.5,356.5 233.5,357.5 233.5,358.5C 232.514,362.97 232.181,367.637 232.5,372.5C 229.15,372.665 225.817,372.498 222.5,372C 221.624,370.414 220.624,368.914 219.5,367.5C 215.942,374.032 214.608,381.032 215.5,388.5C 211.167,388.5 206.833,388.5 202.5,388.5C 202.5,383.833 202.5,379.167 202.5,374.5C 197.833,374.5 193.167,374.5 188.5,374.5C 188.5,373.833 188.167,373.5 187.5,373.5C 187.5,371.833 187.5,370.167 187.5,368.5C 187.5,365.5 187.5,362.5 187.5,359.5C 192.5,359.5 197.5,359.5 202.5,359.5C 202.5,343.833 202.5,328.167 202.5,312.5C 212.5,312.5 222.5,312.5 232.5,312.5 Z"/></g>
<g><path style="opacity:1" fill="#b47f52" d="M 421.5,311.5 C 421.5,316.833 421.5,322.167 421.5,327.5C 416.167,327.5 410.833,327.5 405.5,327.5C 405.5,322.167 405.5,316.833 405.5,311.5C 410.833,311.5 416.167,311.5 421.5,311.5 Z"/></g>
<g><path style="opacity:1" fill="#2c2521" d="M 232.5,312.5 C 240.167,312.5 247.833,312.5 255.5,312.5C 254.277,314.772 252.277,315.939 249.5,316C 250.171,316.986 250.171,318.153 249.5,319.5C 250.132,331.254 249.465,342.754 247.5,354C 248.756,354.417 249.423,355.25 249.5,356.5C 244.187,356.49 238.854,356.157 233.5,355.5C 233.8,341.118 233.466,326.785 232.5,312.5 Z"/></g>
<g><path style="opacity:1" fill="#352c27" d="M 255.5,312.5 C 274.167,312.5 292.833,312.5 311.5,312.5C 311.5,322.5 311.5,332.5 311.5,342.5C 306.305,342.179 301.305,342.513 296.5,343.5C 296.5,348.5 296.5,353.5 296.5,358.5C 290.974,358.179 285.64,358.512 280.5,359.5C 279.676,363.312 279.176,367.312 279,371.5C 277.989,372.337 276.822,372.67 275.5,372.5C 275.522,368.564 274.522,364.897 272.5,361.5C 272.709,360.914 273.043,360.414 273.5,360C 270.854,359.503 268.187,359.336 265.5,359.5C 264.575,346.196 264.242,332.863 264.5,319.5C 259.39,319.145 254.39,319.145 249.5,319.5C 250.171,318.153 250.171,316.986 249.5,316C 252.277,315.939 254.277,314.772 255.5,312.5 Z"/></g>
<g><path style="opacity:1" fill="#4a3e39" d="M 311.5,312.5 C 316.833,312.5 322.167,312.5 327.5,312.5C 327.5,327.833 327.5,343.167 327.5,358.5C 322.5,358.5 317.5,358.5 312.5,358.5C 312.821,353.305 312.487,348.305 311.5,343.5C 306.5,343.5 301.5,343.5 296.5,343.5C 301.305,342.513 306.305,342.179 311.5,342.5C 311.5,332.5 311.5,322.5 311.5,312.5 Z"/></g>
<g><path style="opacity:1" fill="#453a34" d="M 327.5,312.5 C 332.5,312.5 337.5,312.5 342.5,312.5C 342.179,317.695 342.513,322.695 343.5,327.5C 343.5,343.167 343.5,358.833 343.5,374.5C 343.167,374.5 342.833,374.5 342.5,374.5C 337.5,374.5 332.5,374.5 327.5,374.5C 327.5,369.5 327.5,364.5 327.5,359.5C 327.5,359.167 327.5,358.833 327.5,358.5C 327.5,343.167 327.5,327.833 327.5,312.5 Z"/></g>
<g><path style="opacity:1" fill="#bb7548" d="M 77.5,297.5 C 82.1785,297.334 86.8452,297.501 91.5,298C 92.1437,302.934 92.8103,307.767 93.5,312.5C 98.5,312.5 103.5,312.5 108.5,312.5C 108.179,317.695 108.513,322.695 109.5,327.5C 114.5,327.5 119.5,327.5 124.5,327.5C 124.5,332.5 124.5,337.5 124.5,342.5C 124.5,342.833 124.5,343.167 124.5,343.5C 124.5,348.5 124.5,353.5 124.5,358.5C 119.167,358.5 113.833,358.5 108.5,358.5C 108.5,363.833 108.5,369.167 108.5,374.5C 87.8333,374.5 67.1667,374.5 46.5,374.5C 46.5,374.167 46.5,373.833 46.5,373.5C 51.8333,373.5 57.1667,373.5 62.5,373.5C 67.5,373.5 72.5,373.5 77.5,373.5C 77.5,368.833 77.5,364.167 77.5,359.5C 82.7401,360.449 88.0735,360.782 93.5,360.5C 93.8222,354.642 93.4889,348.975 92.5,343.5C 87.5,343.5 82.5,343.5 77.5,343.5C 77.5,343.167 77.5,342.833 77.5,342.5C 77.5,327.5 77.5,312.5 77.5,297.5 Z"/></g>
<g><path style="opacity:1" fill="#f56b0f" d="M 61.5,312.5 C 61.5,317.167 61.5,321.833 61.5,326.5C 56.8333,326.5 52.1667,326.5 47.5,326.5C 47.5,321.833 47.5,317.167 47.5,312.5C 52.1667,312.5 56.8333,312.5 61.5,312.5 Z"/></g>
<g><path style="opacity:0.371" fill="#502c15" d="M 93.5,312.5 C 93.5,312.167 93.5,311.833 93.5,311.5C 98.8333,311.5 104.167,311.5 109.5,311.5C 109.5,316.833 109.5,322.167 109.5,327.5C 108.513,322.695 108.179,317.695 108.5,312.5C 103.5,312.5 98.5,312.5 93.5,312.5 Z"/></g>
<g><path style="opacity:1" fill="#251f1b" d="M 186.5,311.5 C 186.833,311.5 187.167,311.5 187.5,311.5C 187.3,314.386 186.3,316.886 184.5,319C 186.47,331.919 187.137,345.086 186.5,358.5C 181.5,358.5 176.5,358.5 171.5,358.5C 171.5,343.167 171.5,327.833 171.5,312.5C 176.695,312.821 181.695,312.487 186.5,311.5 Z"/></g>
<g><path style="opacity:0.998" fill="#cea678" d="M 186.5,311.5 C 176.167,311.5 165.833,311.5 155.5,311.5C 165.319,310.506 175.319,310.173 185.5,310.5C 185.5,306.5 185.5,302.5 185.5,298.5C 171.163,298.333 156.829,298.5 142.5,299C 141.515,308.083 141.182,317.249 141.5,326.5C 145.833,326.5 150.167,326.5 154.5,326.5C 154.181,321.637 154.514,316.97 155.5,312.5C 155.5,317.5 155.5,322.5 155.5,327.5C 150.5,327.5 145.5,327.5 140.5,327.5C 140.5,317.167 140.5,306.833 140.5,296.5C 155.833,296.5 171.167,296.5 186.5,296.5C 186.5,301.5 186.5,306.5 186.5,311.5 Z"/></g>
<g><path style="opacity:1" fill="#332b28" d="M 275.5,372.5 C 267.167,372.5 258.833,372.5 250.5,372.5C 250.5,371.5 250.5,370.5 250.5,369.5C 251.675,369.719 252.675,369.386 253.5,368.5C 252.1,364.469 250.766,360.469 249.5,356.5C 249.423,355.25 248.756,354.417 247.5,354C 249.465,342.754 250.132,331.254 249.5,319.5C 254.39,319.145 259.39,319.145 264.5,319.5C 264.242,332.863 264.575,346.196 265.5,359.5C 268.187,359.336 270.854,359.503 273.5,360C 273.043,360.414 272.709,360.914 272.5,361.5C 274.522,364.897 275.522,368.564 275.5,372.5 Z"/></g>
<g><path style="opacity:1" fill="#181514" d="M 187.5,368.5 C 187.5,370.167 187.5,371.833 187.5,373.5C 186.508,373.328 185.842,373.662 185.5,374.5C 185.167,374.5 184.833,374.5 184.5,374.5C 160.006,373.502 135.339,373.169 110.5,373.5C 110.5,369.167 110.5,364.833 110.5,360.5C 115.032,360.818 119.366,360.485 123.5,359.5C 124.167,359.5 124.5,359.167 124.5,358.5C 124.5,353.5 124.5,348.5 124.5,343.5C 129.5,343.5 134.5,343.5 139.5,343.5C 139.5,348.5 139.5,353.5 139.5,358.5C 141.915,359.814 144.748,360.481 148,360.5C 151.221,360.459 154.388,360.125 157.5,359.5C 159.76,357.593 159.927,355.593 158,353.5C 157.502,350.183 157.335,346.85 157.5,343.5C 158.268,342.737 158.768,341.737 159,340.5C 159.596,343.874 160.263,347.207 161,350.5C 161.5,340.172 161.666,329.839 161.5,319.5C 164.206,319.575 166.873,319.908 169.5,320.5C 169.961,332.641 169.295,344.308 167.5,355.5C 167.919,356.672 168.585,357.672 169.5,358.5C 175.128,359.495 180.794,359.829 186.5,359.5C 186.19,362.713 186.523,365.713 187.5,368.5 Z"/></g>
<g><path style="opacity:0.624" fill="#816546" d="M 374.5,311.5 C 369.695,312.487 364.695,312.821 359.5,312.5C 359.5,317.5 359.5,322.5 359.5,327.5C 359.167,327.5 358.833,327.5 358.5,327.5C 358.5,322.167 358.5,316.833 358.5,311.5C 363.833,311.5 369.167,311.5 374.5,311.5 Z"/></g>
<g><path style="opacity:0.988" fill="#c26328" d="M 46.5,311.5 C 51.5,311.5 56.5,311.5 61.5,311.5C 61.5,311.833 61.5,312.167 61.5,312.5C 56.8333,312.5 52.1667,312.5 47.5,312.5C 47.5,317.167 47.5,321.833 47.5,326.5C 52.1667,326.5 56.8333,326.5 61.5,326.5C 61.5,326.833 61.5,327.167 61.5,327.5C 56.5,327.5 51.5,327.5 46.5,327.5C 46.5,322.167 46.5,316.833 46.5,311.5 Z"/></g>
<g><path style="opacity:1" fill="#b37e52" d="M 405.5,327.5 C 405.5,332.833 405.5,338.167 405.5,343.5C 400.5,343.5 395.5,343.5 390.5,343.5C 390.5,338.167 390.5,332.833 390.5,327.5C 395.5,327.5 400.5,327.5 405.5,327.5 Z"/></g>
<g><path style="opacity:0.844" fill="#7a2c25" d="M 46.5,311.5 C 46.5,316.833 46.5,322.167 46.5,327.5C 51.5,327.5 56.5,327.5 61.5,327.5C 61.5,327.833 61.5,328.167 61.5,328.5C 56.5,328.5 51.5,328.5 46.5,328.5C 46.8221,333.444 46.8221,338.277 46.5,343C 41.1771,343.499 35.8437,343.666 30.5,343.5C 30.5,343.167 30.5,342.833 30.5,342.5C 30.5,337.5 30.5,332.5 30.5,327.5C 35.4014,327.034 40.4014,327.034 45.5,327.5C 45.1786,321.974 45.5119,316.64 46.5,311.5 Z"/></g>
<g><path style="opacity:1" fill="#de3e24" d="M 31.5,328.5 C 36.1667,328.5 40.8333,328.5 45.5,328.5C 45.5,333.167 45.5,337.833 45.5,342.5C 40.8333,342.5 36.1667,342.5 31.5,342.5C 31.5,337.833 31.5,333.167 31.5,328.5 Z"/></g>
<g><path style="opacity:1" fill="#daa365" d="M 124.5,327.5 C 129.5,327.5 134.5,327.5 139.5,327.5C 139.5,332.5 139.5,337.5 139.5,342.5C 134.5,342.5 129.5,342.5 124.5,342.5C 124.5,337.5 124.5,332.5 124.5,327.5 Z"/></g>
<g><path style="opacity:1" fill="#70182b" d="M 15.5,327.5 C 20.5,327.5 25.5,327.5 30.5,327.5C 30.5,332.5 30.5,337.5 30.5,342.5C 25.5,342.5 20.5,342.5 15.5,342.5C 15.5,337.5 15.5,332.5 15.5,327.5 Z"/></g>
<g><path style="opacity:0.749" fill="#42111c" d="M 15.5,327.5 C 15.5,332.5 15.5,337.5 15.5,342.5C 20.5,342.5 25.5,342.5 30.5,342.5C 30.5,342.833 30.5,343.167 30.5,343.5C 25.1667,343.5 19.8333,343.5 14.5,343.5C 14.1786,337.974 14.5119,332.64 15.5,327.5 Z"/></g>
<g><path style="opacity:0.716" fill="#a26d1e" d="M 61.5,327.5 C 61.8333,327.5 62.1667,327.5 62.5,327.5C 62.5,332.5 62.5,337.5 62.5,342.5C 67.5,342.5 72.5,342.5 77.5,342.5C 77.5,342.833 77.5,343.167 77.5,343.5C 72.1667,343.5 66.8333,343.5 61.5,343.5C 61.5,338.5 61.5,333.5 61.5,328.5C 61.5,328.167 61.5,327.833 61.5,327.5 Z"/></g>
<g><path style="opacity:1" fill="#9f7c54" d="M 139.5,327.5 C 139.833,327.5 140.167,327.5 140.5,327.5C 140.5,332.833 140.5,338.167 140.5,343.5C 140.167,343.5 139.833,343.5 139.5,343.5C 134.5,343.5 129.5,343.5 124.5,343.5C 124.5,343.167 124.5,342.833 124.5,342.5C 129.5,342.5 134.5,342.5 139.5,342.5C 139.5,337.5 139.5,332.5 139.5,327.5 Z"/></g>
<g><path style="opacity:0.729" fill="#8d6c46" d="M 437.5,327.5 C 437.5,327.833 437.5,328.167 437.5,328.5C 437.5,333.5 437.5,338.5 437.5,343.5C 432.073,343.218 426.74,343.551 421.5,344.5C 426.056,342.558 431.056,341.892 436.5,342.5C 436.179,337.305 436.513,332.305 437.5,327.5 Z"/></g>
<g><path style="opacity:1" fill="#87232b" d="M 139.5,343.5 C 139.833,343.5 140.167,343.5 140.5,343.5C 145.5,343.5 150.5,343.5 155.5,343.5C 155.5,348.833 155.5,354.167 155.5,359.5C 150.073,359.782 144.74,359.449 139.5,358.5C 139.5,353.5 139.5,348.5 139.5,343.5 Z"/></g>
<g><path style="opacity:1" fill="#b37e54" d="M 390.5,343.5 C 390.5,348.5 390.5,353.5 390.5,358.5C 385.167,358.5 379.833,358.5 374.5,358.5C 374.5,353.5 374.5,348.5 374.5,343.5C 379.833,343.5 385.167,343.5 390.5,343.5 Z"/></g>
<g><path style="opacity:1" fill="#b41f2a" d="M 141.5,344.5 C 145.833,344.5 150.167,344.5 154.5,344.5C 154.5,348.833 154.5,353.167 154.5,357.5C 150.167,357.5 145.833,357.5 141.5,357.5C 141.5,353.167 141.5,348.833 141.5,344.5 Z"/></g>
<g><path style="opacity:1" fill="#26140e" d="M 140.5,327.5 C 145.5,327.5 150.5,327.5 155.5,327.5C 151.03,328.486 146.363,328.819 141.5,328.5C 142.295,332.785 142.628,337.119 142.5,341.5C 147.203,341.563 151.87,341.229 156.5,340.5C 156.263,341.791 156.596,342.791 157.5,343.5C 157.335,346.85 157.502,350.183 158,353.5C 159.927,355.593 159.76,357.593 157.5,359.5C 154.388,360.125 151.221,360.459 148,360.5C 144.748,360.481 141.915,359.814 139.5,358.5C 144.74,359.449 150.073,359.782 155.5,359.5C 155.5,354.167 155.5,348.833 155.5,343.5C 150.5,343.5 145.5,343.5 140.5,343.5C 140.5,338.167 140.5,332.833 140.5,327.5 Z"/></g>
<g><path style="opacity:1" fill="#cfa676" d="M 296.5,343.5 C 301.5,343.5 306.5,343.5 311.5,343.5C 311.5,348.5 311.5,353.5 311.5,358.5C 306.5,358.5 301.5,358.5 296.5,358.5C 296.5,353.5 296.5,348.5 296.5,343.5 Z"/></g>
<g><path style="opacity:1" fill="#dba364" d="M 297.5,344.5 C 301.833,344.5 306.167,344.5 310.5,344.5C 312.5,355.167 308.167,359.5 297.5,357.5C 297.5,353.167 297.5,348.833 297.5,344.5 Z"/></g>
<g><path style="opacity:0.996" fill="#875937" d="M 92.5,343.5 C 93.4889,348.975 93.8222,354.642 93.5,360.5C 88.0735,360.782 82.7401,360.449 77.5,359.5C 72.5,359.5 67.5,359.5 62.5,359.5C 57.1667,359.5 51.8333,359.5 46.5,359.5C 41.5,359.5 36.5,359.5 31.5,359.5C 31.5,359.167 31.5,358.833 31.5,358.5C 51.8333,358.5 72.1667,358.5 92.5,358.5C 92.5,353.5 92.5,348.5 92.5,343.5 Z"/></g>
<g><path style="opacity:1" fill="#a1724b" d="M 359.5,358.5 C 364.5,358.5 369.5,358.5 374.5,358.5C 379.833,358.5 385.167,358.5 390.5,358.5C 400.833,358.5 411.167,358.5 421.5,358.5C 405.833,359.167 390.167,359.833 374.5,360.5C 373.834,364.353 373.167,368.353 372.5,372.5C 368.235,373.439 363.902,373.772 359.5,373.5C 359.5,368.5 359.5,363.5 359.5,358.5 Z"/></g>
<g><path style="opacity:1" fill="#987c5c" d="M 311.5,343.5 C 312.487,348.305 312.821,353.305 312.5,358.5C 317.5,358.5 322.5,358.5 327.5,358.5C 327.5,358.833 327.5,359.167 327.5,359.5C 322.5,359.5 317.5,359.5 312.5,359.5C 312.5,364.5 312.5,369.5 312.5,374.5C 312.167,374.5 311.833,374.5 311.5,374.5C 311.5,369.5 311.5,364.5 311.5,359.5C 306.5,359.5 301.5,359.5 296.5,359.5C 291.5,359.5 286.5,359.5 281.5,359.5C 281.5,364.5 281.5,369.5 281.5,374.5C 281.167,374.5 280.833,374.5 280.5,374.5C 280.5,369.5 280.5,364.5 280.5,359.5C 285.64,358.512 290.974,358.179 296.5,358.5C 301.5,358.5 306.5,358.5 311.5,358.5C 311.5,353.5 311.5,348.5 311.5,343.5 Z"/></g>
<g><path style="opacity:1" fill="#6f192b" d="M 30.5,359.5 C 30.5,364.5 30.5,369.5 30.5,374.5C 25.5,374.5 20.5,374.5 15.5,374.5C 15.5,369.5 15.5,364.5 15.5,359.5C 20.5,359.5 25.5,359.5 30.5,359.5 Z"/></g>
<g><path style="opacity:1" fill="#93705a" d="M 233.5,358.5 C 239.026,358.179 244.36,358.512 249.5,359.5C 244.5,359.5 239.5,359.5 234.5,359.5C 234.5,364.5 234.5,369.5 234.5,374.5C 234.167,374.5 233.833,374.5 233.5,374.5C 233.5,369.167 233.5,363.833 233.5,358.5 Z"/></g>
<g><path style="opacity:1" fill="#3b271b" d="M 233.5,355.5 C 238.854,356.157 244.187,356.49 249.5,356.5C 250.766,360.469 252.1,364.469 253.5,368.5C 252.675,369.386 251.675,369.719 250.5,369.5C 250.5,370.5 250.5,371.5 250.5,372.5C 258.833,372.5 267.167,372.5 275.5,372.5C 276.822,372.67 277.989,372.337 279,371.5C 279.176,367.312 279.676,363.312 280.5,359.5C 280.5,364.5 280.5,369.5 280.5,374.5C 270.167,374.5 259.833,374.5 249.5,374.5C 249.5,369.5 249.5,364.5 249.5,359.5C 244.36,358.512 239.026,358.179 233.5,358.5C 233.5,357.5 233.5,356.5 233.5,355.5 Z"/></g>
<g><path style="opacity:1" fill="#583319" d="M 124.5,358.5 C 124.5,359.167 124.167,359.5 123.5,359.5C 118.833,359.5 114.167,359.5 109.5,359.5C 109.5,364.5 109.5,369.5 109.5,374.5C 109.167,374.5 108.833,374.5 108.5,374.5C 108.5,369.167 108.5,363.833 108.5,358.5C 113.833,358.5 119.167,358.5 124.5,358.5 Z"/></g>
<g><path style="opacity:0.959" fill="#a38468" d="M 358.5,327.5 C 358.833,327.5 359.167,327.5 359.5,327.5C 359.5,337.833 359.5,348.167 359.5,358.5C 359.5,363.5 359.5,368.5 359.5,373.5C 363.902,373.772 368.235,373.439 372.5,372.5C 373.167,368.353 373.834,364.353 374.5,360.5C 374.5,365.167 374.5,369.833 374.5,374.5C 369.5,374.5 364.5,374.5 359.5,374.5C 358.761,374.631 358.094,374.464 357.5,374C 358.491,358.578 358.824,343.078 358.5,327.5 Z"/></g>
<g><path style="opacity:0.373" fill="#2f0e16" d="M 31.5,358.5 C 31.5,358.833 31.5,359.167 31.5,359.5C 31.1667,359.5 30.8333,359.5 30.5,359.5C 25.5,359.5 20.5,359.5 15.5,359.5C 15.5,364.5 15.5,369.5 15.5,374.5C 14.5119,369.36 14.1786,364.026 14.5,358.5C 20.1667,358.5 25.8333,358.5 31.5,358.5 Z"/></g>
<g><path style="opacity:1" fill="#dc3f22" d="M 31.5,359.5 C 36.5,359.5 41.5,359.5 46.5,359.5C 46.5,364.167 46.5,368.833 46.5,373.5C 41.5,373.5 36.5,373.5 31.5,373.5C 31.5,368.833 31.5,364.167 31.5,359.5 Z"/></g>
<g><path style="opacity:1" fill="#f76c0d" d="M 46.5,359.5 C 51.8333,359.5 57.1667,359.5 62.5,359.5C 62.5,364.167 62.5,368.833 62.5,373.5C 57.1667,373.5 51.8333,373.5 46.5,373.5C 46.5,368.833 46.5,364.167 46.5,359.5 Z"/></g>
<g><path style="opacity:1" fill="#d29771" d="M 249.5,359.5 C 249.5,364.5 249.5,369.5 249.5,374.5C 244.5,374.5 239.5,374.5 234.5,374.5C 234.5,369.5 234.5,364.5 234.5,359.5C 239.5,359.5 244.5,359.5 249.5,359.5 Z"/></g>
<g><path style="opacity:1" fill="#f1d29f" d="M 327.5,359.5 C 327.5,364.5 327.5,369.5 327.5,374.5C 322.5,374.5 317.5,374.5 312.5,374.5C 312.5,369.5 312.5,364.5 312.5,359.5C 317.5,359.5 322.5,359.5 327.5,359.5 Z"/></g>
<g><path style="opacity:1" fill="#f7a31f" d="M 62.5,359.5 C 67.5,359.5 72.5,359.5 77.5,359.5C 77.5,364.167 77.5,368.833 77.5,373.5C 72.5,373.5 67.5,373.5 62.5,373.5C 62.5,368.833 62.5,364.167 62.5,359.5 Z"/></g>
<g><path style="opacity:1" fill="#d8a468" d="M 296.5,359.5 C 296.5,364.5 296.5,369.5 296.5,374.5C 291.5,374.5 286.5,374.5 281.5,374.5C 281.5,369.5 281.5,364.5 281.5,359.5C 286.5,359.5 291.5,359.5 296.5,359.5 Z"/></g>
<g><path style="opacity:1" fill="#b3493a" d="M 30.5,359.5 C 30.8333,359.5 31.1667,359.5 31.5,359.5C 31.5,364.167 31.5,368.833 31.5,373.5C 36.5,373.5 41.5,373.5 46.5,373.5C 46.5,373.833 46.5,374.167 46.5,374.5C 41.1667,374.5 35.8333,374.5 30.5,374.5C 30.5,369.5 30.5,364.5 30.5,359.5 Z"/></g>
<g><path style="opacity:1" fill="#281101" d="M 123.5,359.5 C 119.366,360.485 115.032,360.818 110.5,360.5C 110.5,364.833 110.5,369.167 110.5,373.5C 135.339,373.169 160.006,373.502 184.5,374.5C 159.5,374.5 134.5,374.5 109.5,374.5C 109.5,369.5 109.5,364.5 109.5,359.5C 114.167,359.5 118.833,359.5 123.5,359.5 Z"/></g>
<g><path style="opacity:1" fill="#6e615a" d="M 343.5,327.5 C 343.833,327.5 344.167,327.5 344.5,327.5C 349.167,327.5 353.833,327.5 358.5,327.5C 358.824,343.078 358.491,358.578 357.5,374C 358.094,374.464 358.761,374.631 359.5,374.5C 359.5,384.833 359.5,395.167 359.5,405.5C 359.167,405.5 358.833,405.5 358.5,405.5C 358.5,400.5 358.5,395.5 358.5,390.5C 353.695,389.513 348.695,389.179 343.5,389.5C 343.5,384.5 343.5,379.5 343.5,374.5C 343.5,358.833 343.5,343.167 343.5,327.5 Z"/></g>
<g><path style="opacity:1" fill="#d0a672" d="M 109.5,374.5 C 134.5,374.5 159.5,374.5 184.5,374.5C 184.833,374.5 185.167,374.5 185.5,374.5C 185.833,374.5 186.167,374.5 186.5,374.5C 186.5,379.5 186.5,384.5 186.5,389.5C 185.551,385.343 184.884,381.01 184.5,376.5C 182.167,376.5 179.833,376.5 177.5,376.5C 155.497,376.333 133.497,376.5 111.5,377C 110.197,380.468 110.197,383.968 111.5,387.5C 115.647,388.167 119.647,388.834 123.5,389.5C 118.833,389.5 114.167,389.5 109.5,389.5C 109.5,384.5 109.5,379.5 109.5,374.5 Z"/></g>
<g><path style="opacity:1" fill="#432e1a" d="M 296.5,359.5 C 301.5,359.5 306.5,359.5 311.5,359.5C 311.5,364.5 311.5,369.5 311.5,374.5C 310.514,370.03 310.181,365.363 310.5,360.5C 306.5,360.5 302.5,360.5 298.5,360.5C 298.666,365.179 298.499,369.845 298,374.5C 297.25,375.126 296.416,375.626 295.5,376C 291.179,376.499 286.846,376.666 282.5,376.5C 282.122,386.165 281.789,395.831 281.5,405.5C 281.167,405.5 280.833,405.5 280.5,405.5C 280.5,395.167 280.5,384.833 280.5,374.5C 280.833,374.5 281.167,374.5 281.5,374.5C 286.5,374.5 291.5,374.5 296.5,374.5C 296.5,369.5 296.5,364.5 296.5,359.5 Z"/></g>
<g><path style="opacity:1" fill="#f2d29e" d="M 327.5,374.5 C 332.5,374.5 337.5,374.5 342.5,374.5C 342.5,379.5 342.5,384.5 342.5,389.5C 337.5,389.5 332.5,389.5 327.5,389.5C 327.5,384.5 327.5,379.5 327.5,374.5 Z"/></g>
<g><path style="opacity:1" fill="#dba362" d="M 177.5,376.5 C 177.412,382.323 174.412,384.656 168.5,383.5C 168.5,384.833 168.5,386.167 168.5,387.5C 165.315,387.98 162.481,387.314 160,385.5C 159.085,386.328 158.419,387.328 158,388.5C 148.333,388.167 138.667,387.833 129,387.5C 127.89,389.037 126.39,389.703 124.5,389.5C 124.167,389.5 123.833,389.5 123.5,389.5C 119.647,388.834 115.647,388.167 111.5,387.5C 110.197,383.968 110.197,380.468 111.5,377C 133.497,376.5 155.497,376.333 177.5,376.5 Z"/></g>
<g><path style="opacity:1" fill="#251e1a" d="M 234.5,374.5 C 239.5,374.5 244.5,374.5 249.5,374.5C 249.5,379.5 249.5,384.5 249.5,389.5C 244.5,389.5 239.5,389.5 234.5,389.5C 234.5,384.5 234.5,379.5 234.5,374.5 Z"/></g>
<g><path style="opacity:1" fill="#312a26" d="M 311.5,374.5 C 311.833,374.5 312.167,374.5 312.5,374.5C 312.5,384.833 312.5,395.167 312.5,405.5C 322.833,405.5 333.167,405.5 343.5,405.5C 348.5,405.5 353.5,405.5 358.5,405.5C 358.5,405.833 358.5,406.167 358.5,406.5C 337.833,406.5 317.167,406.5 296.5,406.5C 291.695,405.513 286.695,405.179 281.5,405.5C 281.789,395.831 282.122,386.165 282.5,376.5C 286.846,376.666 291.179,376.499 295.5,376C 296.416,375.626 297.25,375.126 298,374.5C 298.499,369.845 298.666,365.179 298.5,360.5C 302.5,360.5 306.5,360.5 310.5,360.5C 310.181,365.363 310.514,370.03 311.5,374.5 Z"/></g>
<g><path style="opacity:1" fill="#cf9771" d="M 218.5,374.5 C 223.5,374.5 228.5,374.5 233.5,374.5C 233.5,379.833 233.5,385.167 233.5,390.5C 228.5,390.5 223.5,390.5 218.5,390.5C 218.5,385.167 218.5,379.833 218.5,374.5 Z"/></g>
<g><path style="opacity:0.604" fill="#8a6f4e" d="M 108.5,374.5 C 108.833,374.5 109.167,374.5 109.5,374.5C 109.5,379.5 109.5,384.5 109.5,389.5C 114.167,389.5 118.833,389.5 123.5,389.5C 123.833,389.5 124.167,389.5 124.5,389.5C 124.5,389.833 124.5,390.167 124.5,390.5C 119.167,390.5 113.833,390.5 108.5,390.5C 108.5,385.167 108.5,379.833 108.5,374.5 Z"/></g>
<g><path style="opacity:1" fill="#4b3f3a" d="M 312.5,374.5 C 317.5,374.5 322.5,374.5 327.5,374.5C 327.5,379.5 327.5,384.5 327.5,389.5C 332.64,390.488 337.974,390.821 343.5,390.5C 343.5,395.5 343.5,400.5 343.5,405.5C 333.167,405.5 322.833,405.5 312.5,405.5C 312.5,395.167 312.5,384.833 312.5,374.5 Z"/></g>
<g><path style="opacity:1" fill="#291b11" d="M 233.5,358.5 C 233.5,363.833 233.5,369.167 233.5,374.5C 228.5,374.5 223.5,374.5 218.5,374.5C 217.513,379.305 217.179,384.305 217.5,389.5C 207.5,389.5 197.5,389.5 187.5,389.5C 187.821,384.305 187.487,379.305 186.5,374.5C 186.167,374.5 185.833,374.5 185.5,374.5C 185.842,373.662 186.508,373.328 187.5,373.5C 188.167,373.5 188.5,373.833 188.5,374.5C 193.167,374.5 197.833,374.5 202.5,374.5C 202.5,379.167 202.5,383.833 202.5,388.5C 206.833,388.5 211.167,388.5 215.5,388.5C 214.608,381.032 215.942,374.032 219.5,367.5C 220.624,368.914 221.624,370.414 222.5,372C 225.817,372.498 229.15,372.665 232.5,372.5C 232.181,367.637 232.514,362.97 233.5,358.5 Z"/></g>
<g><path style="opacity:1" fill="#63452c" d="M 186.5,374.5 C 187.487,379.305 187.821,384.305 187.5,389.5C 197.5,389.5 207.5,389.5 217.5,389.5C 217.179,384.305 217.513,379.305 218.5,374.5C 218.5,379.833 218.5,385.167 218.5,390.5C 208.167,390.5 197.833,390.5 187.5,390.5C 186.833,390.5 186.5,390.167 186.5,389.5C 186.5,384.5 186.5,379.5 186.5,374.5 Z"/></g>
<g><path style="opacity:1" fill="#161514" d="M 188.5,374.5 C 193.167,374.5 197.833,374.5 202.5,374.5C 202.5,379.167 202.5,383.833 202.5,388.5C 197.833,388.5 193.167,388.5 188.5,388.5C 188.5,383.833 188.5,379.167 188.5,374.5 Z"/></g>
<g><path style="opacity:1" fill="#5b3e2a" d="M 233.5,374.5 C 233.833,374.5 234.167,374.5 234.5,374.5C 234.5,379.5 234.5,384.5 234.5,389.5C 239.5,389.5 244.5,389.5 249.5,389.5C 249.5,389.833 249.5,390.167 249.5,390.5C 244.167,390.5 238.833,390.5 233.5,390.5C 233.5,385.167 233.5,379.833 233.5,374.5 Z"/></g>
<g><path style="opacity:1" fill="#b69f81" d="M 342.5,374.5 C 342.833,374.5 343.167,374.5 343.5,374.5C 343.5,379.5 343.5,384.5 343.5,389.5C 348.695,389.179 353.695,389.513 358.5,390.5C 353.5,390.5 348.5,390.5 343.5,390.5C 337.974,390.821 332.64,390.488 327.5,389.5C 332.5,389.5 337.5,389.5 342.5,389.5C 342.5,384.5 342.5,379.5 342.5,374.5 Z"/></g>
<g><path style="opacity:1" fill="#af744b" d="M 218.5,390.5 C 223.5,390.5 228.5,390.5 233.5,390.5C 238.833,390.5 244.167,390.5 249.5,390.5C 254.833,390.5 260.167,390.5 265.5,390.5C 265.5,395.5 265.5,400.5 265.5,405.5C 249.833,405.5 234.167,405.5 218.5,405.5C 218.5,400.5 218.5,395.5 218.5,390.5 Z"/></g>
<g><path style="opacity:1" fill="#daa464" d="M 177.5,376.5 C 179.833,376.5 182.167,376.5 184.5,376.5C 184.884,381.01 185.551,385.343 186.5,389.5C 186.5,390.167 186.833,390.5 187.5,390.5C 191.982,391.326 196.649,391.826 201.5,392C 202.255,396.462 202.922,400.962 203.5,405.5C 202.513,410.305 202.179,415.305 202.5,420.5C 197.305,420.179 192.305,420.513 187.5,421.5C 186.513,426.305 186.179,431.305 186.5,436.5C 181.305,436.179 176.305,436.513 171.5,437.5C 170.514,441.97 170.181,446.637 170.5,451.5C 155.324,451.171 140.324,451.504 125.5,452.5C 125.167,452.5 124.833,452.5 124.5,452.5C 124.5,447.5 124.5,442.5 124.5,437.5C 135.014,437.828 145.347,437.494 155.5,436.5C 155.5,431.5 155.5,426.5 155.5,421.5C 160.833,421.5 166.167,421.5 171.5,421.5C 171.5,416.167 171.5,410.833 171.5,405.5C 171.803,400.57 171.469,395.737 170.5,391C 155.17,390.5 139.837,390.333 124.5,390.5C 124.5,390.167 124.5,389.833 124.5,389.5C 126.39,389.703 127.89,389.037 129,387.5C 138.667,387.833 148.333,388.167 158,388.5C 158.419,387.328 159.085,386.328 160,385.5C 162.481,387.314 165.315,387.98 168.5,387.5C 168.5,386.167 168.5,384.833 168.5,383.5C 174.412,384.656 177.412,382.323 177.5,376.5 Z"/></g>
<g><path style="opacity:1" fill="#d19870" d="M 187.5,390.5 C 197.833,390.5 208.167,390.5 218.5,390.5C 218.5,395.5 218.5,400.5 218.5,405.5C 213.5,405.5 208.5,405.5 203.5,405.5C 202.922,400.962 202.255,396.462 201.5,392C 196.649,391.826 191.982,391.326 187.5,390.5 Z"/></g>
<g><path style="opacity:1" fill="#d2986f" d="M 249.5,374.5 C 259.833,374.5 270.167,374.5 280.5,374.5C 280.5,384.833 280.5,395.167 280.5,405.5C 275.5,405.5 270.5,405.5 265.5,405.5C 265.5,400.5 265.5,395.5 265.5,390.5C 260.167,390.5 254.833,390.5 249.5,390.5C 249.5,390.167 249.5,389.833 249.5,389.5C 249.5,384.5 249.5,379.5 249.5,374.5 Z"/></g>
<g><path style="opacity:1" fill="#dba364" d="M 267.5,376.5 C 278.313,374.946 282.313,379.613 279.5,390.5C 268.542,391.946 264.542,387.279 267.5,376.5 Z"/></g>
<g><path style="opacity:1" fill="#f2d29f" d="M 343.5,390.5 C 348.5,390.5 353.5,390.5 358.5,390.5C 358.5,395.5 358.5,400.5 358.5,405.5C 353.5,405.5 348.5,405.5 343.5,405.5C 343.5,400.5 343.5,395.5 343.5,390.5 Z"/></g>
<g><path style="opacity:0.492" fill="#6a3f0b" d="M 93.5,390.5 C 88.1667,390.5 82.8333,390.5 77.5,390.5C 72.5,390.5 67.5,390.5 62.5,390.5C 62.5,395.5 62.5,400.5 62.5,405.5C 62.1667,405.5 61.8333,405.5 61.5,405.5C 61.5,400.167 61.5,394.833 61.5,389.5C 72.3464,389.172 83.0131,389.506 93.5,390.5 Z"/></g>
<g><path style="opacity:1" fill="#eda333" d="M 77.5,390.5 C 77.5,405.833 77.5,421.167 77.5,436.5C 72.5,436.5 67.5,436.5 62.5,436.5C 62.5,431.5 62.5,426.5 62.5,421.5C 63.4861,425.97 63.8195,430.637 63.5,435.5C 67.8333,435.5 72.1667,435.5 76.5,435.5C 76.5,421.167 76.5,406.833 76.5,392.5C 72.4454,392.176 68.4454,392.509 64.5,393.5C 63.8909,397.635 63.2243,401.635 62.5,405.5C 62.5,400.5 62.5,395.5 62.5,390.5C 67.5,390.5 72.5,390.5 77.5,390.5 Z"/></g>
<g><path style="opacity:1" fill="#c29c6a" d="M 124.5,390.5 C 139.837,390.333 155.17,390.5 170.5,391C 171.469,395.737 171.803,400.57 171.5,405.5C 155.833,405.5 140.167,405.5 124.5,405.5C 124.5,400.5 124.5,395.5 124.5,390.5 Z"/></g>
<g><path style="opacity:1" fill="#f7a31a" d="M 62.5,421.5 C 62.5,416.167 62.5,410.833 62.5,405.5C 63.2243,401.635 63.8909,397.635 64.5,393.5C 68.4454,392.509 72.4454,392.176 76.5,392.5C 76.5,406.833 76.5,421.167 76.5,435.5C 72.1667,435.5 67.8333,435.5 63.5,435.5C 63.8195,430.637 63.4861,425.97 62.5,421.5 Z"/></g>
<g><path style="opacity:1" fill="#b87447" d="M 77.5,390.5 C 82.8333,390.5 88.1667,390.5 93.5,390.5C 93.5,395.5 93.5,400.5 93.5,405.5C 98.5,405.5 103.5,405.5 108.5,405.5C 108.179,411.026 108.512,416.36 109.5,421.5C 113.97,422.486 118.637,422.819 123.5,422.5C 123.181,427.363 123.514,432.03 124.5,436.5C 134.833,436.5 145.167,436.5 155.5,436.5C 145.347,437.494 135.014,437.828 124.5,437.5C 124.5,442.5 124.5,447.5 124.5,452.5C 124.5,452.833 124.5,453.167 124.5,453.5C 124.5,458.5 124.5,463.5 124.5,468.5C 93.5,468.5 62.5,468.5 31.5,468.5C 31.5,468.167 31.5,467.833 31.5,467.5C 36.5,467.5 41.5,467.5 46.5,467.5C 51.5,467.5 56.5,467.5 61.5,467.5C 66.8333,467.5 72.1667,467.5 77.5,467.5C 77.5,462.5 77.5,457.5 77.5,452.5C 82.5,452.5 87.5,452.5 92.5,452.5C 93.4881,447.36 93.8214,442.026 93.5,436.5C 88.1667,436.5 82.8333,436.5 77.5,436.5C 77.5,421.167 77.5,405.833 77.5,390.5 Z"/></g>
<g><path style="opacity:1" fill="#d7b086" d="M 203.5,405.5 C 208.5,405.5 213.5,405.5 218.5,405.5C 218.5,405.833 218.5,406.167 218.5,406.5C 218.5,411.167 218.5,415.833 218.5,420.5C 218.5,420.833 218.5,421.167 218.5,421.5C 218.167,421.5 217.833,421.5 217.5,421.5C 207.5,421.5 197.5,421.5 187.5,421.5C 192.305,420.513 197.305,420.179 202.5,420.5C 202.179,415.305 202.513,410.305 203.5,405.5 Z"/></g>
<g><path style="opacity:0.748" fill="#6e5844" d="M 218.5,406.5 C 218.5,406.167 218.5,405.833 218.5,405.5C 234.167,405.5 249.833,405.5 265.5,405.5C 270.5,405.5 275.5,405.5 280.5,405.5C 280.833,405.5 281.167,405.5 281.5,405.5C 286.695,405.179 291.695,405.513 296.5,406.5C 291.5,406.5 286.5,406.5 281.5,406.5C 281.5,411.5 281.5,416.5 281.5,421.5C 281.167,421.5 280.833,421.5 280.5,421.5C 280.5,421.167 280.5,420.833 280.5,420.5C 280.5,415.833 280.5,411.167 280.5,406.5C 259.833,406.5 239.167,406.5 218.5,406.5 Z"/></g>
<g><path style="opacity:1" fill="#f86b0d" d="M 61.5,405.5 C 61.8333,405.5 62.1667,405.5 62.5,405.5C 62.5,410.833 62.5,416.167 62.5,421.5C 62.1667,421.5 61.8333,421.5 61.5,421.5C 57.03,420.514 52.3633,420.181 47.5,420.5C 47.5,415.833 47.5,411.167 47.5,406.5C 52.3633,406.819 57.03,406.486 61.5,405.5 Z"/></g>
<g><path style="opacity:1" fill="#b6622e" d="M 61.5,405.5 C 57.03,406.486 52.3633,406.819 47.5,406.5C 47.5,411.167 47.5,415.833 47.5,420.5C 52.3633,420.181 57.03,420.514 61.5,421.5C 56.8333,421.5 52.1667,421.5 47.5,421.5C 47.1667,421.5 46.8333,421.5 46.5,421.5C 46.5,416.167 46.5,410.833 46.5,405.5C 51.4014,405.034 56.4014,405.034 61.5,405.5 Z"/></g>
<g><path style="opacity:1" fill="#cfaa82" d="M 296.5,406.5 C 296.5,411.5 296.5,416.5 296.5,421.5C 291.5,421.5 286.5,421.5 281.5,421.5C 281.5,416.5 281.5,411.5 281.5,406.5C 286.5,406.5 291.5,406.5 296.5,406.5 Z"/></g>
<g><path style="opacity:1" fill="#ebd3a9" d="M 363.5,406.5 C 362.878,407.627 362.045,408.627 361,409.5C 360.333,416.833 360.333,424.167 361,431.5C 361.309,432.766 361.809,433.933 362.5,435C 365.817,435.498 369.15,435.665 372.5,435.5C 372.5,426.167 372.5,416.833 372.5,407.5C 370.585,407.784 368.919,407.451 367.5,406.5C 369.833,406.5 372.167,406.5 374.5,406.5C 374.5,416.5 374.5,426.5 374.5,436.5C 369.5,436.5 364.5,436.5 359.5,436.5C 359.5,426.5 359.5,416.5 359.5,406.5C 360.833,406.5 362.167,406.5 363.5,406.5 Z"/></g>
<g><path style="opacity:1" fill="#f3d29b" d="M 363.5,406.5 C 364.833,406.5 366.167,406.5 367.5,406.5C 368.919,407.451 370.585,407.784 372.5,407.5C 372.5,416.833 372.5,426.167 372.5,435.5C 369.15,435.665 365.817,435.498 362.5,435C 361.809,433.933 361.309,432.766 361,431.5C 360.333,424.167 360.333,416.833 361,409.5C 362.045,408.627 362.878,407.627 363.5,406.5 Z"/></g>
<g><path style="opacity:0.12" fill="#200203" d="M 46.5,405.5 C 46.5,410.833 46.5,416.167 46.5,421.5C 41.5,421.5 36.5,421.5 31.5,421.5C 26.1667,421.5 20.8333,421.5 15.5,421.5C 15.5,426.833 15.5,432.167 15.5,437.5C 14.5111,432.025 14.1778,426.358 14.5,420.5C 24.8333,420.5 35.1667,420.5 45.5,420.5C 45.1795,415.305 45.5128,410.305 46.5,405.5 Z"/></g>
<g><path style="opacity:0.121" fill="#241108" d="M 108.5,405.5 C 109.487,410.305 109.821,415.305 109.5,420.5C 114.695,420.179 119.695,420.513 124.5,421.5C 119.5,421.5 114.5,421.5 109.5,421.5C 108.512,416.36 108.179,411.026 108.5,405.5 Z"/></g>
<g><path style="opacity:0.121" fill="#1f130a" d="M 124.5,405.5 C 140.167,405.5 155.833,405.5 171.5,405.5C 171.5,410.833 171.5,416.167 171.5,421.5C 166.167,421.5 160.833,421.5 155.5,421.5C 160.305,420.513 165.305,420.179 170.5,420.5C 170.5,415.833 170.5,411.167 170.5,406.5C 154.991,406.83 139.658,406.496 124.5,405.5 Z"/></g>
<g><path style="opacity:0.979" fill="#a77a5d" d="M 109.5,421.5 C 114.5,421.5 119.5,421.5 124.5,421.5C 124.5,426.5 124.5,431.5 124.5,436.5C 123.514,432.03 123.181,427.363 123.5,422.5C 118.637,422.819 113.97,422.486 109.5,421.5 Z"/></g>
<g><path style="opacity:1" fill="#71172a" d="M 31.5,421.5 C 31.5,421.833 31.5,422.167 31.5,422.5C 30.5128,427.305 30.1795,432.305 30.5,437.5C 25.5,437.5 20.5,437.5 15.5,437.5C 15.5,432.167 15.5,426.833 15.5,421.5C 20.8333,421.5 26.1667,421.5 31.5,421.5 Z"/></g>
<g><path style="opacity:0.996" fill="#ad3e30" d="M 31.5,421.5 C 36.5,421.5 41.5,421.5 46.5,421.5C 46.8333,421.5 47.1667,421.5 47.5,421.5C 46.9396,426.608 46.6062,431.774 46.5,437C 41.1771,437.499 35.8437,437.666 30.5,437.5C 30.1795,432.305 30.5128,427.305 31.5,422.5C 31.5,422.167 31.5,421.833 31.5,421.5 Z"/></g>
<g><path style="opacity:1" fill="#de3e23" d="M 31.5,422.5 C 35.8333,422.5 40.1667,422.5 44.5,422.5C 44.5,426.833 44.5,431.167 44.5,435.5C 40.1667,435.5 35.8333,435.5 31.5,435.5C 31.5,431.167 31.5,426.833 31.5,422.5 Z"/></g>
<g><path style="opacity:0.459" fill="#80500c" d="M 61.5,421.5 C 61.8333,421.5 62.1667,421.5 62.5,421.5C 62.5,426.5 62.5,431.5 62.5,436.5C 67.5,436.5 72.5,436.5 77.5,436.5C 77.5,436.833 77.5,437.167 77.5,437.5C 72.1667,437.5 66.8333,437.5 61.5,437.5C 61.5,432.167 61.5,426.833 61.5,421.5 Z"/></g>
<g><path style="opacity:0.468" fill="#6e5331" d="M 187.5,421.5 C 187.5,426.833 187.5,432.167 187.5,437.5C 182.167,437.5 176.833,437.5 171.5,437.5C 176.305,436.513 181.305,436.179 186.5,436.5C 186.179,431.305 186.513,426.305 187.5,421.5 Z"/></g>
<g><path style="opacity:0.479" fill="#514131" d="M 218.5,420.5 C 223.833,420.5 229.167,420.5 234.5,420.5C 234.5,426.167 234.5,431.833 234.5,437.5C 229.167,437.5 223.833,437.5 218.5,437.5C 213.167,437.5 207.833,437.5 202.5,437.5C 207.305,436.513 212.305,436.179 217.5,436.5C 217.5,431.5 217.5,426.5 217.5,421.5C 217.833,421.5 218.167,421.5 218.5,421.5C 218.5,421.167 218.5,420.833 218.5,420.5 Z"/></g>
<g><path style="opacity:1" fill="#d7b38d" d="M 218.5,421.5 C 223.5,421.5 228.5,421.5 233.5,421.5C 233.5,426.5 233.5,431.5 233.5,436.5C 228.5,436.5 223.5,436.5 218.5,436.5C 218.5,431.5 218.5,426.5 218.5,421.5 Z"/></g>
<g><path style="opacity:0.467" fill="#4e3e2d" d="M 280.5,420.5 C 280.5,420.833 280.5,421.167 280.5,421.5C 280.833,421.5 281.167,421.5 281.5,421.5C 281.5,426.833 281.5,432.167 281.5,437.5C 276.167,437.5 270.833,437.5 265.5,437.5C 260.167,437.5 254.833,437.5 249.5,437.5C 254.305,436.513 259.305,436.179 264.5,436.5C 264.5,431.167 264.5,425.833 264.5,420.5C 269.833,420.5 275.167,420.5 280.5,420.5 Z"/></g>
<g><path style="opacity:1" fill="#cfab81" d="M 280.5,421.5 C 280.5,426.5 280.5,431.5 280.5,436.5C 275.5,436.5 270.5,436.5 265.5,436.5C 265.5,431.5 265.5,426.5 265.5,421.5C 270.5,421.5 275.5,421.5 280.5,421.5 Z"/></g>
<g><path style="opacity:0.498" fill="#897e64" d="M 358.5,405.5 C 358.833,405.5 359.167,405.5 359.5,405.5C 364.695,405.179 369.695,405.513 374.5,406.5C 372.167,406.5 369.833,406.5 367.5,406.5C 366.167,406.5 364.833,406.5 363.5,406.5C 362.167,406.5 360.833,406.5 359.5,406.5C 359.5,416.5 359.5,426.5 359.5,436.5C 364.5,436.5 369.5,436.5 374.5,436.5C 380.026,436.179 385.36,436.512 390.5,437.5C 390.167,437.5 389.833,437.5 389.5,437.5C 384.5,437.5 379.5,437.5 374.5,437.5C 369.167,437.5 363.833,437.5 358.5,437.5C 358.5,427.167 358.5,416.833 358.5,406.5C 358.5,406.167 358.5,405.833 358.5,405.5 Z"/></g>
<g><path style="opacity:1" fill="#fcf1c2" d="M 374.5,437.5 C 379.5,437.5 384.5,437.5 389.5,437.5C 389.5,447.5 389.5,457.5 389.5,467.5C 384.5,467.5 379.5,467.5 374.5,467.5C 374.5,457.5 374.5,447.5 374.5,437.5 Z"/></g>
<g><path style="opacity:0.243" fill="#472613" d="M 77.5,437.5 C 77.5,437.167 77.5,436.833 77.5,436.5C 82.8333,436.5 88.1667,436.5 93.5,436.5C 93.8214,442.026 93.4881,447.36 92.5,452.5C 92.5,447.5 92.5,442.5 92.5,437.5C 87.5,437.5 82.5,437.5 77.5,437.5 Z"/></g>
<g><path style="opacity:1" fill="#dcc195" d="M 249.5,437.5 C 254.833,437.5 260.167,437.5 265.5,437.5C 265.5,442.833 265.5,448.167 265.5,453.5C 260.167,453.5 254.833,453.5 249.5,453.5C 249.5,453.167 249.5,452.833 249.5,452.5C 249.5,447.5 249.5,442.5 249.5,437.5 Z"/></g>
<g><path style="opacity:1" fill="#d5b28d" d="M 202.5,437.5 C 207.833,437.5 213.167,437.5 218.5,437.5C 218.5,442.5 218.5,447.5 218.5,452.5C 213.167,452.5 207.833,452.5 202.5,452.5C 202.167,452.5 201.833,452.5 201.5,452.5C 202.445,447.595 202.779,442.595 202.5,437.5 Z"/></g>
<g><path style="opacity:0.984" fill="#c6a47b" d="M 171.5,437.5 C 171.221,442.595 171.555,447.595 172.5,452.5C 172.167,452.5 171.833,452.5 171.5,452.5C 156.167,452.5 140.833,452.5 125.5,452.5C 140.324,451.504 155.324,451.171 170.5,451.5C 170.181,446.637 170.514,441.97 171.5,437.5 Z"/></g>
<g><path style="opacity:0.875" fill="#bb543d" d="M 30.5,452.5 C 40.8333,452.5 51.1667,452.5 61.5,452.5C 61.5,452.833 61.5,453.167 61.5,453.5C 56.5,453.5 51.5,453.5 46.5,453.5C 41.5,453.5 36.5,453.5 31.5,453.5C 31.5,458.167 31.5,462.833 31.5,467.5C 31.1667,467.5 30.8333,467.5 30.5,467.5C 30.5,462.5 30.5,457.5 30.5,452.5 Z"/></g>
<g><path style="opacity:0.12" fill="#1b0d06" d="M 124.5,453.5 C 124.5,453.167 124.5,452.833 124.5,452.5C 124.833,452.5 125.167,452.5 125.5,452.5C 140.833,452.5 156.167,452.5 171.5,452.5C 171.5,457.5 171.5,462.5 171.5,467.5C 171.5,467.833 171.5,468.167 171.5,468.5C 166.167,468.5 160.833,468.5 155.5,468.5C 160.305,467.513 165.305,467.179 170.5,467.5C 170.5,462.833 170.5,458.167 170.5,453.5C 155.167,453.5 139.833,453.5 124.5,453.5 Z"/></g>
<g><path style="opacity:0.117" fill="#0f0000" d="M 202.5,452.5 C 207.833,452.5 213.167,452.5 218.5,452.5C 213.695,453.487 208.695,453.821 203.5,453.5C 203.821,458.695 203.487,463.695 202.5,468.5C 202.5,468.167 202.5,467.833 202.5,467.5C 202.5,462.5 202.5,457.5 202.5,452.5 Z"/></g>
<g><path style="opacity:0.608" fill="#8c8772" d="M 389.5,437.5 C 389.833,437.5 390.167,437.5 390.5,437.5C 390.5,447.5 390.5,457.5 390.5,467.5C 401.014,467.172 411.347,467.506 421.5,468.5C 411.167,468.5 400.833,468.5 390.5,468.5C 390.167,468.5 389.833,468.5 389.5,468.5C 384.305,468.821 379.305,468.487 374.5,467.5C 379.5,467.5 384.5,467.5 389.5,467.5C 389.5,457.5 389.5,447.5 389.5,437.5 Z"/></g>
<g><path style="opacity:1" fill="#70182b" d="M 15.5,452.5 C 20.5,452.5 25.5,452.5 30.5,452.5C 30.5,457.5 30.5,462.5 30.5,467.5C 25.5,467.5 20.5,467.5 15.5,467.5C 15.5,462.5 15.5,457.5 15.5,452.5 Z"/></g>
<g><path style="opacity:1" fill="#f86b0d" d="M 46.5,453.5 C 51.5,453.5 56.5,453.5 61.5,453.5C 62.1667,453.5 62.5,453.833 62.5,454.5C 62.5,458.5 62.5,462.5 62.5,466.5C 61.8333,466.5 61.5,466.833 61.5,467.5C 56.5,467.5 51.5,467.5 46.5,467.5C 46.5,462.833 46.5,458.167 46.5,453.5 Z"/></g>
<g><path style="opacity:1" fill="#f8a21a" d="M 62.5,454.5 C 67.1667,454.5 71.8333,454.5 76.5,454.5C 76.5,458.5 76.5,462.5 76.5,466.5C 71.8333,466.5 67.1667,466.5 62.5,466.5C 62.5,462.5 62.5,458.5 62.5,454.5 Z"/></g>
<g><path style="opacity:1" fill="#f1d29f" d="M 234.5,452.5 C 239.5,452.5 244.5,452.5 249.5,452.5C 249.5,452.833 249.5,453.167 249.5,453.5C 249.5,458.167 249.5,462.833 249.5,467.5C 244.5,467.5 239.5,467.5 234.5,467.5C 234.5,462.5 234.5,457.5 234.5,452.5 Z"/></g>
<g><path style="opacity:1" fill="#dc3f23" d="M 46.5,453.5 C 46.5,458.167 46.5,462.833 46.5,467.5C 41.5,467.5 36.5,467.5 31.5,467.5C 31.5,462.833 31.5,458.167 31.5,453.5C 36.5,453.5 41.5,453.5 46.5,453.5 Z"/></g>
<g><path style="opacity:1" fill="#e9a43b" d="M 61.5,453.5 C 61.5,453.167 61.5,452.833 61.5,452.5C 66.8333,452.5 72.1667,452.5 77.5,452.5C 77.5,457.5 77.5,462.5 77.5,467.5C 72.1667,467.5 66.8333,467.5 61.5,467.5C 61.5,466.833 61.8333,466.5 62.5,466.5C 67.1667,466.5 71.8333,466.5 76.5,466.5C 76.5,462.5 76.5,458.5 76.5,454.5C 71.8333,454.5 67.1667,454.5 62.5,454.5C 62.5,453.833 62.1667,453.5 61.5,453.5 Z"/></g>
<g><path style="opacity:1" fill="#ead4a9" d="M 171.5,452.5 C 171.833,452.5 172.167,452.5 172.5,452.5C 182.167,452.5 191.833,452.5 201.5,452.5C 201.833,452.5 202.167,452.5 202.5,452.5C 202.5,457.5 202.5,462.5 202.5,467.5C 192.167,467.5 181.833,467.5 171.5,467.5C 171.5,462.5 171.5,457.5 171.5,452.5 Z"/></g>
<g><path style="opacity:1" fill="#f3d29b" d="M 173.5,454.5 C 181.84,454.334 190.173,454.5 198.5,455C 199,455.5 199.5,456 200,456.5C 200.498,459.817 200.665,463.15 200.5,466.5C 191.167,466.5 181.833,466.5 172.5,466.5C 172.237,462.4 172.57,458.4 173.5,454.5 Z"/></g>
<g><path style="opacity:0.747" fill="#3d131c" d="M 15.5,452.5 C 15.5,457.5 15.5,462.5 15.5,467.5C 20.5,467.5 25.5,467.5 30.5,467.5C 30.8333,467.5 31.1667,467.5 31.5,467.5C 31.5,467.833 31.5,468.167 31.5,468.5C 25.8333,468.5 20.1667,468.5 14.5,468.5C 14.1786,462.974 14.5119,457.64 15.5,452.5 Z"/></g>
<g><path style="opacity:0.729" fill="#ac9d81" d="M 171.5,467.5 C 181.833,467.5 192.167,467.5 202.5,467.5C 202.5,467.833 202.5,468.167 202.5,468.5C 192.085,468.192 181.751,468.525 171.5,469.5C 171.5,469.167 171.5,468.833 171.5,468.5C 171.5,468.167 171.5,467.833 171.5,467.5 Z"/></g>
<g><path style="opacity:0.712" fill="#a9987b" d="M 234.5,452.5 C 234.5,457.5 234.5,462.5 234.5,467.5C 239.5,467.5 244.5,467.5 249.5,467.5C 249.5,467.833 249.5,468.167 249.5,468.5C 244.167,468.5 238.833,468.5 233.5,468.5C 233.179,462.974 233.512,457.64 234.5,452.5 Z"/></g>
<g><path style="opacity:1" fill="#fdf8dd" d="M 390.5,468.5 C 400.833,468.5 411.167,468.5 421.5,468.5C 421.5,473.5 421.5,478.5 421.5,483.5C 411.167,483.5 400.833,483.5 390.5,483.5C 390.5,478.5 390.5,473.5 390.5,468.5 Z"/></g>
<g><path style="opacity:1" fill="#f0d39f" d="M 249.5,468.5 C 254.5,468.5 259.5,468.5 264.5,468.5C 264.5,473.5 264.5,478.5 264.5,483.5C 259.5,483.5 254.5,483.5 249.5,483.5C 249.5,478.5 249.5,473.5 249.5,468.5 Z"/></g>
<g><path style="opacity:0.603" fill="#74624b" d="M 249.5,468.5 C 249.5,468.167 249.5,467.833 249.5,467.5C 254.833,467.5 260.167,467.5 265.5,467.5C 265.5,473.167 265.5,478.833 265.5,484.5C 259.974,484.821 254.64,484.488 249.5,483.5C 254.5,483.5 259.5,483.5 264.5,483.5C 264.5,478.5 264.5,473.5 264.5,468.5C 259.5,468.5 254.5,468.5 249.5,468.5 Z"/></g>
<g><path style="opacity:0.986" fill="#c5b390" d="M 155.5,468.5 C 160.833,468.5 166.167,468.5 171.5,468.5C 171.5,468.833 171.5,469.167 171.5,469.5C 171.5,474.5 171.5,479.5 171.5,484.5C 166.167,484.5 160.833,484.5 155.5,484.5C 155.5,479.167 155.5,473.833 155.5,468.5 Z"/></g>
<g><path style="opacity:1" fill="#f3d29c" d="M 158.5,469.5 C 169.342,467.345 173.342,471.678 170.5,482.5C 165.901,482.8 161.401,482.467 157,481.5C 156.019,477.183 156.519,473.183 158.5,469.5 Z"/></g>
<g><path style="opacity:0.362" fill="#545144" d="M 389.5,468.5 C 389.833,468.5 390.167,468.5 390.5,468.5C 390.5,473.5 390.5,478.5 390.5,483.5C 400.833,483.5 411.167,483.5 421.5,483.5C 411.013,484.494 400.346,484.828 389.5,484.5C 389.5,479.167 389.5,473.833 389.5,468.5 Z"/></g>
</svg>
